<svg width="281" height="19" viewBox="0 0 281 19" fill="none" xmlns="http://www.w3.org/2000/svg">
<path d="M275.087 17.687V6.187L276.26 6.072L276.375 7.107C277.403 6.26367 278.499 5.842 279.664 5.842C280.078 5.842 280.408 5.888 280.653 5.98V7.107C280.255 7.015 279.902 6.969 279.595 6.969C278.507 6.969 277.464 7.36 276.467 8.142V17.687H275.087Z" fill="#013D5B"/>
<path d="M266.923 18.032C265.251 18.032 263.986 17.5183 263.128 16.491C262.284 15.4483 261.863 13.915 261.863 11.891C261.863 9.88233 262.284 8.36433 263.128 7.337C263.986 6.29433 265.251 5.773 266.923 5.773C268.594 5.773 269.851 6.29433 270.695 7.337C271.553 8.36433 271.983 9.88233 271.983 11.891C271.983 13.915 271.553 15.4483 270.695 16.491C269.851 17.5183 268.594 18.032 266.923 18.032ZM266.923 16.928C268.18 16.928 269.092 16.5293 269.66 15.732C270.242 14.9193 270.534 13.639 270.534 11.891C270.534 10.1583 270.242 8.89333 269.66 8.096C269.092 7.28333 268.18 6.877 266.923 6.877C265.665 6.877 264.745 7.28333 264.163 8.096C263.595 8.89333 263.312 10.1583 263.312 11.891C263.312 13.639 263.595 14.9193 264.163 15.732C264.745 16.5293 265.665 16.928 266.923 16.928Z" fill="#013D5B"/>
<path d="M245.845 16.169C246.995 16.675 248.183 16.928 249.41 16.928C251.48 16.928 252.515 16.123 252.515 14.513C252.515 13.9917 252.361 13.57 252.055 13.248C251.763 12.926 251.273 12.6577 250.583 12.443L248.835 11.891C247.853 11.5843 247.14 11.201 246.696 10.741C246.251 10.2657 246.029 9.66767 246.029 8.947C246.029 7.981 246.404 7.21433 247.156 6.647C247.922 6.06433 248.95 5.773 250.238 5.773C251.326 5.773 252.361 5.98 253.343 6.394V7.475C252.315 7.07633 251.303 6.877 250.307 6.877C249.402 6.877 248.689 7.061 248.168 7.429C247.662 7.78167 247.409 8.27233 247.409 8.901C247.409 9.34567 247.547 9.706 247.823 9.982C248.114 10.2427 248.628 10.4957 249.364 10.741L251.181 11.339C252.116 11.6457 252.798 12.052 253.228 12.558C253.672 13.064 253.895 13.708 253.895 14.49C253.895 15.6247 253.511 16.4987 252.745 17.112C251.978 17.7253 250.897 18.032 249.502 18.032C248.214 18.032 247.056 17.7943 246.029 17.319L245.845 16.169Z" fill="#013D5B"/>
<path d="M243.159 17.273C242.101 17.779 240.966 18.032 239.755 18.032C237.992 18.032 236.635 17.5107 235.684 16.468C234.733 15.4253 234.258 13.9303 234.258 11.983C234.258 10.051 234.703 8.533 235.592 7.429C236.481 6.325 237.7 5.773 239.249 5.773C240.614 5.773 241.687 6.20233 242.469 7.061C243.266 7.90433 243.665 9.062 243.665 10.534C243.665 11.086 243.619 11.615 243.527 12.121H235.615C235.63 15.3257 237.049 16.928 239.87 16.928C241.005 16.928 242.101 16.6827 243.159 16.192V17.273ZM239.226 6.854C238.183 6.854 237.332 7.23733 236.673 8.004C236.014 8.77067 235.661 9.798 235.615 11.086H242.331C242.362 10.8407 242.377 10.626 242.377 10.442C242.377 9.30733 242.101 8.42567 241.549 7.797C240.997 7.16833 240.223 6.854 239.226 6.854Z" fill="#013D5B"/>
<path d="M231.434 17.273C230.376 17.779 229.242 18.032 228.03 18.032C226.267 18.032 224.91 17.5107 223.959 16.468C223.009 15.4253 222.533 13.9303 222.533 11.983C222.533 10.051 222.978 8.533 223.867 7.429C224.757 6.325 225.976 5.773 227.524 5.773C228.889 5.773 229.962 6.20233 230.744 7.061C231.542 7.90433 231.94 9.062 231.94 10.534C231.94 11.086 231.894 11.615 231.802 12.121H223.89C223.906 15.3257 225.324 16.928 228.145 16.928C229.28 16.928 230.376 16.6827 231.434 16.192V17.273ZM227.501 6.854C226.459 6.854 225.608 7.23733 224.948 8.004C224.289 8.77067 223.936 9.798 223.89 11.086H230.606C230.637 10.8407 230.652 10.626 230.652 10.442C230.652 9.30733 230.376 8.42567 229.824 7.797C229.272 7.16833 228.498 6.854 227.501 6.854Z" fill="#013D5B"/>
<path d="M216.472 17.687V7.176H214.724V6.187L216.472 6.118V3.519C216.472 2.38433 216.748 1.518 217.3 0.920001C217.867 0.306667 218.688 0 219.761 0C220.344 0 220.934 0.107333 221.532 0.322V1.334C220.98 1.16533 220.451 1.081 219.945 1.081C219.224 1.081 218.695 1.27267 218.358 1.656C218.021 2.024 217.852 2.60667 217.852 3.404V6.118H220.957V7.176H217.852V17.687H216.472Z" fill="#013D5B"/>
<path d="M202.235 18.032C200.564 18.032 199.299 17.5183 198.44 16.491C197.597 15.4483 197.175 13.915 197.175 11.891C197.175 9.88233 197.597 8.36433 198.44 7.337C199.299 6.29433 200.564 5.773 202.235 5.773C203.906 5.773 205.164 6.29433 206.007 7.337C206.866 8.36433 207.295 9.88233 207.295 11.891C207.295 13.915 206.866 15.4483 206.007 16.491C205.164 17.5183 203.906 18.032 202.235 18.032ZM202.235 16.928C203.492 16.928 204.405 16.5293 204.972 15.732C205.555 14.9193 205.846 13.639 205.846 11.891C205.846 10.1583 205.555 8.89333 204.972 8.096C204.405 7.28333 203.492 6.877 202.235 6.877C200.978 6.877 200.058 7.28333 199.475 8.096C198.908 8.89333 198.624 10.1583 198.624 11.891C198.624 13.639 198.908 14.9193 199.475 15.732C200.058 16.5293 200.978 16.928 202.235 16.928Z" fill="#013D5B"/>
<path d="M192.859 17.687V9.706C192.859 7.82 191.9 6.877 189.984 6.877C189.478 6.877 188.918 6.96133 188.305 7.13C187.707 7.29867 187.116 7.52867 186.534 7.82V17.687H185.154V6.187L186.327 6.072L186.419 6.877C187.753 6.141 189.056 5.773 190.329 5.773C191.571 5.773 192.529 6.095 193.204 6.739C193.894 7.383 194.239 8.29533 194.239 9.476V17.687H192.859Z" fill="#013D5B"/>
<path d="M171.498 17.687V6.187L172.671 6.072L172.786 7.107C173.813 6.26367 174.909 5.842 176.075 5.842C176.489 5.842 176.818 5.888 177.064 5.98V7.107C176.665 7.015 176.312 6.969 176.006 6.969C174.917 6.969 173.874 7.36 172.878 8.142V17.687H171.498Z" fill="#013D5B"/>
<path d="M163.333 18.032C161.661 18.032 160.396 17.5183 159.538 16.491C158.694 15.4483 158.273 13.915 158.273 11.891C158.273 9.88233 158.694 8.36433 159.538 7.337C160.396 6.29433 161.661 5.773 163.333 5.773C165.004 5.773 166.261 6.29433 167.105 7.337C167.963 8.36433 168.393 9.88233 168.393 11.891C168.393 13.915 167.963 15.4483 167.105 16.491C166.261 17.5183 165.004 18.032 163.333 18.032ZM163.333 16.928C164.59 16.928 165.502 16.5293 166.07 15.732C166.652 14.9193 166.944 13.639 166.944 11.891C166.944 10.1583 166.652 8.89333 166.07 8.096C165.502 7.28333 164.59 6.877 163.333 6.877C162.075 6.877 161.155 7.28333 160.573 8.096C160.005 8.89333 159.722 10.1583 159.722 11.891C159.722 13.639 160.005 14.9193 160.573 15.732C161.155 16.5293 162.075 16.928 163.333 16.928Z" fill="#013D5B"/>
<path d="M152.211 17.687V7.176H150.463V6.187L152.211 6.118V3.519C152.211 2.38433 152.487 1.518 153.039 0.920001C153.606 0.306667 154.427 0 155.5 0C156.083 0 156.673 0.107333 157.271 0.322V1.334C156.719 1.16533 156.19 1.081 155.684 1.081C154.963 1.081 154.434 1.27267 154.097 1.656C153.76 2.024 153.591 2.60667 153.591 3.404V6.118H156.696V7.176H153.591V17.687H152.211Z" fill="#013D5B"/>
<path d="M141.064 17.687V9.706C141.064 7.82 140.106 6.877 138.189 6.877C137.683 6.877 137.123 6.96133 136.51 7.13C135.912 7.29867 135.322 7.52867 134.739 7.82V17.687H133.359V6.187L134.532 6.072L134.624 6.877C135.958 6.141 137.261 5.773 138.534 5.773C139.776 5.773 140.734 6.095 141.409 6.739C142.099 7.383 142.444 8.29533 142.444 9.476V17.687H141.064Z" fill="#013D5B"/>
<path d="M125.194 18.032C123.523 18.032 122.258 17.5183 121.399 16.491C120.556 15.4483 120.134 13.915 120.134 11.891C120.134 9.88233 120.556 8.36433 121.399 7.337C122.258 6.29433 123.523 5.773 125.194 5.773C126.865 5.773 128.123 6.29433 128.966 7.337C129.825 8.36433 130.254 9.88233 130.254 11.891C130.254 13.915 129.825 15.4483 128.966 16.491C128.123 17.5183 126.865 18.032 125.194 18.032ZM125.194 16.928C126.451 16.928 127.364 16.5293 127.931 15.732C128.514 14.9193 128.805 13.639 128.805 11.891C128.805 10.1583 128.514 8.89333 127.931 8.096C127.364 7.28333 126.451 6.877 125.194 6.877C123.937 6.877 123.017 7.28333 122.434 8.096C121.867 8.89333 121.583 10.1583 121.583 11.891C121.583 13.639 121.867 14.9193 122.434 15.732C123.017 16.5293 123.937 16.928 125.194 16.928Z" fill="#013D5B"/>
<path d="M109.866 16.169C111.016 16.675 112.204 16.928 113.431 16.928C115.501 16.928 116.536 16.123 116.536 14.513C116.536 13.9917 116.383 13.57 116.076 13.248C115.785 12.926 115.294 12.6577 114.604 12.443L112.856 11.891C111.875 11.5843 111.162 11.201 110.717 10.741C110.272 10.2657 110.05 9.66767 110.05 8.947C110.05 7.981 110.426 7.21433 111.177 6.647C111.944 6.06433 112.971 5.773 114.259 5.773C115.348 5.773 116.383 5.98 117.364 6.394V7.475C116.337 7.07633 115.325 6.877 114.328 6.877C113.423 6.877 112.71 7.061 112.189 7.429C111.683 7.78167 111.43 8.27233 111.43 8.901C111.43 9.34567 111.568 9.706 111.844 9.982C112.135 10.2427 112.649 10.4957 113.385 10.741L115.202 11.339C116.137 11.6457 116.82 12.052 117.249 12.558C117.694 13.064 117.916 13.708 117.916 14.49C117.916 15.6247 117.533 16.4987 116.766 17.112C115.999 17.7253 114.918 18.032 113.523 18.032C112.235 18.032 111.077 17.7943 110.05 17.319L109.866 16.169Z" fill="#013D5B"/>
<path d="M105.898 17.733L105.806 16.928C104.487 17.664 103.184 18.032 101.896 18.032C100.715 18.032 99.7799 17.7253 99.0899 17.112C98.3999 16.4833 98.0549 15.6247 98.0549 14.536C98.0549 13.386 98.4383 12.512 99.2049 11.914C99.9869 11.3007 101.129 10.994 102.632 10.994C103.537 10.994 104.564 11.1013 105.714 11.316V9.752C105.714 7.83533 104.633 6.877 102.471 6.877C101.904 6.877 101.283 6.95367 100.608 7.107C99.9333 7.26033 99.3123 7.45967 98.7449 7.705V6.624C99.2969 6.36333 99.9256 6.15633 100.631 6.003C101.352 5.84967 102.034 5.773 102.678 5.773C104.119 5.773 105.208 6.118 105.944 6.808C106.695 7.48267 107.071 8.464 107.071 9.752V17.618L105.898 17.733ZM102.218 16.928C102.77 16.928 103.353 16.8437 103.966 16.675C104.579 16.5063 105.162 16.2763 105.714 15.985V12.305C104.748 12.121 103.797 12.029 102.862 12.029C101.681 12.029 100.823 12.2283 100.286 12.627C99.7493 13.0257 99.4809 13.6543 99.4809 14.513C99.4809 16.123 100.393 16.928 102.218 16.928Z" fill="#013D5B"/>
<path d="M95.2313 17.273C94.1733 17.779 93.0387 18.032 91.8273 18.032C90.064 18.032 88.707 17.5107 87.7563 16.468C86.8057 15.4253 86.3303 13.9303 86.3303 11.983C86.3303 10.051 86.775 8.533 87.6643 7.429C88.5537 6.325 89.7727 5.773 91.3213 5.773C92.686 5.773 93.7593 6.20233 94.5413 7.061C95.3387 7.90433 95.7373 9.062 95.7373 10.534C95.7373 11.086 95.6913 11.615 95.5993 12.121H87.6873C87.7027 15.3257 89.121 16.928 91.9423 16.928C93.077 16.928 94.1733 16.6827 95.2313 16.192V17.273ZM91.2983 6.854C90.2557 6.854 89.4047 7.23733 88.7453 8.004C88.086 8.77067 87.7333 9.798 87.6873 11.086H94.4033C94.434 10.8407 94.4493 10.626 94.4493 10.442C94.4493 9.30733 94.1733 8.42567 93.6213 7.797C93.0693 7.16833 92.295 6.854 91.2983 6.854Z" fill="#013D5B"/>
<path d="M76.0624 16.169C77.2124 16.675 78.4008 16.928 79.6274 16.928C81.6974 16.928 82.7324 16.123 82.7324 14.513C82.7324 13.9917 82.5791 13.57 82.2724 13.248C81.9811 12.926 81.4904 12.6577 80.8004 12.443L79.0524 11.891C78.0711 11.5843 77.3581 11.201 76.9134 10.741C76.4688 10.2657 76.2464 9.66767 76.2464 8.947C76.2464 7.981 76.6221 7.21433 77.3734 6.647C78.1401 6.06433 79.1674 5.773 80.4554 5.773C81.5441 5.773 82.5791 5.98 83.5604 6.394V7.475C82.5331 7.07633 81.5211 6.877 80.5244 6.877C79.6198 6.877 78.9068 7.061 78.3854 7.429C77.8794 7.78167 77.6264 8.27233 77.6264 8.901C77.6264 9.34567 77.7644 9.706 78.0404 9.982C78.3318 10.2427 78.8454 10.4957 79.5814 10.741L81.3984 11.339C82.3338 11.6457 83.0161 12.052 83.4454 12.558C83.8901 13.064 84.1124 13.708 84.1124 14.49C84.1124 15.6247 83.7291 16.4987 82.9624 17.112C82.1958 17.7253 81.1148 18.032 79.7194 18.032C78.4314 18.032 77.2738 17.7943 76.2464 17.319L76.0624 16.169Z" fill="#013D5B"/>
<path d="M67.6268 17.273C66.5688 17.779 65.4342 18.032 64.2228 18.032C62.4595 18.032 61.1025 17.5107 60.1518 16.468C59.2012 15.4253 58.7258 13.9303 58.7258 11.983C58.7258 10.051 59.1705 8.533 60.0598 7.429C60.9492 6.325 62.1682 5.773 63.7168 5.773C65.0815 5.773 66.1548 6.20233 66.9368 7.061C67.7342 7.90433 68.1328 9.062 68.1328 10.534C68.1328 11.086 68.0868 11.615 67.9948 12.121H60.0828C60.0982 15.3257 61.5165 16.928 64.3378 16.928C65.4725 16.928 66.5688 16.6827 67.6268 16.192V17.273ZM63.6938 6.854C62.6512 6.854 61.8002 7.23733 61.1408 8.004C60.4815 8.77067 60.1288 9.798 60.0828 11.086H66.7988C66.8295 10.8407 66.8448 10.626 66.8448 10.442C66.8448 9.30733 66.5688 8.42567 66.0168 7.797C65.4648 7.16833 64.6905 6.854 63.6938 6.854Z" fill="#013D5B"/>
<path d="M46.7046 17.687V0.414L48.0846 0.23V6.831C49.3726 6.12567 50.6376 5.773 51.8796 5.773C53.1216 5.773 54.0799 6.095 54.7546 6.739C55.4446 7.383 55.7896 8.29533 55.7896 9.476V17.687H54.4096V9.706C54.4096 7.82 53.4512 6.877 51.5346 6.877C51.0286 6.877 50.4689 6.96133 49.8556 7.13C49.2576 7.29867 48.6672 7.52867 48.0846 7.82V17.687H46.7046Z" fill="#013D5B"/>
<path d="M40.68 7.176V14.536C40.68 15.3333 40.8487 15.9237 41.186 16.307C41.5233 16.675 42.0447 16.859 42.75 16.859C43.21 16.859 43.7313 16.7747 44.314 16.606V17.618C43.67 17.8327 43.0797 17.94 42.543 17.94C41.485 17.94 40.68 17.6563 40.128 17.089C39.576 16.5063 39.3 15.6477 39.3 14.513V7.176H37.552V6.187L39.346 6.118L39.484 3.22L40.68 3.082V6.118H44.153V7.176H40.68Z" fill="#013D5B"/>
<path d="M22.2011 16.169C23.3511 16.675 24.5394 16.928 25.7661 16.928C27.8361 16.928 28.8711 16.123 28.8711 14.513C28.8711 13.9917 28.7178 13.57 28.4111 13.248C28.1198 12.926 27.6291 12.6577 26.9391 12.443L25.1911 11.891C24.2098 11.5843 23.4968 11.201 23.0521 10.741C22.6074 10.2657 22.3851 9.66767 22.3851 8.947C22.3851 7.981 22.7608 7.21433 23.5121 6.647C24.2788 6.06433 25.3061 5.773 26.5941 5.773C27.6828 5.773 28.7178 5.98 29.6991 6.394V7.475C28.6718 7.07633 27.6598 6.877 26.6631 6.877C25.7584 6.877 25.0454 7.061 24.5241 7.429C24.0181 7.78167 23.7651 8.27233 23.7651 8.901C23.7651 9.34567 23.9031 9.706 24.1791 9.982C24.4704 10.2427 24.9841 10.4957 25.7201 10.741L27.5371 11.339C28.4724 11.6457 29.1548 12.052 29.5841 12.558C30.0288 13.064 30.2511 13.708 30.2511 14.49C30.2511 15.6247 29.8678 16.4987 29.1011 17.112C28.3344 17.7253 27.2534 18.032 25.8581 18.032C24.5701 18.032 23.4124 17.7943 22.3851 17.319L22.2011 16.169Z" fill="#013D5B"/>
<path d="M17.8647 17.687V6.233L19.2447 6.049V17.687H17.8647ZM18.5547 3.312C18.248 3.312 17.995 3.22 17.7957 3.036C17.6117 2.852 17.5197 2.599 17.5197 2.277C17.5197 1.955 17.6117 1.702 17.7957 1.518C17.995 1.334 18.248 1.242 18.5547 1.242C18.8614 1.242 19.1067 1.334 19.2907 1.518C19.49 1.702 19.5897 1.955 19.5897 2.277C19.5897 2.599 19.49 2.852 19.2907 3.036C19.1067 3.22 18.8614 3.312 18.5547 3.312Z" fill="#013D5B"/>
<path d="M9.2938 17.687V2.76H4.4408V1.587H15.5958V2.76H10.7428V17.687H9.2938Z" fill="#013D5B"/>
<path d="M0 6.578C0.414 6.04133 0.743667 5.48167 0.989 4.899C1.24967 4.301 1.38767 3.74133 1.403 3.22C1.173 3.15867 0.996667 3.04367 0.874 2.875C0.751333 2.691 0.69 2.46867 0.69 2.208C0.69 1.886 0.789667 1.633 0.989 1.449C1.18833 1.24967 1.44133 1.15 1.748 1.15C2.08533 1.15 2.346 1.27267 2.53 1.518C2.714 1.748 2.806 2.07 2.806 2.484C2.806 3.15867 2.58367 3.91767 2.139 4.761C1.70967 5.589 1.16533 6.302 0.506 6.9L0 6.578Z" fill="#013D5B"/>
</svg>
