<svg width="112" height="12" viewBox="0 0 112 12" fill="none" xmlns="http://www.w3.org/2000/svg">
<path d="M111.218 9.12766V4.69787C111.218 3.65106 110.675 3.12766 109.589 3.12766C109.302 3.12766 108.985 3.17447 108.637 3.26808C108.298 3.3617 107.964 3.48936 107.634 3.65106V9.12766H106.852V2.74468L107.516 2.68085L107.568 3.12766C108.324 2.71915 109.063 2.51489 109.784 2.51489C110.488 2.51489 111.031 2.69362 111.413 3.05106C111.804 3.40851 112 3.91489 112 4.57021V9.12766H111.218Z" fill="#013D5B"/>
<path d="M103.886 9.12766V2.77021L104.668 2.66809V9.12766H103.886ZM104.277 1.14894C104.103 1.14894 103.96 1.09787 103.847 0.995745C103.742 0.893618 103.69 0.753192 103.69 0.574469C103.69 0.395745 103.742 0.25532 103.847 0.153192C103.96 0.0510642 104.103 0 104.277 0C104.451 0 104.59 0.0510642 104.694 0.153192C104.807 0.25532 104.863 0.395745 104.863 0.574469C104.863 0.753192 104.807 0.893618 104.694 0.995745C104.59 1.09787 104.451 1.14894 104.277 1.14894Z" fill="#013D5B"/>
<path d="M93.7583 11.3362C94.3752 11.2255 94.8575 11.0127 95.2051 10.6979C95.5526 10.383 95.8742 9.88083 96.1696 9.19147L93.6671 2.70636H94.4882L96.5345 8.33615L98.6461 2.70636H99.4281L96.9256 9.06381C96.691 9.67658 96.4433 10.1744 96.1826 10.5574C95.9306 10.9489 95.6309 11.2553 95.2833 11.4766C94.9357 11.7064 94.4839 11.8808 93.9277 12L93.7583 11.3362Z" fill="#013D5B"/>
<path d="M92.6274 8.89787C92.0279 9.17872 91.3848 9.31915 90.6984 9.31915C89.6991 9.31915 88.9301 9.02979 88.3914 8.45106C87.8526 7.87234 87.5833 7.04255 87.5833 5.9617C87.5833 4.88936 87.8352 4.04681 88.3392 3.43404C88.8432 2.82128 89.534 2.51489 90.4116 2.51489C91.185 2.51489 91.7932 2.75319 92.2364 3.22979C92.6882 3.69787 92.9142 4.34043 92.9142 5.15745C92.9142 5.46383 92.8881 5.75745 92.836 6.0383H88.3523C88.3609 7.81702 89.1647 8.70638 90.7636 8.70638C91.4066 8.70638 92.0279 8.57021 92.6274 8.29787V8.89787ZM90.3986 3.11489C89.8077 3.11489 89.3255 3.32766 88.9518 3.75319C88.5782 4.17872 88.3783 4.74894 88.3523 5.46383H92.1582C92.1756 5.32766 92.1843 5.20851 92.1843 5.10638C92.1843 4.4766 92.0279 3.98723 91.715 3.6383C91.4022 3.28936 90.9634 3.11489 90.3986 3.11489Z" fill="#013D5B"/>
<path d="M85.1371 9.12766V4.69787C85.1371 3.65106 84.5941 3.12766 83.5079 3.12766C83.2211 3.12766 82.904 3.17447 82.5564 3.26808C82.2175 3.3617 81.883 3.48936 81.5528 3.65106V9.12766H80.7708V2.74468L81.4355 2.68085L81.4876 3.12766C82.2436 2.71915 82.9822 2.51489 83.7034 2.51489C84.4072 2.51489 84.9503 2.69362 85.3327 3.05106C85.7237 3.40851 85.9192 3.91489 85.9192 4.57021V9.12766H85.1371Z" fill="#013D5B"/>
<path d="M76.1439 9.31915C75.1967 9.31915 74.4798 9.03404 73.9932 8.46383C73.5153 7.88511 73.2764 7.03404 73.2764 5.91064C73.2764 4.79574 73.5153 3.95319 73.9932 3.38298C74.4798 2.80425 75.1967 2.51489 76.1439 2.51489C77.091 2.51489 77.8035 2.80425 78.2814 3.38298C78.768 3.95319 79.0113 4.79574 79.0113 5.91064C79.0113 7.03404 78.768 7.88511 78.2814 8.46383C77.8035 9.03404 77.091 9.31915 76.1439 9.31915ZM76.1439 8.70638C76.8564 8.70638 77.3734 8.48511 77.6949 8.04255C78.0251 7.59149 78.1902 6.88085 78.1902 5.91064C78.1902 4.94894 78.0251 4.24681 77.6949 3.80425C77.3734 3.35319 76.8564 3.12766 76.1439 3.12766C75.4313 3.12766 74.91 3.35319 74.5798 3.80425C74.2583 4.24681 74.0975 4.94894 74.0975 5.91064C74.0975 6.88085 74.2583 7.59149 74.5798 8.04255C74.91 8.48511 75.4313 8.70638 76.1439 8.70638Z" fill="#013D5B"/>
<path d="M70.8227 9.12766V4.57021C70.8227 3.60851 70.3579 3.12766 69.4281 3.12766C68.8894 3.12766 68.2724 3.31915 67.5773 3.70213C67.6468 3.93191 67.6815 4.17872 67.6815 4.44255V9.12766H66.8995V4.57021C66.8995 3.60851 66.4346 3.12766 65.5049 3.12766C64.9835 3.12766 64.4013 3.30213 63.7583 3.65106V9.12766H62.9763V2.74468L63.641 2.68085L63.6931 3.12766C64.4317 2.71915 65.1008 2.51489 65.7004 2.51489C66.465 2.51489 67.0168 2.7617 67.3557 3.25532C68.1986 2.7617 68.9545 2.51489 69.6236 2.51489C70.2579 2.51489 70.7445 2.68085 71.0834 3.01277C71.431 3.34468 71.6048 3.82128 71.6048 4.44255V9.12766H70.8227Z" fill="#013D5B"/>
<path d="M57.6875 8.89787C57.088 9.17872 56.445 9.31915 55.7585 9.31915C54.7592 9.31915 53.9902 9.02979 53.4515 8.45106C52.9127 7.87234 52.6434 7.04255 52.6434 5.9617C52.6434 4.88936 52.8954 4.04681 53.3993 3.43404C53.9033 2.82128 54.5941 2.51489 55.4718 2.51489C56.2451 2.51489 56.8534 2.75319 57.2965 3.22979C57.7484 3.69787 57.9743 4.34043 57.9743 5.15745C57.9743 5.46383 57.9482 5.75745 57.8961 6.0383H53.4124C53.4211 7.81702 54.2248 8.70638 55.8237 8.70638C56.4667 8.70638 57.088 8.57021 57.6875 8.29787V8.89787ZM55.4587 3.11489C54.8678 3.11489 54.3856 3.32766 54.0119 3.75319C53.6383 4.17872 53.4384 4.74894 53.4124 5.46383H57.2183C57.2357 5.32766 57.2444 5.20851 57.2444 5.10638C57.2444 4.4766 57.088 3.98723 56.7752 3.6383C56.4623 3.28936 56.0235 3.11489 55.4587 3.11489Z" fill="#013D5B"/>
<path d="M48.7203 9.12766V2.74468L49.385 2.68085L49.4502 3.25532C50.0324 2.78723 50.6537 2.55319 51.314 2.55319C51.5487 2.55319 51.7355 2.57872 51.8745 2.62979V3.25532C51.6486 3.20426 51.4487 3.17872 51.2749 3.17872C50.658 3.17872 50.0671 3.39575 49.5023 3.82979V9.12766H48.7203Z" fill="#013D5B"/>
<path d="M44.0933 9.31915C43.1462 9.31915 42.4293 9.03404 41.9427 8.46383C41.4648 7.88511 41.2258 7.03404 41.2258 5.91064C41.2258 4.79574 41.4648 3.95319 41.9427 3.38298C42.4293 2.80425 43.1462 2.51489 44.0933 2.51489C45.0405 2.51489 45.753 2.80425 46.2309 3.38298C46.7175 3.95319 46.9608 4.79574 46.9608 5.91064C46.9608 7.03404 46.7175 7.88511 46.2309 8.46383C45.753 9.03404 45.0405 9.31915 44.0933 9.31915ZM44.0933 8.70638C44.8058 8.70638 45.3229 8.48511 45.6444 8.04255C45.9746 7.59149 46.1397 6.88085 46.1397 5.91064C46.1397 4.94894 45.9746 4.24681 45.6444 3.80425C45.3229 3.35319 44.8058 3.12766 44.0933 3.12766C43.3808 3.12766 42.8594 3.35319 42.5292 3.80425C42.2077 4.24681 42.047 4.94894 42.047 5.91064C42.047 6.88085 42.2077 7.59149 42.5292 8.04255C42.8594 8.48511 43.3808 8.70638 44.0933 8.70638Z" fill="#013D5B"/>
<path d="M38.7723 9.12766V4.57021C38.7723 3.60851 38.3074 3.12766 37.3777 3.12766C36.8389 3.12766 36.222 3.31915 35.5268 3.70213C35.5963 3.93191 35.6311 4.17872 35.6311 4.44255V9.12766H34.8491V4.57021C34.8491 3.60851 34.3842 3.12766 33.4544 3.12766C32.9331 3.12766 32.3509 3.30213 31.7079 3.65106V9.12766H30.9258V2.74468L31.5905 2.68085L31.6427 3.12766C32.3813 2.71915 33.0504 2.51489 33.6499 2.51489C34.4146 2.51489 34.9664 2.7617 35.3052 3.25532C36.1481 2.7617 36.9041 2.51489 37.5732 2.51489C38.2075 2.51489 38.6941 2.68085 39.033 3.01277C39.3806 3.34468 39.5543 3.82128 39.5543 4.44255V9.12766H38.7723Z" fill="#013D5B"/>
<path d="M20.4247 11.9745V2.74468L21.0895 2.68085L21.1416 3.12766C21.8802 2.71915 22.558 2.51489 23.1749 2.51489C24.0265 2.51489 24.6956 2.80851 25.1822 3.39574C25.6688 3.97447 25.9121 4.77872 25.9121 5.80851C25.9121 6.94043 25.634 7.80851 25.0779 8.41277C24.5305 9.01702 23.7354 9.31915 22.6927 9.31915C22.1539 9.31915 21.6586 9.25107 21.2068 9.1149V11.8723L20.4247 11.9745ZM23.0707 3.12766C22.7839 3.12766 22.4754 3.17447 22.1452 3.26808C21.815 3.3617 21.5022 3.48936 21.2068 3.65106V8.50213C21.6586 8.6383 22.1322 8.70638 22.6275 8.70638C23.4617 8.70638 24.0786 8.47234 24.4783 8.00426C24.8867 7.52766 25.0909 6.8 25.0909 5.82128C25.0909 4.94468 24.9171 4.2766 24.5696 3.81702C24.2307 3.35745 23.731 3.12766 23.0707 3.12766Z" fill="#013D5B"/>
<path d="M18.3945 8.89787C17.7949 9.17872 17.1519 9.31915 16.4654 9.31915C15.4662 9.31915 14.6972 9.02979 14.1584 8.45106C13.6197 7.87234 13.3503 7.04255 13.3503 5.9617C13.3503 4.88936 13.6023 4.04681 14.1063 3.43404C14.6103 2.82128 15.3011 2.51489 16.1787 2.51489C16.952 2.51489 17.5603 2.75319 18.0035 3.22979C18.4553 3.69787 18.6812 4.34043 18.6812 5.15745C18.6812 5.46383 18.6552 5.75745 18.603 6.0383H14.1193C14.128 7.81702 14.9318 8.70638 16.5306 8.70638C17.1736 8.70638 17.7949 8.57021 18.3945 8.29787V8.89787ZM16.1657 3.11489C15.5748 3.11489 15.0925 3.32766 14.7189 3.75319C14.3452 4.17872 14.1454 4.74894 14.1193 5.46383H17.9253C17.9426 5.32766 17.9513 5.20851 17.9513 5.10638C17.9513 4.4766 17.7949 3.98723 17.4821 3.6383C17.1693 3.28936 16.7305 3.11489 16.1657 3.11489Z" fill="#013D5B"/>
<path d="M11.7502 8.89787C11.1506 9.17872 10.5076 9.31915 9.82116 9.31915C8.82188 9.31915 8.05287 9.02979 7.51413 8.45106C6.97539 7.87234 6.70602 7.04255 6.70602 5.9617C6.70602 4.88936 6.95802 4.04681 7.462 3.43404C7.96598 2.82128 8.65678 2.51489 9.53441 2.51489C10.3078 2.51489 10.916 2.75319 11.3592 3.22979C11.811 3.69787 12.0369 4.34043 12.0369 5.15745C12.0369 5.46383 12.0109 5.75745 11.9587 6.0383H7.47503C7.48372 7.81702 8.28749 8.70638 9.88633 8.70638C10.5293 8.70638 11.1506 8.57021 11.7502 8.29787V8.89787ZM9.52138 3.11489C8.9305 3.11489 8.44824 3.32766 8.0746 3.75319C7.70096 4.17872 7.5011 4.74894 7.47503 5.46383H11.281C11.2983 5.32766 11.307 5.20851 11.307 5.10638C11.307 4.4766 11.1506 3.98723 10.8378 3.6383C10.525 3.28936 10.0862 3.11489 9.52138 3.11489Z" fill="#013D5B"/>
<path d="M0 9.12767V0.191498H0.821144V4.16171L5.17451 0.191498H6.2042L1.51195 4.4298L6.2433 9.12767H5.17451L0.821144 4.74895V9.12767H0Z" fill="#013D5B"/>
</svg>
