<svg width="131" height="13" viewBox="0 0 131 13" fill="none" xmlns="http://www.w3.org/2000/svg">
<path d="M126.448 9.19714C127.099 9.48487 127.771 9.62873 128.464 9.62873C129.635 9.62873 130.22 9.17099 130.22 8.25549C130.22 7.95905 130.133 7.71928 129.96 7.53618C129.795 7.35308 129.518 7.2005 129.127 7.07843L128.139 6.76455C127.584 6.59017 127.181 6.37219 126.93 6.11062C126.678 5.84034 126.553 5.5003 126.553 5.0905C126.553 4.54121 126.765 4.10526 127.19 3.78266C127.623 3.45134 128.204 3.28568 128.932 3.28568C129.548 3.28568 130.133 3.40338 130.688 3.63879V4.25348C130.107 4.02679 129.535 3.91344 128.971 3.91344C128.46 3.91344 128.057 4.01807 127.762 4.22732C127.476 4.42786 127.333 4.70687 127.333 5.06435C127.333 5.3172 127.411 5.52209 127.567 5.67904C127.732 5.82726 128.022 5.97112 128.438 6.11062L129.466 6.45066C129.994 6.62504 130.38 6.8561 130.623 7.14382C130.874 7.43155 131 7.79775 131 8.24241C131 8.88762 130.783 9.3846 130.35 9.73336C129.916 10.0821 129.305 10.2565 128.516 10.2565C127.788 10.2565 127.133 10.1214 126.553 9.85107L126.448 9.19714Z" fill="#013D5B"/>
<path d="M124.93 9.82491C124.332 10.1126 123.69 10.2565 123.005 10.2565C122.008 10.2565 121.241 9.96006 120.704 9.36716C120.166 8.77427 119.897 7.92417 119.897 6.81686C119.897 5.71827 120.149 4.85509 120.652 4.22732C121.154 3.59956 121.844 3.28568 122.719 3.28568C123.491 3.28568 124.098 3.52981 124.54 4.01807C124.991 4.49761 125.216 5.15589 125.216 5.99292C125.216 6.3068 125.19 6.60761 125.138 6.89533H120.665C120.673 8.7176 121.475 9.62873 123.07 9.62873C123.712 9.62873 124.332 9.48923 124.93 9.21022V9.82491ZM122.706 3.90036C122.117 3.90036 121.636 4.11834 121.263 4.55429C120.89 4.99024 120.691 5.57441 120.665 6.3068H124.462C124.479 6.1673 124.488 6.04523 124.488 5.9406C124.488 5.2954 124.332 4.79406 124.02 4.43658C123.708 4.0791 123.27 3.90036 122.706 3.90036Z" fill="#013D5B"/>
<path d="M118.301 9.82491C117.703 10.1126 117.061 10.2565 116.376 10.2565C115.379 10.2565 114.612 9.96006 114.074 9.36716C113.537 8.77427 113.268 7.92417 113.268 6.81686C113.268 5.71827 113.52 4.85509 114.022 4.22732C114.525 3.59956 115.214 3.28568 116.09 3.28568C116.862 3.28568 117.469 3.52981 117.911 4.01807C118.362 4.49761 118.587 5.15589 118.587 5.99292C118.587 6.3068 118.561 6.60761 118.509 6.89533H114.035C114.044 8.7176 114.846 9.62873 116.441 9.62873C117.083 9.62873 117.703 9.48923 118.301 9.21022V9.82491ZM116.077 3.90036C115.488 3.90036 115.006 4.11834 114.634 4.55429C114.261 4.99024 114.061 5.57441 114.035 6.3068H117.833C117.85 6.1673 117.859 6.04523 117.859 5.9406C117.859 5.2954 117.703 4.79406 117.391 4.43658C117.078 4.0791 116.641 3.90036 116.077 3.90036Z" fill="#013D5B"/>
<path d="M109.841 10.0603V4.08348H108.853V3.5211L109.841 3.48187V2.004C109.841 1.35879 109.997 0.86617 110.309 0.52613C110.63 0.177371 111.094 0.00299072 111.701 0.00299072C112.03 0.00299072 112.364 0.0640247 112.702 0.18609V0.761544C112.39 0.665635 112.091 0.617679 111.805 0.617679C111.397 0.617679 111.098 0.726667 110.907 0.944642C110.716 1.1539 110.621 1.48522 110.621 1.93861V3.48187H112.377V4.08348H110.621V10.0603H109.841Z" fill="#013D5B"/>
<path d="M101.791 10.2565C100.846 10.2565 100.131 9.96441 99.6455 9.38024C99.1687 8.78735 98.9303 7.91545 98.9303 6.76455C98.9303 5.62236 99.1687 4.75918 99.6455 4.17501C100.131 3.58212 100.846 3.28568 101.791 3.28568C102.736 3.28568 103.447 3.58212 103.924 4.17501C104.409 4.75918 104.652 5.62236 104.652 6.76455C104.652 7.91545 104.409 8.78735 103.924 9.38024C103.447 9.96441 102.736 10.2565 101.791 10.2565ZM101.791 9.62873C102.502 9.62873 103.018 9.40204 103.339 8.94865C103.668 8.48655 103.833 7.75851 103.833 6.76455C103.833 5.7793 103.668 5.05999 103.339 4.6066C103.018 4.14449 102.502 3.91344 101.791 3.91344C101.08 3.91344 100.56 4.14449 100.231 4.6066C99.91 5.05999 99.7496 5.7793 99.7496 6.76455C99.7496 7.75851 99.91 8.48655 100.231 8.94865C100.56 9.40204 101.08 9.62873 101.791 9.62873Z" fill="#013D5B"/>
<path d="M96.4898 10.0603V5.52209C96.4898 4.44966 95.9479 3.91344 94.8642 3.91344C94.5781 3.91344 94.2617 3.96139 93.9149 4.0573C93.5768 4.15321 93.243 4.284 92.9136 4.44966V10.0603H92.1333V3.52109L92.7965 3.45569L92.8485 3.91344C93.6028 3.49493 94.3397 3.28568 95.0593 3.28568C95.7615 3.28568 96.3034 3.46877 96.6848 3.83497C97.075 4.20117 97.27 4.71995 97.27 5.39131V10.0603H96.4898Z" fill="#013D5B"/>
<path d="M81.6561 10.0603V0.238417L82.4364 0.133789V3.88731C83.1646 3.48624 83.8799 3.2857 84.5821 3.2857C85.2843 3.2857 85.8262 3.4688 86.2077 3.835C86.5978 4.20119 86.7929 4.71997 86.7929 5.39133V10.0603H86.0126V5.52212C86.0126 4.44969 85.4707 3.91347 84.387 3.91347C84.1009 3.91347 83.7845 3.96142 83.4377 4.05733C83.0996 4.15324 82.7658 4.28403 82.4364 4.44969V10.0603H81.6561Z" fill="#013D5B"/>
<path d="M78.2499 4.08349V8.2686C78.2499 8.72199 78.3452 9.05767 78.5359 9.27565C78.7267 9.4849 79.0214 9.58953 79.4202 9.58953C79.6803 9.58953 79.9751 9.54157 80.3046 9.44567V10.0211C79.9404 10.1432 79.6066 10.2042 79.3032 10.2042C78.705 10.2042 78.2499 10.0429 77.9377 9.72031C77.6256 9.38899 77.4696 8.90073 77.4696 8.25552V4.08349H76.4813V3.52112L77.4956 3.48188L77.5736 1.834L78.2499 1.75552V3.48188H80.2135V4.08349H78.2499Z" fill="#013D5B"/>
<path d="M74.3284 10.0603V3.54726L75.1084 3.44263V10.0603H74.3284ZM74.7184 1.88629C74.5451 1.88629 74.4021 1.83398 74.2894 1.72935C74.1854 1.62472 74.1334 1.48086 74.1334 1.29776C74.1334 1.11466 74.1854 0.970798 74.2894 0.86617C74.4021 0.761542 74.5451 0.709229 74.7184 0.709229C74.8918 0.709229 75.0304 0.761542 75.1344 0.86617C75.2471 0.970798 75.3034 1.11466 75.3034 1.29776C75.3034 1.48086 75.2471 1.62472 75.1344 1.72935C75.0304 1.83398 74.8918 1.88629 74.7184 1.88629Z" fill="#013D5B"/>
<path d="M70.3388 10.0603L68.5832 4.35813L66.8796 10.0603H66.1384L64.0577 3.48187H64.8509L66.5155 9.09254L68.1541 3.48187H69.0254L70.6899 9.13177L72.3415 3.48187H73.0957L71.0801 10.0603H70.3388Z" fill="#013D5B"/>
<path d="M58.3496 4.08349V8.2686C58.3496 8.72199 58.445 9.05767 58.6357 9.27565C58.8264 9.4849 59.1212 9.58953 59.52 9.58953C59.7801 9.58953 60.0748 9.54157 60.4043 9.44567V10.0211C60.0402 10.1432 59.7064 10.2042 59.4029 10.2042C58.8047 10.2042 58.3496 10.0429 58.0375 9.72031C57.7254 9.38899 57.5693 8.90073 57.5693 8.25552V4.08349H56.581V3.52112L57.5953 3.48188L57.6734 1.834L58.3496 1.75552V3.48188H60.3133V4.08349H58.3496Z" fill="#013D5B"/>
<path d="M55.3616 9.82491C54.7634 10.1126 54.1219 10.2565 53.437 10.2565C52.44 10.2565 51.6727 9.96006 51.1352 9.36716C50.5977 8.77427 50.3289 7.92417 50.3289 6.81686C50.3289 5.71827 50.5803 4.85509 51.0832 4.22732C51.586 3.59956 52.2752 3.28568 53.1509 3.28568C53.9225 3.28568 54.5293 3.52981 54.9715 4.01807C55.4223 4.49761 55.6477 5.15589 55.6477 5.99292C55.6477 6.3068 55.6217 6.60761 55.5697 6.89533H51.0962C51.1048 8.7176 51.9068 9.62873 53.502 9.62873C54.1435 9.62873 54.7634 9.48923 55.3616 9.21022V9.82491ZM53.1379 3.90036C52.5483 3.90036 52.0672 4.11834 51.6944 4.55429C51.3216 4.99024 51.1222 5.57441 51.0962 6.3068H54.8935C54.9108 6.1673 54.9195 6.04523 54.9195 5.9406C54.9195 5.2954 54.7634 4.79406 54.4513 4.43658C54.1392 4.0791 53.7014 3.90036 53.1379 3.90036Z" fill="#013D5B"/>
<path d="M47.799 10.0603V0.238417L48.579 0.133789V10.0603H47.799Z" fill="#013D5B"/>
<path d="M44.8401 10.0603V0.238417L45.6201 0.133789V10.0603H44.8401Z" fill="#013D5B"/>
<path d="M42.0892 10.0865L42.0372 9.62873C41.2916 10.0472 40.5547 10.2565 39.8264 10.2565C39.1589 10.2565 38.63 10.0821 38.2399 9.73336C37.8498 9.37588 37.6547 8.88762 37.6547 8.26857C37.6547 7.61465 37.8714 7.11767 38.3049 6.77763C38.7471 6.42887 39.3929 6.25449 40.2426 6.25449C40.7541 6.25449 41.3349 6.31552 41.9852 6.43759V5.54825C41.9852 4.45838 41.374 3.91344 40.1515 3.91344C39.8308 3.91344 39.4796 3.95704 39.0982 4.04423C38.7167 4.13142 38.3656 4.24476 38.0448 4.38427V3.76958C38.3569 3.62135 38.7124 3.50365 39.1112 3.41646C39.5187 3.32927 39.9045 3.28568 40.2686 3.28568C41.0835 3.28568 41.6991 3.48185 42.1152 3.87421C42.54 4.25784 42.7524 4.81585 42.7524 5.54825V10.0211L42.0892 10.0865ZM40.0085 9.62873C40.3206 9.62873 40.65 9.58078 40.9968 9.48487C41.3436 9.38896 41.6731 9.25818 41.9852 9.09252V6.99996C41.439 6.89533 40.9015 6.84302 40.3726 6.84302C39.7051 6.84302 39.2196 6.95636 38.9161 7.18306C38.6127 7.40975 38.461 7.76723 38.461 8.25549C38.461 9.17099 38.9768 9.62873 40.0085 9.62873Z" fill="#013D5B"/>
<path d="M34.0941 10.0603L32.3385 4.35813L30.635 10.0603H29.8937L27.813 3.48187H28.6063L30.2708 9.09254L31.9094 3.48187H32.7807L34.4453 9.13177L36.0968 3.48187H36.8511L34.8354 10.0603H34.0941Z" fill="#013D5B"/>
<path d="M21.041 10.0603V3.5211L21.7042 3.4557L21.7693 4.04424C22.3501 3.56469 22.97 3.32492 23.6289 3.32492C23.863 3.32492 24.0494 3.35108 24.1881 3.40339V4.04424C23.9627 3.99192 23.7633 3.96576 23.5899 3.96576C22.9743 3.96576 22.3848 4.1881 21.8213 4.63277V10.0603H21.041Z" fill="#013D5B"/>
<path d="M14.555 3.48187V8.0201C14.555 9.09254 15.0795 9.62875 16.1285 9.62875C16.4146 9.62875 16.7267 9.5808 17.0648 9.48489C17.4116 9.38898 17.7497 9.2582 18.0791 9.09254V3.48187H18.8594V10.0211L18.1962 10.0865L18.1442 9.62875C17.3899 10.0473 16.653 10.2565 15.9334 10.2565C15.2485 10.2565 14.7153 10.0734 14.3339 9.70722C13.9611 9.33231 13.7747 8.81353 13.7747 8.15089V3.48187H14.555Z" fill="#013D5B"/>
<path d="M9.24927 10.2565C8.30429 10.2565 7.58904 9.96441 7.10355 9.38024C6.62672 8.78735 6.38831 7.91545 6.38831 6.76455C6.38831 5.62236 6.62672 4.75918 7.10355 4.17501C7.58904 3.58212 8.30429 3.28568 9.24927 3.28568C10.1943 3.28568 10.9052 3.58212 11.382 4.17501C11.8675 4.75918 12.1102 5.62236 12.1102 6.76455C12.1102 7.91545 11.8675 8.78735 11.382 9.38024C10.9052 9.96441 10.1943 10.2565 9.24927 10.2565ZM9.24927 9.62873C9.96018 9.62873 10.476 9.40204 10.7968 8.94865C11.1262 8.48655 11.291 7.75851 11.291 6.76455C11.291 5.7793 11.1262 5.05999 10.7968 4.6066C10.476 4.14449 9.96018 3.91344 9.24927 3.91344C8.53836 3.91344 8.01819 4.14449 7.68874 4.6066C7.36797 5.05999 7.20758 5.7793 7.20758 6.76455C7.20758 7.75851 7.36797 8.48655 7.68874 8.94865C8.01819 9.40204 8.53836 9.62873 9.24927 9.62873Z" fill="#013D5B"/>
<path d="M0.0910307 12.3229C0.706572 12.2096 1.18773 11.9916 1.53452 11.669C1.8813 11.3464 2.20208 10.832 2.49684 10.1257L0 3.48187H0.819276L2.86097 9.24948L4.96768 3.48187H5.74794L3.2511 9.99495C3.01702 10.6227 2.76993 11.1328 2.50985 11.5251C2.25843 11.9262 1.95933 12.2401 1.61254 12.4668C1.26576 12.7022 0.814942 12.8809 0.260088 13.003L0.0910307 12.3229Z" fill="#013D5B"/>
</svg>
