<svg width="89" height="9" viewBox="0 0 89 9" fill="none" xmlns="http://www.w3.org/2000/svg">
<path d="M88.2179 8.81508V4.53699C88.2179 3.52603 87.6749 3.02055 86.5887 3.02055C86.302 3.02055 85.9848 3.06576 85.6373 3.15617C85.2984 3.24658 84.9638 3.36987 84.6337 3.52603V8.81508H83.8516V2.65069L84.5163 2.58905L84.5685 3.02055C85.3244 2.62603 86.063 2.42877 86.7842 2.42877C87.4881 2.42877 88.0311 2.60138 88.4135 2.94658C88.8045 3.29179 89 3.78083 89 4.41371V8.81508H88.2179Z" fill="#013D5B"/>
<path d="M79.2247 9.00001C78.2776 9.00001 77.5608 8.72467 77.0742 8.17398C76.5962 7.61508 76.3573 6.79316 76.3573 5.70823C76.3573 4.63151 76.5962 3.81782 77.0742 3.26713C77.5608 2.70823 78.2776 2.42877 79.2247 2.42877C80.1719 2.42877 80.8844 2.70823 81.3623 3.26713C81.8489 3.81782 82.0922 4.63151 82.0922 5.70823C82.0922 6.79316 81.8489 7.61508 81.3623 8.17398C80.8844 8.72467 80.1719 9.00001 79.2247 9.00001ZM79.2247 8.40823C79.9373 8.40823 80.4543 8.19453 80.7758 7.76713C81.106 7.33151 81.2711 6.64521 81.2711 5.70823C81.2711 4.77946 81.106 4.10137 80.7758 3.67398C80.4543 3.23836 79.9373 3.02055 79.2247 3.02055C78.5122 3.02055 77.9909 3.23836 77.6607 3.67398C77.3392 4.10137 77.1784 4.77946 77.1784 5.70823C77.1784 6.64521 77.3392 7.33151 77.6607 7.76713C77.9909 8.19453 78.5122 8.40823 79.2247 8.40823Z" fill="#013D5B"/>
<path d="M67.2802 8.00138C67.9318 8.27261 68.6053 8.40823 69.3004 8.40823C70.4734 8.40823 71.06 7.97672 71.06 7.11371C71.06 6.83425 70.9731 6.60823 70.7993 6.43562C70.6342 6.26302 70.3561 6.11918 69.9651 6.00412L68.9746 5.70823C68.4184 5.54384 68.0144 5.33836 67.7624 5.09179C67.5104 4.83699 67.3844 4.51645 67.3844 4.13014C67.3844 3.61234 67.5973 3.20137 68.0231 2.89726C68.4575 2.58494 69.0397 2.42877 69.7696 2.42877C70.3865 2.42877 70.9731 2.53973 71.5292 2.76165V3.3411C70.947 3.1274 70.3735 3.02055 69.8087 3.02055C69.2961 3.02055 68.892 3.11918 68.5966 3.31644C68.3098 3.50549 68.1665 3.7685 68.1665 4.10549C68.1665 4.34384 68.2447 4.53699 68.4011 4.68494C68.5662 4.82466 68.8572 4.96028 69.2743 5.09179L70.304 5.41233C70.834 5.57672 71.2207 5.79453 71.464 6.06576C71.716 6.33699 71.842 6.6822 71.842 7.10138C71.842 7.7096 71.6248 8.17809 71.1903 8.50686C70.7558 8.83562 70.1432 9.00001 69.3525 9.00001C68.6226 9.00001 67.9666 8.87261 67.3844 8.61782L67.2802 8.00138Z" fill="#013D5B"/>
<path d="M64.9048 8.81508V4.41371C64.9048 3.48494 64.44 3.02055 63.5102 3.02055C62.9715 3.02055 62.3545 3.20548 61.6594 3.57535C61.7289 3.79726 61.7637 4.03562 61.7637 4.29042V8.81508H60.9817V4.41371C60.9817 3.48494 60.5168 3.02055 59.587 3.02055C59.0657 3.02055 58.4835 3.18905 57.8405 3.52603V8.81508H57.0585V2.65069L57.7232 2.58905L57.7753 3.02055C58.5139 2.62603 59.183 2.42877 59.7825 2.42877C60.5472 2.42877 61.099 2.66713 61.4378 3.14384C62.2807 2.66713 63.0367 2.42877 63.7057 2.42877C64.34 2.42877 64.8266 2.58905 65.1655 2.90959C65.5131 3.23014 65.6869 3.69042 65.6869 4.29042V8.81508H64.9048Z" fill="#013D5B"/>
<path d="M50.5578 2.61368V6.89176C50.5578 7.90272 51.0835 8.4082 52.1349 8.4082C52.4216 8.4082 52.7344 8.363 53.0733 8.27259C53.4209 8.18218 53.7598 8.05888 54.09 7.90272V2.61368H54.872V8.77806L54.2073 8.83971L54.1551 8.4082C53.3992 8.80272 52.6606 8.99998 51.9394 8.99998C51.2529 8.99998 50.7185 8.82738 50.3362 8.48217C49.9626 8.12875 49.7758 7.63971 49.7758 7.01505V2.61368H50.5578Z" fill="#013D5B"/>
<path d="M46.9834 8.81508V4.41371C46.9834 3.48494 46.5185 3.02055 45.5888 3.02055C45.05 3.02055 44.4331 3.20548 43.738 3.57535C43.8075 3.79726 43.8422 4.03562 43.8422 4.29042V8.81508H43.0602V4.41371C43.0602 3.48494 42.5953 3.02055 41.6656 3.02055C41.1442 3.02055 40.5621 3.18905 39.9191 3.52603V8.81508H39.137V2.65069L39.8018 2.58905L39.8539 3.02055C40.5925 2.62603 41.2615 2.42877 41.8611 2.42877C42.6257 2.42877 43.1775 2.66713 43.5164 3.14384C44.3592 2.66713 45.1152 2.42877 45.7843 2.42877C46.4186 2.42877 46.9052 2.58905 47.2441 2.90959C47.5916 3.23014 47.7654 3.69042 47.7654 4.29042V8.81508H46.9834Z" fill="#013D5B"/>
<path d="M36.1713 8.81507V2.67535L36.9533 2.57672V8.81507H36.1713ZM36.5623 1.10959C36.3885 1.10959 36.2452 1.06027 36.1322 0.961644C36.0279 0.863014 35.9758 0.7274 35.9758 0.554797C35.9758 0.382194 36.0279 0.246577 36.1322 0.147947C36.2452 0.0493168 36.3885 0 36.5623 0C36.7361 0 36.8751 0.0493168 36.9794 0.147947C37.0924 0.246577 37.1488 0.382194 37.1488 0.554797C37.1488 0.7274 37.0924 0.863014 36.9794 0.961644C36.8751 1.06027 36.7361 1.10959 36.5623 1.10959Z" fill="#013D5B"/>
<path d="M33.2952 8.81508V4.53699C33.2952 3.52603 32.7521 3.02055 31.666 3.02055C31.3793 3.02055 31.0621 3.06576 30.7145 3.15617C30.3756 3.24658 30.0411 3.36987 29.7109 3.52603V8.81508H28.9289V2.65069L29.5936 2.58905L29.6458 3.02055C30.4017 2.62603 31.1403 2.42877 31.8615 2.42877C32.5653 2.42877 33.1084 2.60138 33.4907 2.94658C33.8817 3.29179 34.0773 3.78083 34.0773 4.41371V8.81508H33.2952Z" fill="#013D5B"/>
<path d="M25.9632 8.81507V2.67535L26.7452 2.57672V8.81507H25.9632ZM26.3542 1.10959C26.1804 1.10959 26.037 1.06027 25.9241 0.961644C25.8198 0.863014 25.7677 0.7274 25.7677 0.554797C25.7677 0.382194 25.8198 0.246577 25.9241 0.147947C26.037 0.0493168 26.1804 0 26.3542 0C26.528 0 26.667 0.0493168 26.7713 0.147947C26.8842 0.246577 26.9407 0.382194 26.9407 0.554797C26.9407 0.7274 26.8842 0.863014 26.7713 0.961644C26.667 1.06027 26.528 1.10959 26.3542 1.10959Z" fill="#013D5B"/>
<path d="M23.0795 8.81508V4.41371C23.0795 3.48494 22.6147 3.02055 21.6849 3.02055C21.1462 3.02055 20.5293 3.20548 19.8341 3.57535C19.9036 3.79726 19.9384 4.03562 19.9384 4.29042V8.81508H19.1564V4.41371C19.1564 3.48494 18.6915 3.02055 17.7617 3.02055C17.2404 3.02055 16.6582 3.18905 16.0152 3.52603V8.81508H15.2332V2.65069L15.8979 2.58905L15.95 3.02055C16.6886 2.62603 17.3577 2.42877 17.9573 2.42877C18.7219 2.42877 19.2737 2.66713 19.6125 3.14384C20.4554 2.66713 21.2114 2.42877 21.8804 2.42877C22.5147 2.42877 23.0013 2.58905 23.3402 2.90959C23.6878 3.23014 23.8616 3.69042 23.8616 4.29042V8.81508H23.0795Z" fill="#013D5B"/>
<path d="M7.49435 8.81508V2.65069L8.15908 2.58905L8.22425 3.14384C8.80643 2.69179 9.4277 2.46576 10.0881 2.46576C10.3227 2.46576 10.5095 2.49042 10.6485 2.53973V3.14384C10.4226 3.09453 10.2228 3.06987 10.049 3.06987C9.43205 3.06987 8.84118 3.27946 8.27638 3.69864V8.81508H7.49435Z" fill="#013D5B"/>
<path d="M2.86744 9.00001C1.92032 9.00001 1.20346 8.72467 0.71686 8.17398C0.238953 7.61508 0 6.79316 0 5.70823C0 4.63151 0.238953 3.81782 0.71686 3.26713C1.20346 2.70823 1.92032 2.42877 2.86744 2.42877C3.81457 2.42877 4.52708 2.70823 5.00499 3.26713C5.49158 3.81782 5.73488 4.63151 5.73488 5.70823C5.73488 6.79316 5.49158 7.61508 5.00499 8.17398C4.52708 8.72467 3.81457 9.00001 2.86744 9.00001ZM2.86744 8.40823C3.57996 8.40823 4.09696 8.19453 4.41847 7.76713C4.74866 7.33151 4.91375 6.64521 4.91375 5.70823C4.91375 4.77946 4.74866 4.10137 4.41847 3.67398C4.09696 3.23836 3.57996 3.02055 2.86744 3.02055C2.15493 3.02055 1.63357 3.23836 1.30338 3.67398C0.981881 4.10137 0.821131 4.77946 0.821131 5.70823C0.821131 6.64521 0.981881 7.33151 1.30338 7.76713C1.63357 8.19453 2.15493 8.40823 2.86744 8.40823Z" fill="#013D5B"/>
</svg>
