<svg width="607" height="24" viewBox="0 0 607 24" fill="none" xmlns="http://www.w3.org/2000/svg">
<path d="M598.661 16.169C599.811 16.675 600.999 16.928 602.226 16.928C604.296 16.928 605.331 16.123 605.331 14.513C605.331 13.9917 605.178 13.57 604.871 13.248C604.58 12.926 604.089 12.6577 603.399 12.443L601.651 11.891C600.67 11.5843 599.957 11.201 599.512 10.741C599.067 10.2657 598.845 9.66767 598.845 8.947C598.845 7.981 599.221 7.21433 599.972 6.647C600.739 6.06433 601.766 5.773 603.054 5.773C604.143 5.773 605.178 5.98 606.159 6.394V7.475C605.132 7.07633 604.12 6.877 603.123 6.877C602.219 6.877 601.505 7.061 600.984 7.429C600.478 7.78167 600.225 8.27233 600.225 8.901C600.225 9.34567 600.363 9.706 600.639 9.982C600.93 10.2427 601.444 10.4957 602.18 10.741L603.997 11.339C604.932 11.6457 605.615 12.052 606.044 12.558C606.489 13.064 606.711 13.708 606.711 14.49C606.711 15.6247 606.328 16.4987 605.561 17.112C604.794 17.7253 603.714 18.032 602.318 18.032C601.03 18.032 599.872 17.7943 598.845 17.319L598.661 16.169Z" fill="#013D5B"/>
<path d="M593.534 7.176V14.536C593.534 15.3333 593.702 15.9237 594.04 16.307C594.377 16.675 594.898 16.859 595.604 16.859C596.064 16.859 596.585 16.7747 597.168 16.606V17.618C596.524 17.8327 595.933 17.94 595.397 17.94C594.339 17.94 593.534 17.6563 592.982 17.089C592.43 16.5063 592.154 15.6477 592.154 14.513V7.176H590.406V6.187L592.2 6.118L592.338 3.22L593.534 3.082V6.118H597.007V7.176H593.534Z" fill="#013D5B"/>
<path d="M586.756 17.687V9.706C586.756 7.82 585.798 6.877 583.881 6.877C583.375 6.877 582.816 6.96133 582.202 7.13C581.604 7.29867 581.014 7.52867 580.431 7.82V17.687H579.051V6.187L580.224 6.072L580.316 6.877C581.65 6.141 582.954 5.773 584.226 5.773C585.468 5.773 586.427 6.095 587.101 6.739C587.791 7.383 588.136 8.29533 588.136 9.476V17.687H586.756Z" fill="#013D5B"/>
<path d="M567.58 6.118V14.099C567.58 15.985 568.508 16.928 570.363 16.928C570.869 16.928 571.421 16.8437 572.019 16.675C572.632 16.5063 573.23 16.2763 573.813 15.985V6.118H575.193V17.618L574.02 17.733L573.928 16.928C572.594 17.664 571.29 18.032 570.018 18.032C568.806 18.032 567.864 17.71 567.189 17.066C566.53 16.4067 566.2 15.4943 566.2 14.329V6.118H567.58Z" fill="#013D5B"/>
<path d="M558.196 18.032C556.525 18.032 555.26 17.5183 554.401 16.491C553.558 15.4483 553.136 13.915 553.136 11.891C553.136 9.88233 553.558 8.36433 554.401 7.337C555.26 6.29433 556.525 5.773 558.196 5.773C559.867 5.773 561.125 6.29433 561.968 7.337C562.827 8.36433 563.256 9.88233 563.256 11.891C563.256 13.915 562.827 15.4483 561.968 16.491C561.125 17.5183 559.867 18.032 558.196 18.032ZM558.196 16.928C559.453 16.928 560.366 16.5293 560.933 15.732C561.516 14.9193 561.807 13.639 561.807 11.891C561.807 10.1583 561.516 8.89333 560.933 8.096C560.366 7.28333 559.453 6.877 558.196 6.877C556.939 6.877 556.019 7.28333 555.436 8.096C554.869 8.89333 554.585 10.1583 554.585 11.891C554.585 13.639 554.869 14.9193 555.436 15.732C556.019 16.5293 556.939 16.928 558.196 16.928Z" fill="#013D5B"/>
<path d="M551.154 17.273C550.142 17.779 549.038 18.032 547.842 18.032C546.217 18.032 544.959 17.503 544.07 16.445C543.196 15.387 542.759 13.8767 542.759 11.914C542.759 9.95133 543.196 8.441 544.07 7.383C544.959 6.30967 546.217 5.773 547.842 5.773C548.992 5.773 550.081 6.026 551.108 6.532V7.613C550.035 7.13767 548.992 6.9 547.98 6.9C546.738 6.9 545.795 7.32167 545.151 8.165C544.522 9.00833 544.208 10.258 544.208 11.914C544.208 13.5547 544.522 14.7967 545.151 15.64C545.795 16.4833 546.738 16.905 547.98 16.905C549.023 16.905 550.081 16.6673 551.154 16.192V17.273Z" fill="#013D5B"/>
<path d="M540.777 17.273C539.765 17.779 538.661 18.032 537.465 18.032C535.84 18.032 534.582 17.503 533.693 16.445C532.819 15.387 532.382 13.8767 532.382 11.914C532.382 9.95133 532.819 8.441 533.693 7.383C534.582 6.30967 535.84 5.773 537.465 5.773C538.615 5.773 539.704 6.026 540.731 6.532V7.613C539.658 7.13767 538.615 6.9 537.603 6.9C536.361 6.9 535.418 7.32167 534.774 8.165C534.145 9.00833 533.831 10.258 533.831 11.914C533.831 13.5547 534.145 14.7967 534.774 15.64C535.418 16.4833 536.361 16.905 537.603 16.905C538.646 16.905 539.704 16.6673 540.777 16.192V17.273Z" fill="#013D5B"/>
<path d="M528.276 17.733L528.184 16.928C526.865 17.664 525.562 18.032 524.274 18.032C523.093 18.032 522.158 17.7253 521.468 17.112C520.778 16.4833 520.433 15.6247 520.433 14.536C520.433 13.386 520.816 12.512 521.583 11.914C522.365 11.3007 523.507 10.994 525.01 10.994C525.915 10.994 526.942 11.1013 528.092 11.316V9.752C528.092 7.83533 527.011 6.877 524.849 6.877C524.282 6.877 523.661 6.95367 522.986 7.107C522.311 7.26033 521.69 7.45967 521.123 7.705V6.624C521.675 6.36333 522.304 6.15633 523.009 6.003C523.73 5.84967 524.412 5.773 525.056 5.773C526.497 5.773 527.586 6.118 528.322 6.808C529.073 7.48267 529.449 8.464 529.449 9.752V17.618L528.276 17.733ZM524.596 16.928C525.148 16.928 525.731 16.8437 526.344 16.675C526.957 16.5063 527.54 16.2763 528.092 15.985V12.305C527.126 12.121 526.175 12.029 525.24 12.029C524.059 12.029 523.201 12.2283 522.664 12.627C522.127 13.0257 521.859 13.6543 521.859 14.513C521.859 16.123 522.771 16.928 524.596 16.928Z" fill="#013D5B"/>
<path d="M506.434 23.046C505.069 23.046 503.911 22.8083 502.961 22.333L502.777 21.16C504.034 21.6813 505.23 21.942 506.365 21.942C508.925 21.942 510.206 20.7537 510.206 18.377V16.79C509.623 17.112 509.025 17.365 508.412 17.549C507.814 17.733 507.254 17.825 506.733 17.825C505.23 17.825 504.049 17.319 503.191 16.307C502.332 15.295 501.903 13.892 501.903 12.098C501.903 10.0587 502.386 8.49467 503.352 7.406C504.333 6.31733 505.744 5.773 507.584 5.773C508.979 5.773 510.313 6.01833 511.586 6.509V18.262C511.586 19.7953 511.141 20.976 510.252 21.804C509.362 22.632 508.09 23.046 506.434 23.046ZM506.917 16.721C507.423 16.721 507.967 16.6367 508.55 16.468C509.132 16.2993 509.684 16.0693 510.206 15.778V7.245C509.408 6.99967 508.573 6.877 507.699 6.877C506.227 6.877 505.13 7.30633 504.41 8.165C503.704 9.00833 503.352 10.3117 503.352 12.075C503.352 13.593 503.651 14.7507 504.249 15.548C504.862 16.33 505.751 16.721 506.917 16.721Z" fill="#013D5B"/>
<path d="M497.586 17.687V9.706C497.586 7.82 496.628 6.877 494.711 6.877C494.205 6.877 493.646 6.96133 493.032 7.13C492.434 7.29867 491.844 7.52867 491.261 7.82V17.687H489.881V6.187L491.054 6.072L491.146 6.877C492.48 6.141 493.784 5.773 495.056 5.773C496.298 5.773 497.257 6.095 497.931 6.739C498.621 7.383 498.966 8.29533 498.966 9.476V17.687H497.586Z" fill="#013D5B"/>
<path d="M484.648 17.687V6.233L486.028 6.049V17.687H484.648ZM485.338 3.312C485.031 3.312 484.778 3.22 484.579 3.036C484.395 2.852 484.303 2.599 484.303 2.277C484.303 1.955 484.395 1.702 484.579 1.518C484.778 1.334 485.031 1.242 485.338 1.242C485.645 1.242 485.89 1.334 486.074 1.518C486.273 1.702 486.373 1.955 486.373 2.277C486.373 2.599 486.273 2.852 486.074 3.036C485.89 3.22 485.645 3.312 485.338 3.312Z" fill="#013D5B"/>
<path d="M474.069 17.687V0.414L475.449 0.23V11.247L480.877 6.118H482.51L476.829 11.5L482.694 17.687H480.946L475.449 11.845V17.687H474.069Z" fill="#013D5B"/>
<path d="M471.103 17.273C470.091 17.779 468.987 18.032 467.791 18.032C466.166 18.032 464.909 17.503 464.019 16.445C463.145 15.387 462.708 13.8767 462.708 11.914C462.708 9.95133 463.145 8.441 464.019 7.383C464.909 6.30967 466.166 5.773 467.791 5.773C468.941 5.773 470.03 6.026 471.057 6.532V7.613C469.984 7.13767 468.941 6.9 467.929 6.9C466.687 6.9 465.744 7.32167 465.1 8.165C464.472 9.00833 464.157 10.258 464.157 11.914C464.157 13.5547 464.472 14.7967 465.1 15.64C465.744 16.4833 466.687 16.905 467.929 16.905C468.972 16.905 470.03 16.6673 471.103 16.192V17.273Z" fill="#013D5B"/>
<path d="M459.885 17.273C458.827 17.779 457.692 18.032 456.481 18.032C454.717 18.032 453.36 17.5107 452.41 16.468C451.459 15.4253 450.984 13.9303 450.984 11.983C450.984 10.051 451.428 8.533 452.318 7.429C453.207 6.325 454.426 5.773 455.975 5.773C457.339 5.773 458.413 6.20233 459.195 7.061C459.992 7.90433 460.391 9.062 460.391 10.534C460.391 11.086 460.345 11.615 460.253 12.121H452.341C452.356 15.3257 453.774 16.928 456.596 16.928C457.73 16.928 458.827 16.6827 459.885 16.192V17.273ZM455.952 6.854C454.909 6.854 454.058 7.23733 453.399 8.004C452.739 8.77067 452.387 9.798 452.341 11.086H459.057C459.087 10.8407 459.103 10.626 459.103 10.442C459.103 9.30733 458.827 8.42567 458.275 7.797C457.723 7.16833 456.948 6.854 455.952 6.854Z" fill="#013D5B"/>
<path d="M438.962 17.687V0.414L440.342 0.23V6.831C441.63 6.12567 442.895 5.773 444.137 5.773C445.379 5.773 446.338 6.095 447.012 6.739C447.702 7.383 448.047 8.29533 448.047 9.476V17.687H446.667V9.706C446.667 7.82 445.709 6.877 443.792 6.877C443.286 6.877 442.727 6.96133 442.113 7.13C441.515 7.29867 440.925 7.52867 440.342 7.82V17.687H438.962Z" fill="#013D5B"/>
<path d="M435.997 17.273C434.985 17.779 433.881 18.032 432.685 18.032C431.059 18.032 429.802 17.503 428.913 16.445C428.039 15.387 427.602 13.8767 427.602 11.914C427.602 9.95133 428.039 8.441 428.913 7.383C429.802 6.30967 431.059 5.773 432.685 5.773C433.835 5.773 434.923 6.026 435.951 6.532V7.613C434.877 7.13767 433.835 6.9 432.823 6.9C431.581 6.9 430.638 7.32167 429.994 8.165C429.365 9.00833 429.051 10.258 429.051 11.914C429.051 13.5547 429.365 14.7967 429.994 15.64C430.638 16.4833 431.581 16.905 432.823 16.905C433.865 16.905 434.923 16.6673 435.997 16.192V17.273Z" fill="#013D5B"/>
<path d="M417.536 17.687V9.706C417.536 7.82 416.577 6.877 414.661 6.877C414.155 6.877 413.595 6.96133 412.982 7.13C412.384 7.29867 411.793 7.52867 411.211 7.82V17.687H409.831V6.187L411.004 6.072L411.096 6.877C412.43 6.141 413.733 5.773 415.006 5.773C416.248 5.773 417.206 6.095 417.881 6.739C418.571 7.383 418.916 8.29533 418.916 9.476V17.687H417.536Z" fill="#013D5B"/>
<path d="M401.666 18.032C399.994 18.032 398.729 17.5183 397.871 16.491C397.027 15.4483 396.606 13.915 396.606 11.891C396.606 9.88233 397.027 8.36433 397.871 7.337C398.729 6.29433 399.994 5.773 401.666 5.773C403.337 5.773 404.594 6.29433 405.438 7.337C406.296 8.36433 406.726 9.88233 406.726 11.891C406.726 13.915 406.296 15.4483 405.438 16.491C404.594 17.5183 403.337 18.032 401.666 18.032ZM401.666 16.928C402.923 16.928 403.835 16.5293 404.403 15.732C404.985 14.9193 405.277 13.639 405.277 11.891C405.277 10.1583 404.985 8.89333 404.403 8.096C403.835 7.28333 402.923 6.877 401.666 6.877C400.408 6.877 399.488 7.28333 398.906 8.096C398.338 8.89333 398.055 10.1583 398.055 11.891C398.055 13.639 398.338 14.9193 398.906 15.732C399.488 16.5293 400.408 16.928 401.666 16.928Z" fill="#013D5B"/>
<path d="M380.588 16.169C381.738 16.675 382.926 16.928 384.153 16.928C386.223 16.928 387.258 16.123 387.258 14.513C387.258 13.9917 387.105 13.57 386.798 13.248C386.507 12.926 386.016 12.6577 385.326 12.443L383.578 11.891C382.597 11.5843 381.884 11.201 381.439 10.741C380.994 10.2657 380.772 9.66767 380.772 8.947C380.772 7.981 381.148 7.21433 381.899 6.647C382.666 6.06433 383.693 5.773 384.981 5.773C386.07 5.773 387.105 5.98 388.086 6.394V7.475C387.059 7.07633 386.047 6.877 385.05 6.877C384.145 6.877 383.432 7.061 382.911 7.429C382.405 7.78167 382.152 8.27233 382.152 8.901C382.152 9.34567 382.29 9.706 382.566 9.982C382.857 10.2427 383.371 10.4957 384.107 10.741L385.924 11.339C386.859 11.6457 387.542 12.052 387.971 12.558C388.416 13.064 388.638 13.708 388.638 14.49C388.638 15.6247 388.255 16.4987 387.488 17.112C386.721 17.7253 385.64 18.032 384.245 18.032C382.957 18.032 381.799 17.7943 380.772 17.319L380.588 16.169Z" fill="#013D5B"/>
<path d="M376.396 17.687V9.476C376.396 7.74333 375.576 6.877 373.935 6.877C372.985 6.877 371.896 7.222 370.669 7.912C370.792 8.326 370.853 8.77067 370.853 9.246V17.687H369.473V9.476C369.473 7.74333 368.653 6.877 367.012 6.877C366.092 6.877 365.065 7.19133 363.93 7.82V17.687H362.55V6.187L363.723 6.072L363.815 6.877C365.119 6.141 366.299 5.773 367.357 5.773C368.707 5.773 369.68 6.21767 370.278 7.107C371.766 6.21767 373.1 5.773 374.28 5.773C375.4 5.773 376.258 6.072 376.856 6.67C377.47 7.268 377.776 8.12667 377.776 9.246V17.687H376.396Z" fill="#013D5B"/>
<path d="M351.079 6.118V14.099C351.079 15.985 352.007 16.928 353.862 16.928C354.368 16.928 354.92 16.8437 355.518 16.675C356.131 16.5063 356.729 16.2763 357.312 15.985V6.118H358.692V17.618L357.519 17.733L357.427 16.928C356.093 17.664 354.79 18.032 353.517 18.032C352.306 18.032 351.363 17.71 350.688 17.066C350.029 16.4067 349.699 15.4943 349.699 14.329V6.118H351.079Z" fill="#013D5B"/>
<path d="M344.771 17.687V9.476C344.771 7.74333 343.951 6.877 342.31 6.877C341.36 6.877 340.271 7.222 339.044 7.912C339.167 8.326 339.228 8.77067 339.228 9.246V17.687H337.848V9.476C337.848 7.74333 337.028 6.877 335.387 6.877C334.467 6.877 333.44 7.19133 332.305 7.82V17.687H330.925V6.187L332.098 6.072L332.19 6.877C333.494 6.141 334.674 5.773 335.732 5.773C337.082 5.773 338.055 6.21767 338.653 7.107C340.141 6.21767 341.475 5.773 342.655 5.773C343.775 5.773 344.633 6.072 345.231 6.67C345.845 7.268 346.151 8.12667 346.151 9.246V17.687H344.771Z" fill="#013D5B"/>
<path d="M325.692 17.687V6.233L327.072 6.049V17.687H325.692ZM326.382 3.312C326.075 3.312 325.822 3.22 325.623 3.036C325.439 2.852 325.347 2.599 325.347 2.277C325.347 1.955 325.439 1.702 325.623 1.518C325.822 1.334 326.075 1.242 326.382 1.242C326.689 1.242 326.934 1.334 327.118 1.518C327.317 1.702 327.417 1.955 327.417 2.277C327.417 2.599 327.317 2.852 327.118 3.036C326.934 3.22 326.689 3.312 326.382 3.312Z" fill="#013D5B"/>
<path d="M320.617 17.687V9.706C320.617 7.82 319.658 6.877 317.742 6.877C317.236 6.877 316.676 6.96133 316.063 7.13C315.465 7.29867 314.874 7.52867 314.292 7.82V17.687H312.912V6.187L314.085 6.072L314.177 6.877C315.511 6.141 316.814 5.773 318.087 5.773C319.329 5.773 320.287 6.095 320.962 6.739C321.652 7.383 321.997 8.29533 321.997 9.476V17.687H320.617Z" fill="#013D5B"/>
<path d="M307.678 17.687V6.233L309.058 6.049V17.687H307.678ZM308.368 3.312C308.062 3.312 307.809 3.22 307.609 3.036C307.425 2.852 307.333 2.599 307.333 2.277C307.333 1.955 307.425 1.702 307.609 1.518C307.809 1.334 308.062 1.242 308.368 1.242C308.675 1.242 308.92 1.334 309.104 1.518C309.304 1.702 309.403 1.955 309.403 2.277C309.403 2.599 309.304 2.852 309.104 3.036C308.92 3.22 308.675 3.312 308.368 3.312Z" fill="#013D5B"/>
<path d="M302.59 17.687V9.476C302.59 7.74333 301.769 6.877 300.129 6.877C299.178 6.877 298.089 7.222 296.863 7.912C296.985 8.326 297.047 8.77067 297.047 9.246V17.687H295.667V9.476C295.667 7.74333 294.846 6.877 293.206 6.877C292.286 6.877 291.258 7.19133 290.124 7.82V17.687H288.744V6.187L289.917 6.072L290.009 6.877C291.312 6.141 292.493 5.773 293.551 5.773C294.9 5.773 295.874 6.21767 296.472 7.107C297.959 6.21767 299.293 5.773 300.474 5.773C301.593 5.773 302.452 6.072 303.05 6.67C303.663 7.268 303.97 8.12667 303.97 9.246V17.687H302.59Z" fill="#013D5B"/>
<path d="M275.087 17.687V6.187L276.26 6.072L276.375 7.107C277.403 6.26367 278.499 5.842 279.664 5.842C280.078 5.842 280.408 5.888 280.653 5.98V7.107C280.255 7.015 279.902 6.969 279.595 6.969C278.507 6.969 277.464 7.36 276.467 8.142V17.687H275.087Z" fill="#013D5B"/>
<path d="M266.923 18.032C265.251 18.032 263.986 17.5183 263.128 16.491C262.284 15.4483 261.863 13.915 261.863 11.891C261.863 9.88233 262.284 8.36433 263.128 7.337C263.986 6.29433 265.251 5.773 266.923 5.773C268.594 5.773 269.851 6.29433 270.695 7.337C271.553 8.36433 271.983 9.88233 271.983 11.891C271.983 13.915 271.553 15.4483 270.695 16.491C269.851 17.5183 268.594 18.032 266.923 18.032ZM266.923 16.928C268.18 16.928 269.092 16.5293 269.66 15.732C270.242 14.9193 270.534 13.639 270.534 11.891C270.534 10.1583 270.242 8.89333 269.66 8.096C269.092 7.28333 268.18 6.877 266.923 6.877C265.665 6.877 264.745 7.28333 264.163 8.096C263.595 8.89333 263.312 10.1583 263.312 11.891C263.312 13.639 263.595 14.9193 264.163 15.732C264.745 16.5293 265.665 16.928 266.923 16.928Z" fill="#013D5B"/>
<path d="M245.845 16.169C246.995 16.675 248.183 16.928 249.41 16.928C251.48 16.928 252.515 16.123 252.515 14.513C252.515 13.9917 252.361 13.57 252.055 13.248C251.763 12.926 251.273 12.6577 250.583 12.443L248.835 11.891C247.853 11.5843 247.14 11.201 246.696 10.741C246.251 10.2657 246.029 9.66767 246.029 8.947C246.029 7.981 246.404 7.21433 247.156 6.647C247.922 6.06433 248.95 5.773 250.238 5.773C251.326 5.773 252.361 5.98 253.343 6.394V7.475C252.315 7.07633 251.303 6.877 250.307 6.877C249.402 6.877 248.689 7.061 248.168 7.429C247.662 7.78167 247.409 8.27233 247.409 8.901C247.409 9.34567 247.547 9.706 247.823 9.982C248.114 10.2427 248.628 10.4957 249.364 10.741L251.181 11.339C252.116 11.6457 252.798 12.052 253.228 12.558C253.672 13.064 253.895 13.708 253.895 14.49C253.895 15.6247 253.511 16.4987 252.745 17.112C251.978 17.7253 250.897 18.032 249.502 18.032C248.214 18.032 247.056 17.7943 246.029 17.319L245.845 16.169Z" fill="#013D5B"/>
<path d="M243.159 17.273C242.101 17.779 240.966 18.032 239.755 18.032C237.992 18.032 236.635 17.5107 235.684 16.468C234.733 15.4253 234.258 13.9303 234.258 11.983C234.258 10.051 234.703 8.533 235.592 7.429C236.481 6.325 237.7 5.773 239.249 5.773C240.614 5.773 241.687 6.20233 242.469 7.061C243.266 7.90433 243.665 9.062 243.665 10.534C243.665 11.086 243.619 11.615 243.527 12.121H235.615C235.63 15.3257 237.049 16.928 239.87 16.928C241.005 16.928 242.101 16.6827 243.159 16.192V17.273ZM239.226 6.854C238.183 6.854 237.332 7.23733 236.673 8.004C236.014 8.77067 235.661 9.798 235.615 11.086H242.331C242.362 10.8407 242.377 10.626 242.377 10.442C242.377 9.30733 242.101 8.42567 241.549 7.797C240.997 7.16833 240.223 6.854 239.226 6.854Z" fill="#013D5B"/>
<path d="M231.434 17.273C230.376 17.779 229.242 18.032 228.03 18.032C226.267 18.032 224.91 17.5107 223.959 16.468C223.009 15.4253 222.533 13.9303 222.533 11.983C222.533 10.051 222.978 8.533 223.867 7.429C224.757 6.325 225.976 5.773 227.524 5.773C228.889 5.773 229.962 6.20233 230.744 7.061C231.542 7.90433 231.94 9.062 231.94 10.534C231.94 11.086 231.894 11.615 231.802 12.121H223.89C223.906 15.3257 225.324 16.928 228.145 16.928C229.28 16.928 230.376 16.6827 231.434 16.192V17.273ZM227.501 6.854C226.459 6.854 225.608 7.23733 224.948 8.004C224.289 8.77067 223.936 9.798 223.89 11.086H230.606C230.637 10.8407 230.652 10.626 230.652 10.442C230.652 9.30733 230.376 8.42567 229.824 7.797C229.272 7.16833 228.498 6.854 227.501 6.854Z" fill="#013D5B"/>
<path d="M216.472 17.687V7.176H214.724V6.187L216.472 6.118V3.519C216.472 2.38433 216.748 1.518 217.3 0.920001C217.867 0.306667 218.688 0 219.761 0C220.344 0 220.934 0.107333 221.532 0.322V1.334C220.98 1.16533 220.451 1.081 219.945 1.081C219.224 1.081 218.695 1.27267 218.358 1.656C218.021 2.024 217.852 2.60667 217.852 3.404V6.118H220.957V7.176H217.852V17.687H216.472Z" fill="#013D5B"/>
<path d="M202.235 18.032C200.564 18.032 199.299 17.5183 198.44 16.491C197.597 15.4483 197.175 13.915 197.175 11.891C197.175 9.88233 197.597 8.36433 198.44 7.337C199.299 6.29433 200.564 5.773 202.235 5.773C203.906 5.773 205.164 6.29433 206.007 7.337C206.866 8.36433 207.295 9.88233 207.295 11.891C207.295 13.915 206.866 15.4483 206.007 16.491C205.164 17.5183 203.906 18.032 202.235 18.032ZM202.235 16.928C203.492 16.928 204.405 16.5293 204.972 15.732C205.555 14.9193 205.846 13.639 205.846 11.891C205.846 10.1583 205.555 8.89333 204.972 8.096C204.405 7.28333 203.492 6.877 202.235 6.877C200.978 6.877 200.058 7.28333 199.475 8.096C198.908 8.89333 198.624 10.1583 198.624 11.891C198.624 13.639 198.908 14.9193 199.475 15.732C200.058 16.5293 200.978 16.928 202.235 16.928Z" fill="#013D5B"/>
<path d="M192.859 17.687V9.706C192.859 7.82 191.9 6.877 189.984 6.877C189.478 6.877 188.918 6.96133 188.305 7.13C187.707 7.29867 187.116 7.52867 186.534 7.82V17.687H185.154V6.187L186.327 6.072L186.419 6.877C187.753 6.141 189.056 5.773 190.329 5.773C191.571 5.773 192.529 6.095 193.204 6.739C193.894 7.383 194.239 8.29533 194.239 9.476V17.687H192.859Z" fill="#013D5B"/>
<path d="M171.498 17.687V6.187L172.671 6.072L172.786 7.107C173.813 6.26367 174.909 5.842 176.075 5.842C176.489 5.842 176.818 5.888 177.064 5.98V7.107C176.665 7.015 176.312 6.969 176.006 6.969C174.917 6.969 173.874 7.36 172.878 8.142V17.687H171.498Z" fill="#013D5B"/>
<path d="M163.333 18.032C161.661 18.032 160.396 17.5183 159.538 16.491C158.694 15.4483 158.273 13.915 158.273 11.891C158.273 9.88233 158.694 8.36433 159.538 7.337C160.396 6.29433 161.661 5.773 163.333 5.773C165.004 5.773 166.261 6.29433 167.105 7.337C167.963 8.36433 168.393 9.88233 168.393 11.891C168.393 13.915 167.963 15.4483 167.105 16.491C166.261 17.5183 165.004 18.032 163.333 18.032ZM163.333 16.928C164.59 16.928 165.502 16.5293 166.07 15.732C166.652 14.9193 166.944 13.639 166.944 11.891C166.944 10.1583 166.652 8.89333 166.07 8.096C165.502 7.28333 164.59 6.877 163.333 6.877C162.075 6.877 161.155 7.28333 160.573 8.096C160.005 8.89333 159.722 10.1583 159.722 11.891C159.722 13.639 160.005 14.9193 160.573 15.732C161.155 16.5293 162.075 16.928 163.333 16.928Z" fill="#013D5B"/>
<path d="M152.211 17.687V7.176H150.463V6.187L152.211 6.118V3.519C152.211 2.38433 152.487 1.518 153.039 0.920001C153.606 0.306667 154.427 0 155.5 0C156.083 0 156.673 0.107333 157.271 0.322V1.334C156.719 1.16533 156.19 1.081 155.684 1.081C154.963 1.081 154.434 1.27267 154.097 1.656C153.76 2.024 153.591 2.60667 153.591 3.404V6.118H156.696V7.176H153.591V17.687H152.211Z" fill="#013D5B"/>
<path d="M141.064 17.687V9.706C141.064 7.82 140.106 6.877 138.189 6.877C137.683 6.877 137.123 6.96133 136.51 7.13C135.912 7.29867 135.322 7.52867 134.739 7.82V17.687H133.359V6.187L134.532 6.072L134.624 6.877C135.958 6.141 137.261 5.773 138.534 5.773C139.776 5.773 140.734 6.095 141.409 6.739C142.099 7.383 142.444 8.29533 142.444 9.476V17.687H141.064Z" fill="#013D5B"/>
<path d="M125.194 18.032C123.523 18.032 122.258 17.5183 121.399 16.491C120.556 15.4483 120.134 13.915 120.134 11.891C120.134 9.88233 120.556 8.36433 121.399 7.337C122.258 6.29433 123.523 5.773 125.194 5.773C126.865 5.773 128.123 6.29433 128.966 7.337C129.825 8.36433 130.254 9.88233 130.254 11.891C130.254 13.915 129.825 15.4483 128.966 16.491C128.123 17.5183 126.865 18.032 125.194 18.032ZM125.194 16.928C126.451 16.928 127.364 16.5293 127.931 15.732C128.514 14.9193 128.805 13.639 128.805 11.891C128.805 10.1583 128.514 8.89333 127.931 8.096C127.364 7.28333 126.451 6.877 125.194 6.877C123.937 6.877 123.017 7.28333 122.434 8.096C121.867 8.89333 121.583 10.1583 121.583 11.891C121.583 13.639 121.867 14.9193 122.434 15.732C123.017 16.5293 123.937 16.928 125.194 16.928Z" fill="#013D5B"/>
<path d="M109.866 16.169C111.016 16.675 112.205 16.928 113.431 16.928C115.501 16.928 116.536 16.123 116.536 14.513C116.536 13.9917 116.383 13.57 116.076 13.248C115.785 12.926 115.294 12.6577 114.604 12.443L112.856 11.891C111.875 11.5843 111.162 11.201 110.717 10.741C110.273 10.2657 110.05 9.66767 110.05 8.947C110.05 7.981 110.426 7.21433 111.177 6.647C111.944 6.06433 112.971 5.773 114.259 5.773C115.348 5.773 116.383 5.98 117.364 6.394V7.475C116.337 7.07633 115.325 6.877 114.328 6.877C113.424 6.877 112.711 7.061 112.189 7.429C111.683 7.78167 111.43 8.27233 111.43 8.901C111.43 9.34567 111.568 9.706 111.844 9.982C112.136 10.2427 112.649 10.4957 113.385 10.741L115.202 11.339C116.138 11.6457 116.82 12.052 117.249 12.558C117.694 13.064 117.916 13.708 117.916 14.49C117.916 15.6247 117.533 16.4987 116.766 17.112C116 17.7253 114.919 18.032 113.523 18.032C112.235 18.032 111.078 17.7943 110.05 17.319L109.866 16.169Z" fill="#013D5B"/>
<path d="M105.898 17.733L105.806 16.928C104.487 17.664 103.184 18.032 101.896 18.032C100.715 18.032 99.7799 17.7253 99.0899 17.112C98.3999 16.4833 98.0549 15.6247 98.0549 14.536C98.0549 13.386 98.4383 12.512 99.2049 11.914C99.9869 11.3007 101.129 10.994 102.632 10.994C103.537 10.994 104.564 11.1013 105.714 11.316V9.752C105.714 7.83533 104.633 6.877 102.471 6.877C101.904 6.877 101.283 6.95367 100.608 7.107C99.9333 7.26033 99.3123 7.45967 98.7449 7.705V6.624C99.2969 6.36333 99.9256 6.15633 100.631 6.003C101.352 5.84967 102.034 5.773 102.678 5.773C104.119 5.773 105.208 6.118 105.944 6.808C106.695 7.48267 107.071 8.464 107.071 9.752V17.618L105.898 17.733ZM102.218 16.928C102.77 16.928 103.353 16.8437 103.966 16.675C104.579 16.5063 105.162 16.2763 105.714 15.985V12.305C104.748 12.121 103.797 12.029 102.862 12.029C101.681 12.029 100.823 12.2283 100.286 12.627C99.7493 13.0257 99.4809 13.6543 99.4809 14.513C99.4809 16.123 100.393 16.928 102.218 16.928Z" fill="#013D5B"/>
<path d="M95.2313 17.273C94.1733 17.779 93.0387 18.032 91.8273 18.032C90.064 18.032 88.707 17.5107 87.7563 16.468C86.8057 15.4253 86.3303 13.9303 86.3303 11.983C86.3303 10.051 86.775 8.533 87.6643 7.429C88.5537 6.325 89.7727 5.773 91.3213 5.773C92.686 5.773 93.7593 6.20233 94.5413 7.061C95.3387 7.90433 95.7373 9.062 95.7373 10.534C95.7373 11.086 95.6913 11.615 95.5993 12.121H87.6873C87.7027 15.3257 89.121 16.928 91.9423 16.928C93.077 16.928 94.1733 16.6827 95.2313 16.192V17.273ZM91.2983 6.854C90.2557 6.854 89.4047 7.23733 88.7453 8.004C88.086 8.77067 87.7333 9.798 87.6873 11.086H94.4033C94.434 10.8407 94.4493 10.626 94.4493 10.442C94.4493 9.30733 94.1733 8.42567 93.6213 7.797C93.0693 7.16833 92.295 6.854 91.2983 6.854Z" fill="#013D5B"/>
<path d="M76.0625 16.169C77.2125 16.675 78.4008 16.928 79.6275 16.928C81.6975 16.928 82.7325 16.123 82.7325 14.513C82.7325 13.9917 82.5792 13.57 82.2725 13.248C81.9812 12.926 81.4905 12.6577 80.8005 12.443L79.0525 11.891C78.0712 11.5843 77.3582 11.201 76.9135 10.741C76.4688 10.2657 76.2465 9.66767 76.2465 8.947C76.2465 7.981 76.6222 7.21433 77.3735 6.647C78.1402 6.06433 79.1675 5.773 80.4555 5.773C81.5442 5.773 82.5792 5.98 83.5605 6.394V7.475C82.5332 7.07633 81.5212 6.877 80.5245 6.877C79.6198 6.877 78.9068 7.061 78.3855 7.429C77.8795 7.78167 77.6265 8.27233 77.6265 8.901C77.6265 9.34567 77.7645 9.706 78.0405 9.982C78.3318 10.2427 78.8455 10.4957 79.5815 10.741L81.3985 11.339C82.3338 11.6457 83.0162 12.052 83.4455 12.558C83.8902 13.064 84.1125 13.708 84.1125 14.49C84.1125 15.6247 83.7292 16.4987 82.9625 17.112C82.1958 17.7253 81.1148 18.032 79.7195 18.032C78.4315 18.032 77.2738 17.7943 76.2465 17.319L76.0625 16.169Z" fill="#013D5B"/>
<path d="M67.6268 17.273C66.5688 17.779 65.4342 18.032 64.2228 18.032C62.4595 18.032 61.1025 17.5107 60.1518 16.468C59.2012 15.4253 58.7258 13.9303 58.7258 11.983C58.7258 10.051 59.1705 8.533 60.0598 7.429C60.9492 6.325 62.1682 5.773 63.7168 5.773C65.0815 5.773 66.1548 6.20233 66.9368 7.061C67.7342 7.90433 68.1328 9.062 68.1328 10.534C68.1328 11.086 68.0868 11.615 67.9948 12.121H60.0828C60.0982 15.3257 61.5165 16.928 64.3378 16.928C65.4725 16.928 66.5688 16.6827 67.6268 16.192V17.273ZM63.6938 6.854C62.6512 6.854 61.8002 7.23733 61.1408 8.004C60.4815 8.77067 60.1288 9.798 60.0828 11.086H66.7988C66.8295 10.8407 66.8448 10.626 66.8448 10.442C66.8448 9.30733 66.5688 8.42567 66.0168 7.797C65.4648 7.16833 64.6905 6.854 63.6938 6.854Z" fill="#013D5B"/>
<path d="M46.7046 17.687V0.414L48.0846 0.23V6.831C49.3726 6.12567 50.6376 5.773 51.8796 5.773C53.1216 5.773 54.0799 6.095 54.7546 6.739C55.4446 7.383 55.7896 8.29533 55.7896 9.476V17.687H54.4096V9.706C54.4096 7.82 53.4513 6.877 51.5346 6.877C51.0286 6.877 50.4689 6.96133 49.8556 7.13C49.2576 7.29867 48.6673 7.52867 48.0846 7.82V17.687H46.7046Z" fill="#013D5B"/>
<path d="M40.68 7.176V14.536C40.68 15.3333 40.8487 15.9237 41.186 16.307C41.5233 16.675 42.0447 16.859 42.75 16.859C43.21 16.859 43.7313 16.7747 44.314 16.606V17.618C43.67 17.8327 43.0797 17.94 42.543 17.94C41.485 17.94 40.68 17.6563 40.128 17.089C39.576 16.5063 39.3 15.6477 39.3 14.513V7.176H37.552V6.187L39.346 6.118L39.484 3.22L40.68 3.082V6.118H44.153V7.176H40.68Z" fill="#013D5B"/>
<path d="M22.2012 16.169C23.3512 16.675 24.5395 16.928 25.7662 16.928C27.8362 16.928 28.8712 16.123 28.8712 14.513C28.8712 13.9917 28.7178 13.57 28.4112 13.248C28.1198 12.926 27.6292 12.6577 26.9392 12.443L25.1912 11.891C24.2098 11.5843 23.4968 11.201 23.0522 10.741C22.6075 10.2657 22.3852 9.66767 22.3852 8.947C22.3852 7.981 22.7608 7.21433 23.5122 6.647C24.2788 6.06433 25.3062 5.773 26.5942 5.773C27.6828 5.773 28.7178 5.98 29.6992 6.394V7.475C28.6718 7.07633 27.6598 6.877 26.6632 6.877C25.7585 6.877 25.0455 7.061 24.5242 7.429C24.0182 7.78167 23.7652 8.27233 23.7652 8.901C23.7652 9.34567 23.9032 9.706 24.1792 9.982C24.4705 10.2427 24.9842 10.4957 25.7202 10.741L27.5372 11.339C28.4725 11.6457 29.1548 12.052 29.5842 12.558C30.0288 13.064 30.2512 13.708 30.2512 14.49C30.2512 15.6247 29.8678 16.4987 29.1012 17.112C28.3345 17.7253 27.2535 18.032 25.8582 18.032C24.5702 18.032 23.4125 17.7943 22.3852 17.319L22.2012 16.169Z" fill="#013D5B"/>
<path d="M17.8648 17.687V6.233L19.2448 6.049V17.687H17.8648ZM18.5548 3.312C18.2481 3.312 17.9951 3.22 17.7958 3.036C17.6118 2.852 17.5198 2.599 17.5198 2.277C17.5198 1.955 17.6118 1.702 17.7958 1.518C17.9951 1.334 18.2481 1.242 18.5548 1.242C18.8614 1.242 19.1068 1.334 19.2908 1.518C19.4901 1.702 19.5898 1.955 19.5898 2.277C19.5898 2.599 19.4901 2.852 19.2908 3.036C19.1068 3.22 18.8614 3.312 18.5548 3.312Z" fill="#013D5B"/>
<path d="M9.2938 17.687V2.76H4.4408V1.587H15.5958V2.76H10.7428V17.687H9.2938Z" fill="#013D5B"/>
<path d="M0 6.578C0.414 6.04133 0.743667 5.48167 0.989 4.899C1.24967 4.301 1.38767 3.74133 1.403 3.22C1.173 3.15867 0.996667 3.04367 0.874 2.875C0.751333 2.691 0.69 2.46867 0.69 2.208C0.69 1.886 0.789667 1.633 0.989 1.449C1.18833 1.24967 1.44133 1.15 1.748 1.15C2.08533 1.15 2.346 1.27267 2.53 1.518C2.714 1.748 2.806 2.07 2.806 2.484C2.806 3.15867 2.58367 3.91767 2.139 4.761C1.70967 5.589 1.16533 6.302 0.506 6.9L0 6.578Z" fill="#013D5B"/>
</svg>
