<svg width="574" height="23" viewBox="0 0 574 23" fill="none" xmlns="http://www.w3.org/2000/svg">
<path d="M565.957 16.1367C567.106 16.6417 568.293 16.8942 569.519 16.8942C571.587 16.8942 572.621 16.0908 572.621 14.484C572.621 13.9637 572.468 13.5429 572.161 13.2216C571.87 12.9002 571.38 12.6324 570.691 12.4182L568.944 11.8673C567.964 11.5612 567.251 11.1786 566.807 10.7196C566.363 10.2452 566.14 9.64837 566.14 8.92914C566.14 7.96507 566.516 7.19993 567.267 6.63373C568.033 6.05223 569.059 5.76147 570.346 5.76147C571.434 5.76147 572.468 5.96806 573.448 6.38124V7.46008C572.422 7.06221 571.411 6.86327 570.415 6.86327C569.511 6.86327 568.799 7.0469 568.278 7.41417C567.772 7.76613 567.519 8.25582 567.519 8.88323C567.519 9.32701 567.657 9.68662 567.933 9.96207C568.224 10.2222 568.737 10.4747 569.473 10.7196L571.288 11.3164C572.223 11.6224 572.905 12.0279 573.334 12.5329C573.778 13.0379 574 13.6806 574 14.4611C574 15.5935 573.617 16.4657 572.851 17.0778C572.085 17.6899 571.005 17.996 569.611 17.996C568.324 17.996 567.167 17.7588 566.14 17.2844L565.957 16.1367Z" fill="#013D5B"/>
<path d="M560.833 7.16168V14.507C560.833 15.3027 561.002 15.8919 561.339 16.2745C561.676 16.6417 562.197 16.8254 562.902 16.8254C563.361 16.8254 563.882 16.7412 564.464 16.5729V17.5828C563.821 17.7971 563.231 17.9042 562.695 17.9042C561.638 17.9042 560.833 17.6211 560.282 17.0549C559.73 16.4734 559.454 15.6164 559.454 14.484V7.16168H557.708V6.17465L559.5 6.10579L559.638 3.21357L560.833 3.07585V6.10579H564.303V7.16168H560.833Z" fill="#013D5B"/>
<path d="M554.062 17.6517V9.68662C554.062 7.80439 553.104 6.86327 551.189 6.86327C550.683 6.86327 550.124 6.94744 549.511 7.11577C548.914 7.2841 548.324 7.51364 547.742 7.80439V17.6517H546.363V6.17465L547.535 6.05988L547.627 6.86327C548.96 6.12874 550.262 5.76147 551.534 5.76147C552.775 5.76147 553.732 6.08283 554.406 6.72555C555.096 7.36826 555.44 8.27877 555.44 9.45708V17.6517H554.062Z" fill="#013D5B"/>
<path d="M534.901 6.10579V14.0709C534.901 15.9531 535.828 16.8942 537.682 16.8942C538.187 16.8942 538.739 16.81 539.336 16.6417C539.949 16.4734 540.547 16.2438 541.129 15.9531V6.10579H542.508V17.5828L541.336 17.6976L541.244 16.8942C539.911 17.6287 538.608 17.996 537.337 17.996C536.126 17.996 535.184 17.6747 534.51 17.0319C533.851 16.3739 533.522 15.4634 533.522 14.3004V6.10579H534.901Z" fill="#013D5B"/>
<path d="M525.525 17.996C523.855 17.996 522.591 17.4834 521.733 16.4581C520.89 15.4175 520.469 13.8872 520.469 11.8673C520.469 9.86261 520.89 8.34764 521.733 7.32235C522.591 6.28177 523.855 5.76147 525.525 5.76147C527.195 5.76147 528.451 6.28177 529.294 7.32235C530.152 8.34764 530.581 9.86261 530.581 11.8673C530.581 13.8872 530.152 15.4175 529.294 16.4581C528.451 17.4834 527.195 17.996 525.525 17.996ZM525.525 16.8942C526.781 16.8942 527.692 16.4963 528.259 15.7006C528.842 14.8896 529.133 13.6118 529.133 11.8673C529.133 10.1381 528.842 8.87558 528.259 8.07984C527.692 7.26879 526.781 6.86327 525.525 6.86327C524.268 6.86327 523.349 7.26879 522.767 8.07984C522.2 8.87558 521.917 10.1381 521.917 11.8673C521.917 13.6118 522.2 14.8896 522.767 15.7006C523.349 16.4963 524.268 16.8942 525.525 16.8942Z" fill="#013D5B"/>
<path d="M518.488 17.2385C517.477 17.7435 516.374 17.996 515.179 17.996C513.555 17.996 512.299 17.4681 511.41 16.4122C510.537 15.3563 510.1 13.849 510.1 11.8902C510.1 9.93147 510.537 8.42415 511.41 7.36826C512.299 6.29707 513.555 5.76147 515.179 5.76147C516.328 5.76147 517.416 6.01397 518.442 6.51896V7.5978C517.37 7.12342 516.328 6.88622 515.317 6.88622C514.076 6.88622 513.134 7.30705 512.49 8.1487C511.862 8.99035 511.548 10.2375 511.548 11.8902C511.548 13.5276 511.862 14.7671 512.49 15.6088C513.134 16.4504 514.076 16.8713 515.317 16.8713C516.359 16.8713 517.416 16.6341 518.488 16.1597V17.2385Z" fill="#013D5B"/>
<path d="M508.12 17.2385C507.109 17.7435 506.006 17.996 504.811 17.996C503.187 17.996 501.93 17.4681 501.042 16.4122C500.169 15.3563 499.732 13.849 499.732 11.8902C499.732 9.93147 500.169 8.42415 501.042 7.36826C501.93 6.29707 503.187 5.76147 504.811 5.76147C505.96 5.76147 507.048 6.01397 508.074 6.51896V7.5978C507.002 7.12342 505.96 6.88622 504.949 6.88622C503.708 6.88622 502.765 7.30705 502.122 8.1487C501.494 8.99035 501.18 10.2375 501.18 11.8902C501.18 13.5276 501.494 14.7671 502.122 15.6088C502.765 16.4504 503.708 16.8713 504.949 16.8713C505.99 16.8713 507.048 16.6341 508.12 16.1597V17.2385Z" fill="#013D5B"/>
<path d="M495.629 17.6976L495.537 16.8942C494.22 17.6287 492.917 17.996 491.63 17.996C490.451 17.996 489.516 17.6899 488.827 17.0778C488.137 16.4504 487.792 15.5935 487.792 14.507C487.792 13.3593 488.175 12.487 488.942 11.8902C489.723 11.2781 490.864 10.9721 492.366 10.9721C493.27 10.9721 494.296 11.0792 495.445 11.2934V9.73253C495.445 7.81969 494.365 6.86327 492.205 6.86327C491.638 6.86327 491.018 6.93978 490.343 7.09281C489.669 7.24584 489.049 7.44477 488.482 7.68962V6.61078C489.033 6.35063 489.662 6.14404 490.366 5.99102C491.086 5.83799 491.768 5.76147 492.412 5.76147C493.852 5.76147 494.94 6.10579 495.675 6.79441C496.426 7.46773 496.801 8.4471 496.801 9.73253V17.5828L495.629 17.6976ZM491.952 16.8942C492.504 16.8942 493.086 16.81 493.699 16.6417C494.311 16.4734 494.894 16.2438 495.445 15.9531V12.2804C494.48 12.0968 493.53 12.005 492.596 12.005C491.416 12.005 490.558 12.2039 490.022 12.6018C489.485 12.9997 489.217 13.6271 489.217 14.484C489.217 16.0908 490.129 16.8942 491.952 16.8942Z" fill="#013D5B"/>
<path d="M473.805 23C472.441 23 471.284 22.7628 470.334 22.2884L470.151 21.1178C471.407 21.6381 472.602 21.8982 473.736 21.8982C476.294 21.8982 477.574 20.7122 477.574 18.3403V16.7565C476.991 17.0778 476.394 17.3303 475.781 17.514C475.184 17.6976 474.624 17.7894 474.103 17.7894C472.602 17.7894 471.422 17.2844 470.564 16.2744C469.706 15.2645 469.277 13.8643 469.277 12.0738C469.277 10.0386 469.76 8.47771 470.725 7.39122C471.706 6.30472 473.115 5.76147 474.954 5.76147C476.348 5.76147 477.681 6.00632 478.952 6.49601V18.2255C478.952 19.7558 478.508 20.9341 477.62 21.7605C476.731 22.5868 475.459 23 473.805 23ZM474.287 16.6876C474.793 16.6876 475.337 16.6035 475.919 16.4351C476.501 16.2668 477.053 16.0373 477.574 15.7465V7.23054C476.777 6.98569 475.942 6.86327 475.069 6.86327C473.598 6.86327 472.502 7.29175 471.782 8.1487C471.078 8.99035 470.725 10.2911 470.725 12.0509C470.725 13.5659 471.024 14.7212 471.621 15.517C472.234 16.2974 473.123 16.6876 474.287 16.6876Z" fill="#013D5B"/>
<path d="M464.965 17.6517V9.68662C464.965 7.80439 464.007 6.86327 462.092 6.86327C461.586 6.86327 461.027 6.94744 460.414 7.11577C459.817 7.2841 459.227 7.51364 458.645 7.80439V17.6517H457.266V6.17465L458.438 6.05988L458.53 6.86327C459.863 6.12874 461.165 5.76147 462.437 5.76147C463.678 5.76147 464.635 6.08283 465.309 6.72555C465.999 7.36826 466.344 8.27877 466.344 9.45708V17.6517H464.965Z" fill="#013D5B"/>
<path d="M452.037 17.6517V6.22056L453.416 6.03693V17.6517H452.037ZM452.726 3.30539C452.42 3.30539 452.167 3.21357 451.968 3.02994C451.784 2.84631 451.692 2.59381 451.692 2.27246C451.692 1.9511 451.784 1.6986 451.968 1.51497C452.167 1.33134 452.42 1.23952 452.726 1.23952C453.033 1.23952 453.278 1.33134 453.462 1.51497C453.661 1.6986 453.76 1.9511 453.76 2.27246C453.76 2.59381 453.661 2.84631 453.462 3.02994C453.278 3.21357 453.033 3.30539 452.726 3.30539Z" fill="#013D5B"/>
<path d="M441.466 17.6517V0.413173L442.845 0.22954V11.2246L448.269 6.10579H449.9L444.224 11.477L450.084 17.6517H448.338L442.845 11.8214V17.6517H441.466Z" fill="#013D5B"/>
<path d="M438.503 17.2385C437.492 17.7435 436.389 17.996 435.194 17.996C433.57 17.996 432.314 17.4681 431.425 16.4122C430.552 15.3563 430.115 13.849 430.115 11.8902C430.115 9.93147 430.552 8.42415 431.425 7.36826C432.314 6.29707 433.57 5.76147 435.194 5.76147C436.343 5.76147 437.431 6.01397 438.457 6.51896V7.5978C437.385 7.12342 436.343 6.88622 435.332 6.88622C434.091 6.88622 433.149 7.30705 432.505 8.1487C431.877 8.99035 431.563 10.2375 431.563 11.8902C431.563 13.5276 431.877 14.7671 432.505 15.6088C433.149 16.4504 434.091 16.8713 435.332 16.8713C436.374 16.8713 437.431 16.6341 438.503 16.1597V17.2385Z" fill="#013D5B"/>
<path d="M427.294 17.2385C426.237 17.7435 425.103 17.996 423.893 17.996C422.131 17.996 420.775 17.4757 419.825 16.4351C418.875 15.3945 418.4 13.9025 418.4 11.9591C418.4 10.0309 418.844 8.51597 419.733 7.41417C420.622 6.31237 421.84 5.76147 423.387 5.76147C424.751 5.76147 425.823 6.18995 426.604 7.0469C427.401 7.88855 427.799 9.04391 427.799 10.513C427.799 11.0639 427.753 11.5918 427.662 12.0968H419.756C419.771 15.2951 421.189 16.8942 424.008 16.8942C425.141 16.8942 426.237 16.6494 427.294 16.1597V17.2385ZM423.364 6.84032C422.322 6.84032 421.472 7.22289 420.813 7.98802C420.154 8.75316 419.802 9.77844 419.756 11.0639H426.467C426.497 10.819 426.512 10.6048 426.512 10.4212C426.512 9.28875 426.237 8.40885 425.685 7.78143C425.134 7.15402 424.36 6.84032 423.364 6.84032Z" fill="#013D5B"/>
<path d="M406.389 17.6517V0.413173L407.768 0.22954V6.81736C409.054 6.11344 410.318 5.76148 411.559 5.76148C412.8 5.76148 413.758 6.08283 414.432 6.72555C415.122 7.36826 415.466 8.27878 415.466 9.45709V17.6517H414.087V9.68663C414.087 7.80439 413.13 6.86327 411.215 6.86327C410.709 6.86327 410.15 6.94744 409.537 7.11577C408.94 7.2841 408.35 7.51364 407.768 7.80439V17.6517H406.389Z" fill="#013D5B"/>
<path d="M403.425 17.2385C402.414 17.7435 401.311 17.996 400.116 17.996C398.492 17.996 397.236 17.4681 396.347 16.4122C395.474 15.3563 395.037 13.849 395.037 11.8902C395.037 9.93147 395.474 8.42415 396.347 7.36826C397.236 6.29707 398.492 5.76147 400.116 5.76147C401.265 5.76147 402.353 6.01397 403.38 6.51896V7.5978C402.307 7.12342 401.265 6.88622 400.254 6.88622C399.013 6.88622 398.071 7.30705 397.427 8.1487C396.799 8.99035 396.485 10.2375 396.485 11.8902C396.485 13.5276 396.799 14.7671 397.427 15.6088C398.071 16.4504 399.013 16.8713 400.254 16.8713C401.296 16.8713 402.353 16.6341 403.425 16.1597V17.2385Z" fill="#013D5B"/>
<path d="M384.979 17.6517V9.68662C384.979 7.80439 384.022 6.86327 382.107 6.86327C381.601 6.86327 381.042 6.94744 380.429 7.11577C379.832 7.2841 379.242 7.51364 378.66 7.80439V17.6517H377.281V6.17465L378.453 6.05988L378.545 6.86327C379.878 6.12874 381.18 5.76147 382.452 5.76147C383.692 5.76147 384.65 6.08283 385.324 6.72555C386.014 7.36826 386.358 8.27877 386.358 9.45708V17.6517H384.979Z" fill="#013D5B"/>
<path d="M369.123 17.996C367.453 17.996 366.189 17.4834 365.331 16.4581C364.488 15.4175 364.067 13.8872 364.067 11.8673C364.067 9.86261 364.488 8.34764 365.331 7.32235C366.189 6.28177 367.453 5.76147 369.123 5.76147C370.792 5.76147 372.049 6.28177 372.891 7.32235C373.749 8.34764 374.178 9.86261 374.178 11.8673C374.178 13.8872 373.749 15.4175 372.891 16.4581C372.049 17.4834 370.792 17.996 369.123 17.996ZM369.123 16.8942C370.379 16.8942 371.29 16.4963 371.857 15.7006C372.439 14.8896 372.731 13.6118 372.731 11.8673C372.731 10.1381 372.439 8.87558 371.857 8.07984C371.29 7.26879 370.379 6.86327 369.123 6.86327C367.866 6.86327 366.947 7.26879 366.365 8.07984C365.798 8.87558 365.514 10.1381 365.514 11.8673C365.514 13.6118 365.798 14.8896 366.365 15.7006C366.947 16.4963 367.866 16.8942 369.123 16.8942Z" fill="#013D5B"/>
<path d="M348.062 16.1367C349.211 16.6417 350.398 16.8942 351.624 16.8942C353.692 16.8942 354.727 16.0908 354.727 14.484C354.727 13.9637 354.573 13.5429 354.267 13.2216C353.976 12.9002 353.486 12.6324 352.796 12.4182L351.05 11.8673C350.069 11.5612 349.357 11.1786 348.912 10.7196C348.468 10.2452 348.246 9.64837 348.246 8.92914C348.246 7.96507 348.621 7.19993 349.372 6.63373C350.138 6.05223 351.164 5.76147 352.451 5.76147C353.539 5.76147 354.573 5.96806 355.554 6.38124V7.46008C354.527 7.06221 353.516 6.86327 352.52 6.86327C351.616 6.86327 350.904 7.0469 350.383 7.41417C349.878 7.76613 349.625 8.25582 349.625 8.88323C349.625 9.32701 349.763 9.68662 350.038 9.96207C350.329 10.2222 350.843 10.4747 351.578 10.7196L353.394 11.3164C354.328 11.6224 355.01 12.0279 355.439 12.5329C355.883 13.0379 356.105 13.6806 356.105 14.4611C356.105 15.5935 355.722 16.4657 354.956 17.0778C354.19 17.6899 353.11 17.996 351.716 17.996C350.429 17.996 349.272 17.7588 348.246 17.2844L348.062 16.1367Z" fill="#013D5B"/>
<path d="M343.874 17.6517V9.45708C343.874 7.72788 343.054 6.86327 341.415 6.86327C340.465 6.86327 339.377 7.20758 338.152 7.8962C338.274 8.30938 338.335 8.75316 338.335 9.22754V17.6517H336.957V9.45708C336.957 7.72788 336.137 6.86327 334.498 6.86327C333.578 6.86327 332.552 7.17698 331.418 7.80439V17.6517H330.039V6.17465L331.211 6.05988L331.303 6.86327C332.605 6.12874 333.785 5.76147 334.842 5.76147C336.19 5.76147 337.163 6.20525 337.761 7.09281C339.247 6.20525 340.58 5.76147 341.76 5.76147C342.878 5.76147 343.736 6.05988 344.333 6.65668C344.946 7.25349 345.253 8.11044 345.253 9.22754V17.6517H343.874Z" fill="#013D5B"/>
<path d="M318.577 6.10579V14.0709C318.577 15.9531 319.504 16.8942 321.358 16.8942C321.863 16.8942 322.415 16.81 323.012 16.6417C323.625 16.4734 324.223 16.2438 324.805 15.9531V6.10579H326.184V17.5828L325.012 17.6976L324.92 16.8942C323.587 17.6287 322.285 17.996 321.013 17.996C319.803 17.996 318.861 17.6747 318.186 17.0319C317.528 16.3739 317.198 15.4634 317.198 14.3004V6.10579H318.577Z" fill="#013D5B"/>
<path d="M312.275 17.6517V9.45708C312.275 7.72788 311.455 6.86327 309.816 6.86327C308.866 6.86327 307.778 7.20758 306.552 7.8962C306.675 8.30938 306.736 8.75316 306.736 9.22754V17.6517H305.357V9.45708C305.357 7.72788 304.538 6.86327 302.898 6.86327C301.979 6.86327 300.953 7.17698 299.819 7.80439V17.6517H298.44V6.17465L299.612 6.05988L299.704 6.86327C301.006 6.12874 302.186 5.76147 303.243 5.76147C304.591 5.76147 305.564 6.20525 306.162 7.09281C307.648 6.20525 308.981 5.76147 310.16 5.76147C311.279 5.76147 312.137 6.05988 312.734 6.65668C313.347 7.25349 313.654 8.11044 313.654 9.22754V17.6517H312.275Z" fill="#013D5B"/>
<path d="M293.211 17.6517V6.22056L294.59 6.03693V17.6517H293.211ZM293.9 3.30539C293.594 3.30539 293.341 3.21357 293.142 3.02994C292.958 2.84631 292.866 2.59381 292.866 2.27246C292.866 1.9511 292.958 1.6986 293.142 1.51497C293.341 1.33134 293.594 1.23952 293.9 1.23952C294.207 1.23952 294.452 1.33134 294.636 1.51497C294.835 1.6986 294.935 1.9511 294.935 2.27246C294.935 2.59381 294.835 2.84631 294.636 3.02994C294.452 3.21357 294.207 3.30539 293.9 3.30539Z" fill="#013D5B"/>
<path d="M288.14 17.6517V9.68662C288.14 7.80439 287.182 6.86327 285.267 6.86327C284.762 6.86327 284.202 6.94744 283.59 7.11577C282.992 7.2841 282.402 7.51364 281.82 7.80439V17.6517H280.441V6.17465L281.613 6.05988L281.705 6.86327C283.038 6.12874 284.34 5.76147 285.612 5.76147C286.853 5.76147 287.81 6.08283 288.485 6.72555C289.174 7.36826 289.519 8.27877 289.519 9.45708V17.6517H288.14Z" fill="#013D5B"/>
<path d="M275.212 17.6517V6.22056L276.591 6.03693V17.6517H275.212ZM275.901 3.30539C275.595 3.30539 275.342 3.21357 275.143 3.02994C274.959 2.84631 274.867 2.59381 274.867 2.27246C274.867 1.9511 274.959 1.6986 275.143 1.51497C275.342 1.33134 275.595 1.23952 275.901 1.23952C276.208 1.23952 276.453 1.33134 276.637 1.51497C276.836 1.6986 276.935 1.9511 276.935 2.27246C276.935 2.59381 276.836 2.84631 276.637 3.02994C276.453 3.21357 276.208 3.30539 275.901 3.30539Z" fill="#013D5B"/>
<path d="M270.128 17.6517V9.45708C270.128 7.72788 269.308 6.86327 267.669 6.86327C266.719 6.86327 265.631 7.20758 264.405 7.8962C264.528 8.30938 264.589 8.75316 264.589 9.22754V17.6517H263.21V9.45708C263.21 7.72788 262.391 6.86327 260.751 6.86327C259.832 6.86327 258.806 7.17698 257.672 7.80439V17.6517H256.293V6.17465L257.465 6.05988L257.557 6.86327C258.859 6.12874 260.039 5.76147 261.096 5.76147C262.444 5.76147 263.417 6.20525 264.015 7.09281C265.501 6.20525 266.834 5.76147 268.013 5.76147C269.132 5.76147 269.99 6.05988 270.587 6.65668C271.2 7.25349 271.506 8.11044 271.506 9.22754V17.6517H270.128Z" fill="#013D5B"/>
<path d="M242.648 17.6517V6.17465L243.82 6.05988L243.935 7.09281C244.961 6.25116 246.057 5.83034 247.221 5.83034C247.635 5.83034 247.964 5.87625 248.209 5.96806V7.09281C247.811 7.001 247.459 6.95509 247.152 6.95509C246.064 6.95509 245.023 7.34531 244.027 8.12575V17.6517H242.648Z" fill="#013D5B"/>
<path d="M234.49 17.996C232.82 17.996 231.556 17.4834 230.698 16.4581C229.855 15.4175 229.434 13.8872 229.434 11.8673C229.434 9.86261 229.855 8.34764 230.698 7.32235C231.556 6.28177 232.82 5.76147 234.49 5.76147C236.16 5.76147 237.416 6.28177 238.259 7.32235C239.117 8.34764 239.546 9.86261 239.546 11.8673C239.546 13.8872 239.117 15.4175 238.259 16.4581C237.416 17.4834 236.16 17.996 234.49 17.996ZM234.49 16.8942C235.746 16.8942 236.658 16.4963 237.224 15.7006C237.807 14.8896 238.098 13.6118 238.098 11.8673C238.098 10.1381 237.807 8.87558 237.224 8.07984C236.658 7.26879 235.746 6.86327 234.49 6.86327C233.233 6.86327 232.314 7.26879 231.732 8.07984C231.165 8.87558 230.882 10.1381 230.882 11.8673C230.882 13.6118 231.165 14.8896 231.732 15.7006C232.314 16.4963 233.233 16.8942 234.49 16.8942Z" fill="#013D5B"/>
<path d="M213.429 16.1367C214.578 16.6417 215.765 16.8942 216.991 16.8942C219.059 16.8942 220.094 16.0908 220.094 14.484C220.094 13.9637 219.94 13.5429 219.634 13.2216C219.343 12.9002 218.853 12.6324 218.163 12.4182L216.417 11.8673C215.436 11.5612 214.724 11.1786 214.279 10.7196C213.835 10.2452 213.613 9.64837 213.613 8.92914C213.613 7.96507 213.988 7.19993 214.739 6.63373C215.505 6.05223 216.532 5.76147 217.818 5.76147C218.906 5.76147 219.94 5.96806 220.921 6.38124V7.46008C219.894 7.06221 218.883 6.86327 217.887 6.86327C216.983 6.86327 216.271 7.0469 215.75 7.41417C215.245 7.76613 214.992 8.25582 214.992 8.88323C214.992 9.32701 215.13 9.68662 215.405 9.96207C215.697 10.2222 216.21 10.4747 216.945 10.7196L218.761 11.3164C219.695 11.6224 220.377 12.0279 220.806 12.5329C221.25 13.0379 221.472 13.6806 221.472 14.4611C221.472 15.5935 221.089 16.4657 220.323 17.0778C219.557 17.6899 218.477 17.996 217.083 17.996C215.796 17.996 214.639 17.7588 213.613 17.2844L213.429 16.1367Z" fill="#013D5B"/>
<path d="M210.746 17.2385C209.689 17.7435 208.555 17.996 207.345 17.996C205.583 17.996 204.227 17.4757 203.277 16.4351C202.327 15.3945 201.852 13.9025 201.852 11.9591C201.852 10.0309 202.296 8.51597 203.185 7.41417C204.074 6.31237 205.292 5.76147 206.839 5.76147C208.203 5.76147 209.275 6.18995 210.056 7.0469C210.853 7.88855 211.251 9.04391 211.251 10.513C211.251 11.0639 211.205 11.5918 211.113 12.0968H203.208C203.223 15.2951 204.64 16.8942 207.459 16.8942C208.593 16.8942 209.689 16.6494 210.746 16.1597V17.2385ZM206.816 6.84032C205.774 6.84032 204.924 7.22289 204.265 7.98802C203.606 8.75316 203.254 9.77844 203.208 11.0639H209.918C209.949 10.819 209.964 10.6048 209.964 10.4212C209.964 9.28875 209.689 8.40885 209.137 7.78143C208.586 7.15402 207.812 6.84032 206.816 6.84032Z" fill="#013D5B"/>
<path d="M199.031 17.2385C197.974 17.7435 196.84 17.996 195.629 17.996C193.868 17.996 192.512 17.4757 191.562 16.4351C190.612 15.3945 190.137 13.9025 190.137 11.9591C190.137 10.0309 190.581 8.51597 191.47 7.41417C192.358 6.31237 193.576 5.76147 195.124 5.76147C196.487 5.76147 197.56 6.18995 198.341 7.0469C199.138 7.88855 199.536 9.04391 199.536 10.513C199.536 11.0639 199.49 11.5918 199.398 12.0968H191.493C191.508 15.2951 192.925 16.8942 195.744 16.8942C196.878 16.8942 197.974 16.6494 199.031 16.1597V17.2385ZM195.101 6.84032C194.059 6.84032 193.209 7.22289 192.55 7.98802C191.891 8.75316 191.539 9.77844 191.493 11.0639H198.203C198.234 10.819 198.249 10.6048 198.249 10.4212C198.249 9.28875 197.974 8.40885 197.422 7.78143C196.87 7.15402 196.097 6.84032 195.101 6.84032Z" fill="#013D5B"/>
<path d="M184.08 17.6517V7.16168H182.334V6.17465L184.08 6.10579V3.51198C184.08 2.37957 184.356 1.51497 184.908 0.918164C185.475 0.306055 186.294 0 187.367 0C187.949 0 188.539 0.107119 189.136 0.321357V1.33134C188.585 1.16301 188.056 1.07884 187.551 1.07884C186.831 1.07884 186.302 1.27013 185.965 1.6527C185.628 2.01996 185.459 2.60146 185.459 3.39721V6.10579H188.562V7.16168H185.459V17.6517H184.08Z" fill="#013D5B"/>
<path d="M169.855 17.996C168.185 17.996 166.921 17.4834 166.063 16.4581C165.221 15.4175 164.799 13.8872 164.799 11.8673C164.799 9.86261 165.221 8.34764 166.063 7.32235C166.921 6.28177 168.185 5.76147 169.855 5.76147C171.525 5.76147 172.781 6.28177 173.624 7.32235C174.482 8.34764 174.911 9.86261 174.911 11.8673C174.911 13.8872 174.482 15.4175 173.624 16.4581C172.781 17.4834 171.525 17.996 169.855 17.996ZM169.855 16.8942C171.111 16.8942 172.023 16.4963 172.59 15.7006C173.172 14.8896 173.463 13.6118 173.463 11.8673C173.463 10.1381 173.172 8.87558 172.59 8.07984C172.023 7.26879 171.111 6.86327 169.855 6.86327C168.599 6.86327 167.68 7.26879 167.097 8.07984C166.531 8.87558 166.247 10.1381 166.247 11.8673C166.247 13.6118 166.531 14.8896 167.097 15.7006C167.68 16.4963 168.599 16.8942 169.855 16.8942Z" fill="#013D5B"/>
<path d="M160.487 17.6517V9.68662C160.487 7.80439 159.529 6.86327 157.614 6.86327C157.108 6.86327 156.549 6.94744 155.936 7.11577C155.339 7.2841 154.749 7.51364 154.167 7.80439V17.6517H152.788V6.17465L153.96 6.05988L154.052 6.86327C155.385 6.12874 156.687 5.76147 157.959 5.76147C159.2 5.76147 160.157 6.08283 160.831 6.72555C161.521 7.36826 161.866 8.27877 161.866 9.45708V17.6517H160.487Z" fill="#013D5B"/>
<path d="M134.273 17.6517V0.413173L135.652 0.22954V6.81736C136.939 6.11344 138.203 5.76148 139.444 5.76148C140.685 5.76148 141.642 6.08283 142.316 6.72555C143.006 7.36826 143.351 8.27878 143.351 9.45709V17.6517H141.972V9.68663C141.972 7.80439 141.014 6.86327 139.099 6.86327C138.593 6.86327 138.034 6.94744 137.421 7.11577C136.824 7.2841 136.234 7.51364 135.652 7.80439V17.6517H134.273Z" fill="#013D5B"/>
<path d="M128.253 7.16168V14.507C128.253 15.3027 128.422 15.8919 128.759 16.2745C129.096 16.6417 129.617 16.8254 130.322 16.8254C130.781 16.8254 131.302 16.7412 131.884 16.5729V17.5828C131.241 17.7971 130.651 17.9042 130.115 17.9042C129.058 17.9042 128.253 17.6211 127.702 17.0549C127.15 16.4734 126.874 15.6164 126.874 14.484V7.16168H125.128V6.17465L126.92 6.10579L127.058 3.21357L128.253 3.07585V6.10579H131.723V7.16168H128.253Z" fill="#013D5B"/>
<path d="M121.323 17.6517V6.22056L122.702 6.03693V17.6517H121.323ZM122.013 3.30539C121.707 3.30539 121.454 3.21357 121.255 3.02994C121.071 2.84631 120.979 2.59381 120.979 2.27246C120.979 1.9511 121.071 1.6986 121.255 1.51497C121.454 1.33134 121.707 1.23952 122.013 1.23952C122.319 1.23952 122.564 1.33134 122.748 1.51497C122.947 1.6986 123.047 1.9511 123.047 2.27246C123.047 2.59381 122.947 2.84631 122.748 3.02994C122.564 3.21357 122.319 3.30539 122.013 3.30539Z" fill="#013D5B"/>
<path d="M114.273 17.6517L111.17 7.64371L108.16 17.6517H106.85L103.173 6.10579H104.575L107.516 15.9531L110.412 6.10579H111.952L114.893 16.022L117.812 6.10579H119.145L115.583 17.6517H114.273Z" fill="#013D5B"/>
<path d="M93.8763 17.6517V0.413173L95.2552 0.22954V17.6517H93.8763Z" fill="#013D5B"/>
<path d="M88.6472 17.6517V0.413173L90.0261 0.22954V17.6517H88.6472Z" fill="#013D5B"/>
<path d="M85.0675 17.2385C84.0104 17.7435 82.8767 17.996 81.6663 17.996C79.9044 17.996 78.5486 17.4757 77.5987 16.4351C76.6488 15.3945 76.1738 13.9025 76.1738 11.9591C76.1738 10.0309 76.6181 8.51597 77.5067 7.41417C78.3953 6.31237 79.6133 5.76147 81.1607 5.76147C82.5243 5.76147 83.5968 6.18995 84.3781 7.0469C85.1748 7.88855 85.5731 9.04391 85.5731 10.513C85.5731 11.0639 85.5272 11.5918 85.4352 12.0968H77.5297C77.545 15.2951 78.9622 16.8942 81.7812 16.8942C82.915 16.8942 84.0104 16.6494 85.0675 16.1597V17.2385ZM81.1378 6.84032C80.0959 6.84032 79.2456 7.22289 78.5869 7.98802C77.9281 8.75316 77.5757 9.77844 77.5297 11.0639H84.2402C84.2709 10.819 84.2862 10.6048 84.2862 10.4212C84.2862 9.28875 84.0104 8.40885 83.4589 7.78143C82.9073 7.15402 82.1336 6.84032 81.1378 6.84032Z" fill="#013D5B"/>
<path d="M69.8815 17.6517L66.7791 7.64371L63.7685 17.6517H62.4586L58.7816 6.10579H60.1835L63.1251 15.9531L66.0207 6.10579H67.5604L70.502 16.022L73.4206 6.10579H74.7535L71.1914 17.6517H69.8815Z" fill="#013D5B"/>
<path d="M41.9442 22.7705V6.17465L43.1163 6.05988L43.2082 6.86327C44.5104 6.12874 45.7055 5.76147 46.7932 5.76147C48.2947 5.76147 49.4744 6.28942 50.3323 7.34531C51.1903 8.38589 51.6193 9.832 51.6193 11.6836C51.6193 13.7189 51.129 15.2798 50.1485 16.3663C49.1833 17.4528 47.7814 17.996 45.9429 17.996C44.9931 17.996 44.1198 17.8736 43.3231 17.6287V22.5868L41.9442 22.7705ZM46.6094 6.86327C46.1038 6.86327 45.5599 6.94744 44.9777 7.11577C44.3955 7.2841 43.844 7.51364 43.3231 7.80439V16.5269C44.1198 16.7718 44.9547 16.8942 45.828 16.8942C47.2988 16.8942 48.3866 16.4734 49.0914 15.6317C49.8114 14.7748 50.1715 13.4664 50.1715 11.7066C50.1715 10.1304 49.8651 8.92914 49.2522 8.10279C48.6547 7.27644 47.7738 6.86327 46.6094 6.86327Z" fill="#013D5B"/>
<path d="M38.3645 17.2385C37.3074 17.7435 36.1737 17.996 34.9633 17.996C33.2014 17.996 31.8455 17.4757 30.8957 16.4351C29.9458 15.3945 29.4708 13.9025 29.4708 11.9591C29.4708 10.0309 29.9151 8.51597 30.8037 7.41417C31.6923 6.31237 32.9103 5.76147 34.4577 5.76147C35.8213 5.76147 36.8937 6.18995 37.6751 7.0469C38.4718 7.88855 38.8701 9.04391 38.8701 10.513C38.8701 11.0639 38.8242 11.5918 38.7322 12.0968H30.8267C30.842 15.2951 32.2592 16.8942 35.0782 16.8942C36.212 16.8942 37.3074 16.6494 38.3645 16.1597V17.2385ZM34.4348 6.84032C33.3929 6.84032 32.5426 7.22289 31.8838 7.98802C31.2251 8.75316 30.8727 9.77844 30.8267 11.0639H37.5372C37.5679 10.819 37.5832 10.6048 37.5832 10.4212C37.5832 9.28875 37.3074 8.40885 36.7559 7.78143C36.2043 7.15402 35.4306 6.84032 34.4348 6.84032Z" fill="#013D5B"/>
<path d="M26.6496 17.2385C25.5924 17.7435 24.4587 17.996 23.2484 17.996C21.4865 17.996 20.1306 17.4757 19.1807 16.4351C18.2308 15.3945 17.7559 13.9025 17.7559 11.9591C17.7559 10.0309 18.2002 8.51597 19.0888 7.41417C19.9774 6.31237 21.1954 5.76147 22.7428 5.76147C24.1063 5.76147 25.1788 6.18995 25.9601 7.0469C26.7568 7.88855 27.1552 9.04391 27.1552 10.513C27.1552 11.0639 27.1092 11.5918 27.0173 12.0968H19.1117C19.1271 15.2951 20.5442 16.8942 23.3633 16.8942C24.497 16.8942 25.5924 16.6494 26.6496 16.1597V17.2385ZM22.7198 6.84032C21.678 6.84032 20.8277 7.22289 20.1689 7.98802C19.5101 8.75316 19.1577 9.77844 19.1117 11.0639H25.8222C25.8529 10.819 25.8682 10.6048 25.8682 10.4212C25.8682 9.28875 25.5924 8.40885 25.0409 7.78143C24.4893 7.15402 23.7156 6.84032 22.7198 6.84032Z" fill="#013D5B"/>
<path d="M13.2852 17.6517V0.413173L14.664 0.22954V17.6517H13.2852Z" fill="#013D5B"/>
<path d="M0 15.7695C1.60868 16.4734 3.1331 16.8253 4.57325 16.8253C5.9368 16.8253 6.98627 16.5269 7.72167 15.9301C8.47239 15.318 8.84775 14.4458 8.84775 13.3134C8.84775 12.4564 8.60262 11.7678 8.11235 11.2475C7.62209 10.7272 6.80242 10.2911 5.65337 9.93912L4.0217 9.43413C2.7654 9.05156 1.84615 8.55422 1.26396 7.94212C0.681775 7.3147 0.39068 6.51896 0.39068 5.55489C0.39068 4.25416 0.880945 3.21357 1.86147 2.43313C2.85732 1.63739 4.18257 1.23952 5.83722 1.23952C7.17012 1.23952 8.45707 1.52262 9.69805 2.08882V3.23653C8.38046 2.68563 7.10884 2.41018 5.88318 2.41018C4.62687 2.41018 3.64634 2.68563 2.94159 3.23653C2.23683 3.77212 1.88446 4.52961 1.88446 5.50898C1.88446 6.1976 2.08363 6.74085 2.48197 7.13872C2.88031 7.53659 3.5774 7.89621 4.57325 8.21757L6.20491 8.74551C7.67571 9.21989 8.73284 9.8167 9.37632 10.5359C10.0198 11.2399 10.3415 12.158 10.3415 13.2904C10.3415 14.7442 9.82828 15.8919 8.80179 16.7335C7.79061 17.5752 6.40408 17.996 4.64219 17.996C3.01819 17.996 1.5474 17.667 0.229812 17.009L0 15.7695Z" fill="#013D5B"/>
</svg>
