<svg width="140" height="18" viewBox="0 0 140 18" fill="none" xmlns="http://www.w3.org/2000/svg">
<path d="M133.708 12.5746C134.607 12.9738 135.536 13.1734 136.494 13.1734C138.112 13.1734 138.921 12.5383 138.921 11.2681C138.921 10.8569 138.801 10.5242 138.562 10.2702C138.334 10.0161 137.951 9.80444 137.411 9.63508L136.045 9.1996C135.278 8.95766 134.721 8.65524 134.373 8.29234C134.025 7.91734 133.852 7.44557 133.852 6.87702C133.852 6.11492 134.145 5.51008 134.733 5.0625C135.332 4.60283 136.135 4.37299 137.142 4.37299C137.992 4.37299 138.801 4.53629 139.569 4.86291V5.71573C138.766 5.40121 137.975 5.24396 137.195 5.24396C136.488 5.24396 135.931 5.38912 135.524 5.67944C135.128 5.95766 134.93 6.34476 134.93 6.84073C134.93 7.19154 135.038 7.47581 135.254 7.69355C135.482 7.8992 135.883 8.09879 136.458 8.29234L137.879 8.76411C138.61 9.00605 139.143 9.32662 139.479 9.72581C139.826 10.125 140 10.6331 140 11.25C140 12.1452 139.7 12.8347 139.101 13.3186C138.502 13.8024 137.657 14.0444 136.566 14.0444C135.559 14.0444 134.655 13.8569 133.852 13.4819L133.708 12.5746Z" fill="#013D5B"/>
<path d="M129.7 5.47984V11.2863C129.7 11.9153 129.832 12.381 130.095 12.6835C130.359 12.9738 130.767 13.119 131.318 13.119C131.677 13.119 132.085 13.0524 132.54 12.9194V13.7177C132.037 13.8871 131.576 13.9718 131.156 13.9718C130.329 13.9718 129.7 13.748 129.268 13.3004C128.837 12.8407 128.621 12.1633 128.621 11.2681V5.47984H127.255V4.6996L128.657 4.64516L128.765 2.35887L129.7 2.25V4.64516H132.415V5.47984H129.7Z" fill="#013D5B"/>
<path d="M124.402 13.7722V7.47581C124.402 5.98791 123.653 5.24396 122.155 5.24396C121.76 5.24396 121.322 5.31049 120.843 5.44355C120.375 5.57662 119.914 5.75807 119.458 5.98791V13.7722H118.38V4.6996L119.297 4.60887L119.369 5.24396C120.411 4.66331 121.43 4.37299 122.425 4.37299C123.396 4.37299 124.145 4.62702 124.672 5.13508C125.211 5.64315 125.481 6.36291 125.481 7.29436V13.7722H124.402Z" fill="#013D5B"/>
<path d="M109.413 4.64517V10.9415C109.413 12.4294 110.138 13.1734 111.589 13.1734C111.984 13.1734 112.416 13.1069 112.883 12.9738C113.362 12.8407 113.83 12.6593 114.285 12.4294V4.64517H115.364V13.7178L114.447 13.8085L114.375 13.1734C113.332 13.754 112.314 14.0444 111.319 14.0444C110.372 14.0444 109.635 13.7903 109.108 13.2823C108.592 12.7621 108.335 12.0424 108.335 11.123V4.64517H109.413Z" fill="#013D5B"/>
<path d="M102.078 14.0444C100.772 14.0444 99.7832 13.6391 99.1121 12.8286C98.4529 12.0061 98.1233 10.7964 98.1233 9.1996C98.1233 7.61492 98.4529 6.41734 99.1121 5.60686C99.7832 4.78428 100.772 4.37299 102.078 4.37299C103.385 4.37299 104.368 4.78428 105.027 5.60686C105.698 6.41734 106.034 7.61492 106.034 9.1996C106.034 10.7964 105.698 12.0061 105.027 12.8286C104.368 13.6391 103.385 14.0444 102.078 14.0444ZM102.078 13.1734C103.061 13.1734 103.774 12.8589 104.218 12.2298C104.673 11.5887 104.901 10.5786 104.901 9.1996C104.901 7.83266 104.673 6.83468 104.218 6.20565C103.774 5.56452 103.061 5.24396 102.078 5.24396C101.096 5.24396 100.377 5.56452 99.9211 6.20565C99.4776 6.83468 99.2559 7.83266 99.2559 9.1996C99.2559 10.5786 99.4776 11.5887 99.9211 12.2298C100.377 12.8589 101.096 13.1734 102.078 13.1734Z" fill="#013D5B"/>
<path d="M96.5741 13.4456C95.7831 13.8448 94.9202 14.0444 93.9853 14.0444C92.7149 14.0444 91.7321 13.627 91.0369 12.7923C90.3538 11.9577 90.0122 10.7661 90.0122 9.21775C90.0122 7.66936 90.3538 6.47783 91.0369 5.64315C91.7321 4.79638 92.7149 4.37299 93.9853 4.37299C94.8842 4.37299 95.7352 4.57258 96.5382 4.97178V5.8246C95.6992 5.4496 94.8842 5.2621 94.0932 5.2621C93.1224 5.2621 92.3853 5.59476 91.8819 6.26008C91.3905 6.92541 91.1448 7.9113 91.1448 9.21775C91.1448 10.5121 91.3905 11.4919 91.8819 12.1573C92.3853 12.8226 93.1224 13.1552 94.0932 13.1552C94.9082 13.1552 95.7352 12.9677 96.5741 12.5927V13.4456Z" fill="#013D5B"/>
<path d="M88.4629 13.4456C87.6719 13.8448 86.809 14.0444 85.8741 14.0444C84.6037 14.0444 83.6209 13.627 82.9257 12.7923C82.2426 11.9577 81.901 10.7661 81.901 9.21775C81.901 7.66936 82.2426 6.47783 82.9257 5.64315C83.6209 4.79638 84.6037 4.37299 85.8741 4.37299C86.773 4.37299 87.624 4.57258 88.427 4.97178V5.8246C87.588 5.4496 86.773 5.2621 85.982 5.2621C85.0112 5.2621 84.2741 5.59476 83.7707 6.26008C83.2793 6.92541 83.0336 7.9113 83.0336 9.21775C83.0336 10.5121 83.2793 11.4919 83.7707 12.1573C84.2741 12.8226 85.0112 13.1552 85.982 13.1552C86.797 13.1552 87.624 12.9677 88.4629 12.5927V13.4456Z" fill="#013D5B"/>
<path d="M78.6915 13.8085L78.6196 13.1734C77.5888 13.754 76.5701 14.0444 75.5633 14.0444C74.6405 14.0444 73.9094 13.8024 73.37 13.3186C72.8307 12.8226 72.561 12.1452 72.561 11.2863C72.561 10.379 72.8607 9.68952 73.4599 9.21775C74.0712 8.73388 74.9641 8.49194 76.1386 8.49194C76.8458 8.49194 77.6488 8.57662 78.5477 8.74597V7.5121C78.5477 6 77.7027 5.24396 76.0128 5.24396C75.5693 5.24396 75.0839 5.30444 74.5566 5.42541C74.0292 5.54638 73.5438 5.70363 73.1004 5.89718V5.04436C73.5318 4.83871 74.0232 4.67541 74.5746 4.55444C75.1379 4.43347 75.6712 4.37299 76.1746 4.37299C77.3012 4.37299 78.1522 4.64516 78.7274 5.18952C79.3147 5.72178 79.6084 6.49597 79.6084 7.5121V13.7177L78.6915 13.8085ZM75.815 13.1734C76.2465 13.1734 76.7019 13.1069 77.1813 12.9738C77.6608 12.8407 78.1162 12.6593 78.5477 12.4294V9.52622C77.7926 9.38105 77.0495 9.30847 76.3184 9.30847C75.3955 9.30847 74.7244 9.46573 74.3049 9.78025C73.8854 10.0948 73.6757 10.5907 73.6757 11.2681C73.6757 12.5383 74.3888 13.1734 75.815 13.1734Z" fill="#013D5B"/>
<path d="M61.6185 18C60.5519 18 59.647 17.8125 58.9039 17.4375L58.7601 16.5121C59.7429 16.9234 60.6777 17.129 61.5646 17.129C63.5661 17.129 64.5669 16.1915 64.5669 14.3165V13.0645C64.1115 13.3185 63.644 13.5181 63.1646 13.6633C62.6972 13.8085 62.2598 13.8811 61.8523 13.8811C60.6777 13.8811 59.7548 13.4819 59.0837 12.6835C58.4125 11.8851 58.0769 10.7782 58.0769 9.36291C58.0769 7.75404 58.4544 6.52016 59.2095 5.66129C59.9766 4.80242 61.0792 4.37299 62.5174 4.37299C63.6081 4.37299 64.6508 4.56653 65.6456 4.95363V14.2258C65.6456 15.4355 65.298 16.3669 64.6029 17.0202C63.9077 17.6734 62.9129 18 61.6185 18ZM61.9961 13.0101C62.3916 13.0101 62.8171 12.9436 63.2725 12.8105C63.7279 12.6774 64.1594 12.496 64.5669 12.2661V5.53428C63.9437 5.34073 63.2905 5.24396 62.6073 5.24396C61.4567 5.24396 60.5998 5.58267 60.0365 6.26008C59.4852 6.92541 59.2095 7.95363 59.2095 9.34476C59.2095 10.5423 59.4432 11.4556 59.9106 12.0847C60.3901 12.7016 61.0852 13.0101 61.9961 13.0101Z" fill="#013D5B"/>
<path d="M54.7031 13.7722V7.47581C54.7031 5.98791 53.954 5.24396 52.4559 5.24396C52.0604 5.24396 51.6229 5.31049 51.1435 5.44355C50.6761 5.57662 50.2147 5.75807 49.7592 5.98791V13.7722H48.6805V4.6996L49.5974 4.60887L49.6693 5.24396C50.712 4.66331 51.7308 4.37299 52.7256 4.37299C53.6964 4.37299 54.4454 4.62702 54.9728 5.13508C55.5121 5.64315 55.7818 6.36291 55.7818 7.29436V13.7722H54.7031Z" fill="#013D5B"/>
<path d="M44.5899 13.7722V4.73587L45.6685 4.59071V13.7722H44.5899ZM45.1292 2.43143C44.8895 2.43143 44.6917 2.35885 44.5359 2.21369C44.3921 2.06853 44.3202 1.86893 44.3202 1.6149C44.3202 1.36087 44.3921 1.16127 44.5359 1.01611C44.6917 0.87095 44.8895 0.79837 45.1292 0.79837C45.3689 0.79837 45.5607 0.87095 45.7045 1.01611C45.8603 1.16127 45.9382 1.36087 45.9382 1.6149C45.9382 1.86893 45.8603 2.06853 45.7045 2.21369C45.5607 2.35885 45.3689 2.43143 45.1292 2.43143Z" fill="#013D5B"/>
<path d="M36.3207 13.7722V0.145162L37.3993 0V8.69153L41.6421 4.64516H42.9186L38.478 8.89113L43.0624 13.7722H41.6961L37.3993 9.16331V13.7722H36.3207Z" fill="#013D5B"/>
<path d="M34.0027 13.4456C33.2117 13.8448 32.3488 14.0444 31.4139 14.0444C30.1435 14.0444 29.1607 13.627 28.4655 12.7923C27.7824 11.9577 27.4408 10.7661 27.4408 9.21775C27.4408 7.66936 27.7824 6.47783 28.4655 5.64315C29.1607 4.79638 30.1435 4.37299 31.4139 4.37299C32.3128 4.37299 33.1637 4.57258 33.9668 4.97178V5.8246C33.1278 5.4496 32.3128 5.2621 31.5218 5.2621C30.551 5.2621 29.8139 5.59476 29.3105 6.26008C28.8191 6.92541 28.5734 7.9113 28.5734 9.21775C28.5734 10.5121 28.8191 11.4919 29.3105 12.1573C29.8139 12.8226 30.551 13.1552 31.5218 13.1552C32.3368 13.1552 33.1637 12.9677 34.0027 12.5927V13.4456Z" fill="#013D5B"/>
<path d="M25.2338 13.4456C24.4068 13.8448 23.5199 14.0444 22.5731 14.0444C21.1948 14.0444 20.1341 13.6331 19.391 12.8105C18.6479 11.9879 18.2764 10.8085 18.2764 9.27218C18.2764 7.74799 18.6239 6.55041 19.3191 5.67944C20.0142 4.80847 20.9671 4.37299 22.1776 4.37299C23.2442 4.37299 24.0832 4.7117 24.6945 5.38911C25.3177 6.05444 25.6293 6.96775 25.6293 8.12904C25.6293 8.56452 25.5934 8.98186 25.5214 9.38105H19.3371C19.349 11.9093 20.4577 13.1734 22.663 13.1734C23.5499 13.1734 24.4068 12.9798 25.2338 12.5927V13.4456ZM22.1596 5.22581C21.3446 5.22581 20.6794 5.52823 20.164 6.13307C19.6487 6.73791 19.373 7.54839 19.3371 8.56452H24.5866C24.6106 8.37097 24.6225 8.20161 24.6225 8.05645C24.6225 7.16129 24.4068 6.46573 23.9753 5.96976C23.5439 5.47379 22.9386 5.22581 22.1596 5.22581Z" fill="#013D5B"/>
<path d="M8.87988 13.7722V0.145162L9.95855 0V5.20766C10.9653 4.65121 11.9541 4.37298 12.9249 4.37298C13.8957 4.37298 14.6448 4.62702 15.1721 5.13508C15.7115 5.64315 15.9811 6.36291 15.9811 7.29436V13.7722H14.9025V7.47581C14.9025 5.98791 14.1534 5.24396 12.6552 5.24396C12.2597 5.24396 11.8223 5.31049 11.3428 5.44355C10.8754 5.57661 10.414 5.75807 9.95855 5.98791V13.7722H8.87988Z" fill="#013D5B"/>
<path d="M6.56192 13.4456C5.77089 13.8448 4.90795 14.0444 3.97311 14.0444C2.70267 14.0444 1.71988 13.627 1.02474 12.7923C0.341579 11.9577 0 10.7661 0 9.21775C0 7.66936 0.341579 6.47783 1.02474 5.64315C1.71988 4.79638 2.70267 4.37299 3.97311 4.37299C4.872 4.37299 5.72295 4.57258 6.52596 4.97178V5.8246C5.68699 5.4496 4.872 5.2621 4.08097 5.2621C3.11017 5.2621 2.37308 5.59476 1.8697 6.26008C1.3783 6.92541 1.1326 7.9113 1.1326 9.21775C1.1326 10.5121 1.3783 11.4919 1.8697 12.1573C2.37308 12.8226 3.11017 13.1552 4.08097 13.1552C4.89597 13.1552 5.72295 12.9677 6.56192 12.5927V13.4456Z" fill="#013D5B"/>
</svg>
