<svg width="244" height="18" viewBox="0 0 244 18" fill="none" xmlns="http://www.w3.org/2000/svg">
<path d="M241.16 5.52438V11.378C241.16 12.0122 241.291 12.4817 241.555 12.7866C241.819 13.0793 242.226 13.2256 242.778 13.2256C243.137 13.2256 243.545 13.1585 244 13.0244V13.8293C243.497 14 243.035 14.0854 242.616 14.0854C241.789 14.0854 241.16 13.8597 240.728 13.4085C240.297 12.9451 240.081 12.2622 240.081 11.3597V5.52438H238.715V4.73779L240.117 4.68291L240.225 2.37804L241.16 2.26828V4.68291H243.874V5.52438H241.16Z" fill="#013D5B"/>
<path d="M237.029 13.5549C236.202 13.9573 235.315 14.1585 234.368 14.1585C232.99 14.1585 231.929 13.7439 231.186 12.9146C230.443 12.0854 230.072 10.8963 230.072 9.34756C230.072 7.81098 230.419 6.60366 231.114 5.72561C231.809 4.84756 232.762 4.40854 233.973 4.40854C235.039 4.40854 235.878 4.75 236.49 5.43293C237.113 6.10366 237.424 7.02439 237.424 8.19512C237.424 8.63415 237.388 9.05488 237.316 9.45732H231.132C231.144 12.0061 232.253 13.2805 234.458 13.2805C235.345 13.2805 236.202 13.0854 237.029 12.6951V13.5549ZM233.955 5.26829C233.14 5.26829 232.475 5.57317 231.959 6.18293C231.444 6.79268 231.168 7.60976 231.132 8.63415H236.382C236.406 8.43903 236.418 8.2683 236.418 8.12195C236.418 7.21951 236.202 6.5183 235.77 6.0183C235.339 5.5183 234.734 5.26829 233.955 5.26829Z" fill="#013D5B"/>
<path d="M226.574 13.8841V0.146342L227.653 0V13.8841H226.574Z" fill="#013D5B"/>
<path d="M222.484 13.8841V0.146342L223.562 0V13.8841H222.484Z" fill="#013D5B"/>
<path d="M218.681 13.9207L218.609 13.2805C217.578 13.8659 216.56 14.1585 215.553 14.1585C214.63 14.1585 213.899 13.9146 213.36 13.4268C212.82 12.9268 212.551 12.2439 212.551 11.3781C212.551 10.4634 212.85 9.76829 213.449 9.29268C214.061 8.80488 214.954 8.56098 216.128 8.56098C216.835 8.56098 217.638 8.64634 218.537 8.81708V7.57317C218.537 6.04878 217.692 5.28659 216.002 5.28659C215.559 5.28659 215.073 5.34756 214.546 5.46951C214.019 5.59147 213.533 5.75 213.09 5.94512V5.08537C213.521 4.87805 214.013 4.71342 214.564 4.59147C215.127 4.46951 215.661 4.40854 216.164 4.40854C217.291 4.40854 218.142 4.68293 218.717 5.23171C219.304 5.7683 219.598 6.54878 219.598 7.57317V13.8293L218.681 13.9207ZM215.804 13.2805C216.236 13.2805 216.691 13.2134 217.171 13.0793C217.65 12.9451 218.106 12.7622 218.537 12.5305V9.60366C217.782 9.45732 217.039 9.38415 216.308 9.38415C215.385 9.38415 214.714 9.54269 214.294 9.85976C213.875 10.1768 213.665 10.6768 213.665 11.3598C213.665 12.6402 214.378 13.2805 215.804 13.2805Z" fill="#013D5B"/>
<path d="M207.628 13.8841L205.201 5.90853L202.846 13.8841H201.822L198.945 4.68292H200.042L202.343 12.5305L204.608 4.68292H205.813L208.114 12.5854L210.397 4.68292H211.44L208.653 13.8841H207.628Z" fill="#013D5B"/>
<path d="M189.583 13.8841V4.7378L190.5 4.64634L190.59 5.46951C191.393 4.79878 192.25 4.46341 193.161 4.46341C193.484 4.46341 193.742 4.5 193.934 4.57317V5.46951C193.622 5.39634 193.347 5.35975 193.107 5.35975C192.256 5.35975 191.441 5.67073 190.662 6.29268V13.8841H189.583Z" fill="#013D5B"/>
<path d="M180.617 4.68292V11.0305C180.617 12.5305 181.342 13.2805 182.792 13.2805C183.188 13.2805 183.619 13.2134 184.087 13.0793C184.566 12.9451 185.033 12.7622 185.489 12.5305V4.68292H186.567V13.8293L185.651 13.9207L185.579 13.2805C184.536 13.8658 183.517 14.1585 182.522 14.1585C181.576 14.1585 180.839 13.9024 180.311 13.3902C179.796 12.8658 179.538 12.1402 179.538 11.2134V4.68292H180.617Z" fill="#013D5B"/>
<path d="M173.282 14.1585C171.976 14.1585 170.987 13.75 170.316 12.9329C169.657 12.1037 169.327 10.8841 169.327 9.27439C169.327 7.67683 169.657 6.46951 170.316 5.65244C170.987 4.82317 171.976 4.40854 173.282 4.40854C174.588 4.40854 175.571 4.82317 176.23 5.65244C176.902 6.46951 177.237 7.67683 177.237 9.27439C177.237 10.8841 176.902 12.1037 176.23 12.9329C175.571 13.75 174.588 14.1585 173.282 14.1585ZM173.282 13.2805C174.265 13.2805 174.978 12.9634 175.421 12.3293C175.877 11.6829 176.105 10.6646 176.105 9.27439C176.105 7.89634 175.877 6.89025 175.421 6.2561C174.978 5.60976 174.265 5.28659 173.282 5.28659C172.299 5.28659 171.58 5.60976 171.125 6.2561C170.681 6.89025 170.46 7.89634 170.46 9.27439C170.46 10.6646 170.681 11.6829 171.125 12.3293C171.58 12.9634 172.299 13.2805 173.282 13.2805Z" fill="#013D5B"/>
<path d="M160.622 17.0488C161.473 16.8902 162.138 16.5854 162.617 16.1341C163.096 15.6829 163.54 14.9634 163.947 13.9756L160.496 4.68292H161.628L164.451 12.75L167.363 4.68292H168.442L164.99 13.7927C164.667 14.6707 164.325 15.3841 163.965 15.9329C163.618 16.4939 163.204 16.9329 162.725 17.25C162.246 17.5793 161.622 17.8293 160.855 18L160.622 17.0488Z" fill="#013D5B"/>
<path d="M153.401 13.8841V7.53659C153.401 6.03659 152.652 5.28659 151.153 5.28659C150.758 5.28659 150.321 5.35366 149.841 5.48781C149.374 5.62195 148.912 5.80488 148.457 6.03659V13.8841H147.378V4.73781L148.295 4.64634L148.367 5.28659C149.41 4.70122 150.428 4.40854 151.423 4.40854C152.394 4.40854 153.143 4.66464 153.67 5.17683C154.21 5.68903 154.479 6.41464 154.479 7.35366V13.8841H153.401Z" fill="#013D5B"/>
<path d="M143.287 13.8841V4.77438L144.366 4.62804V13.8841H143.287ZM143.827 2.45121C143.587 2.45121 143.389 2.37804 143.234 2.2317C143.09 2.08536 143.018 1.88414 143.018 1.62804C143.018 1.37194 143.09 1.17072 143.234 1.02438C143.389 0.878042 143.587 0.804871 143.827 0.804871C144.067 0.804871 144.258 0.878042 144.402 1.02438C144.558 1.17072 144.636 1.37194 144.636 1.62804C144.636 1.88414 144.558 2.08536 144.402 2.2317C144.258 2.37804 144.067 2.45121 143.827 2.45121Z" fill="#013D5B"/>
<path d="M129.319 17.0488C130.17 16.8902 130.835 16.5854 131.314 16.1341C131.794 15.6829 132.237 14.9634 132.645 13.9756L129.193 4.68292H130.325L133.148 12.75L136.06 4.68292H137.139L133.687 13.7927C133.364 14.6707 133.022 15.3841 132.663 15.9329C132.315 16.4939 131.902 16.9329 131.422 17.25C130.943 17.5793 130.319 17.8293 129.552 18L129.319 17.0488Z" fill="#013D5B"/>
<path d="M127.759 13.5549C126.932 13.9573 126.045 14.1585 125.098 14.1585C123.72 14.1585 122.659 13.7439 121.916 12.9146C121.173 12.0854 120.802 10.8963 120.802 9.34756C120.802 7.81098 121.149 6.60366 121.844 5.72561C122.539 4.84756 123.492 4.40854 124.703 4.40854C125.769 4.40854 126.608 4.75 127.22 5.43293C127.843 6.10366 128.154 7.02439 128.154 8.19512C128.154 8.63415 128.119 9.05488 128.047 9.45732H121.862C121.874 12.0061 122.983 13.2805 125.188 13.2805C126.075 13.2805 126.932 13.0854 127.759 12.6951V13.5549ZM124.685 5.26829C123.87 5.26829 123.205 5.57317 122.689 6.18293C122.174 6.79268 121.898 7.60976 121.862 8.63415H127.112C127.136 8.43903 127.148 8.2683 127.148 8.12195C127.148 7.21951 126.932 6.5183 126.501 6.0183C126.069 5.5183 125.464 5.26829 124.685 5.26829Z" fill="#013D5B"/>
<path d="M117.428 13.8841V7.53659C117.428 6.03659 116.679 5.28659 115.181 5.28659C114.785 5.28659 114.348 5.35366 113.868 5.48781C113.401 5.62195 112.939 5.80488 112.484 6.03659V13.8841H111.405V4.73781L112.322 4.64634L112.394 5.28659C113.437 4.70122 114.456 4.40854 115.45 4.40854C116.421 4.40854 117.17 4.66464 117.698 5.17683C118.237 5.68903 118.507 6.41464 118.507 7.35366V13.8841H117.428Z" fill="#013D5B"/>
<path d="M105.024 14.1585C103.717 14.1585 102.728 13.75 102.057 12.9329C101.398 12.1037 101.068 10.8841 101.068 9.27439C101.068 7.67683 101.398 6.46951 102.057 5.65244C102.728 4.82317 103.717 4.40854 105.024 4.40854C106.33 4.40854 107.313 4.82317 107.972 5.65244C108.643 6.46951 108.979 7.67683 108.979 9.27439C108.979 10.8841 108.643 12.1037 107.972 12.9329C107.313 13.75 106.33 14.1585 105.024 14.1585ZM105.024 13.2805C106.006 13.2805 106.719 12.9634 107.163 12.3293C107.618 11.6829 107.846 10.6646 107.846 9.27439C107.846 7.89634 107.618 6.89025 107.163 6.2561C106.719 5.60976 106.006 5.28659 105.024 5.28659C104.041 5.28659 103.322 5.60976 102.866 6.2561C102.423 6.89025 102.201 7.89634 102.201 9.27439C102.201 10.6646 102.423 11.6829 102.866 12.3293C103.322 12.9634 104.041 13.2805 105.024 13.2805Z" fill="#013D5B"/>
<path d="M97.6843 13.8841V7.35366C97.6843 5.97561 97.0431 5.28659 95.7607 5.28659C95.0176 5.28659 94.1667 5.56098 93.2079 6.10976C93.3038 6.43903 93.3517 6.79269 93.3517 7.17073V13.8841H92.2731V7.35366C92.2731 5.97561 91.6319 5.28659 90.3495 5.28659C89.6304 5.28659 88.8274 5.53659 87.9405 6.03659V13.8841H86.8618V4.73781L87.7787 4.64634L87.8506 5.28659C88.8693 4.70122 89.7922 4.40854 90.6191 4.40854C91.6738 4.40854 92.4349 4.7622 92.9023 5.46951C94.0648 4.7622 95.1075 4.40854 96.0304 4.40854C96.9053 4.40854 97.5764 4.64634 98.0439 5.12195C98.5233 5.59756 98.763 6.28049 98.763 7.17073V13.8841H97.6843Z" fill="#013D5B"/>
<path d="M79.5672 13.5549C78.7402 13.9573 77.8533 14.1585 76.9065 14.1585C75.5282 14.1585 74.4675 13.7439 73.7245 12.9146C72.9814 12.0854 72.6099 10.8963 72.6099 9.34756C72.6099 7.81098 72.9574 6.60366 73.6526 5.72561C74.3477 4.84756 75.3005 4.40854 76.511 4.40854C77.5777 4.40854 78.4166 4.75 79.0279 5.43293C79.6511 6.10366 79.9627 7.02439 79.9627 8.19512C79.9627 8.63415 79.9267 9.05488 79.8548 9.45732H73.6705C73.6825 12.0061 74.7911 13.2805 76.9964 13.2805C77.8833 13.2805 78.7402 13.0854 79.5672 12.6951V13.5549ZM76.493 5.26829C75.678 5.26829 75.0129 5.57317 74.4975 6.18293C73.9822 6.79268 73.7065 7.60976 73.6705 8.63415H78.92C78.944 8.43903 78.9559 8.2683 78.9559 8.12195C78.9559 7.21951 78.7402 6.5183 78.3088 6.0183C77.8773 5.5183 77.272 5.26829 76.493 5.26829Z" fill="#013D5B"/>
<path d="M67.1989 13.8841V4.7378L68.1157 4.64634L68.2056 5.46951C69.0086 4.79878 69.8655 4.46341 70.7764 4.46341C71.1 4.46341 71.3577 4.5 71.5494 4.57317V5.46951C71.2378 5.39634 70.9622 5.35975 70.7225 5.35975C69.8715 5.35975 69.0565 5.67073 68.2775 6.29268V13.8841H67.1989Z" fill="#013D5B"/>
<path d="M60.817 14.1585C59.5106 14.1585 58.5219 13.75 57.8507 12.9329C57.1915 12.1037 56.8619 10.8841 56.8619 9.27439C56.8619 7.67683 57.1915 6.46951 57.8507 5.65244C58.5219 4.82317 59.5106 4.40854 60.817 4.40854C62.1234 4.40854 63.1062 4.82317 63.7653 5.65244C64.4365 6.46951 64.7721 7.67683 64.7721 9.27439C64.7721 10.8841 64.4365 12.1037 63.7653 12.9329C63.1062 13.75 62.1234 14.1585 60.817 14.1585ZM60.817 13.2805C61.7998 13.2805 62.5129 12.9634 62.9563 12.3293C63.4118 11.6829 63.6395 10.6646 63.6395 9.27439C63.6395 7.89634 63.4118 6.89025 62.9563 6.2561C62.5129 5.60976 61.7998 5.28659 60.817 5.28659C59.8342 5.28659 59.1151 5.60976 58.6597 6.2561C58.2162 6.89025 57.9945 7.89634 57.9945 9.27439C57.9945 10.6646 58.2162 11.6829 58.6597 12.3293C59.1151 12.9634 59.8342 13.2805 60.817 13.2805Z" fill="#013D5B"/>
<path d="M53.4778 13.8841V7.35366C53.4778 5.97561 52.8366 5.28659 51.5542 5.28659C50.8111 5.28659 49.9602 5.56098 49.0014 6.10976C49.0972 6.43903 49.1452 6.79269 49.1452 7.17073V13.8841H48.0665V7.35366C48.0665 5.97561 47.4253 5.28659 46.1429 5.28659C45.4238 5.28659 44.6208 5.53659 43.7339 6.03659V13.8841H42.6553V4.73781L43.5721 4.64634L43.644 5.28659C44.6628 4.70122 45.5856 4.40854 46.4126 4.40854C47.4673 4.40854 48.2283 4.7622 48.6957 5.46951C49.8583 4.7622 50.901 4.40854 51.8238 4.40854C52.6987 4.40854 53.3699 4.64634 53.8373 5.12195C54.3167 5.59756 54.5564 6.28049 54.5564 7.17073V13.8841H53.4778Z" fill="#013D5B"/>
<path d="M28.1714 17.9634V4.73781L29.0882 4.64634L29.1602 5.28659C30.1789 4.70122 31.1137 4.40854 31.9647 4.40854C33.1392 4.40854 34.062 4.82927 34.7332 5.67073C35.4044 6.5 35.7399 7.65244 35.7399 9.12805C35.7399 10.75 35.3564 11.9939 34.5894 12.8598C33.8343 13.7256 32.7377 14.1585 31.2995 14.1585C30.5564 14.1585 29.8733 14.061 29.25 13.8659V17.8171L28.1714 17.9634ZM31.8208 5.28659C31.4253 5.28659 30.9999 5.35366 30.5444 5.48781C30.089 5.62195 29.6575 5.80488 29.25 6.03659V12.9878C29.8733 13.1829 30.5264 13.2805 31.2096 13.2805C32.3602 13.2805 33.2111 12.9451 33.7624 12.2744C34.3257 11.5915 34.6074 10.5488 34.6074 9.14634C34.6074 7.89025 34.3677 6.93293 33.8883 6.27439C33.4208 5.61586 32.7317 5.28659 31.8208 5.28659Z" fill="#013D5B"/>
<path d="M25.3711 13.5549C24.5442 13.9573 23.6573 14.1585 22.7105 14.1585C21.3322 14.1585 20.2715 13.7439 19.5284 12.9146C18.7854 12.0854 18.4138 10.8963 18.4138 9.34756C18.4138 7.81098 18.7614 6.60366 19.4565 5.72561C20.1517 4.84756 21.1045 4.40854 22.315 4.40854C23.3816 4.40854 24.2206 4.75 24.8318 5.43293C25.455 6.10366 25.7666 7.02439 25.7666 8.19512C25.7666 8.63415 25.7307 9.05488 25.6588 9.45732H19.4745C19.4865 12.0061 20.5951 13.2805 22.8003 13.2805C23.6872 13.2805 24.5442 13.0854 25.3711 12.6951V13.5549ZM22.297 5.26829C21.482 5.26829 20.8168 5.57317 20.3015 6.18293C19.7861 6.79268 19.5105 7.60976 19.4745 8.63415H24.7239C24.7479 8.43903 24.7599 8.2683 24.7599 8.12195C24.7599 7.21951 24.5442 6.5183 24.1127 6.0183C23.6812 5.5183 23.076 5.26829 22.297 5.26829Z" fill="#013D5B"/>
<path d="M16.2067 13.5549C15.3797 13.9573 14.4928 14.1585 13.546 14.1585C12.1677 14.1585 11.1071 13.7439 10.364 12.9146C9.62093 12.0854 9.24939 10.8963 9.24939 9.34756C9.24939 7.81098 9.59696 6.60366 10.2921 5.72561C10.9872 4.84756 11.94 4.40854 13.1505 4.40854C14.2172 4.40854 15.0561 4.75 15.6674 5.43293C16.2906 6.10366 16.6022 7.02439 16.6022 8.19512C16.6022 8.63415 16.5663 9.05488 16.4944 9.45732H10.3101C10.3221 12.0061 11.4307 13.2805 13.6359 13.2805C14.5228 13.2805 15.3797 13.0854 16.2067 12.6951V13.5549ZM13.1325 5.26829C12.3176 5.26829 11.6524 5.57317 11.137 6.18293C10.6217 6.79268 10.346 7.60976 10.3101 8.63415H15.5595C15.5835 8.43903 15.5955 8.2683 15.5955 8.12195C15.5955 7.21951 15.3797 6.5183 14.9483 6.0183C14.5168 5.5183 13.9116 5.26829 13.1325 5.26829Z" fill="#013D5B"/>
<path d="M0 13.8842V1.07928H1.13259V6.76831L7.1371 1.07928H8.55732L2.0854 7.15245L8.61126 13.8842H7.1371L1.13259 7.60977V13.8842H0Z" fill="#013D5B"/>
</svg>
