<svg width="222" height="14" viewBox="0 0 222 14" fill="none" xmlns="http://www.w3.org/2000/svg">
<path d="M220.919 13.7321V7.53572C220.919 6.07144 220.168 5.33929 218.667 5.33929C218.271 5.33929 217.832 5.40477 217.352 5.53572C216.884 5.66667 216.421 5.84524 215.965 6.07143V13.7321H214.884V4.80358L215.803 4.71429L215.875 5.33929C216.92 4.76786 217.94 4.48215 218.937 4.48215C219.91 4.48215 220.661 4.73215 221.189 5.23215C221.73 5.73215 222 6.44048 222 7.35715V13.7321H220.919Z" fill="#013D5B"/>
<path d="M208.488 14C207.179 14 206.188 13.6012 205.516 12.8036C204.855 11.9941 204.525 10.8036 204.525 9.23215C204.525 7.67262 204.855 6.49405 205.516 5.69644C206.188 4.88691 207.179 4.48215 208.488 4.48215C209.797 4.48215 210.782 4.88691 211.443 5.69644C212.115 6.49405 212.452 7.67262 212.452 9.23215C212.452 10.8036 212.115 11.9941 211.443 12.8036C210.782 13.6012 209.797 14 208.488 14ZM208.488 13.1429C209.473 13.1429 210.188 12.8333 210.632 12.2143C211.089 11.5833 211.317 10.5893 211.317 9.23215C211.317 7.88691 211.089 6.90477 210.632 6.28572C210.188 5.65477 209.473 5.33929 208.488 5.33929C207.503 5.33929 206.783 5.65477 206.326 6.28572C205.882 6.90477 205.66 7.88691 205.66 9.23215C205.66 10.5893 205.882 11.5833 206.326 12.2143C206.783 12.8333 207.503 13.1429 208.488 13.1429Z" fill="#013D5B"/>
<path d="M191.978 12.5536C192.879 12.9464 193.81 13.1429 194.771 13.1429C196.392 13.1429 197.203 12.5179 197.203 11.2679C197.203 10.8631 197.083 10.5357 196.842 10.2857C196.614 10.0357 196.23 9.82738 195.689 9.66072L194.32 9.23215C193.552 8.99405 192.993 8.69643 192.645 8.33929C192.296 7.97024 192.122 7.50596 192.122 6.94643C192.122 6.19643 192.417 5.6012 193.005 5.16072C193.606 4.70834 194.41 4.48215 195.419 4.48215C196.272 4.48215 197.083 4.64286 197.851 4.96429V5.80358C197.047 5.49405 196.254 5.33929 195.473 5.33929C194.765 5.33929 194.206 5.48215 193.798 5.76786C193.401 6.04167 193.203 6.42262 193.203 6.91072C193.203 7.25596 193.311 7.53572 193.528 7.75001C193.756 7.95239 194.158 8.14881 194.735 8.33929L196.158 8.80357C196.89 9.04167 197.425 9.35715 197.761 9.75C198.11 10.1429 198.284 10.6429 198.284 11.25C198.284 12.131 197.983 12.8095 197.383 13.2857C196.782 13.7619 195.936 14 194.843 14C193.834 14 192.927 13.8155 192.122 13.4464L191.978 12.5536Z" fill="#013D5B"/>
<path d="M188.695 13.7321V7.35715C188.695 6.01191 188.052 5.33929 186.767 5.33929C186.022 5.33929 185.17 5.60715 184.209 6.14286C184.305 6.46429 184.353 6.80953 184.353 7.17858V13.7321H183.272V7.35715C183.272 6.01191 182.629 5.33929 181.344 5.33929C180.624 5.33929 179.819 5.58334 178.93 6.07143V13.7321H177.849V4.80358L178.768 4.71429L178.84 5.33929C179.861 4.76786 180.786 4.48215 181.615 4.48215C182.671 4.48215 183.434 4.82739 183.903 5.51786C185.068 4.82739 186.113 4.48215 187.037 4.48215C187.914 4.48215 188.587 4.71429 189.055 5.17858C189.536 5.64286 189.776 6.30953 189.776 7.17858V13.7321H188.695Z" fill="#013D5B"/>
<path d="M168.864 4.75V10.9464C168.864 12.4107 169.59 13.1429 171.044 13.1429C171.44 13.1429 171.872 13.0774 172.341 12.9464C172.821 12.8155 173.29 12.6369 173.746 12.4107V4.75H174.827V13.6786L173.908 13.7679L173.836 13.1429C172.791 13.7143 171.77 14 170.773 14C169.825 14 169.086 13.75 168.557 13.25C168.041 12.7381 167.783 12.0298 167.783 11.125V4.75H168.864Z" fill="#013D5B"/>
<path d="M163.923 13.7321V7.35715C163.923 6.01191 163.28 5.33929 161.995 5.33929C161.251 5.33929 160.398 5.60715 159.437 6.14286C159.533 6.46429 159.581 6.80953 159.581 7.17858V13.7321H158.5V7.35715C158.5 6.01191 157.858 5.33929 156.572 5.33929C155.852 5.33929 155.047 5.58334 154.158 6.07143V13.7321H153.077V4.80358L153.996 4.71429L154.068 5.33929C155.089 4.76786 156.014 4.48215 156.843 4.48215C157.9 4.48215 158.662 4.82739 159.131 5.51786C160.296 4.82739 161.341 4.48215 162.265 4.48215C163.142 4.48215 163.815 4.71429 164.283 5.17858C164.764 5.64286 165.004 6.30953 165.004 7.17858V13.7321H163.923Z" fill="#013D5B"/>
<path d="M148.978 13.7321V4.83926L150.059 4.6964V13.7321H148.978ZM149.519 2.57141C149.278 2.57141 149.08 2.49998 148.924 2.35712C148.78 2.21426 148.708 2.01784 148.708 1.76784C148.708 1.51784 148.78 1.32141 148.924 1.17855C149.08 1.03569 149.278 0.964264 149.519 0.964264C149.759 0.964264 149.951 1.03569 150.095 1.17855C150.251 1.32141 150.329 1.51784 150.329 1.76784C150.329 2.01784 150.251 2.21426 150.095 2.35712C149.951 2.49998 149.759 2.57141 149.519 2.57141Z" fill="#013D5B"/>
<path d="M145.003 13.7321V7.53572C145.003 6.07144 144.252 5.33929 142.751 5.33929C142.354 5.33929 141.916 5.40477 141.436 5.53572C140.967 5.66667 140.505 5.84524 140.048 6.07143V13.7321H138.967V4.80358L139.886 4.71429L139.958 5.33929C141.003 4.76786 142.024 4.48215 143.021 4.48215C143.994 4.48215 144.744 4.73215 145.273 5.23215C145.813 5.73215 146.084 6.44048 146.084 7.35715V13.7321H145.003Z" fill="#013D5B"/>
<path d="M134.868 13.7321V4.83926L135.949 4.6964V13.7321H134.868ZM135.408 2.57141C135.168 2.57141 134.97 2.49998 134.814 2.35712C134.67 2.21426 134.598 2.01784 134.598 1.76784C134.598 1.51784 134.67 1.32141 134.814 1.17855C134.97 1.03569 135.168 0.964264 135.408 0.964264C135.649 0.964264 135.841 1.03569 135.985 1.17855C136.141 1.32141 136.219 1.51784 136.219 1.76784C136.219 2.01784 136.141 2.21426 135.985 2.35712C135.841 2.49998 135.649 2.57141 135.408 2.57141Z" fill="#013D5B"/>
<path d="M130.882 13.7321V7.35715C130.882 6.01191 130.24 5.33929 128.954 5.33929C128.21 5.33929 127.357 5.60715 126.396 6.14286C126.492 6.46429 126.54 6.80953 126.54 7.17858V13.7321H125.459V7.35715C125.459 6.01191 124.817 5.33929 123.532 5.33929C122.811 5.33929 122.006 5.58334 121.118 6.07143V13.7321H120.037V4.80358L120.955 4.71429L121.027 5.33929C122.048 4.76786 122.973 4.48215 123.802 4.48215C124.859 4.48215 125.622 4.82739 126.09 5.51786C127.255 4.82739 128.3 4.48215 129.225 4.48215C130.101 4.48215 130.774 4.71429 131.242 5.17858C131.723 5.64286 131.963 6.30953 131.963 7.17858V13.7321H130.882Z" fill="#013D5B"/>
<path d="M109.34 13.7321V4.80356L110.259 4.71428L110.349 5.51785C111.153 4.86309 112.012 4.53571 112.925 4.53571C113.249 4.53571 113.508 4.57142 113.7 4.64285V5.51785C113.387 5.44642 113.111 5.41071 112.871 5.41071C112.018 5.41071 111.201 5.71428 110.421 6.32142V13.7321H109.34Z" fill="#013D5B"/>
<path d="M102.944 14C101.635 14 100.644 13.6012 99.9717 12.8036C99.3111 11.9941 98.9808 10.8036 98.9808 9.23215C98.9808 7.67262 99.3111 6.49405 99.9717 5.69644C100.644 4.88691 101.635 4.48215 102.944 4.48215C104.253 4.48215 105.238 4.88691 105.899 5.69644C106.572 6.49405 106.908 7.67262 106.908 9.23215C106.908 10.8036 106.572 11.9941 105.899 12.8036C105.238 13.6012 104.253 14 102.944 14ZM102.944 13.1429C103.929 13.1429 104.644 12.8333 105.088 12.2143C105.545 11.5833 105.773 10.5893 105.773 9.23215C105.773 7.88691 105.545 6.90477 105.088 6.28572C104.644 5.65477 103.929 5.33929 102.944 5.33929C101.959 5.33929 101.239 5.65477 100.782 6.28572C100.338 6.90477 100.116 7.88691 100.116 9.23215C100.116 10.5893 100.338 11.5833 100.782 12.2143C101.239 12.8333 101.959 13.1429 102.944 13.1429Z" fill="#013D5B"/>
<path d="M86.4341 12.5536C87.3349 12.9464 88.2657 13.1429 89.2265 13.1429C90.848 13.1429 91.6587 12.5179 91.6587 11.2679C91.6587 10.8631 91.5386 10.5357 91.2984 10.2857C91.0702 10.0357 90.6858 9.82738 90.1453 9.66072L88.7761 9.23215C88.0075 8.99405 87.449 8.69643 87.1007 8.33929C86.7524 7.97024 86.5782 7.50596 86.5782 6.94643C86.5782 6.19643 86.8725 5.6012 87.461 5.16072C88.0615 4.70834 88.8662 4.48215 89.8751 4.48215C90.7279 4.48215 91.5386 4.64286 92.3072 4.96429V5.80358C91.5025 5.49405 90.7098 5.33929 89.9292 5.33929C89.2205 5.33929 88.662 5.48215 88.2537 5.76786C87.8573 6.04167 87.6592 6.42262 87.6592 6.91072C87.6592 7.25596 87.7673 7.53572 87.9834 7.75001C88.2116 7.95239 88.614 8.14881 89.1905 8.33929L90.6138 8.80357C91.3464 9.04167 91.8809 9.35715 92.2172 9.75C92.5655 10.1429 92.7396 10.6429 92.7396 11.25C92.7396 12.131 92.4394 12.8095 91.8388 13.2857C91.2383 13.7619 90.3916 14 89.2986 14C88.2897 14 87.3829 13.8155 86.5782 13.4464L86.4341 12.5536Z" fill="#013D5B"/>
<path d="M84.3304 13.4107C83.5017 13.8036 82.6129 14 81.6641 14C80.2828 14 79.2199 13.5952 78.4753 12.7857C77.7306 11.9762 77.3583 10.8155 77.3583 9.30358C77.3583 7.80358 77.7066 6.62501 78.4032 5.76786C79.0998 4.91072 80.0546 4.48215 81.2677 4.48215C82.3367 4.48215 83.1774 4.81548 83.7899 5.48215C84.4145 6.13691 84.7268 7.03572 84.7268 8.17858C84.7268 8.60715 84.6907 9.01786 84.6187 9.41072H78.4212C78.4332 11.8988 79.5442 13.1429 81.7541 13.1429C82.6429 13.1429 83.5017 12.9524 84.3304 12.5714V13.4107ZM81.2497 5.32143C80.433 5.32143 79.7664 5.61905 79.2499 6.21429C78.7335 6.80953 78.4572 7.60715 78.4212 8.60715H83.6818C83.7059 8.41667 83.7179 8.25 83.7179 8.10715C83.7179 7.22619 83.5017 6.54167 83.0693 6.05358C82.6369 5.56548 82.0304 5.32143 81.2497 5.32143Z" fill="#013D5B"/>
<path d="M75.1466 13.4107C74.3178 13.8036 73.4291 14 72.4802 14C71.099 14 70.0361 13.5952 69.2914 12.7857C68.5468 11.9762 68.1744 10.8155 68.1744 9.30358C68.1744 7.80358 68.5227 6.62501 69.2194 5.76786C69.916 4.91072 70.8708 4.48215 72.0839 4.48215C73.1528 4.48215 73.9936 4.81548 74.6061 5.48215C75.2306 6.13691 75.5429 7.03572 75.5429 8.17858C75.5429 8.60715 75.5069 9.01786 75.4348 9.41072H69.2374C69.2494 11.8988 70.3604 13.1429 72.5703 13.1429C73.4591 13.1429 74.3178 12.9524 75.1466 12.5714V13.4107ZM72.0659 5.32143C71.2491 5.32143 70.5826 5.61905 70.0661 6.21429C69.5496 6.80953 69.2734 7.60715 69.2374 8.60715H74.498C74.522 8.41667 74.534 8.25 74.534 8.10715C74.534 7.22619 74.3178 6.54167 73.8855 6.05358C73.4531 5.56548 72.8465 5.32143 72.0659 5.32143Z" fill="#013D5B"/>
<path d="M63.4265 13.7321V5.57143H62.0573V4.80357L63.4265 4.75V2.73214C63.4265 1.85119 63.6426 1.17857 64.075 0.714287C64.5194 0.238096 65.162 0 66.0027 0C66.4591 0 66.9215 0.0833341 67.3899 0.250001V1.03571C66.9576 0.904762 66.5432 0.839286 66.1468 0.839286C65.5824 0.839286 65.168 0.988094 64.9038 1.28571C64.6395 1.57143 64.5074 2.02381 64.5074 2.64286V4.75H66.9395V5.57143H64.5074V13.7321H63.4265Z" fill="#013D5B"/>
<path d="M52.2748 14C50.9656 14 49.9747 13.6012 49.3022 12.8036C48.6416 11.9941 48.3113 10.8036 48.3113 9.23215C48.3113 7.67262 48.6416 6.49405 49.3022 5.69644C49.9747 4.88691 50.9656 4.48215 52.2748 4.48215C53.5839 4.48215 54.5688 4.88691 55.2294 5.69644C55.902 6.49405 56.2382 7.67262 56.2382 9.23215C56.2382 10.8036 55.902 11.9941 55.2294 12.8036C54.5688 13.6012 53.5839 14 52.2748 14ZM52.2748 13.1429C53.2596 13.1429 53.9743 12.8333 54.4186 12.2143C54.8751 11.5833 55.1033 10.5893 55.1033 9.23215C55.1033 7.88691 54.8751 6.90477 54.4186 6.28572C53.9743 5.65477 53.2596 5.33929 52.2748 5.33929C51.2899 5.33929 50.5693 5.65477 50.1129 6.28572C49.6685 6.90477 49.4463 7.88691 49.4463 9.23215C49.4463 10.5893 49.6685 11.5833 50.1129 12.2143C50.5693 12.8333 51.2899 13.1429 52.2748 13.1429Z" fill="#013D5B"/>
<path d="M44.9303 13.7321V7.53572C44.9303 6.07144 44.1797 5.33929 42.6783 5.33929C42.282 5.33929 41.8436 5.40477 41.3632 5.53572C40.8948 5.66667 40.4324 5.84524 39.976 6.07143V13.7321H38.895V4.80358L39.8138 4.71429L39.8859 5.33929C40.9308 4.76786 41.9517 4.48215 42.9486 4.48215C43.9214 4.48215 44.6721 4.73215 45.2006 5.23215C45.741 5.73215 46.0113 6.44048 46.0113 7.35715V13.7321H44.9303Z" fill="#013D5B"/>
<path d="M24.3804 13.7321V0.321415L25.4613 0.178558V5.30356C26.4702 4.75594 27.4611 4.48213 28.4339 4.48213C29.4068 4.48213 30.1574 4.73213 30.6859 5.23213C31.2264 5.73213 31.4966 6.44046 31.4966 7.35713V13.7321H30.4157V7.5357C30.4157 6.07142 29.665 5.33927 28.1637 5.33927C27.7673 5.33927 27.329 5.40475 26.8485 5.5357C26.3801 5.66665 25.9177 5.84522 25.4613 6.07141V13.7321H24.3804Z" fill="#013D5B"/>
<path d="M19.6613 5.57142V11.2857C19.6613 11.9048 19.7935 12.3631 20.0577 12.6607C20.3219 12.9464 20.7303 13.0893 21.2828 13.0893C21.6431 13.0893 22.0514 13.0238 22.5078 12.8928V13.6786C22.0034 13.8452 21.541 13.9286 21.1206 13.9286C20.2919 13.9286 19.6613 13.7083 19.229 13.2679C18.7966 12.8155 18.5804 12.1488 18.5804 11.2678V5.57142H17.2112V4.80357L18.6164 4.74999L18.7245 2.5L19.6613 2.39285V4.74999H22.3817V5.57142H19.6613Z" fill="#013D5B"/>
<path d="M14.2289 13.7321V4.83926L15.3098 4.6964V13.7321H14.2289ZM14.7693 2.57141C14.5291 2.57141 14.3309 2.49998 14.1748 2.35712C14.0307 2.21426 13.9586 2.01784 13.9586 1.76784C13.9586 1.51784 14.0307 1.32141 14.1748 1.17855C14.3309 1.03569 14.5291 0.964264 14.7693 0.964264C15.0095 0.964264 15.2017 1.03569 15.3458 1.17855C15.502 1.32141 15.58 1.51784 15.58 1.76784C15.58 2.01784 15.502 2.21426 15.3458 2.35712C15.2017 2.49998 15.0095 2.57141 14.7693 2.57141Z" fill="#013D5B"/>
<path d="M8.70165 13.7321L6.26951 5.94643L3.90944 13.7321H2.88253L0 4.75H1.09897L3.40499 12.4107L5.67499 4.75H6.88205L9.18808 12.4643L11.4761 4.75H12.521L9.72855 13.7321H8.70165Z" fill="#013D5B"/>
</svg>
