<svg width="799" height="32" viewBox="0 0 799 32" fill="none" xmlns="http://www.w3.org/2000/svg">
<path d="M787.804 22.4511C789.403 23.1537 791.056 23.505 792.762 23.505C795.641 23.505 797.081 22.3872 797.081 20.1517C797.081 19.4278 796.867 18.8423 796.441 18.3952C796.036 17.9481 795.353 17.5755 794.394 17.2774L791.962 16.511C790.597 16.0852 789.606 15.5529 788.987 14.9142C788.369 14.2542 788.06 13.4238 788.06 12.4232C788.06 11.0818 788.582 10.0173 789.627 9.22954C790.693 8.42049 792.122 8.01597 793.914 8.01597C795.428 8.01597 796.867 8.30339 798.232 8.87824V10.3792C796.803 9.82568 795.396 9.5489 794.01 9.5489C792.751 9.5489 791.76 9.80439 791.035 10.3154C790.331 10.8051 789.979 11.4864 789.979 12.3593C789.979 12.9767 790.171 13.477 790.555 13.8603C790.96 14.2222 791.674 14.5735 792.698 14.9142L795.225 15.7445C796.526 16.1703 797.475 16.7345 798.072 17.4371C798.691 18.1397 799 19.0339 799 20.1198C799 21.6953 798.467 22.9088 797.401 23.7605C796.334 24.6121 794.831 25.0379 792.89 25.0379C791.099 25.0379 789.488 24.7079 788.06 24.0479L787.804 22.4511Z" fill="#013D5B"/>
<path d="M780.672 9.96407V20.1836C780.672 21.2908 780.906 22.1104 781.376 22.6427C781.845 23.1537 782.57 23.4092 783.551 23.4092C784.191 23.4092 784.916 23.2921 785.726 23.0579V24.4631C784.831 24.7611 784.009 24.9102 783.263 24.9102C781.792 24.9102 780.672 24.5163 779.904 23.7285C779.136 22.9195 778.752 21.7272 778.752 20.1517V9.96407H776.321V8.59082L778.816 8.49501L779.008 4.47106L780.672 4.27944V8.49501H785.502V9.96407H780.672Z" fill="#013D5B"/>
<path d="M771.246 24.5589V13.477C771.246 10.8583 769.913 9.5489 767.247 9.5489C766.544 9.5489 765.765 9.666 764.912 9.9002C764.08 10.1344 763.259 10.4538 762.449 10.8583V24.5589H760.53V8.59082L762.161 8.43114L762.289 9.5489C764.144 8.52695 765.957 8.01597 767.727 8.01597C769.455 8.01597 770.788 8.46307 771.726 9.35729C772.686 10.2515 773.165 11.5183 773.165 13.1577V24.5589H771.246Z" fill="#013D5B"/>
<path d="M744.575 8.49501V19.5768C744.575 22.1956 745.865 23.505 748.445 23.505C749.149 23.505 749.917 23.3879 750.749 23.1537C751.602 22.9195 752.433 22.6001 753.244 22.1956V8.49501H755.163V24.4631L753.532 24.6228L753.404 23.505C751.548 24.5269 749.736 25.0379 747.966 25.0379C746.281 25.0379 744.969 24.5908 744.031 23.6966C743.114 22.7811 742.655 21.5143 742.655 19.8962V8.49501H744.575Z" fill="#013D5B"/>
<path d="M731.523 25.0379C729.198 25.0379 727.439 24.3247 726.245 22.8982C725.072 21.4504 724.485 19.3214 724.485 16.511C724.485 13.7219 725.072 11.6141 726.245 10.1876C727.439 8.73985 729.198 8.01597 731.523 8.01597C733.848 8.01597 735.596 8.73985 736.769 10.1876C737.964 11.6141 738.561 13.7219 738.561 16.511C738.561 19.3214 737.964 21.4504 736.769 22.8982C735.596 24.3247 733.848 25.0379 731.523 25.0379ZM731.523 23.505C733.272 23.505 734.541 22.9514 735.33 21.8443C736.14 20.7159 736.545 18.9381 736.545 16.511C736.545 14.1051 736.14 12.3486 735.33 11.2415C734.541 10.1131 733.272 9.5489 731.523 9.5489C729.774 9.5489 728.495 10.1131 727.684 11.2415C726.895 12.3486 726.501 14.1051 726.501 16.511C726.501 18.9381 726.895 20.7159 727.684 21.8443C728.495 22.9514 729.774 23.505 731.523 23.505Z" fill="#013D5B"/>
<path d="M721.729 23.984C720.321 24.6866 718.786 25.0379 717.122 25.0379C714.862 25.0379 713.113 24.3034 711.876 22.8343C710.661 21.3653 710.053 19.2681 710.053 16.5429C710.053 13.8177 710.661 11.7206 711.876 10.2515C713.113 8.76114 714.862 8.01597 717.122 8.01597C718.722 8.01597 720.236 8.36727 721.665 9.06986V10.5709C720.172 9.91084 718.722 9.58084 717.314 9.58084C715.587 9.58084 714.275 10.1663 713.38 11.3373C712.505 12.5083 712.068 14.2435 712.068 16.5429C712.068 18.821 712.505 20.5456 713.38 21.7166C714.275 22.8876 715.587 23.4731 717.314 23.4731C718.765 23.4731 720.236 23.143 721.729 22.483V23.984Z" fill="#013D5B"/>
<path d="M707.296 23.984C705.889 24.6866 704.353 25.0379 702.69 25.0379C700.429 25.0379 698.68 24.3034 697.443 22.8343C696.228 21.3653 695.62 19.2681 695.62 16.5429C695.62 13.8177 696.228 11.7206 697.443 10.2515C698.68 8.76114 700.429 8.01597 702.69 8.01597C704.289 8.01597 705.803 8.36727 707.232 9.06986V10.5709C705.739 9.91084 704.289 9.58084 702.882 9.58084C701.154 9.58084 699.843 10.1663 698.947 11.3373C698.073 12.5083 697.635 14.2435 697.635 16.5429C697.635 18.821 698.073 20.5456 698.947 21.7166C699.843 22.8876 701.154 23.4731 702.882 23.4731C704.332 23.4731 705.803 23.143 707.296 22.483V23.984Z" fill="#013D5B"/>
<path d="M689.909 24.6228L689.781 23.505C687.947 24.5269 686.134 25.0379 684.343 25.0379C682.701 25.0379 681.4 24.6121 680.44 23.7605C679.48 22.8876 679 21.6953 679 20.1836C679 18.5868 679.534 17.3733 680.6 16.5429C681.688 15.6913 683.276 15.2655 685.366 15.2655C686.625 15.2655 688.054 15.4145 689.653 15.7126V13.5409C689.653 10.8796 688.149 9.5489 685.142 9.5489C684.353 9.5489 683.49 9.65536 682.551 9.86826C681.613 10.0812 680.749 10.358 679.96 10.6986V9.1976C680.728 8.83566 681.602 8.54824 682.583 8.33533C683.586 8.12242 684.535 8.01597 685.43 8.01597C687.435 8.01597 688.949 8.49501 689.973 9.45309C691.018 10.3899 691.54 11.7525 691.54 13.5409V24.4631L689.909 24.6228ZM684.791 23.505C685.558 23.505 686.369 23.3879 687.222 23.1537C688.075 22.9195 688.885 22.6001 689.653 22.1956V17.0858C688.309 16.8303 686.987 16.7026 685.686 16.7026C684.044 16.7026 682.85 16.9794 682.103 17.5329C681.357 18.0865 680.984 18.9594 680.984 20.1517C680.984 22.3872 682.253 23.505 684.791 23.505Z" fill="#013D5B"/>
<path d="M659.53 32C657.632 32 656.022 31.67 654.699 31.01L654.443 29.3812C656.192 30.1051 657.856 30.4671 659.434 30.4671C662.995 30.4671 664.776 28.817 664.776 25.517V23.3134C663.966 23.7605 663.134 24.1118 662.281 24.3673C661.449 24.6228 660.671 24.7505 659.946 24.7505C657.856 24.7505 656.213 24.0479 655.019 22.6427C653.825 21.2375 653.228 19.2894 653.228 16.7984C653.228 13.9667 653.9 11.7951 655.243 10.2834C656.608 8.77179 658.57 8.01597 661.129 8.01597C663.07 8.01597 664.925 8.35662 666.695 9.03792V25.3573C666.695 27.4864 666.077 29.1257 664.84 30.2754C663.603 31.4251 661.833 32 659.53 32ZM660.201 23.2176C660.905 23.2176 661.662 23.1005 662.473 22.8663C663.283 22.6321 664.051 22.3127 664.776 21.9082V10.0599C663.667 9.71923 662.505 9.5489 661.289 9.5489C659.242 9.5489 657.717 10.145 656.715 11.3373C655.734 12.5083 655.243 14.318 655.243 16.7665C655.243 18.8743 655.659 20.4817 656.491 21.5888C657.344 22.6747 658.581 23.2176 660.201 23.2176Z" fill="#013D5B"/>
<path d="M647.224 24.5589V13.477C647.224 10.8583 645.891 9.5489 643.226 9.5489C642.522 9.5489 641.743 9.666 640.89 9.9002C640.059 10.1344 639.238 10.4538 638.427 10.8583V24.5589H636.508V8.59082L638.139 8.43114L638.267 9.5489C640.123 8.52695 641.935 8.01597 643.705 8.01597C645.433 8.01597 646.766 8.46307 647.704 9.35729C648.664 10.2515 649.144 11.5183 649.144 13.1577V24.5589H647.224Z" fill="#013D5B"/>
<path d="M629.229 24.5589V8.65469L631.149 8.3992V24.5589H629.229ZM630.189 4.5988C629.763 4.5988 629.411 4.47106 629.133 4.21557C628.877 3.96008 628.749 3.60878 628.749 3.16168C628.749 2.71457 628.877 2.36327 629.133 2.10779C629.411 1.8523 629.763 1.72455 630.189 1.72455C630.616 1.72455 630.957 1.8523 631.213 2.10779C631.491 2.36327 631.629 2.71457 631.629 3.16168C631.629 3.60878 631.491 3.96008 631.213 4.21557C630.957 4.47106 630.616 4.5988 630.189 4.5988Z" fill="#013D5B"/>
<path d="M614.515 24.5589V0.574852L616.434 0.319363V15.6168L623.984 8.49501H626.255L618.354 15.9681L626.511 24.5589H624.08L616.434 16.4471V24.5589H614.515Z" fill="#013D5B"/>
<path d="M610.391 23.984C608.983 24.6866 607.447 25.0379 605.784 25.0379C603.523 25.0379 601.775 24.3034 600.538 22.8343C599.322 21.3653 598.714 19.2681 598.714 16.5429C598.714 13.8177 599.322 11.7206 600.538 10.2515C601.775 8.76114 603.523 8.01597 605.784 8.01597C607.383 8.01597 608.898 8.36727 610.326 9.06986V10.5709C608.834 9.91084 607.383 9.58084 605.976 9.58084C604.249 9.58084 602.937 10.1663 602.041 11.3373C601.167 12.5083 600.73 14.2435 600.73 16.5429C600.73 18.821 601.167 20.5456 602.041 21.7166C602.937 22.8876 604.249 23.4731 605.976 23.4731C607.426 23.4731 608.898 23.143 610.391 22.483V23.984Z" fill="#013D5B"/>
<path d="M594.787 23.984C593.316 24.6866 591.737 25.0379 590.053 25.0379C587.6 25.0379 585.713 24.314 584.391 22.8663C583.068 21.4185 582.407 19.3426 582.407 16.6387C582.407 13.9561 583.026 11.8483 584.263 10.3154C585.499 8.78244 587.195 8.01597 589.349 8.01597C591.247 8.01597 592.74 8.61211 593.827 9.80439C594.936 10.9754 595.491 12.5828 595.491 14.6267C595.491 15.3932 595.427 16.1277 595.299 16.8303H584.295C584.316 21.2801 586.289 23.505 590.213 23.505C591.791 23.505 593.316 23.1643 594.787 22.483V23.984ZM589.317 9.51697C587.867 9.51697 586.683 10.0492 585.766 11.1138C584.849 12.1783 584.359 13.6048 584.295 15.3932H593.636C593.678 15.0526 593.699 14.7545 593.699 14.499C593.699 12.9235 593.316 11.6993 592.548 10.8263C591.78 9.95343 590.703 9.51697 589.317 9.51697Z" fill="#013D5B"/>
<path d="M565.688 24.5589V0.574852L567.607 0.319363V9.48503C569.398 8.50566 571.158 8.01597 572.885 8.01597C574.613 8.01597 575.945 8.46308 576.884 9.35729C577.844 10.2515 578.323 11.5183 578.323 13.1577V24.5589H576.404V13.477C576.404 10.8583 575.071 9.5489 572.405 9.5489C571.702 9.5489 570.923 9.666 570.07 9.9002C569.238 10.1344 568.417 10.4538 567.607 10.8583V24.5589H565.688Z" fill="#013D5B"/>
<path d="M561.563 23.984C560.155 24.6866 558.62 25.0379 556.956 25.0379C554.696 25.0379 552.947 24.3034 551.71 22.8343C550.494 21.3653 549.887 19.2681 549.887 16.5429C549.887 13.8177 550.494 11.7206 551.71 10.2515C552.947 8.76114 554.696 8.01597 556.956 8.01597C558.556 8.01597 560.07 8.36727 561.499 9.06986V10.5709C560.006 9.91084 558.556 9.58084 557.148 9.58084C555.421 9.58084 554.109 10.1663 553.214 11.3373C552.339 12.5083 551.902 14.2435 551.902 16.5429C551.902 18.821 552.339 20.5456 553.214 21.7166C554.109 22.8876 555.421 23.4731 557.148 23.4731C558.598 23.4731 560.07 23.143 561.563 22.483V23.984Z" fill="#013D5B"/>
<path d="M535.886 24.5589V13.477C535.886 10.8583 534.553 9.5489 531.887 9.5489C531.183 9.5489 530.405 9.666 529.552 9.9002C528.72 10.1344 527.899 10.4538 527.089 10.8583V24.5589H525.169V8.59082L526.801 8.43114L526.929 9.5489C528.784 8.52695 530.597 8.01597 532.367 8.01597C534.095 8.01597 535.427 8.46307 536.366 9.35729C537.325 10.2515 537.805 11.5183 537.805 13.1577V24.5589H535.886Z" fill="#013D5B"/>
<path d="M513.813 25.0379C511.489 25.0379 509.729 24.3247 508.535 22.8982C507.362 21.4504 506.776 19.3214 506.776 16.511C506.776 13.7219 507.362 11.6141 508.535 10.1876C509.729 8.73985 511.489 8.01597 513.813 8.01597C516.138 8.01597 517.887 8.73985 519.06 10.1876C520.254 11.6141 520.851 13.7219 520.851 16.511C520.851 19.3214 520.254 21.4504 519.06 22.8982C517.887 24.3247 516.138 25.0379 513.813 25.0379ZM513.813 23.505C515.562 23.505 516.831 22.9514 517.62 21.8443C518.43 20.7159 518.836 18.9381 518.836 16.511C518.836 14.1051 518.43 12.3486 517.62 11.2415C516.831 10.1131 515.562 9.5489 513.813 9.5489C512.065 9.5489 510.785 10.1131 509.975 11.2415C509.186 12.3486 508.791 14.1051 508.791 16.511C508.791 18.9381 509.186 20.7159 509.975 21.8443C510.785 22.9514 512.065 23.505 513.813 23.505Z" fill="#013D5B"/>
<path d="M484.497 22.4511C486.097 23.1537 487.75 23.505 489.456 23.505C492.335 23.505 493.774 22.3872 493.774 20.1517C493.774 19.4278 493.561 18.8423 493.134 18.3952C492.729 17.9481 492.047 17.5755 491.087 17.2774L488.656 16.511C487.291 16.0852 486.299 15.5529 485.681 14.9142C485.062 14.2542 484.753 13.4238 484.753 12.4232C484.753 11.0818 485.276 10.0173 486.321 9.22954C487.387 8.42049 488.816 8.01597 490.607 8.01597C492.121 8.01597 493.561 8.30339 494.926 8.87824V10.3792C493.497 9.82568 492.089 9.5489 490.703 9.5489C489.445 9.5489 488.453 9.80439 487.728 10.3154C487.024 10.8051 486.673 11.4864 486.673 12.3593C486.673 12.9767 486.865 13.477 487.248 13.8603C487.654 14.2222 488.368 14.5735 489.392 14.9142L491.919 15.7445C493.22 16.1703 494.169 16.7345 494.766 17.4371C495.384 18.1397 495.694 19.0339 495.694 20.1198C495.694 21.6953 495.16 22.9088 494.094 23.7605C493.028 24.6121 491.524 25.0379 489.584 25.0379C487.792 25.0379 486.182 24.7079 484.753 24.0479L484.497 22.4511Z" fill="#013D5B"/>
<path d="M478.668 24.5589V13.1577C478.668 10.7518 477.527 9.5489 475.245 9.5489C473.922 9.5489 472.408 10.0279 470.702 10.986C470.873 11.5609 470.958 12.1783 470.958 12.8383V24.5589H469.039V13.1577C469.039 10.7518 467.898 9.5489 465.616 9.5489C464.336 9.5489 462.907 9.98536 461.329 10.8583V24.5589H459.41V8.59082L461.041 8.43114L461.169 9.5489C462.982 8.52695 464.624 8.01597 466.096 8.01597C467.972 8.01597 469.327 8.6334 470.158 9.86826C472.227 8.6334 474.082 8.01597 475.725 8.01597C477.281 8.01597 478.476 8.43114 479.307 9.26148C480.16 10.0918 480.587 11.2841 480.587 12.8383V24.5589H478.668Z" fill="#013D5B"/>
<path d="M443.455 8.49501V19.5768C443.455 22.1956 444.745 23.505 447.326 23.505C448.029 23.505 448.797 23.3879 449.629 23.1537C450.482 22.9195 451.314 22.6001 452.124 22.1956V8.49501H454.043V24.4631L452.412 24.6228L452.284 23.505C450.428 24.5269 448.616 25.0379 446.846 25.0379C445.161 25.0379 443.849 24.5908 442.911 23.6966C441.994 22.7811 441.535 21.5143 441.535 19.8962V8.49501H443.455Z" fill="#013D5B"/>
<path d="M434.682 24.5589V13.1577C434.682 10.7518 433.541 9.5489 431.259 9.5489C429.937 9.5489 428.423 10.0279 426.717 10.986C426.887 11.5609 426.973 12.1783 426.973 12.8383V24.5589H425.053V13.1577C425.053 10.7518 423.912 9.5489 421.63 9.5489C420.351 9.5489 418.922 9.98536 417.344 10.8583V24.5589H415.424V8.59082L417.056 8.43114L417.184 9.5489C418.996 8.52695 420.639 8.01597 422.11 8.01597C423.987 8.01597 425.341 8.6334 426.173 9.86826C428.241 8.6334 430.097 8.01597 431.739 8.01597C433.296 8.01597 434.49 8.43114 435.322 9.26148C436.175 10.0918 436.601 11.2841 436.601 12.8383V24.5589H434.682Z" fill="#013D5B"/>
<path d="M408.146 24.5589V8.65469L410.066 8.3992V24.5589H408.146ZM409.106 4.5988C408.679 4.5988 408.327 4.47106 408.05 4.21557C407.794 3.96008 407.666 3.60878 407.666 3.16168C407.666 2.71457 407.794 2.36327 408.05 2.10779C408.327 1.8523 408.679 1.72455 409.106 1.72455C409.532 1.72455 409.874 1.8523 410.13 2.10779C410.407 2.36327 410.546 2.71457 410.546 3.16168C410.546 3.60878 410.407 3.96008 410.13 4.21557C409.874 4.47106 409.532 4.5988 409.106 4.5988Z" fill="#013D5B"/>
<path d="M401.087 24.5589V13.477C401.087 10.8583 399.754 9.5489 397.088 9.5489C396.384 9.5489 395.606 9.666 394.753 9.9002C393.921 10.1344 393.1 10.4538 392.289 10.8583V24.5589H390.37V8.59082L392.002 8.43114L392.13 9.5489C393.985 8.52695 395.798 8.01597 397.568 8.01597C399.295 8.01597 400.628 8.46307 401.566 9.35729C402.526 10.2515 403.006 11.5183 403.006 13.1577V24.5589H401.087Z" fill="#013D5B"/>
<path d="M383.092 24.5589V8.65469L385.012 8.3992V24.5589H383.092ZM384.052 4.5988C383.625 4.5988 383.273 4.47106 382.996 4.21557C382.74 3.96008 382.612 3.60878 382.612 3.16168C382.612 2.71457 382.74 2.36327 382.996 2.10779C383.273 1.8523 383.625 1.72455 384.052 1.72455C384.478 1.72455 384.82 1.8523 385.076 2.10779C385.353 2.36327 385.492 2.71457 385.492 3.16168C385.492 3.60878 385.353 3.96008 385.076 4.21557C384.82 4.47106 384.478 4.5988 384.052 4.5988Z" fill="#013D5B"/>
<path d="M376.014 24.5589V13.1577C376.014 10.7518 374.873 9.5489 372.591 9.5489C371.269 9.5489 369.755 10.0279 368.049 10.986C368.219 11.5609 368.305 12.1783 368.305 12.8383V24.5589H366.385V13.1577C366.385 10.7518 365.244 9.5489 362.962 9.5489C361.683 9.5489 360.254 9.98536 358.676 10.8583V24.5589H356.756V8.59082L358.388 8.43114L358.516 9.5489C360.329 8.52695 361.971 8.01597 363.442 8.01597C365.319 8.01597 366.673 8.6334 367.505 9.86826C369.573 8.6334 371.429 8.01597 373.071 8.01597C374.628 8.01597 375.822 8.43114 376.654 9.26148C377.507 10.0918 377.933 11.2841 377.933 12.8383V24.5589H376.014Z" fill="#013D5B"/>
<path d="M337.762 24.5589V8.59082L339.394 8.43114L339.554 9.86826C340.983 8.69727 342.508 8.11177 344.128 8.11177C344.704 8.11177 345.163 8.17565 345.504 8.30339V9.86826C344.949 9.74052 344.459 9.67665 344.032 9.67665C342.518 9.67665 341.068 10.2196 339.682 11.3054V24.5589H337.762Z" fill="#013D5B"/>
<path d="M326.406 25.0379C324.082 25.0379 322.322 24.3247 321.128 22.8982C319.955 21.4504 319.369 19.3214 319.369 16.511C319.369 13.7219 319.955 11.6141 321.128 10.1876C322.322 8.73985 324.082 8.01597 326.406 8.01597C328.731 8.01597 330.48 8.73985 331.653 10.1876C332.847 11.6141 333.444 13.7219 333.444 16.511C333.444 19.3214 332.847 21.4504 331.653 22.8982C330.48 24.3247 328.731 25.0379 326.406 25.0379ZM326.406 23.505C328.155 23.505 329.424 22.9514 330.213 21.8443C331.024 20.7159 331.429 18.9381 331.429 16.511C331.429 14.1051 331.024 12.3486 330.213 11.2415C329.424 10.1131 328.155 9.5489 326.406 9.5489C324.658 9.5489 323.378 10.1131 322.568 11.2415C321.779 12.3486 321.384 14.1051 321.384 16.511C321.384 18.9381 321.779 20.7159 322.568 21.8443C323.378 22.9514 324.658 23.505 326.406 23.505Z" fill="#013D5B"/>
<path d="M297.09 22.4511C298.69 23.1537 300.343 23.505 302.049 23.505C304.928 23.505 306.367 22.3872 306.367 20.1517C306.367 19.4278 306.154 18.8423 305.727 18.3952C305.322 17.9481 304.64 17.5755 303.68 17.2774L301.249 16.511C299.884 16.0852 298.892 15.5529 298.274 14.9142C297.655 14.2542 297.346 13.4238 297.346 12.4232C297.346 11.0818 297.869 10.0173 298.914 9.22954C299.98 8.42049 301.409 8.01597 303.2 8.01597C304.714 8.01597 306.154 8.30339 307.519 8.87824V10.3792C306.09 9.82568 304.683 9.5489 303.296 9.5489C302.038 9.5489 301.046 9.80439 300.321 10.3154C299.617 10.8051 299.266 11.4864 299.266 12.3593C299.266 12.9767 299.458 13.477 299.841 13.8603C300.247 14.2222 300.961 14.5735 301.985 14.9142L304.512 15.7445C305.813 16.1703 306.762 16.7345 307.359 17.4371C307.977 18.1397 308.287 19.0339 308.287 20.1198C308.287 21.6953 307.753 22.9088 306.687 23.7605C305.621 24.6121 304.117 25.0379 302.177 25.0379C300.385 25.0379 298.775 24.7079 297.346 24.0479L297.09 22.4511Z" fill="#013D5B"/>
<path d="M293.355 23.984C291.884 24.6866 290.305 25.0379 288.621 25.0379C286.168 25.0379 284.281 24.314 282.958 22.8663C281.636 21.4185 280.975 19.3426 280.975 16.6387C280.975 13.9561 281.594 11.8483 282.831 10.3154C284.067 8.78244 285.763 8.01597 287.917 8.01597C289.815 8.01597 291.308 8.61211 292.395 9.80439C293.504 10.9754 294.059 12.5828 294.059 14.6267C294.059 15.3932 293.995 16.1277 293.867 16.8303H282.862C282.884 21.2801 284.856 23.505 288.781 23.505C290.359 23.505 291.884 23.1643 293.355 22.483V23.984ZM287.885 9.51697C286.435 9.51697 285.251 10.0492 284.334 11.1138C283.417 12.1783 282.926 13.6048 282.862 15.3932H292.203C292.246 15.0526 292.267 14.7545 292.267 14.499C292.267 12.9235 291.884 11.6993 291.116 10.8263C290.348 9.95343 289.271 9.51697 287.885 9.51697Z" fill="#013D5B"/>
<path d="M277.048 23.984C275.576 24.6866 273.998 25.0379 272.313 25.0379C269.861 25.0379 267.974 24.314 266.651 22.8663C265.329 21.4185 264.668 19.3426 264.668 16.6387C264.668 13.9561 265.286 11.8483 266.523 10.3154C267.76 8.78244 269.456 8.01597 271.61 8.01597C273.508 8.01597 275.001 8.61211 276.088 9.80439C277.197 10.9754 277.752 12.5828 277.752 14.6267C277.752 15.3932 277.688 16.1277 277.56 16.8303H266.555C266.577 21.2801 268.549 23.505 272.473 23.505C274.052 23.505 275.576 23.1643 277.048 22.483V23.984ZM271.578 9.51697C270.128 9.51697 268.944 10.0492 268.027 11.1138C267.11 12.1783 266.619 13.6048 266.555 15.3932H275.896C275.939 15.0526 275.96 14.7545 275.96 14.499C275.96 12.9235 275.576 11.6993 274.809 10.8263C274.041 9.95343 272.964 9.51697 271.578 9.51697Z" fill="#013D5B"/>
<path d="M256.237 24.5589V9.96407H253.806V8.59082L256.237 8.49501V4.88623C256.237 3.31071 256.621 2.10778 257.389 1.27745C258.178 0.425815 259.319 0 260.812 0C261.622 0 262.443 0.149035 263.275 0.447106V1.8523C262.507 1.6181 261.772 1.501 261.068 1.501C260.065 1.501 259.33 1.76713 258.861 2.2994C258.391 2.81038 258.157 3.61943 258.157 4.72655V8.49501H262.475V9.96407H258.157V24.5589H256.237Z" fill="#013D5B"/>
<path d="M236.436 25.0379C234.112 25.0379 232.352 24.3247 231.158 22.8982C229.985 21.4504 229.398 19.3214 229.398 16.511C229.398 13.7219 229.985 11.6141 231.158 10.1876C232.352 8.73985 234.112 8.01597 236.436 8.01597C238.761 8.01597 240.509 8.73985 241.682 10.1876C242.877 11.6141 243.474 13.7219 243.474 16.511C243.474 19.3214 242.877 21.4504 241.682 22.8982C240.509 24.3247 238.761 25.0379 236.436 25.0379ZM236.436 23.505C238.185 23.505 239.454 22.9514 240.243 21.8443C241.053 20.7159 241.458 18.9381 241.458 16.511C241.458 14.1051 241.053 12.3486 240.243 11.2415C239.454 10.1131 238.185 9.5489 236.436 9.5489C234.687 9.5489 233.408 10.1131 232.597 11.2415C231.808 12.3486 231.414 14.1051 231.414 16.511C231.414 18.9381 231.808 20.7159 232.597 21.8443C233.408 22.9514 234.687 23.505 236.436 23.505Z" fill="#013D5B"/>
<path d="M223.395 24.5589V13.477C223.395 10.8583 222.062 9.5489 219.396 9.5489C218.693 9.5489 217.914 9.666 217.061 9.9002C216.23 10.1344 215.408 10.4538 214.598 10.8583V24.5589H212.679V8.59082L214.31 8.43114L214.438 9.5489C216.294 8.52695 218.106 8.01597 219.876 8.01597C221.604 8.01597 222.937 8.46307 223.875 9.35729C224.835 10.2515 225.315 11.5183 225.315 13.1577V24.5589H223.395Z" fill="#013D5B"/>
<path d="M186.906 24.5589V0.574852L188.825 0.319363V9.48503C190.617 8.50566 192.376 8.01597 194.104 8.01597C195.831 8.01597 197.164 8.46308 198.102 9.35729C199.062 10.2515 199.542 11.5183 199.542 13.1577V24.5589H197.622V13.477C197.622 10.8583 196.29 9.5489 193.624 9.5489C192.92 9.5489 192.142 9.666 191.289 9.9002C190.457 10.1344 189.636 10.4538 188.825 10.8583V24.5589H186.906Z" fill="#013D5B"/>
<path d="M178.527 9.96407V20.1836C178.527 21.2908 178.761 22.1104 179.23 22.6427C179.7 23.1537 180.425 23.4092 181.406 23.4092C182.045 23.4092 182.771 23.2921 183.581 23.0579V24.4631C182.685 24.7611 181.864 24.9102 181.118 24.9102C179.646 24.9102 178.527 24.5163 177.759 23.7285C176.991 22.9195 176.607 21.7272 176.607 20.1517V9.96407H174.176V8.59082L176.671 8.49501L176.863 4.47106L178.527 4.27944V8.49501H183.357V9.96407H178.527Z" fill="#013D5B"/>
<path d="M168.881 24.5589V8.65469L170.801 8.3992V24.5589H168.881ZM169.841 4.5988C169.414 4.5988 169.062 4.47106 168.785 4.21557C168.529 3.96008 168.401 3.60878 168.401 3.16168C168.401 2.71457 168.529 2.36327 168.785 2.10779C169.062 1.8523 169.414 1.72455 169.841 1.72455C170.268 1.72455 170.609 1.8523 170.865 2.10779C171.142 2.36327 171.281 2.71457 171.281 3.16168C171.281 3.60878 171.142 3.96008 170.865 4.21557C170.609 4.47106 170.268 4.5988 169.841 4.5988Z" fill="#013D5B"/>
<path d="M159.066 24.5589L154.748 10.6347L150.557 24.5589H148.734L143.615 8.49501H145.567L149.661 22.1956L153.692 8.49501H155.835L159.93 22.2914L163.993 8.49501H165.848L160.89 24.5589H159.066Z" fill="#013D5B"/>
<path d="M130.675 24.5589V0.574852L132.595 0.319363V24.5589H130.675Z" fill="#013D5B"/>
<path d="M123.396 24.5589V0.574852L125.316 0.319363V24.5589H123.396Z" fill="#013D5B"/>
<path d="M118.413 23.984C116.941 24.6866 115.363 25.0379 113.678 25.0379C111.226 25.0379 109.339 24.314 108.016 22.8663C106.694 21.4185 106.033 19.3426 106.033 16.6387C106.033 13.9561 106.651 11.8483 107.888 10.3154C109.125 8.78244 110.821 8.01597 112.975 8.01597C114.873 8.01597 116.366 8.61211 117.453 9.80439C118.562 10.9754 119.117 12.5828 119.117 14.6267C119.117 15.3932 119.053 16.1277 118.925 16.8303H107.92C107.942 21.2801 109.914 23.505 113.838 23.505C115.417 23.505 116.941 23.1643 118.413 22.483V23.984ZM112.943 9.51697C111.492 9.51697 110.309 10.0492 109.392 11.1138C108.475 12.1783 107.984 13.6048 107.92 15.3932H117.261C117.304 15.0526 117.325 14.7545 117.325 14.499C117.325 12.9235 116.941 11.6993 116.174 10.8263C115.406 9.95343 114.329 9.51697 112.943 9.51697Z" fill="#013D5B"/>
<path d="M97.2744 24.5589L92.9558 10.6347L88.7652 24.5589H86.9418L81.8235 8.49501H83.7748L87.8695 22.1956L91.9002 8.49501H94.0435L98.1381 22.2914L102.201 8.49501H104.056L99.0978 24.5589H97.2744Z" fill="#013D5B"/>
<path d="M58.3857 31.6806V8.59082L60.0172 8.43114L60.1452 9.5489C61.9579 8.52695 63.6214 8.01597 65.1355 8.01597C67.2255 8.01597 68.8676 8.7505 70.0619 10.2196C71.2562 11.6673 71.8533 13.6793 71.8533 16.2555C71.8533 19.0872 71.1709 21.2588 69.806 22.7705C68.4624 24.2821 66.5111 25.0379 63.9519 25.0379C62.6297 25.0379 61.4141 24.8676 60.3051 24.5269V31.4251L58.3857 31.6806ZM64.8796 9.5489C64.1758 9.5489 63.4188 9.666 62.6084 9.9002C61.798 10.1344 61.0302 10.4538 60.3051 10.8583V22.994C61.4141 23.3347 62.5764 23.505 63.792 23.505C65.8393 23.505 67.3535 22.9195 68.3345 21.7485C69.3368 20.5562 69.838 18.7359 69.838 16.2874C69.838 14.0945 69.4114 12.4232 68.5584 11.2735C67.7267 10.1238 66.5004 9.5489 64.8796 9.5489Z" fill="#013D5B"/>
<path d="M53.4031 23.984C51.9316 24.6866 50.3535 25.0379 48.6687 25.0379C46.2161 25.0379 44.3288 24.314 43.0065 22.8663C41.6843 21.4185 41.0232 19.3426 41.0232 16.6387C41.0232 13.9561 41.6417 11.8483 42.8786 10.3154C44.1155 8.78244 45.8109 8.01597 47.9649 8.01597C49.8629 8.01597 51.3558 8.61211 52.4434 9.80439C53.5524 10.9754 54.1069 12.5828 54.1069 14.6267C54.1069 15.3932 54.0429 16.1277 53.9149 16.8303H42.9106C42.9319 21.2801 44.9046 23.505 48.8286 23.505C50.4068 23.505 51.9316 23.1643 53.4031 22.483V23.984ZM47.9329 9.51697C46.4827 9.51697 45.2991 10.0492 44.3821 11.1138C43.4651 12.1783 42.9746 13.6048 42.9106 15.3932H52.2515C52.2941 15.0526 52.3155 14.7545 52.3155 14.499C52.3155 12.9235 51.9316 11.6993 51.1639 10.8263C50.3961 9.95343 49.3191 9.51697 47.9329 9.51697Z" fill="#013D5B"/>
<path d="M37.096 23.984C35.6245 24.6866 34.0463 25.0379 32.3615 25.0379C29.909 25.0379 28.0216 24.314 26.6994 22.8663C25.3772 21.4185 24.7161 19.3426 24.7161 16.6387C24.7161 13.9561 25.3345 11.8483 26.5715 10.3154C27.8084 8.78244 29.5038 8.01597 31.6578 8.01597C33.5558 8.01597 35.0487 8.61211 36.1363 9.80439C37.2453 10.9754 37.7998 12.5828 37.7998 14.6267C37.7998 15.3932 37.7358 16.1277 37.6078 16.8303H26.6034C26.6248 21.2801 28.5975 23.505 32.5215 23.505C34.0996 23.505 35.6245 23.1643 37.096 22.483V23.984ZM31.6258 9.51697C30.1756 9.51697 28.992 10.0492 28.075 11.1138C27.1579 12.1783 26.6674 13.6048 26.6034 15.3932H35.9444C35.987 15.0526 36.0083 14.7545 36.0083 14.499C36.0083 12.9235 35.6245 11.6993 34.8567 10.8263C34.089 9.95343 33.012 9.51697 31.6258 9.51697Z" fill="#013D5B"/>
<path d="M18.4927 24.5589V0.574852L20.4127 0.319363V24.5589H18.4927Z" fill="#013D5B"/>
<path d="M0 21.9401C2.23926 22.9195 4.36123 23.4092 6.3659 23.4092C8.26395 23.4092 9.7248 22.994 10.7485 22.1637C11.7934 21.312 12.3159 20.0985 12.3159 18.523C12.3159 17.3307 11.9747 16.3726 11.2923 15.6487C10.6098 14.9248 9.46888 14.318 7.86941 13.8283L5.59816 13.1257C3.8494 12.5935 2.56982 11.9015 1.75942 11.0499C0.949021 10.177 0.543821 9.06986 0.543821 7.72854C0.543821 5.91883 1.22626 4.47106 2.59115 3.38523C3.97736 2.27811 5.82208 1.72455 8.12532 1.72455C9.98071 1.72455 11.7721 2.11843 13.4996 2.90619V4.503C11.6655 3.73653 9.89541 3.35329 8.1893 3.35329C6.44055 3.35329 5.07566 3.73653 4.09465 4.503C3.11364 5.24817 2.62314 6.30206 2.62314 7.66467C2.62314 8.62276 2.90038 9.37858 3.45486 9.93214C4.00935 10.4857 4.97969 10.986 6.3659 11.4331L8.63716 12.1677C10.6845 12.8277 12.156 13.658 13.0517 14.6587C13.9474 15.6381 14.3953 16.9155 14.3953 18.491C14.3953 20.5136 13.6808 22.1104 12.252 23.2814C10.8444 24.4524 8.9144 25.0379 6.46187 25.0379C4.20128 25.0379 2.15396 24.5802 0.319895 23.6647L0 21.9401Z" fill="#013D5B"/>
</svg>
