<svg width="198" height="22" viewBox="0 0 198 22" fill="none" xmlns="http://www.w3.org/2000/svg">
<path d="M196.617 16.7341V8.61278C196.617 6.69363 195.657 5.73406 193.737 5.73406C193.23 5.73406 192.669 5.81988 192.055 5.99151C191.456 6.16314 190.864 6.39718 190.281 6.69364V16.7341H188.898V5.03193L190.073 4.91491L190.166 5.73406C191.502 4.98513 192.808 4.61066 194.083 4.61066C195.327 4.61066 196.287 4.93832 196.963 5.59364C197.654 6.24896 198 7.17732 198 8.37874V16.7341H196.617Z" fill="#013D5B"/>
<path d="M183.655 16.734V5.07872L185.038 4.89149V16.734H183.655ZM184.346 2.10638C184.039 2.10638 183.786 2.01277 183.586 1.82553C183.402 1.6383 183.31 1.38085 183.31 1.05319C183.31 0.725531 183.402 0.468085 183.586 0.280852C183.786 0.0936171 184.039 0 184.346 0C184.654 0 184.899 0.0936171 185.084 0.280852C185.284 0.468085 185.383 0.725531 185.383 1.05319C185.383 1.38085 185.284 1.6383 185.084 1.82553C184.899 2.01277 184.654 2.10638 184.346 2.10638Z" fill="#013D5B"/>
<path d="M165.751 20.783C166.842 20.5801 167.694 20.1901 168.309 19.6128C168.923 19.0355 169.492 18.1149 170.014 16.8511L165.59 4.9617H167.041L170.659 15.283L174.392 4.9617H175.775L171.35 16.617C170.936 17.7404 170.498 18.6532 170.037 19.3553C169.592 20.073 169.062 20.6348 168.447 21.0404C167.833 21.4617 167.034 21.7816 166.051 22L165.751 20.783Z" fill="#013D5B"/>
<path d="M163.752 16.3128C162.692 16.8277 161.555 17.0851 160.342 17.0851C158.575 17.0851 157.216 16.5546 156.263 15.4936C155.311 14.4326 154.834 12.9114 154.834 10.9298C154.834 8.96385 155.28 7.41917 156.171 6.29576C157.062 5.17236 158.283 4.61066 159.835 4.61066C161.202 4.61066 162.277 5.04754 163.061 5.9213C163.859 6.77945 164.259 7.95747 164.259 9.45534C164.259 10.017 164.213 10.5553 164.121 11.0702H156.194C156.209 14.3312 157.63 15.9617 160.457 15.9617C161.594 15.9617 162.692 15.7121 163.752 15.2128V16.3128ZM159.812 5.71066C158.767 5.71066 157.914 6.10073 157.254 6.88087C156.593 7.66101 156.24 8.7064 156.194 10.017H162.922C162.953 9.76739 162.968 9.54895 162.968 9.36172C162.968 8.20711 162.692 7.30995 162.139 6.67023C161.586 6.03051 160.81 5.71066 159.812 5.71066Z" fill="#013D5B"/>
<path d="M150.51 16.7341V8.61278C150.51 6.69363 149.55 5.73406 147.63 5.73406C147.123 5.73406 146.563 5.81988 145.948 5.99151C145.349 6.16314 144.758 6.39718 144.174 6.69364V16.7341H142.791V5.03193L143.966 4.91491L144.059 5.73406C145.395 4.98513 146.701 4.61066 147.976 4.61066C149.22 4.61066 150.18 4.93832 150.856 5.59364C151.547 6.24896 151.893 7.17732 151.893 8.37874V16.7341H150.51Z" fill="#013D5B"/>
<path d="M134.611 17.0851C132.937 17.0851 131.67 16.5624 130.809 15.517C129.964 14.456 129.542 12.8958 129.542 10.8362C129.542 8.79222 129.964 7.24754 130.809 6.20215C131.67 5.14115 132.937 4.61066 134.611 4.61066C136.286 4.61066 137.545 5.14115 138.39 6.20215C139.25 7.24754 139.681 8.79222 139.681 10.8362C139.681 12.8958 139.25 14.456 138.39 15.517C137.545 16.5624 136.286 17.0851 134.611 17.0851ZM134.611 15.9617C135.871 15.9617 136.785 15.556 137.353 14.7447C137.937 13.9177 138.229 12.6149 138.229 10.8362C138.229 9.07307 137.937 7.78583 137.353 6.97449C136.785 6.14754 135.871 5.73406 134.611 5.73406C133.352 5.73406 132.43 6.14754 131.846 6.97449C131.278 7.78583 130.994 9.07307 130.994 10.8362C130.994 12.6149 131.278 13.9177 131.846 14.7447C132.43 15.556 133.352 15.9617 134.611 15.9617Z" fill="#013D5B"/>
<path d="M125.204 16.7341V8.37874C125.204 6.61562 124.383 5.73406 122.739 5.73406C121.787 5.73406 120.696 6.08512 119.467 6.78725C119.59 7.20853 119.651 7.66101 119.651 8.1447V16.7341H118.269V8.37874C118.269 6.61562 117.447 5.73406 115.803 5.73406C114.882 5.73406 113.852 6.05392 112.716 6.69364V16.7341H111.333V5.03193L112.508 4.91491L112.6 5.73406C113.906 4.98513 115.089 4.61066 116.149 4.61066C117.501 4.61066 118.476 5.06314 119.075 5.9681C120.565 5.06314 121.902 4.61066 123.085 4.61066C124.206 4.61066 125.066 4.91491 125.665 5.52342C126.28 6.13193 126.587 7.00569 126.587 8.1447V16.7341H125.204Z" fill="#013D5B"/>
<path d="M101.983 16.3128C100.923 16.8277 99.7866 17.0851 98.573 17.0851C96.8065 17.0851 95.447 16.5546 94.4945 15.4936C93.5421 14.4326 93.0659 12.9114 93.0659 10.9298C93.0659 8.96385 93.5114 7.41917 94.4024 6.29576C95.2933 5.17236 96.5146 4.61066 98.0661 4.61066C99.4333 4.61066 100.509 5.04754 101.292 5.9213C102.091 6.77945 102.49 7.95747 102.49 9.45534C102.49 10.017 102.444 10.5553 102.352 11.0702H94.4254C94.4408 14.3312 95.8617 15.9617 98.6882 15.9617C99.825 15.9617 100.923 15.7121 101.983 15.2128V16.3128ZM98.0431 5.71066C96.9985 5.71066 96.1459 6.10073 95.4854 6.88087C94.8248 7.66101 94.4715 8.7064 94.4254 10.017H101.154C101.184 9.76739 101.2 9.54895 101.2 9.36172C101.2 8.20711 100.923 7.30995 100.37 6.67023C99.8173 6.03051 99.0416 5.71066 98.0431 5.71066Z" fill="#013D5B"/>
<path d="M86.1306 16.734V5.03191L87.3058 4.91489L87.421 5.96808C88.4502 5.10993 89.5486 4.68085 90.716 4.68085C91.1308 4.68085 91.4611 4.72766 91.7069 4.82127V5.96808C91.3075 5.87447 90.9541 5.82766 90.6469 5.82766C89.5562 5.82766 88.5117 6.22553 87.5132 7.02127V16.734H86.1306Z" fill="#013D5B"/>
<path d="M77.9507 17.0851C76.2763 17.0851 75.0089 16.5624 74.1487 15.517C73.3038 14.456 72.8813 12.8958 72.8813 10.8362C72.8813 8.79222 73.3038 7.24754 74.1487 6.20215C75.0089 5.14115 76.2763 4.61066 77.9507 4.61066C79.6251 4.61066 80.8847 5.14115 81.7296 6.20215C82.5898 7.24754 83.02 8.79222 83.02 10.8362C83.02 12.8958 82.5898 14.456 81.7296 15.517C80.8847 16.5624 79.6251 17.0851 77.9507 17.0851ZM77.9507 15.9617C79.2103 15.9617 80.1243 15.556 80.6927 14.7447C81.2764 13.9177 81.5683 12.6149 81.5683 10.8362C81.5683 9.07307 81.2764 7.78583 80.6927 6.97449C80.1243 6.14754 79.2103 5.73406 77.9507 5.73406C76.691 5.73406 75.7693 6.14754 75.1856 6.97449C74.6172 7.78583 74.333 9.07307 74.333 10.8362C74.333 12.6149 74.6172 13.9177 75.1856 14.7447C75.7693 15.556 76.691 15.9617 77.9507 15.9617Z" fill="#013D5B"/>
<path d="M68.5438 16.7341V8.37874C68.5438 6.61562 67.722 5.73406 66.0783 5.73406C65.1259 5.73406 64.0352 6.08512 62.8063 6.78725C62.9292 7.20853 62.9906 7.66101 62.9906 8.1447V16.7341H61.6081V8.37874C61.6081 6.61562 60.7863 5.73406 59.1426 5.73406C58.2209 5.73406 57.1917 6.05392 56.0549 6.69364V16.7341H54.6724V5.03193L55.8475 4.91491L55.9397 5.73406C57.2454 4.98513 58.4283 4.61066 59.4882 4.61066C60.84 4.61066 61.8155 5.06314 62.4146 5.9681C63.9046 5.06314 65.2411 4.61066 66.4239 4.61066C67.5453 4.61066 68.4056 4.91491 69.0047 5.52342C69.6191 6.13193 69.9264 7.00569 69.9264 8.1447V16.7341H68.5438Z" fill="#013D5B"/>
<path d="M36.1082 21.9532V5.03193L37.2833 4.91491L37.3755 5.73406C38.6812 4.98513 39.8794 4.61066 40.9701 4.61066C42.4755 4.61066 43.6583 5.14895 44.5186 6.22555C45.3788 7.28654 45.809 8.76101 45.809 10.649C45.809 12.7241 45.3174 14.3156 44.3343 15.4234C43.3665 16.5312 41.9609 17.0851 40.1175 17.0851C39.1651 17.0851 38.2895 16.9603 37.4907 16.7107V21.766L36.1082 21.9532ZM40.7857 5.73406C40.2788 5.73406 39.7335 5.81988 39.1497 5.99151C38.566 6.16314 38.013 6.39718 37.4907 6.69364V15.5873C38.2895 15.8369 39.1267 15.9617 40.0023 15.9617C41.477 15.9617 42.5677 15.5326 43.2743 14.6745C43.9963 13.8007 44.3573 12.4667 44.3573 10.6724C44.3573 9.06527 44.0501 7.84044 43.4356 6.99789C42.8365 6.15534 41.9532 5.73406 40.7857 5.73406Z" fill="#013D5B"/>
<path d="M32.5187 16.3128C31.4587 16.8277 30.322 17.0851 29.1084 17.0851C27.3419 17.0851 25.9824 16.5546 25.0299 15.4936C24.0775 14.4326 23.6013 12.9114 23.6013 10.9298C23.6013 8.96385 24.0468 7.41917 24.9378 6.29576C25.8287 5.17236 27.05 4.61066 28.6015 4.61066C29.9687 4.61066 31.044 5.04754 31.8274 5.9213C32.6262 6.77945 33.0256 7.95747 33.0256 9.45534C33.0256 10.017 32.9795 10.5553 32.8874 11.0702H24.9608C24.9762 14.3312 26.3971 15.9617 29.2236 15.9617C30.3604 15.9617 31.4587 15.7121 32.5187 15.2128V16.3128ZM28.5785 5.71066C27.5339 5.71066 26.6813 6.10073 26.0208 6.88087C25.3602 7.66101 25.0069 8.7064 24.9608 10.017H31.6892C31.7199 9.76739 31.7353 9.54895 31.7353 9.36172C31.7353 8.20711 31.4587 7.30995 30.9057 6.67023C30.3527 6.03051 29.577 5.71066 28.5785 5.71066Z" fill="#013D5B"/>
<path d="M20.7726 16.3128C19.7127 16.8277 18.5759 17.0851 17.3623 17.0851C15.5958 17.0851 14.2363 16.5546 13.2838 15.4936C12.3314 14.4326 11.8552 12.9114 11.8552 10.9298C11.8552 8.96385 12.3007 7.41917 13.1917 6.29576C14.0826 5.17236 15.3039 4.61066 16.8554 4.61066C18.2226 4.61066 19.2979 5.04754 20.0813 5.9213C20.8801 6.77945 21.2795 7.95747 21.2795 9.45534C21.2795 10.017 21.2334 10.5553 21.1413 11.0702H13.2147C13.2301 14.3312 14.651 15.9617 17.4775 15.9617C18.6143 15.9617 19.7127 15.7121 20.7726 15.2128V16.3128ZM16.8324 5.71066C15.7878 5.71066 14.9352 6.10073 14.2747 6.88087C13.6141 7.66101 13.2608 8.7064 13.2147 10.017H19.9431C19.9738 9.76739 19.9892 9.54895 19.9892 9.36172C19.9892 8.20711 19.7127 7.30995 19.1596 6.67023C18.6066 6.03051 17.8309 5.71066 16.8324 5.71066Z" fill="#013D5B"/>
<path d="M0 16.7341V0.351074H1.45167V7.6298L9.14779 0.351074H10.9681L2.67291 8.12129L11.0373 16.7341H9.14779L1.45167 8.70639V16.7341H0Z" fill="#013D5B"/>
</svg>
