<svg width="179" height="23" viewBox="0 0 179 23" fill="none" xmlns="http://www.w3.org/2000/svg">
<path d="M170.955 16.0675C172.104 16.5776 173.292 16.8327 174.518 16.8327C176.586 16.8327 177.621 16.0212 177.621 14.3982C177.621 13.8727 177.468 13.4476 177.161 13.123C176.87 12.7984 176.38 12.5279 175.69 12.3115L173.943 11.755C172.962 11.4459 172.25 11.0595 171.805 10.5958C171.361 10.1166 171.139 9.51379 171.139 8.78731C171.139 7.81352 171.514 7.04066 172.265 6.46876C173.031 5.88139 174.058 5.58771 175.345 5.58771C176.433 5.58771 177.468 5.79638 178.448 6.21372V7.30344C177.422 6.90156 176.41 6.70061 175.414 6.70061C174.51 6.70061 173.797 6.88609 173.276 7.25706C172.771 7.61257 172.518 8.1072 172.518 8.74093C172.518 9.18918 172.656 9.55242 172.932 9.83065C173.223 10.0934 173.736 10.3485 174.472 10.5958L176.288 11.1986C177.222 11.5077 177.904 11.9173 178.333 12.4274C178.778 12.9375 179 13.5867 179 14.375C179 15.5188 178.617 16.3999 177.851 17.0182C177.084 17.6364 176.004 17.9456 174.61 17.9456C173.322 17.9456 172.165 17.706 171.139 17.2268L170.955 16.0675Z" fill="#013D5B"/>
<path d="M165.83 7.00202V14.4214C165.83 15.2251 165.999 15.8202 166.336 16.2067C166.673 16.5776 167.194 16.7631 167.899 16.7631C168.359 16.7631 168.88 16.6781 169.462 16.5081V17.5282C168.819 17.7446 168.229 17.8528 167.692 17.8528C166.635 17.8528 165.83 17.5669 165.279 16.995C164.727 16.4076 164.451 15.542 164.451 14.3982V7.00202H162.704V6.00504L164.497 5.93549L164.635 3.01411L165.83 2.875V5.93549H169.301V7.00202H165.83Z" fill="#013D5B"/>
<path d="M159.057 17.5978V9.55242C159.057 7.65121 158.099 6.70061 156.184 6.70061C155.678 6.70061 155.119 6.78563 154.506 6.95565C153.908 7.12568 153.318 7.35754 152.736 7.65122V17.5978H151.357V6.00505L152.529 5.88912L152.621 6.70061C153.954 5.95868 155.257 5.58771 156.529 5.58771C157.77 5.58771 158.728 5.91231 159.402 6.5615C160.092 7.21069 160.436 8.13038 160.436 9.32057V17.5978H159.057Z" fill="#013D5B"/>
<path d="M139.893 5.93549V13.9809C139.893 15.8821 140.82 16.8327 142.674 16.8327C143.18 16.8327 143.731 16.7476 144.329 16.5776C144.942 16.4076 145.54 16.1757 146.122 15.8821V5.93549H147.501V17.5282L146.329 17.6442L146.237 16.8327C144.904 17.5746 143.601 17.9456 142.329 17.9456C141.119 17.9456 140.176 17.621 139.502 16.9718C138.843 16.3071 138.514 15.3874 138.514 14.2127V5.93549H139.893Z" fill="#013D5B"/>
<path d="M130.514 17.9456C128.844 17.9456 127.58 17.4278 126.722 16.3921C125.879 15.3411 125.458 13.7954 125.458 11.755C125.458 9.73018 125.879 8.19994 126.722 7.16432C127.58 6.11325 128.844 5.58771 130.514 5.58771C132.185 5.58771 133.441 6.11325 134.284 7.16432C135.142 8.19994 135.571 9.73018 135.571 11.755C135.571 13.7954 135.142 15.3411 134.284 16.3921C133.441 17.4278 132.185 17.9456 130.514 17.9456ZM130.514 16.8327C131.771 16.8327 132.683 16.4308 133.25 15.627C133.832 14.8078 134.123 13.5171 134.123 11.755C134.123 10.0084 133.832 8.7332 133.25 7.92944C132.683 7.11022 131.771 6.70061 130.514 6.70061C129.258 6.70061 128.338 7.11022 127.756 7.92944C127.189 8.7332 126.906 10.0084 126.906 11.755C126.906 13.5171 127.189 14.8078 127.756 15.627C128.338 16.4308 129.258 16.8327 130.514 16.8327Z" fill="#013D5B"/>
<path d="M123.477 17.1804C122.465 17.6905 121.362 17.9456 120.167 17.9456C118.542 17.9456 117.286 17.4123 116.397 16.3458C115.524 15.2792 115.087 13.7567 115.087 11.7782C115.087 9.79974 115.524 8.27722 116.397 7.21069C117.286 6.1287 118.542 5.58771 120.167 5.58771C121.316 5.58771 122.404 5.84275 123.431 6.35283V7.44255C122.358 6.96338 121.316 6.72379 120.305 6.72379C119.063 6.72379 118.121 7.14886 117.477 7.999C116.849 8.84913 116.535 10.1089 116.535 11.7782C116.535 13.4321 116.849 14.6841 117.477 15.5343C118.121 16.3844 119.063 16.8095 120.305 16.8095C121.347 16.8095 122.404 16.5699 123.477 16.0907V17.1804Z" fill="#013D5B"/>
<path d="M113.106 17.1804C112.095 17.6905 110.991 17.9456 109.796 17.9456C108.172 17.9456 106.915 17.4123 106.027 16.3458C105.153 15.2792 104.716 13.7567 104.716 11.7782C104.716 9.79974 105.153 8.27722 106.027 7.21069C106.915 6.1287 108.172 5.58771 109.796 5.58771C110.946 5.58771 112.034 5.84275 113.06 6.35283V7.44255C111.988 6.96338 110.946 6.72379 109.934 6.72379C108.693 6.72379 107.75 7.14886 107.107 7.999C106.479 8.84913 106.164 10.1089 106.164 11.7782C106.164 13.4321 106.479 14.6841 107.107 15.5343C107.75 16.3844 108.693 16.8095 109.934 16.8095C110.976 16.8095 112.034 16.5699 113.106 16.0907V17.1804Z" fill="#013D5B"/>
<path d="M100.613 17.6442L100.521 16.8327C99.2028 17.5746 97.9003 17.9456 96.6131 17.9456C95.4331 17.9456 94.4984 17.6364 93.8088 17.0182C93.1192 16.3844 92.7744 15.5188 92.7744 14.4214C92.7744 13.2621 93.1575 12.3811 93.9237 11.7782C94.7052 11.16 95.8469 10.8508 97.3486 10.8508C98.2527 10.8508 99.2794 10.959 100.429 11.1754V9.5988C100.429 7.66668 99.3484 6.70061 97.1877 6.70061C96.6207 6.70061 96.0001 6.77789 95.3259 6.93247C94.6516 7.08703 94.031 7.28798 93.464 7.53529V6.44557C94.0157 6.1828 94.6439 5.97414 95.3488 5.81957C96.0691 5.665 96.751 5.58771 97.3946 5.58771C98.835 5.58771 99.9231 5.93549 100.659 6.63106C101.409 7.31117 101.785 8.30041 101.785 9.5988V17.5282L100.613 17.6442ZM96.9349 16.8327C97.4865 16.8327 98.0688 16.7477 98.6818 16.5776C99.2948 16.4076 99.8771 16.1757 100.429 15.8821V12.1724C99.4633 11.9869 98.5132 11.8942 97.5785 11.8942C96.3985 11.8942 95.5404 12.0951 95.0041 12.497C94.4677 12.8989 94.1995 13.5326 94.1995 14.3982C94.1995 16.0212 95.1113 16.8327 96.9349 16.8327Z" fill="#013D5B"/>
<path d="M78.7836 23C77.4198 23 76.2628 22.7604 75.3127 22.2813L75.1288 21.0988C76.3854 21.6243 77.5807 21.8871 78.7147 21.8871C81.2738 21.8871 82.5533 20.6892 82.5533 18.2934V16.6936C81.971 17.0181 81.3734 17.2732 80.7604 17.4587C80.1628 17.6442 79.6034 17.7369 79.0824 17.7369C77.5807 17.7369 76.4007 17.2268 75.5426 16.2067C74.6844 15.1865 74.2554 13.7722 74.2554 11.9637C74.2554 9.90794 74.7381 8.33133 75.7035 7.23388C76.6842 6.13643 78.094 5.58771 79.9329 5.58771C81.3274 5.58771 82.6606 5.83502 83.9325 6.32964V18.1774C83.9325 19.7231 83.4881 20.9133 82.5993 21.748C81.7105 22.5827 80.4386 23 78.7836 23ZM79.2663 16.624C79.772 16.624 80.316 16.539 80.8983 16.369C81.4806 16.1989 82.0323 15.9671 82.5533 15.6734V7.07158C81.7565 6.82427 80.9213 6.70061 80.0478 6.70061C78.5767 6.70061 77.4811 7.1334 76.7608 7.999C76.0559 8.84913 75.7035 10.163 75.7035 11.9405C75.7035 13.4708 76.0023 14.6378 76.5999 15.4415C77.2129 16.2298 78.1017 16.624 79.2663 16.624Z" fill="#013D5B"/>
<path d="M69.9418 17.5978V9.55242C69.9418 7.65121 68.984 6.70061 67.0685 6.70061C66.5628 6.70061 66.0035 6.78563 65.3905 6.95565C64.7929 7.12568 64.2029 7.35754 63.6206 7.65122V17.5978H62.2415V6.00505L63.4137 5.88912L63.5057 6.70061C64.8389 5.95868 66.1414 5.58771 67.4133 5.58771C68.6545 5.58771 69.6123 5.91231 70.2865 6.5615C70.9761 7.21069 71.3209 8.13038 71.3209 9.32057V17.5978H69.9418Z" fill="#013D5B"/>
<path d="M57.0113 17.5978V6.05139L58.3904 5.86591V17.5978H57.0113ZM57.7009 3.10683C57.3944 3.10683 57.1415 3.01409 56.9423 2.82861C56.7584 2.64312 56.6665 2.38808 56.6665 2.06348C56.6665 1.73889 56.7584 1.48385 56.9423 1.29837C57.1415 1.11288 57.3944 1.02014 57.7009 1.02014C58.0074 1.02014 58.2525 1.11288 58.4364 1.29837C58.6356 1.48385 58.7352 1.73889 58.7352 2.06348C58.7352 2.38808 58.6356 2.64312 58.4364 2.82861C58.2525 3.01409 58.0074 3.10683 57.7009 3.10683Z" fill="#013D5B"/>
<path d="M46.4387 17.5978V0.185482L47.8179 0V11.1058L53.2426 5.93548H54.8746L49.197 11.3609L55.0585 17.5978H53.3115L47.8179 11.7087V17.5978H46.4387Z" fill="#013D5B"/>
<path d="M43.4748 17.1804C42.4635 17.6905 41.3601 17.9456 40.1649 17.9456C38.5405 17.9456 37.284 17.4123 36.3952 16.3458C35.5217 15.2792 35.085 13.7567 35.085 11.7782C35.085 9.79974 35.5217 8.27722 36.3952 7.21069C37.284 6.1287 38.5405 5.58771 40.1649 5.58771C41.3142 5.58771 42.4022 5.84275 43.4289 6.35283V7.44255C42.3562 6.96338 41.3142 6.72379 40.3028 6.72379C39.0615 6.72379 38.1191 7.14886 37.4755 7.999C36.8472 8.84913 36.5331 10.1089 36.5331 11.7782C36.5331 13.4321 36.8472 14.6841 37.4755 15.5343C38.1191 16.3844 39.0615 16.8095 40.3028 16.8095C41.3448 16.8095 42.4022 16.5699 43.4748 16.0907V17.1804Z" fill="#013D5B"/>
<path d="M32.2632 17.1804C31.2059 17.6905 30.0719 17.9456 28.8613 17.9456C27.0991 17.9456 25.7429 17.42 24.7928 16.369C23.8427 15.3179 23.3677 13.8108 23.3677 11.8478C23.3677 9.90021 23.8121 8.36996 24.7009 7.25706C25.5897 6.14416 26.8079 5.58771 28.3556 5.58771C29.7195 5.58771 30.7921 6.02051 31.5737 6.8861C32.3705 7.73623 32.7689 8.90323 32.7689 10.3871C32.7689 10.9436 32.723 11.4768 32.631 11.9869H24.7238C24.7392 15.2174 26.1566 16.8327 28.9762 16.8327C30.1102 16.8327 31.2059 16.5854 32.2632 16.0907V17.1804ZM28.3326 6.67743C27.2906 6.67743 26.4401 7.06385 25.7812 7.8367C25.1223 8.60955 24.7698 9.64517 24.7238 10.9436H31.4357C31.4664 10.6962 31.4817 10.4798 31.4817 10.2944C31.4817 9.15054 31.2059 8.26177 30.6542 7.62803C30.1026 6.9943 29.3287 6.67743 28.3326 6.67743Z" fill="#013D5B"/>
<path d="M11.3538 17.5978V0.185482L12.7329 0V6.65423C14.0201 5.94321 15.2844 5.5877 16.5256 5.5877C17.7668 5.5877 18.7246 5.9123 19.3988 6.56149C20.0884 7.21069 20.4332 8.13038 20.4332 9.32057V17.5978H19.0541V9.55242C19.0541 7.65121 18.0963 6.70061 16.1808 6.70061C15.6751 6.70061 15.1158 6.78562 14.5028 6.95565C13.9052 7.12567 13.3152 7.35753 12.7329 7.65121V17.5978H11.3538Z" fill="#013D5B"/>
<path d="M8.38988 17.1804C7.37849 17.6905 6.27517 17.9456 5.0799 17.9456C3.45556 17.9456 2.19899 17.4123 1.3102 16.3458C0.436733 15.2792 0 13.7567 0 11.7782C0 9.79974 0.436733 8.27722 1.3102 7.21069C2.19899 6.1287 3.45556 5.58771 5.0799 5.58771C6.2292 5.58771 7.3172 5.84275 8.34391 6.35283V7.44255C7.27123 6.96338 6.2292 6.72379 5.21781 6.72379C3.97657 6.72379 3.03415 7.14886 2.39054 7.999C1.76226 8.84913 1.44812 10.1089 1.44812 11.7782C1.44812 13.4321 1.76226 14.6841 2.39054 15.5343C3.03415 16.3844 3.97657 16.8095 5.21781 16.8095C6.25984 16.8095 7.3172 16.5699 8.38988 16.0907V17.1804Z" fill="#013D5B"/>
</svg>
