<svg width="232" height="23" viewBox="0 0 232 23" fill="none" xmlns="http://www.w3.org/2000/svg">
<path d="M223.939 16.2666C225.091 16.7757 226.281 17.0302 227.509 17.0302C229.582 17.0302 230.618 16.2203 230.618 14.6006C230.618 14.0761 230.465 13.6519 230.158 13.328C229.866 13.004 229.375 12.7341 228.684 12.5181L226.933 11.9628C225.951 11.6543 225.237 11.2686 224.792 10.8059C224.346 10.3277 224.124 9.72604 224.124 9.00102C224.124 8.02919 224.5 7.2579 225.252 6.68714C226.02 6.10095 227.049 5.80786 228.338 5.80786C229.428 5.80786 230.465 6.01611 231.447 6.43261V7.52013C230.419 7.11906 229.405 6.91853 228.407 6.91853C227.502 6.91853 226.788 7.10364 226.266 7.47386C225.759 7.82866 225.506 8.32228 225.506 8.95475C225.506 9.4021 225.644 9.7646 225.92 10.0423C226.212 10.3045 226.726 10.559 227.463 10.8059L229.283 11.4075C230.219 11.716 230.902 12.1248 231.332 12.6338C231.778 13.1429 232 13.7908 232 14.5775C232 15.719 231.616 16.5983 230.849 17.2153C230.081 17.8323 228.999 18.1409 227.601 18.1409C226.312 18.1409 225.152 17.9018 224.124 17.4236L223.939 16.2666Z" fill="#013D5B"/>
<path d="M221.25 17.3773C220.191 17.8863 219.054 18.1409 217.841 18.1409C216.076 18.1409 214.717 17.6164 213.765 16.5674C212.813 15.5185 212.337 14.0144 212.337 12.0554C212.337 10.1117 212.782 8.58452 213.673 7.47386C214.563 6.3632 215.784 5.80786 217.335 5.80786C218.701 5.80786 219.776 6.23979 220.559 7.10364C221.358 7.95206 221.757 9.11672 221.757 10.5976C221.757 11.1529 221.711 11.6851 221.619 12.1942H213.696C213.711 15.4182 215.132 17.0302 217.957 17.0302C219.093 17.0302 220.191 16.7834 221.25 16.2898V17.3773ZM217.312 6.89539C216.268 6.89539 215.416 7.28103 214.755 8.05233C214.095 8.82362 213.742 9.85716 213.696 11.1529H220.421C220.452 10.9061 220.467 10.6902 220.467 10.505C220.467 9.36353 220.191 8.47654 219.638 7.84408C219.085 7.21162 218.31 6.89539 217.312 6.89539Z" fill="#013D5B"/>
<path d="M209.51 17.3773C208.45 17.8863 207.314 18.1409 206.101 18.1409C204.336 18.1409 202.977 17.6164 202.025 16.5674C201.073 15.5185 200.597 14.0144 200.597 12.0554C200.597 10.1117 201.042 8.58452 201.933 7.47386C202.823 6.3632 204.044 5.80786 205.595 5.80786C206.961 5.80786 208.036 6.23979 208.819 7.10364C209.617 7.95206 210.016 9.11672 210.016 10.5976C210.016 11.1529 209.97 11.6851 209.878 12.1942H201.956C201.971 15.4182 203.391 17.0302 206.216 17.0302C207.353 17.0302 208.45 16.7834 209.51 16.2898V17.3773ZM205.572 6.89539C204.527 6.89539 203.675 7.28103 203.015 8.05233C202.355 8.82362 202.002 9.85716 201.956 11.1529H208.681C208.711 10.9061 208.727 10.6902 208.727 10.505C208.727 9.36353 208.45 8.47654 207.898 7.84408C207.345 7.21162 206.57 6.89539 205.572 6.89539Z" fill="#013D5B"/>
<path d="M194.527 17.7938V7.21932H192.777V6.22435L194.527 6.15493V3.54024C194.527 2.39872 194.804 1.52716 195.356 0.925552C195.924 0.308516 196.746 0 197.821 0C198.404 0 198.995 0.10798 199.594 0.323942V1.34205C199.041 1.17237 198.512 1.08752 198.005 1.08752C197.283 1.08752 196.753 1.28035 196.416 1.66599C196.078 2.03622 195.909 2.6224 195.909 3.42455V6.15493H199.018V7.21932H195.909V17.7938H194.527Z" fill="#013D5B"/>
<path d="M180.272 18.1409C178.598 18.1409 177.331 17.6241 176.472 16.5906C175.627 15.5416 175.205 13.999 175.205 11.9628C175.205 9.942 175.627 8.41484 176.472 7.3813C177.331 6.33234 178.598 5.80786 180.272 5.80786C181.945 5.80786 183.204 6.33234 184.049 7.3813C184.908 8.41484 185.338 9.942 185.338 11.9628C185.338 13.999 184.908 15.5416 184.049 16.5906C183.204 17.6241 181.945 18.1409 180.272 18.1409ZM180.272 17.0302C181.531 17.0302 182.444 16.6291 183.012 15.827C183.596 15.0094 183.887 13.7213 183.887 11.9628C183.887 10.2197 183.596 8.94703 183.012 8.14489C182.444 7.32731 181.531 6.91853 180.272 6.91853C179.013 6.91853 178.091 7.32731 177.508 8.14489C176.94 8.94703 176.656 10.2197 176.656 11.9628C176.656 13.7213 176.94 15.0094 177.508 15.827C178.091 16.6291 179.013 17.0302 180.272 17.0302Z" fill="#013D5B"/>
<path d="M170.883 17.7938V9.76461C170.883 7.86722 169.923 6.91853 168.004 6.91853C167.497 6.91853 166.937 7.00337 166.323 7.17306C165.724 7.34274 165.133 7.57413 164.549 7.86722V17.7938H163.167V6.22436L164.342 6.10867L164.434 6.91853C165.77 6.17808 167.075 5.80786 168.349 5.80786C169.593 5.80786 170.553 6.1318 171.228 6.77969C171.919 7.42758 172.265 8.34542 172.265 9.53321V17.7938H170.883Z" fill="#013D5B"/>
<path d="M144.613 17.7937V0.416463L145.994 0.231354V6.8722C147.284 6.16261 148.551 5.80781 149.794 5.80781C151.038 5.80781 151.998 6.13176 152.673 6.77964C153.364 7.42753 153.71 8.34537 153.71 9.53316V17.7937H152.328V9.76456C152.328 7.86717 151.368 6.91848 149.449 6.91848C148.942 6.91848 148.382 7.00332 147.768 7.17301C147.169 7.34269 146.578 7.57408 145.994 7.86717V17.7937H144.613Z" fill="#013D5B"/>
<path d="M138.58 7.21933V14.6238C138.58 15.4259 138.749 16.0198 139.087 16.4054C139.424 16.7757 139.946 16.9608 140.653 16.9608C141.113 16.9608 141.635 16.8759 142.219 16.7063V17.7244C141.574 17.9403 140.983 18.0483 140.445 18.0483C139.386 18.0483 138.58 17.7629 138.027 17.1922C137.474 16.606 137.198 15.7421 137.198 14.6006V7.21933H135.448V6.22436L137.244 6.15494L137.382 3.23945L138.58 3.10062V6.15494H142.058V7.21933H138.58Z" fill="#013D5B"/>
<path d="M131.635 17.7938V6.27064L133.017 6.08553V17.7938H131.635ZM132.326 3.33201C132.019 3.33201 131.766 3.23945 131.566 3.05434C131.382 2.86923 131.29 2.6147 131.29 2.29076C131.29 1.96682 131.382 1.71229 131.566 1.52718C131.766 1.34207 132.019 1.24951 132.326 1.24951C132.633 1.24951 132.879 1.34207 133.063 1.52718C133.263 1.71229 133.363 1.96682 133.363 2.29076C133.363 2.6147 133.263 2.86923 133.063 3.05434C132.879 3.23945 132.633 3.33201 132.326 3.33201Z" fill="#013D5B"/>
<path d="M124.569 17.7937L121.46 7.70521L118.443 17.7937H117.13L113.446 6.15491H114.85L117.798 16.0815L120.7 6.15491H122.243L125.191 16.1509L128.116 6.15491H129.452L125.882 17.7937H124.569Z" fill="#013D5B"/>
<path d="M103.337 7.21933V14.6238C103.337 15.4259 103.506 16.0198 103.843 16.4054C104.181 16.7757 104.703 16.9608 105.41 16.9608C105.87 16.9608 106.392 16.8759 106.976 16.7063V17.7244C106.331 17.9403 105.74 18.0483 105.202 18.0483C104.143 18.0483 103.337 17.7629 102.784 17.1922C102.231 16.606 101.955 15.7421 101.955 14.6006V7.21933H100.205V6.22436L102.001 6.15494L102.139 3.23945L103.337 3.10062V6.15494H106.814V7.21933H103.337Z" fill="#013D5B"/>
<path d="M98.045 17.3773C96.9855 17.8863 95.8494 18.1409 94.6364 18.1409C92.8707 18.1409 91.5119 17.6164 90.56 16.5674C89.608 15.5185 89.1321 14.0144 89.1321 12.0554C89.1321 10.1117 89.5773 8.58452 90.4679 7.47386C91.3584 6.3632 92.579 5.80786 94.1297 5.80786C95.4962 5.80786 96.571 6.23979 97.354 7.10364C98.1524 7.95206 98.5516 9.11672 98.5516 10.5976C98.5516 11.1529 98.5056 11.6851 98.4134 12.1942H90.4909C90.5062 15.4182 91.9265 17.0302 94.7516 17.0302C95.8878 17.0302 96.9855 16.7834 98.045 16.2898V17.3773ZM94.1067 6.89539C93.0626 6.89539 92.2105 7.28103 91.5503 8.05233C90.8901 8.82362 90.537 9.85716 90.4909 11.1529H97.2159C97.2466 10.9061 97.2619 10.6902 97.2619 10.505C97.2619 9.36353 96.9855 8.47654 96.4328 7.84408C95.8801 7.21162 95.1047 6.89539 94.1067 6.89539Z" fill="#013D5B"/>
<path d="M84.6519 17.7937V0.416463L86.0337 0.231354V17.7937H84.6519Z" fill="#013D5B"/>
<path d="M79.4114 17.7937V0.416463L80.7932 0.231354V17.7937H79.4114Z" fill="#013D5B"/>
<path d="M74.5397 17.8401L74.4476 17.0302C73.1272 17.7706 71.8221 18.1409 70.5324 18.1409C69.3502 18.1409 68.4136 17.8323 67.7227 17.2153C67.0317 16.5828 66.6863 15.719 66.6863 14.6238C66.6863 13.4668 67.0701 12.5875 67.8378 11.9859C68.6209 11.3689 69.7647 11.0604 71.2694 11.0604C72.1753 11.0604 73.204 11.1684 74.3555 11.3843V9.81088C74.3555 7.88264 73.2731 6.91853 71.1082 6.91853C70.5401 6.91853 69.9183 6.99565 69.2427 7.14991C68.5671 7.30417 67.9453 7.50471 67.3772 7.75152V6.664C67.9299 6.40176 68.5594 6.19351 69.2657 6.03925C69.9873 5.88499 70.6706 5.80786 71.3154 5.80786C72.7587 5.80786 73.8488 6.15494 74.5858 6.84911C75.3381 7.52785 75.7143 8.51511 75.7143 9.81088V17.7244L74.5397 17.8401ZM70.8548 17.0302C71.4076 17.0302 71.991 16.9454 72.6052 16.7757C73.2193 16.606 73.8028 16.3746 74.3555 16.0815V12.3793C73.3882 12.1942 72.4363 12.1016 71.4997 12.1016C70.3175 12.1016 69.4576 12.3022 68.9203 12.7032C68.3829 13.1043 68.1142 13.7368 68.1142 14.6006C68.1142 16.2203 69.0277 17.0302 70.8548 17.0302Z" fill="#013D5B"/>
<path d="M60.3804 17.7937L57.2713 7.70521L54.2542 17.7937H52.9415L49.2566 6.15491H50.6615L53.6094 16.0815L56.5113 6.15491H58.0543L61.0022 16.1509L63.9271 6.15491H65.2629L61.6932 17.7937H60.3804Z" fill="#013D5B"/>
<path d="M37.2634 17.7938V6.22434L38.438 6.10865L38.5531 7.14989C39.5819 6.30147 40.6796 5.87726 41.8465 5.87726C42.2611 5.87726 42.5912 5.92354 42.8369 6.01609V7.14989C42.4377 7.05734 42.0845 7.01106 41.7774 7.01106C40.6873 7.01106 39.6433 7.40442 38.6453 8.19114V17.7938H37.2634Z" fill="#013D5B"/>
<path d="M25.7766 6.15491V14.1841C25.7766 16.0815 26.7055 17.0302 28.5633 17.0302C29.07 17.0302 29.6227 16.9453 30.2215 16.7756C30.8357 16.6059 31.4345 16.3746 32.0179 16.0815V6.15491H33.3998V17.7243L32.2252 17.84L32.1331 17.0302C30.7973 17.7706 29.4922 18.1408 28.2179 18.1408C27.0049 18.1408 26.0607 17.8169 25.3851 17.169C24.7249 16.5057 24.3948 15.5878 24.3948 14.4155V6.15491H25.7766Z" fill="#013D5B"/>
<path d="M16.3805 18.1409C14.7069 18.1409 13.4402 17.6241 12.5804 16.5906C11.7359 15.5416 11.3137 13.999 11.3137 11.9628C11.3137 9.942 11.7359 8.41484 12.5804 7.3813C13.4402 6.33234 14.7069 5.80786 16.3805 5.80786C18.054 5.80786 19.313 6.33234 20.1575 7.3813C21.0173 8.41484 21.4472 9.942 21.4472 11.9628C21.4472 13.999 21.0173 15.5416 20.1575 16.5906C19.313 17.6241 18.054 18.1409 16.3805 18.1409ZM16.3805 17.0302C17.6395 17.0302 18.553 16.6291 19.1211 15.827C19.7046 15.0094 19.9963 13.7213 19.9963 11.9628C19.9963 10.2197 19.7046 8.94703 19.1211 8.14489C18.553 7.32731 17.6395 6.91853 16.3805 6.91853C15.1215 6.91853 14.2002 7.32731 13.6168 8.14489C13.0487 8.94703 12.7647 10.2197 12.7647 11.9628C12.7647 13.7213 13.0487 15.0094 13.6168 15.827C14.2002 16.6291 15.1215 17.0302 16.3805 17.0302Z" fill="#013D5B"/>
<path d="M0.161215 21.7968C1.25133 21.5962 2.10347 21.2106 2.71762 20.6398C3.33177 20.0691 3.89986 19.1589 4.42189 17.9094L0 6.15491H1.45093L5.06675 16.3591L8.79772 6.15491H10.1796L5.75767 17.678C5.34312 18.7887 4.90553 19.6911 4.44492 20.3853C3.99966 21.0949 3.46995 21.6502 2.8558 22.0513C2.24165 22.4678 1.44326 22.784 0.460613 23L0.161215 21.7968Z" fill="#013D5B"/>
</svg>
