<svg width="157" height="17" viewBox="0 0 157 17" fill="none" xmlns="http://www.w3.org/2000/svg">
<path d="M155.62 16.6507V8.56987C155.62 6.66028 154.662 5.70549 152.746 5.70549C152.24 5.70549 151.681 5.79087 151.068 5.96165C150.47 6.13243 149.88 6.36531 149.297 6.66028V16.6507H147.918V5.00686L149.091 4.89042L149.183 5.70549C150.516 4.96028 151.819 4.58768 153.091 4.58768C154.333 4.58768 155.291 4.91371 155.965 5.56576C156.655 6.21782 157 7.14156 157 8.33699V16.6507H155.62Z" fill="#013D5B"/>
<path d="M139.756 17C138.085 17 136.821 16.4799 135.962 15.4397C135.119 14.384 134.698 12.8315 134.698 10.7822C134.698 8.74841 135.119 7.21142 135.962 6.17124C136.821 5.11553 138.085 4.58768 139.756 4.58768C141.427 4.58768 142.684 5.11553 143.527 6.17124C144.385 7.21142 144.814 8.74841 144.814 10.7822C144.814 12.8315 144.385 14.384 143.527 15.4397C142.684 16.4799 141.427 17 139.756 17ZM139.756 15.8822C141.013 15.8822 141.925 15.4785 142.492 14.6712C143.075 13.8484 143.366 12.5521 143.366 10.7822C143.366 9.02786 143.075 7.74703 142.492 6.93973C141.925 6.1169 141.013 5.70549 139.756 5.70549C138.499 5.70549 137.579 6.1169 136.997 6.93973C136.43 7.74703 136.146 9.02786 136.146 10.7822C136.146 12.5521 136.43 13.8484 136.997 14.6712C137.579 15.4785 138.499 15.8822 139.756 15.8822Z" fill="#013D5B"/>
<path d="M118.685 15.1137C119.835 15.626 121.023 15.8822 122.249 15.8822C124.318 15.8822 125.353 15.0671 125.353 13.437C125.353 12.9091 125.2 12.4822 124.893 12.1562C124.602 11.8301 124.111 11.5584 123.422 11.3411L121.674 10.7822C120.693 10.4717 119.981 10.0836 119.536 9.61781C119.091 9.13654 118.869 8.53106 118.869 7.80138C118.869 6.8233 119.245 6.04704 119.996 5.47261C120.762 4.88265 121.789 4.58768 123.077 4.58768C124.165 4.58768 125.2 4.79727 126.181 5.21645V6.31097C125.154 5.90731 124.142 5.70549 123.146 5.70549C122.241 5.70549 121.529 5.89178 121.008 6.26439C120.502 6.62146 120.249 7.11827 120.249 7.7548C120.249 8.20503 120.387 8.56987 120.663 8.84932C120.954 9.11325 121.467 9.36941 122.203 9.61781L124.02 10.2233C124.955 10.5338 125.637 10.9452 126.066 11.4575C126.51 11.9699 126.733 12.6219 126.733 13.4137C126.733 14.5626 126.349 15.4475 125.583 16.0685C124.817 16.6895 123.736 17 122.341 17C121.054 17 119.896 16.7594 118.869 16.2781L118.685 15.1137Z" fill="#013D5B"/>
<path d="M114.495 16.6507V8.33699C114.495 6.58266 113.675 5.70549 112.035 5.70549C111.085 5.70549 109.996 6.0548 108.77 6.75343C108.893 7.17261 108.954 7.62283 108.954 8.10411V16.6507H107.574V8.33699C107.574 6.58266 106.754 5.70549 105.114 5.70549C104.195 5.70549 103.168 6.02375 102.033 6.66028V16.6507H100.654V5.00686L101.826 4.89042L101.918 5.70549C103.221 4.96028 104.402 4.58768 105.459 4.58768C106.808 4.58768 107.781 5.0379 108.379 5.93836C109.866 5.0379 111.2 4.58768 112.38 4.58768C113.499 4.58768 114.357 4.89042 114.955 5.4959C115.568 6.10138 115.875 6.97078 115.875 8.10411V16.6507H114.495Z" fill="#013D5B"/>
<path d="M89.1864 4.93698V13.0178C89.1864 14.9274 90.1138 15.8822 91.9685 15.8822C92.4743 15.8822 93.0261 15.7968 93.6239 15.626C94.237 15.4552 94.8348 15.2224 95.4173 14.9274V4.93698H96.7968V16.5808L95.6242 16.6972L95.5323 15.8822C94.1987 16.6274 92.8958 17 91.6236 17C90.4127 17 89.47 16.674 88.7955 16.0219C88.1364 15.3543 87.8069 14.4306 87.8069 13.2507V4.93698H89.1864Z" fill="#013D5B"/>
<path d="M82.8809 16.6507V8.33699C82.8809 6.58266 82.0608 5.70549 80.4207 5.70549C79.4704 5.70549 78.3821 6.0548 77.1558 6.75343C77.2784 7.17261 77.3397 7.62283 77.3397 8.10411V16.6507H75.9602V8.33699C75.9602 6.58266 75.1402 5.70549 73.5 5.70549C72.5804 5.70549 71.5534 6.02375 70.4191 6.66028V16.6507H69.0396V5.00686L70.2122 4.89042L70.3041 5.70549C71.607 4.96028 72.7873 4.58768 73.8449 4.58768C75.1938 4.58768 76.1671 5.0379 76.7649 5.93836C78.2518 5.0379 79.5853 4.58768 80.7656 4.58768C81.8846 4.58768 82.7429 4.89042 83.3407 5.4959C83.9538 6.10138 84.2604 6.97078 84.2604 8.10411V16.6507H82.8809Z" fill="#013D5B"/>
<path d="M63.8079 16.6507V5.05342L65.1879 4.86712V16.6507H63.8079ZM64.4979 2.09589C64.1912 2.09589 63.9382 2.00274 63.7389 1.81644C63.5549 1.63013 63.4629 1.37397 63.4629 1.04794C63.4629 0.721913 63.5549 0.465754 63.7389 0.279453C63.9382 0.0931512 64.1912 0 64.4979 0C64.8046 0 65.0499 0.0931512 65.2339 0.279453C65.4332 0.465754 65.5329 0.721913 65.5329 1.04794C65.5329 1.37397 65.4332 1.63013 65.2339 1.81644C65.0499 2.00274 64.8046 2.09589 64.4979 2.09589Z" fill="#013D5B"/>
<path d="M58.7341 16.6507V8.56987C58.7341 6.66028 57.7761 5.70549 55.8601 5.70549C55.3543 5.70549 54.7948 5.79087 54.1817 5.96165C53.5839 6.13243 52.9937 6.36531 52.4113 6.66028V16.6507H51.0317V5.00686L52.2043 4.89042L52.2963 5.70549C53.6299 4.96028 54.9328 4.58768 56.205 4.58768C57.4466 4.58768 58.4046 4.91371 59.079 5.56576C59.7688 6.21782 60.1137 7.14156 60.1137 8.33699V16.6507H58.7341Z" fill="#013D5B"/>
<path d="M45.8003 16.6507V5.05342L47.1803 4.86712V16.6507H45.8003ZM46.4903 2.09589C46.1837 2.09589 45.9307 2.00274 45.7313 1.81644C45.5473 1.63013 45.4553 1.37397 45.4553 1.04794C45.4553 0.721913 45.5473 0.465754 45.7313 0.279453C45.9307 0.0931512 46.1837 0 46.4903 0C46.797 0 47.0423 0.0931512 47.2263 0.279453C47.4257 0.465754 47.5253 0.721913 47.5253 1.04794C47.5253 1.37397 47.4257 1.63013 47.2263 1.81644C47.0423 2.00274 46.797 2.09589 46.4903 2.09589Z" fill="#013D5B"/>
<path d="M40.7134 16.6507V8.33699C40.7134 6.58266 39.8933 5.70549 38.2532 5.70549C37.3029 5.70549 36.2146 6.0548 34.9883 6.75343C35.111 7.17261 35.1723 7.62283 35.1723 8.10411V16.6507H33.7927V8.33699C33.7927 6.58266 32.9727 5.70549 31.3326 5.70549C30.4129 5.70549 29.3859 6.02375 28.2516 6.66028V16.6507H26.8721V5.00686L28.0447 4.89042L28.1366 5.70549C29.4395 4.96028 30.6198 4.58768 31.6774 4.58768C33.0263 4.58768 33.9997 5.0379 34.5975 5.93836C36.0843 5.0379 37.4178 4.58768 38.5981 4.58768C39.7171 4.58768 40.5754 4.89042 41.1732 5.4959C41.7864 6.10138 42.0929 6.97078 42.0929 8.10411V16.6507H40.7134Z" fill="#013D5B"/>
<path d="M13.2205 16.6507V5.00685L14.3931 4.89041L14.508 5.93835C15.535 5.08447 16.631 4.65753 17.7959 4.65753C18.2098 4.65753 18.5393 4.70411 18.7846 4.79726V5.93835C18.386 5.8452 18.0335 5.79863 17.7269 5.79863C16.6386 5.79863 15.5963 6.19452 14.6 6.9863V16.6507H13.2205Z" fill="#013D5B"/>
<path d="M5.05829 17C3.38752 17 2.12295 16.4799 1.26457 15.4397C0.421524 14.384 0 12.8315 0 10.7822C0 8.74841 0.421524 7.21142 1.26457 6.17124C2.12295 5.11553 3.38752 4.58768 5.05829 4.58768C6.72906 4.58768 7.98597 5.11553 8.82902 6.17124C9.6874 7.21142 10.1166 8.74841 10.1166 10.7822C10.1166 12.8315 9.6874 14.384 8.82902 15.4397C7.98597 16.4799 6.72906 17 5.05829 17ZM5.05829 15.8822C6.3152 15.8822 7.22723 15.4785 7.79437 14.6712C8.37684 13.8484 8.66807 12.5521 8.66807 10.7822C8.66807 9.02786 8.37684 7.74703 7.79437 6.93973C7.22723 6.1169 6.3152 5.70549 5.05829 5.70549C3.80138 5.70549 2.88169 6.1169 2.29922 6.93973C1.73208 7.74703 1.44851 9.02786 1.44851 10.7822C1.44851 12.5521 1.73208 13.8484 2.29922 14.6712C2.88169 15.4785 3.80138 15.8822 5.05829 15.8822Z" fill="#013D5B"/>
</svg>
