<svg width="768" height="26" viewBox="0 0 768 26" fill="none" xmlns="http://www.w3.org/2000/svg">
<path d="M16.458 19.994L15.47 3.978L9.77605 18.408H8.26805L2.52205 3.952L1.56005 19.994H4.89056e-05L1.27405 1.794H3.17205L8.99605 16.562L14.872 1.794H16.77L18.0441 19.994H16.458ZM27.0335 20.384C25.1442 20.384 23.7142 19.8033 22.7435 18.642C21.7902 17.4633 21.3135 15.73 21.3135 13.442C21.3135 11.1713 21.7902 9.45534 22.7435 8.294C23.7142 7.11534 25.1442 6.526 27.0335 6.526C28.9229 6.526 30.3442 7.11534 31.2975 8.294C32.2682 9.45534 32.7535 11.1713 32.7535 13.442C32.7535 15.73 32.2682 17.4633 31.2975 18.642C30.3442 19.8033 28.9229 20.384 27.0335 20.384ZM27.0335 19.136C28.4549 19.136 29.4862 18.6853 30.1275 17.784C30.7862 16.8653 31.1155 15.418 31.1155 13.442C31.1155 11.4833 30.7862 10.0533 30.1275 9.152C29.4862 8.23334 28.4549 7.774 27.0335 7.774C25.6122 7.774 24.5722 8.23334 23.9135 9.152C23.2722 10.0533 22.9515 11.4833 22.9515 13.442C22.9515 15.418 23.2722 16.8653 23.9135 17.784C24.5722 18.6853 25.6122 19.136 27.0335 19.136ZM35.2493 18.278C36.5493 18.85 37.8927 19.136 39.2793 19.136C41.6193 19.136 42.7893 18.226 42.7893 16.406C42.7893 15.8167 42.616 15.34 42.2693 14.976C41.94 14.612 41.3853 14.3087 40.6053 14.066L38.6293 13.442C37.52 13.0953 36.714 12.662 36.2113 12.142C35.7087 11.6047 35.4573 10.9287 35.4573 10.114C35.4573 9.022 35.882 8.15534 36.7313 7.514C37.598 6.85534 38.7593 6.526 40.2153 6.526C41.446 6.526 42.616 6.76 43.7253 7.228V8.45C42.564 7.99934 41.42 7.774 40.2933 7.774C39.2707 7.774 38.4647 7.982 37.8753 8.398C37.3033 8.79667 37.0173 9.35134 37.0173 10.062C37.0173 10.5647 37.1733 10.972 37.4853 11.284C37.8147 11.5787 38.3953 11.8647 39.2273 12.142L41.2813 12.818C42.3387 13.1647 43.11 13.624 43.5953 14.196C44.098 14.768 44.3493 15.496 44.3493 16.38C44.3493 17.6627 43.916 18.6507 43.0493 19.344C42.1827 20.0373 40.9607 20.384 39.3833 20.384C37.9273 20.384 36.6187 20.1153 35.4573 19.578L35.2493 18.278ZM49.6385 8.112V16.432C49.6385 17.3333 49.8292 18.0007 50.2105 18.434C50.5919 18.85 51.1812 19.058 51.9785 19.058C52.4985 19.058 53.0879 18.9627 53.7465 18.772V19.916C53.0185 20.1587 52.3512 20.28 51.7445 20.28C50.5485 20.28 49.6385 19.9593 49.0145 19.318C48.3905 18.6593 48.0785 17.6887 48.0785 16.406V8.112H46.1025V6.994L48.1305 6.916L48.2865 3.64L49.6385 3.484V6.916H53.5645V8.112H49.6385ZM74.4149 19.266C72.9242 20.0113 71.3642 20.384 69.7349 20.384C67.4296 20.384 65.6269 19.552 64.3269 17.888C63.0269 16.2067 62.3769 13.8753 62.3769 10.894C62.3769 7.91267 63.0269 5.59 64.3269 3.926C65.6269 2.24467 67.4296 1.404 69.7349 1.404C71.3122 1.404 72.8462 1.77667 74.3369 2.522V3.848C73.5396 3.46667 72.7942 3.18934 72.1009 3.016C71.4076 2.84267 70.6882 2.756 69.9429 2.756C68.0189 2.756 66.5629 3.44934 65.5749 4.836C64.6042 6.20534 64.1189 8.22467 64.1189 10.894C64.1189 13.5633 64.6042 15.5913 65.5749 16.978C66.5629 18.3473 68.0189 19.032 69.9429 19.032C71.4162 19.032 72.9069 18.668 74.4149 17.94V19.266ZM85.9881 20.046L85.8841 19.136C84.3935 19.968 82.9201 20.384 81.4641 20.384C80.1295 20.384 79.0721 20.0373 78.2921 19.344C77.5121 18.6333 77.1221 17.6627 77.1221 16.432C77.1221 15.132 77.5555 14.144 78.4221 13.468C79.3061 12.7747 80.5975 12.428 82.2961 12.428C83.3188 12.428 84.4801 12.5493 85.7801 12.792V11.024C85.7801 8.85734 84.5581 7.774 82.1141 7.774C81.4728 7.774 80.7708 7.86067 80.0081 8.034C79.2455 8.20734 78.5435 8.43267 77.9021 8.71V7.488C78.5261 7.19334 79.2368 6.95934 80.0341 6.786C80.8488 6.61267 81.6201 6.526 82.3481 6.526C83.9775 6.526 85.2081 6.916 86.0401 7.696C86.8895 8.45867 87.3141 9.568 87.3141 11.024V19.916L85.9881 20.046ZM81.8281 19.136C82.4521 19.136 83.1108 19.0407 83.8041 18.85C84.4975 18.6593 85.1561 18.3993 85.7801 18.07V13.91C84.6881 13.702 83.6135 13.598 82.5561 13.598C81.2215 13.598 80.2508 13.8233 79.6441 14.274C79.0375 14.7247 78.7341 15.4353 78.7341 16.406C78.7341 18.226 79.7655 19.136 81.8281 19.136ZM91.488 25.792V6.994L92.814 6.864L92.918 7.774C94.3913 6.942 95.7433 6.526 96.974 6.526C98.6726 6.526 100.007 7.124 100.978 8.32C101.949 9.49867 102.434 11.1367 102.434 13.234C102.434 15.5393 101.879 17.3073 100.77 18.538C99.678 19.7687 98.092 20.384 96.012 20.384C94.9373 20.384 93.9493 20.2453 93.048 19.968V25.584L91.488 25.792ZM96.766 7.774C96.194 7.774 95.5786 7.86934 94.92 8.06C94.2613 8.25067 93.6373 8.51067 93.048 8.84V18.72C93.9493 18.9973 94.894 19.136 95.882 19.136C97.546 19.136 98.7766 18.6593 99.574 17.706C100.389 16.7353 100.796 15.2533 100.796 13.26C100.796 11.4747 100.449 10.114 99.756 9.178C99.08 8.242 98.0833 7.774 96.766 7.774ZM105.935 19.994V7.046L107.495 6.838V19.994H105.935ZM106.715 3.744C106.369 3.744 106.083 3.64 105.857 3.432C105.649 3.224 105.545 2.938 105.545 2.574C105.545 2.21 105.649 1.924 105.857 1.716C106.083 1.508 106.369 1.404 106.715 1.404C107.062 1.404 107.339 1.508 107.547 1.716C107.773 1.924 107.885 2.21 107.885 2.574C107.885 2.938 107.773 3.224 107.547 3.432C107.339 3.64 107.062 3.744 106.715 3.744ZM113.775 8.112V16.432C113.775 17.3333 113.966 18.0007 114.347 18.434C114.729 18.85 115.318 19.058 116.115 19.058C116.635 19.058 117.225 18.9627 117.883 18.772V19.916C117.155 20.1587 116.488 20.28 115.881 20.28C114.685 20.28 113.775 19.9593 113.151 19.318C112.527 18.6593 112.215 17.6887 112.215 16.406V8.112H110.239V6.994L112.267 6.916L112.423 3.64L113.775 3.484V6.916H117.701V8.112H113.775ZM128.594 20.046L128.49 19.136C126.999 19.968 125.526 20.384 124.07 20.384C122.735 20.384 121.678 20.0373 120.898 19.344C120.118 18.6333 119.728 17.6627 119.728 16.432C119.728 15.132 120.161 14.144 121.028 13.468C121.912 12.7747 123.203 12.428 124.902 12.428C125.924 12.428 127.086 12.5493 128.386 12.792V11.024C128.386 8.85734 127.164 7.774 124.72 7.774C124.078 7.774 123.376 7.86067 122.614 8.034C121.851 8.20734 121.149 8.43267 120.508 8.71V7.488C121.132 7.19334 121.842 6.95934 122.64 6.786C123.454 6.61267 124.226 6.526 124.954 6.526C126.583 6.526 127.814 6.916 128.646 7.696C129.495 8.45867 129.92 9.568 129.92 11.024V19.916L128.594 20.046ZM124.434 19.136C125.058 19.136 125.716 19.0407 126.41 18.85C127.103 18.6593 127.762 18.3993 128.386 18.07V13.91C127.294 13.702 126.219 13.598 125.162 13.598C123.827 13.598 122.856 13.8233 122.25 14.274C121.643 14.7247 121.34 15.4353 121.34 16.406C121.34 18.226 122.371 19.136 124.434 19.136ZM134.093 19.994V0.468002L135.653 0.260002V19.994H134.093ZM153.373 19.058C157.187 19.058 159.093 16.3367 159.093 10.894C159.093 5.45134 157.187 2.73 153.373 2.73C149.56 2.73 147.653 5.45134 147.653 10.894C147.653 16.3367 149.56 19.058 153.373 19.058ZM153.373 20.384C150.981 20.384 149.144 19.5607 147.861 17.914C146.579 16.2673 145.937 13.9273 145.937 10.894C145.937 7.86067 146.579 5.52067 147.861 3.874C149.144 2.22734 150.981 1.404 153.373 1.404C155.765 1.404 157.603 2.22734 158.885 3.874C160.168 5.52067 160.809 7.86067 160.809 10.894C160.809 13.9273 160.168 16.2673 158.885 17.914C157.603 19.5607 155.765 20.384 153.373 20.384ZM173.323 19.994V10.972C173.323 8.84 172.24 7.774 170.073 7.774C169.501 7.774 168.868 7.86934 168.175 8.06C167.499 8.25067 166.832 8.51067 166.173 8.84V19.994H164.613V6.994L165.939 6.864L166.043 7.774C167.551 6.942 169.024 6.526 170.463 6.526C171.867 6.526 172.95 6.89 173.713 7.618C174.493 8.346 174.883 9.37734 174.883 10.712V19.994H173.323ZM188.264 19.526C187.068 20.098 185.786 20.384 184.416 20.384C182.423 20.384 180.889 19.7947 179.814 18.616C178.74 17.4373 178.202 15.7473 178.202 13.546C178.202 11.362 178.705 9.646 179.71 8.398C180.716 7.15 182.094 6.526 183.844 6.526C185.387 6.526 186.6 7.01134 187.484 7.982C188.386 8.93534 188.836 10.244 188.836 11.908C188.836 12.532 188.784 13.13 188.68 13.702H179.736C179.754 17.3247 181.357 19.136 184.546 19.136C185.829 19.136 187.068 18.8587 188.264 18.304V19.526ZM183.818 7.748C182.64 7.748 181.678 8.18134 180.932 9.048C180.187 9.91467 179.788 11.076 179.736 12.532H187.328C187.363 12.2547 187.38 12.012 187.38 11.804C187.38 10.5213 187.068 9.52467 186.444 8.814C185.82 8.10334 184.945 7.748 183.818 7.748ZM210.28 19.266C208.789 20.0113 207.229 20.384 205.6 20.384C203.295 20.384 201.492 19.552 200.192 17.888C198.892 16.2067 198.242 13.8753 198.242 10.894C198.242 7.91267 198.892 5.59 200.192 3.926C201.492 2.24467 203.295 1.404 205.6 1.404C207.177 1.404 208.711 1.77667 210.202 2.522V3.848C209.405 3.46667 208.659 3.18934 207.966 3.016C207.273 2.84267 206.553 2.756 205.808 2.756C203.884 2.756 202.428 3.44934 201.44 4.836C200.469 6.20534 199.984 8.22467 199.984 10.894C199.984 13.5633 200.469 15.5913 201.44 16.978C202.428 18.3473 203.884 19.032 205.808 19.032C207.281 19.032 208.772 18.668 210.28 17.94V19.266ZM221.853 20.046L221.749 19.136C220.259 19.968 218.785 20.384 217.329 20.384C215.995 20.384 214.937 20.0373 214.157 19.344C213.377 18.6333 212.987 17.6627 212.987 16.432C212.987 15.132 213.421 14.144 214.287 13.468C215.171 12.7747 216.463 12.428 218.161 12.428C219.184 12.428 220.345 12.5493 221.645 12.792V11.024C221.645 8.85734 220.423 7.774 217.979 7.774C217.338 7.774 216.636 7.86067 215.873 8.034C215.111 8.20734 214.409 8.43267 213.767 8.71V7.488C214.391 7.19334 215.102 6.95934 215.899 6.786C216.714 6.61267 217.485 6.526 218.213 6.526C219.843 6.526 221.073 6.916 221.905 7.696C222.755 8.45867 223.179 9.568 223.179 11.024V19.916L221.853 20.046ZM217.693 19.136C218.317 19.136 218.976 19.0407 219.669 18.85C220.363 18.6593 221.021 18.3993 221.645 18.07V13.91C220.553 13.702 219.479 13.598 218.421 13.598C217.087 13.598 216.116 13.8233 215.509 14.274C214.903 14.7247 214.599 15.4353 214.599 16.406C214.599 18.226 215.631 19.136 217.693 19.136ZM227.717 19.994V8.112H225.741V6.994L227.717 6.916V3.978C227.717 2.69534 228.029 1.716 228.653 1.04C229.295 0.346669 230.222 1.90735e-06 231.435 1.90735e-06C232.094 1.90735e-06 232.761 0.121335 233.437 0.364002V1.508C232.813 1.31734 232.215 1.222 231.643 1.222C230.829 1.222 230.231 1.43867 229.849 1.872C229.468 2.288 229.277 2.94667 229.277 3.848V6.916H232.787V8.112H229.277V19.994H227.717ZM244.631 19.526C243.435 20.098 242.153 20.384 240.783 20.384C238.79 20.384 237.256 19.7947 236.181 18.616C235.107 17.4373 234.569 15.7473 234.569 13.546C234.569 11.362 235.072 9.646 236.077 8.398C237.083 7.15 238.461 6.526 240.211 6.526C241.754 6.526 242.967 7.01134 243.851 7.982C244.753 8.93534 245.203 10.244 245.203 11.908C245.203 12.532 245.151 13.13 245.047 13.702H236.103C236.121 17.3247 237.724 19.136 240.913 19.136C242.196 19.136 243.435 18.8587 244.631 18.304V19.526ZM240.185 7.748C239.007 7.748 238.045 8.18134 237.299 9.048C236.554 9.91467 236.155 11.076 236.103 12.532H243.695C243.73 12.2547 243.747 12.012 243.747 11.804C243.747 10.5213 243.435 9.52467 242.811 8.814C242.187 8.10334 241.312 7.748 240.185 7.748ZM238.729 4.758L241.615 1.196H243.591L240.133 4.758H238.729ZM247.667 18.278C248.967 18.85 250.311 19.136 251.697 19.136C254.037 19.136 255.207 18.226 255.207 16.406C255.207 15.8167 255.034 15.34 254.687 14.976C254.358 14.612 253.803 14.3087 253.023 14.066L251.047 13.442C249.938 13.0953 249.132 12.662 248.629 12.142C248.127 11.6047 247.875 10.9287 247.875 10.114C247.875 9.022 248.3 8.15534 249.149 7.514C250.016 6.85534 251.177 6.526 252.633 6.526C253.864 6.526 255.034 6.76 256.143 7.228V8.45C254.982 7.99934 253.838 7.774 252.711 7.774C251.689 7.774 250.883 7.982 250.293 8.398C249.721 8.79667 249.435 9.35134 249.435 10.062C249.435 10.5647 249.591 10.972 249.903 11.284C250.233 11.5787 250.813 11.8647 251.645 12.142L253.699 12.818C254.757 13.1647 255.528 13.624 256.013 14.196C256.516 14.768 256.767 15.496 256.767 16.38C256.767 17.6627 256.334 18.6507 255.467 19.344C254.601 20.0373 253.379 20.384 251.801 20.384C250.345 20.384 249.037 20.1153 247.875 19.578L247.667 18.278ZM274.64 20.046L274.536 19.136C273.046 19.968 271.572 20.384 270.116 20.384C268.782 20.384 267.724 20.0373 266.944 19.344C266.164 18.6333 265.774 17.6627 265.774 16.432C265.774 15.132 266.208 14.144 267.074 13.468C267.958 12.7747 269.25 12.428 270.948 12.428C271.971 12.428 273.132 12.5493 274.432 12.792V11.024C274.432 8.85734 273.21 7.774 270.766 7.774C270.125 7.774 269.423 7.86067 268.66 8.034C267.898 8.20734 267.196 8.43267 266.554 8.71V7.488C267.178 7.19334 267.889 6.95934 268.686 6.786C269.501 6.61267 270.272 6.526 271 6.526C272.63 6.526 273.86 6.916 274.692 7.696C275.542 8.45867 275.966 9.568 275.966 11.024V19.916L274.64 20.046ZM270.48 19.136C271.104 19.136 271.763 19.0407 272.456 18.85C273.15 18.6593 273.808 18.3993 274.432 18.07V13.91C273.34 13.702 272.266 13.598 271.208 13.598C269.874 13.598 268.903 13.8233 268.296 14.274C267.69 14.7247 267.386 15.4353 267.386 16.406C267.386 18.226 268.418 19.136 270.48 19.136ZM280.14 19.994V6.994L281.466 6.864L281.596 8.034C282.758 7.08067 283.997 6.604 285.314 6.604C285.782 6.604 286.155 6.656 286.432 6.76V8.034C285.982 7.93 285.583 7.878 285.236 7.878C284.006 7.878 282.827 8.32 281.7 9.204V19.994H280.14ZM298.028 19.526C296.832 20.098 295.549 20.384 294.18 20.384C292.187 20.384 290.653 19.7947 289.578 18.616C288.503 17.4373 287.966 15.7473 287.966 13.546C287.966 11.362 288.469 9.646 289.474 8.398C290.479 7.15 291.857 6.526 293.608 6.526C295.151 6.526 296.364 7.01134 297.248 7.982C298.149 8.93534 298.6 10.244 298.6 11.908C298.6 12.532 298.548 13.13 298.444 13.702H289.5C289.517 17.3247 291.121 19.136 294.31 19.136C295.593 19.136 296.832 18.8587 298.028 18.304V19.526ZM293.582 7.748C292.403 7.748 291.441 8.18134 290.696 9.048C289.951 9.91467 289.552 11.076 289.5 12.532H297.092C297.127 12.2547 297.144 12.012 297.144 11.804C297.144 10.5213 296.832 9.52467 296.208 8.814C295.584 8.10334 294.709 7.748 293.582 7.748ZM313.44 20.384C311.55 20.384 310.12 19.8033 309.15 18.642C308.196 17.4633 307.72 15.73 307.72 13.442C307.72 11.1713 308.196 9.45534 309.15 8.294C310.12 7.11534 311.55 6.526 313.44 6.526C315.329 6.526 316.75 7.11534 317.704 8.294C318.674 9.45534 319.16 11.1713 319.16 13.442C319.16 15.73 318.674 17.4633 317.704 18.642C316.75 19.8033 315.329 20.384 313.44 20.384ZM313.44 19.136C314.861 19.136 315.892 18.6853 316.534 17.784C317.192 16.8653 317.522 15.418 317.522 13.442C317.522 11.4833 317.192 10.0533 316.534 9.152C315.892 8.23334 314.861 7.774 313.44 7.774C312.018 7.774 310.978 8.23334 310.32 9.152C309.678 10.0533 309.358 11.4833 309.358 13.442C309.358 15.418 309.678 16.8653 310.32 17.784C310.978 18.6853 312.018 19.136 313.44 19.136ZM322.67 25.792V6.994L323.996 6.864L324.1 7.774C325.573 6.942 326.925 6.526 328.156 6.526C329.854 6.526 331.189 7.124 332.16 8.32C333.13 9.49867 333.616 11.1367 333.616 13.234C333.616 15.5393 333.061 17.3073 331.952 18.538C330.86 19.7687 329.274 20.384 327.194 20.384C326.119 20.384 325.131 20.2453 324.23 19.968V25.584L322.67 25.792ZM327.948 7.774C327.376 7.774 326.76 7.86934 326.102 8.06C325.443 8.25067 324.819 8.51067 324.23 8.84V18.72C325.131 18.9973 326.076 19.136 327.064 19.136C328.728 19.136 329.958 18.6593 330.756 17.706C331.57 16.7353 331.978 15.2533 331.978 13.26C331.978 11.4747 331.631 10.114 330.938 9.178C330.262 8.242 329.265 7.774 327.948 7.774ZM346.321 19.526C345.125 20.098 343.842 20.384 342.473 20.384C340.48 20.384 338.946 19.7947 337.871 18.616C336.796 17.4373 336.259 15.7473 336.259 13.546C336.259 11.362 336.762 9.646 337.767 8.398C338.772 7.15 340.15 6.526 341.901 6.526C343.444 6.526 344.657 7.01134 345.541 7.982C346.442 8.93534 346.893 10.244 346.893 11.908C346.893 12.532 346.841 13.13 346.737 13.702H337.793C337.81 17.3247 339.414 19.136 342.603 19.136C343.886 19.136 345.125 18.8587 346.321 18.304V19.526ZM341.875 7.748C340.696 7.748 339.734 8.18134 338.989 9.048C338.244 9.91467 337.845 11.076 337.793 12.532H345.385C345.42 12.2547 345.437 12.012 345.437 11.804C345.437 10.5213 345.125 9.52467 344.501 8.814C343.877 8.10334 343.002 7.748 341.875 7.748ZM359.081 19.994V10.972C359.081 8.84 357.997 7.774 355.831 7.774C355.259 7.774 354.626 7.86934 353.933 8.06C353.257 8.25067 352.589 8.51067 351.931 8.84V19.994H350.371V6.994L351.697 6.864L351.801 7.774C353.309 6.942 354.782 6.526 356.221 6.526C357.625 6.526 358.708 6.89 359.471 7.618C360.251 8.346 360.641 9.37734 360.641 10.712V19.994H359.081ZM371.682 19.994V8.112H369.706V6.994L371.682 6.916V3.978C371.682 2.69534 371.994 1.716 372.618 1.04C373.259 0.346669 374.187 1.90735e-06 375.4 1.90735e-06C376.059 1.90735e-06 376.726 0.121335 377.402 0.364002V1.508C376.778 1.31734 376.18 1.222 375.608 1.222C374.793 1.222 374.195 1.43867 373.814 1.872C373.433 2.288 373.242 2.94667 373.242 3.848V6.916H376.752V8.112H373.242V19.994H371.682ZM384.254 20.384C382.365 20.384 380.935 19.8033 379.964 18.642C379.011 17.4633 378.534 15.73 378.534 13.442C378.534 11.1713 379.011 9.45534 379.964 8.294C380.935 7.11534 382.365 6.526 384.254 6.526C386.144 6.526 387.565 7.11534 388.518 8.294C389.489 9.45534 389.974 11.1713 389.974 13.442C389.974 15.73 389.489 17.4633 388.518 18.642C387.565 19.8033 386.144 20.384 384.254 20.384ZM384.254 19.136C385.676 19.136 386.707 18.6853 387.348 17.784C388.007 16.8653 388.336 15.418 388.336 13.442C388.336 11.4833 388.007 10.0533 387.348 9.152C386.707 8.23334 385.676 7.774 384.254 7.774C382.833 7.774 381.793 8.23334 381.134 9.152C380.493 10.0533 380.172 11.4833 380.172 13.442C380.172 15.418 380.493 16.8653 381.134 17.784C381.793 18.6853 382.833 19.136 384.254 19.136ZM393.484 19.994V6.994L394.81 6.864L394.94 8.034C396.101 7.08067 397.341 6.604 398.658 6.604C399.126 6.604 399.499 6.656 399.776 6.76V8.034C399.325 7.93 398.927 7.878 398.58 7.878C397.349 7.878 396.171 8.32 395.044 9.204V19.994H393.484ZM408.922 19.994V0.468002L410.482 0.260002V7.722C411.938 6.92467 413.368 6.526 414.772 6.526C416.176 6.526 417.259 6.89 418.022 7.618C418.802 8.346 419.192 9.37734 419.192 10.712V19.994H417.632V10.972C417.632 8.84 416.548 7.774 414.382 7.774C413.81 7.774 413.177 7.86934 412.484 8.06C411.808 8.25067 411.14 8.51067 410.482 8.84V19.994H408.922ZM428.231 20.384C426.341 20.384 424.911 19.8033 423.941 18.642C422.987 17.4633 422.511 15.73 422.511 13.442C422.511 11.1713 422.987 9.45534 423.941 8.294C424.911 7.11534 426.341 6.526 428.231 6.526C430.12 6.526 431.541 7.11534 432.495 8.294C433.465 9.45534 433.951 11.1713 433.951 13.442C433.951 15.73 433.465 17.4633 432.495 18.642C431.541 19.8033 430.12 20.384 428.231 20.384ZM428.231 19.136C429.652 19.136 430.683 18.6853 431.325 17.784C431.983 16.8653 432.313 15.418 432.313 13.442C432.313 11.4833 431.983 10.0533 431.325 9.152C430.683 8.23334 429.652 7.774 428.231 7.774C426.809 7.774 425.769 8.23334 425.111 9.152C424.469 10.0533 424.149 11.4833 424.149 13.442C424.149 15.418 424.469 16.8653 425.111 17.784C425.769 18.6853 426.809 19.136 428.231 19.136ZM437.461 19.994V0.468002L439.021 0.260002V19.994H437.461ZM443.377 19.994V7.046L444.937 6.838V19.994H443.377ZM444.157 3.744C443.81 3.744 443.524 3.64 443.299 3.432C443.091 3.224 442.987 2.938 442.987 2.574C442.987 2.21 443.091 1.924 443.299 1.716C443.524 1.508 443.81 1.404 444.157 1.404C444.503 1.404 444.781 1.508 444.989 1.716C445.214 1.924 445.327 2.21 445.327 2.574C445.327 2.938 445.214 3.224 444.989 3.432C444.781 3.64 444.503 3.744 444.157 3.744ZM459.381 0.260002V19.916L458.055 20.046L457.951 19.136C456.477 19.968 455.125 20.384 453.895 20.384C452.196 20.384 450.861 19.7947 449.891 18.616C448.92 17.42 448.435 15.7733 448.435 13.676C448.435 11.3707 448.981 9.60267 450.073 8.372C451.182 7.14134 452.777 6.526 454.857 6.526C455.931 6.526 456.919 6.66467 457.821 6.942V0.468002L459.381 0.260002ZM454.103 19.136C454.675 19.136 455.29 19.0407 455.949 18.85C456.607 18.6593 457.231 18.3993 457.821 18.07V8.19C456.919 7.91267 455.975 7.774 454.987 7.774C453.323 7.774 452.083 8.25934 451.269 9.23C450.471 10.1833 450.073 11.6567 450.073 13.65C450.073 15.4353 450.411 16.796 451.087 17.732C451.78 18.668 452.785 19.136 454.103 19.136ZM471.748 20.046L471.644 19.136C470.153 19.968 468.68 20.384 467.224 20.384C465.889 20.384 464.832 20.0373 464.052 19.344C463.272 18.6333 462.882 17.6627 462.882 16.432C462.882 15.132 463.315 14.144 464.182 13.468C465.066 12.7747 466.357 12.428 468.056 12.428C469.079 12.428 470.24 12.5493 471.54 12.792V11.024C471.54 8.85734 470.318 7.774 467.874 7.774C467.233 7.774 466.531 7.86067 465.768 8.034C465.005 8.20734 464.303 8.43267 463.662 8.71V7.488C464.286 7.19334 464.997 6.95934 465.794 6.786C466.609 6.61267 467.38 6.526 468.108 6.526C469.737 6.526 470.968 6.916 471.8 7.696C472.649 8.45867 473.074 9.568 473.074 11.024V19.916L471.748 20.046ZM467.588 19.136C468.212 19.136 468.871 19.0407 469.564 18.85C470.257 18.6593 470.916 18.3993 471.54 18.07V13.91C470.448 13.702 469.373 13.598 468.316 13.598C466.981 13.598 466.011 13.8233 465.404 14.274C464.797 14.7247 464.494 15.4353 464.494 16.406C464.494 18.226 465.525 19.136 467.588 19.136ZM475.454 24.492C476.684 24.2667 477.646 23.8333 478.34 23.192C479.033 22.5507 479.674 21.528 480.264 20.124L475.272 6.916H476.91L480.992 18.382L485.204 6.916H486.764L481.772 19.864C481.304 21.112 480.81 22.126 480.29 22.906C479.787 23.7033 479.189 24.3273 478.496 24.778C477.802 25.246 476.901 25.6013 475.792 25.844L475.454 24.492ZM504.288 19.526C503.144 20.098 501.896 20.384 500.544 20.384C498.707 20.384 497.285 19.786 496.28 18.59C495.292 17.394 494.798 15.6867 494.798 13.468C494.798 11.2493 495.292 9.542 496.28 8.346C497.285 7.13267 498.707 6.526 500.544 6.526C501.844 6.526 503.075 6.812 504.236 7.384V8.606C503.023 8.06867 501.844 7.8 500.7 7.8C499.296 7.8 498.23 8.27667 497.502 9.23C496.791 10.1833 496.436 11.596 496.436 13.468C496.436 15.3227 496.791 16.7267 497.502 17.68C498.23 18.6333 499.296 19.11 500.7 19.11C501.879 19.11 503.075 18.8413 504.288 18.304V19.526ZM507.64 19.994V0.468002L509.2 0.260002V7.722C510.656 6.92467 512.086 6.526 513.49 6.526C514.894 6.526 515.978 6.89 516.74 7.618C517.52 8.346 517.91 9.37734 517.91 10.712V19.994H516.35V10.972C516.35 8.84 515.267 7.774 513.1 7.774C512.528 7.774 511.896 7.86934 511.202 8.06C510.526 8.25067 509.859 8.51067 509.2 8.84V19.994H507.64ZM531.292 19.526C530.096 20.098 528.813 20.384 527.444 20.384C525.45 20.384 523.916 19.7947 522.842 18.616C521.767 17.4373 521.23 15.7473 521.23 13.546C521.23 11.362 521.732 9.646 522.738 8.398C523.743 7.15 525.121 6.526 526.872 6.526C528.414 6.526 529.628 7.01134 530.512 7.982C531.413 8.93534 531.864 10.244 531.864 11.908C531.864 12.532 531.812 13.13 531.708 13.702H522.764C522.781 17.3247 524.384 19.136 527.574 19.136C528.856 19.136 530.096 18.8587 531.292 18.304V19.526ZM526.846 7.748C525.667 7.748 524.705 8.18134 523.96 9.048C523.214 9.91467 522.816 11.076 522.764 12.532H530.356C530.39 12.2547 530.408 12.012 530.408 11.804C530.408 10.5213 530.096 9.52467 529.472 8.814C528.848 8.10334 527.972 7.748 526.846 7.748ZM544.545 19.526C543.349 20.098 542.067 20.384 540.697 20.384C538.704 20.384 537.17 19.7947 536.095 18.616C535.021 17.4373 534.483 15.7473 534.483 13.546C534.483 11.362 534.986 9.646 535.991 8.398C536.997 7.15 538.375 6.526 540.125 6.526C541.668 6.526 542.881 7.01134 543.765 7.982C544.667 8.93534 545.117 10.244 545.117 11.908C545.117 12.532 545.065 13.13 544.961 13.702H536.017C536.035 17.3247 537.638 19.136 540.827 19.136C542.11 19.136 543.349 18.8587 544.545 18.304V19.526ZM540.099 7.748C538.921 7.748 537.959 8.18134 537.213 9.048C536.468 9.91467 536.069 11.076 536.017 12.532H543.609C543.644 12.2547 543.661 12.012 543.661 11.804C543.661 10.5213 543.349 9.52467 542.725 8.814C542.101 8.10334 541.226 7.748 540.099 7.748ZM548.595 19.994V6.994L549.921 6.864L550.051 8.034C551.213 7.08067 552.452 6.604 553.769 6.604C554.237 6.604 554.61 6.656 554.887 6.76V8.034C554.437 7.93 554.038 7.878 553.691 7.878C552.461 7.878 551.282 8.32 550.155 9.204V19.994H548.595ZM563.019 18.278C564.319 18.85 565.662 19.136 567.049 19.136C569.389 19.136 570.559 18.226 570.559 16.406C570.559 15.8167 570.386 15.34 570.039 14.976C569.71 14.612 569.155 14.3087 568.375 14.066L566.399 13.442C565.29 13.0953 564.484 12.662 563.981 12.142C563.478 11.6047 563.227 10.9287 563.227 10.114C563.227 9.022 563.652 8.15534 564.501 7.514C565.368 6.85534 566.529 6.526 567.985 6.526C569.216 6.526 570.386 6.76 571.495 7.228V8.45C570.334 7.99934 569.19 7.774 568.063 7.774C567.04 7.774 566.234 7.982 565.645 8.398C565.073 8.79667 564.787 9.35134 564.787 10.062C564.787 10.5647 564.943 10.972 565.255 11.284C565.584 11.5787 566.165 11.8647 566.997 12.142L569.051 12.818C570.108 13.1647 570.88 13.624 571.365 14.196C571.868 14.768 572.119 15.496 572.119 16.38C572.119 17.6627 571.686 18.6507 570.819 19.344C569.952 20.0373 568.73 20.384 567.153 20.384C565.697 20.384 564.388 20.1153 563.227 19.578L563.019 18.278ZM584.688 19.526C583.492 20.098 582.209 20.384 580.84 20.384C578.847 20.384 577.313 19.7947 576.238 18.616C575.163 17.4373 574.626 15.7473 574.626 13.546C574.626 11.362 575.129 9.646 576.134 8.398C577.139 7.15 578.517 6.526 580.268 6.526C581.811 6.526 583.024 7.01134 583.908 7.982C584.809 8.93534 585.26 10.244 585.26 11.908C585.26 12.532 585.208 13.13 585.104 13.702H576.16C576.177 17.3247 577.781 19.136 580.97 19.136C582.253 19.136 583.492 18.8587 584.688 18.304V19.526ZM580.242 7.748C579.063 7.748 578.101 8.18134 577.356 9.048C576.611 9.91467 576.212 11.076 576.16 12.532H583.752C583.787 12.2547 583.804 12.012 583.804 11.804C583.804 10.5213 583.492 9.52467 582.868 8.814C582.244 8.10334 581.369 7.748 580.242 7.748ZM591.702 19.994L586.762 6.916H588.4L592.482 18.33L596.694 6.916H598.254L593.21 19.994H591.702ZM609.596 19.526C608.4 20.098 607.118 20.384 605.748 20.384C603.755 20.384 602.221 19.7947 601.146 18.616C600.072 17.4373 599.534 15.7473 599.534 13.546C599.534 11.362 600.037 9.646 601.042 8.398C602.048 7.15 603.426 6.526 605.176 6.526C606.719 6.526 607.932 7.01134 608.816 7.982C609.718 8.93534 610.168 10.244 610.168 11.908C610.168 12.532 610.116 13.13 610.012 13.702H601.068C601.086 17.3247 602.689 19.136 605.878 19.136C607.161 19.136 608.4 18.8587 609.596 18.304V19.526ZM605.15 7.748C603.972 7.748 603.01 8.18134 602.264 9.048C601.519 9.91467 601.12 11.076 601.068 12.532H608.66C608.695 12.2547 608.712 12.012 608.712 11.804C608.712 10.5213 608.4 9.52467 607.776 8.814C607.152 8.10334 606.277 7.748 605.15 7.748ZM622.356 19.994V10.972C622.356 8.84 621.273 7.774 619.106 7.774C618.534 7.774 617.901 7.86934 617.208 8.06C616.532 8.25067 615.865 8.51067 615.206 8.84V19.994H613.646V6.994L614.972 6.864L615.076 7.774C616.584 6.942 618.057 6.526 619.496 6.526C620.9 6.526 621.983 6.89 622.746 7.618C623.526 8.346 623.916 9.37734 623.916 10.712V19.994H622.356ZM644.681 0.260002V19.916L643.355 20.046L643.251 19.136C641.778 19.968 640.426 20.384 639.195 20.384C637.497 20.384 636.162 19.7947 635.191 18.616C634.221 17.42 633.735 15.7733 633.735 13.676C633.735 11.3707 634.281 9.60267 635.373 8.372C636.483 7.14134 638.077 6.526 640.157 6.526C641.232 6.526 642.22 6.66467 643.121 6.942V0.468002L644.681 0.260002ZM639.403 19.136C639.975 19.136 640.591 19.0407 641.249 18.85C641.908 18.6593 642.532 18.3993 643.121 18.07V8.19C642.22 7.91267 641.275 7.774 640.287 7.774C638.623 7.774 637.384 8.25934 636.569 9.23C635.772 10.1833 635.373 11.6567 635.373 13.65C635.373 15.4353 635.711 16.796 636.387 17.732C637.081 18.668 638.086 19.136 639.403 19.136ZM657.049 20.046L656.945 19.136C655.454 19.968 653.981 20.384 652.525 20.384C651.19 20.384 650.133 20.0373 649.353 19.344C648.573 18.6333 648.183 17.6627 648.183 16.432C648.183 15.132 648.616 14.144 649.483 13.468C650.367 12.7747 651.658 12.428 653.357 12.428C654.379 12.428 655.541 12.5493 656.841 12.792V11.024C656.841 8.85734 655.619 7.774 653.175 7.774C652.533 7.774 651.831 7.86067 651.069 8.034C650.306 8.20734 649.604 8.43267 648.963 8.71V7.488C649.587 7.19334 650.297 6.95934 651.095 6.786C651.909 6.61267 652.681 6.526 653.409 6.526C655.038 6.526 656.269 6.916 657.101 7.696C657.95 8.45867 658.375 9.568 658.375 11.024V19.916L657.049 20.046ZM652.889 19.136C653.513 19.136 654.171 19.0407 654.865 18.85C655.558 18.6593 656.217 18.3993 656.841 18.07V13.91C655.749 13.702 654.674 13.598 653.617 13.598C652.282 13.598 651.311 13.8233 650.705 14.274C650.098 14.7247 649.795 15.4353 649.795 16.406C649.795 18.226 650.826 19.136 652.889 19.136ZM660.755 24.492C661.985 24.2667 662.947 23.8333 663.641 23.192C664.334 22.5507 664.975 21.528 665.565 20.124L660.573 6.916H662.211L666.293 18.382L670.505 6.916H672.065L667.073 19.864C666.605 21.112 666.111 22.126 665.591 22.906C665.088 23.7033 664.49 24.3273 663.797 24.778C663.103 25.246 662.202 25.6013 661.093 25.844L660.755 24.492ZM673.443 18.278C674.743 18.85 676.086 19.136 677.473 19.136C679.813 19.136 680.983 18.226 680.983 16.406C680.983 15.8167 680.809 15.34 680.463 14.976C680.133 14.612 679.579 14.3087 678.799 14.066L676.823 13.442C675.713 13.0953 674.907 12.662 674.405 12.142C673.902 11.6047 673.651 10.9287 673.651 10.114C673.651 9.022 674.075 8.15534 674.925 7.514C675.791 6.85534 676.953 6.526 678.409 6.526C679.639 6.526 680.809 6.76 681.919 7.228V8.45C680.757 7.99934 679.613 7.774 678.487 7.774C677.464 7.774 676.658 7.982 676.069 8.398C675.497 8.79667 675.211 9.35134 675.211 10.062C675.211 10.5647 675.367 10.972 675.679 11.284C676.008 11.5787 676.589 11.8647 677.421 12.142L679.475 12.818C680.532 13.1647 681.303 13.624 681.789 14.196C682.291 14.768 682.543 15.496 682.543 16.38C682.543 17.6627 682.109 18.6507 681.243 19.344C680.376 20.0373 679.154 20.384 677.577 20.384C676.121 20.384 674.812 20.1153 673.651 19.578L673.443 18.278ZM700.416 20.046L700.312 19.136C698.821 19.968 697.348 20.384 695.892 20.384C694.557 20.384 693.5 20.0373 692.72 19.344C691.94 18.6333 691.55 17.6627 691.55 16.432C691.55 15.132 691.983 14.144 692.85 13.468C693.734 12.7747 695.025 12.428 696.724 12.428C697.747 12.428 698.908 12.5493 700.208 12.792V11.024C700.208 8.85734 698.986 7.774 696.542 7.774C695.901 7.774 695.199 7.86067 694.436 8.034C693.673 8.20734 692.971 8.43267 692.33 8.71V7.488C692.954 7.19334 693.665 6.95934 694.462 6.786C695.277 6.61267 696.048 6.526 696.776 6.526C698.405 6.526 699.636 6.916 700.468 7.696C701.317 8.45867 701.742 9.568 701.742 11.024V19.916L700.416 20.046ZM696.256 19.136C696.88 19.136 697.539 19.0407 698.232 18.85C698.925 18.6593 699.584 18.3993 700.208 18.07V13.91C699.116 13.702 698.041 13.598 696.984 13.598C695.649 13.598 694.679 13.8233 694.072 14.274C693.465 14.7247 693.162 15.4353 693.162 16.406C693.162 18.226 694.193 19.136 696.256 19.136ZM723.076 19.994L719.566 8.658L716.16 19.994H714.678L710.518 6.916H712.104L715.432 18.07L718.708 6.916H720.45L723.778 18.148L727.08 6.916H728.588L724.558 19.994H723.076ZM740.256 19.526C739.06 20.098 737.778 20.384 736.408 20.384C734.415 20.384 732.881 19.7947 731.806 18.616C730.732 17.4373 730.194 15.7473 730.194 13.546C730.194 11.362 730.697 9.646 731.702 8.398C732.708 7.15 734.086 6.526 735.836 6.526C737.379 6.526 738.592 7.01134 739.476 7.982C740.378 8.93534 740.828 10.244 740.828 11.908C740.828 12.532 740.776 13.13 740.672 13.702H731.728C731.746 17.3247 733.349 19.136 736.538 19.136C737.821 19.136 739.06 18.8587 740.256 18.304V19.526ZM735.81 7.748C734.632 7.748 733.67 8.18134 732.924 9.048C732.179 9.91467 731.78 11.076 731.728 12.532H739.32C739.355 12.2547 739.372 12.012 739.372 11.804C739.372 10.5213 739.06 9.52467 738.436 8.814C737.812 8.10334 736.937 7.748 735.81 7.748ZM753.51 19.526C752.314 20.098 751.032 20.384 749.662 20.384C747.669 20.384 746.135 19.7947 745.06 18.616C743.986 17.4373 743.448 15.7473 743.448 13.546C743.448 11.362 743.951 9.646 744.956 8.398C745.962 7.15 747.34 6.526 749.09 6.526C750.633 6.526 751.846 7.01134 752.73 7.982C753.632 8.93534 754.082 10.244 754.082 11.908C754.082 12.532 754.03 13.13 753.926 13.702H744.982C745 17.3247 746.603 19.136 749.792 19.136C751.075 19.136 752.314 18.8587 753.51 18.304V19.526ZM749.064 7.748C747.886 7.748 746.924 8.18134 746.178 9.048C745.433 9.91467 745.034 11.076 744.982 12.532H752.574C752.609 12.2547 752.626 12.012 752.626 11.804C752.626 10.5213 752.314 9.52467 751.69 8.814C751.066 8.10334 750.191 7.748 749.064 7.748ZM757.56 19.994V0.468002L759.12 0.260002V12.714L765.256 6.916H767.102L760.68 13L767.31 19.994H765.334L759.12 13.39V19.994H757.56Z" fill="#013D5B"/>
</svg>
