<svg width="204" height="28" viewBox="0 0 204 28" fill="none" xmlns="http://www.w3.org/2000/svg">
<path d="M202.746 20.748C201.458 21.364 200.077 21.672 198.602 21.672C196.455 21.672 194.803 21.0373 193.646 19.768C192.489 18.4987 191.91 16.6787 191.91 14.308C191.91 11.956 192.451 10.108 193.534 8.76402C194.617 7.42002 196.101 6.74802 197.986 6.74802C199.647 6.74802 200.954 7.27068 201.906 8.31602C202.877 9.34268 203.362 10.752 203.362 12.544C203.362 13.216 203.306 13.86 203.194 14.476H193.562C193.581 18.3773 195.307 20.328 198.742 20.328C200.123 20.328 201.458 20.0294 202.746 19.432V20.748ZM197.958 8.06402C196.689 8.06402 195.653 8.53068 194.85 9.46402C194.047 10.3973 193.618 11.648 193.562 13.216H201.738C201.775 12.9173 201.794 12.656 201.794 12.432C201.794 11.0507 201.458 9.97735 200.786 9.21202C200.114 8.44668 199.171 8.06402 197.958 8.06402Z" fill="#013D5B"/>
<path d="M186.655 21.252V11.536C186.655 9.24002 185.489 8.09202 183.155 8.09202C182.539 8.09202 181.858 8.19468 181.111 8.40001C180.383 8.60535 179.665 8.88535 178.955 9.24002V21.252H177.275V7.25202L178.703 7.11202L178.815 8.09202C180.439 7.19602 182.026 6.74802 183.575 6.74802C185.087 6.74802 186.254 7.14002 187.075 7.92402C187.915 8.70802 188.335 9.81868 188.335 11.256V21.252H186.655Z" fill="#013D5B"/>
<path d="M165.171 20.244C169.278 20.244 171.331 17.3133 171.331 11.452C171.331 5.59066 169.278 2.65999 165.171 2.65999C161.065 2.65999 159.011 5.59066 159.011 11.452C159.011 17.3133 161.065 20.244 165.171 20.244ZM165.171 21.672C162.595 21.672 160.617 20.7853 159.235 19.012C157.854 17.2387 157.163 14.7187 157.163 11.452C157.163 8.18533 157.854 5.66533 159.235 3.89199C160.617 2.11866 162.595 1.23199 165.171 1.23199C167.747 1.23199 169.726 2.11866 171.107 3.89199C172.489 5.66533 173.179 8.18533 173.179 11.452C173.179 14.7187 172.489 17.2387 171.107 19.012C169.726 20.7853 167.747 21.672 165.171 21.672Z" fill="#013D5B"/>
<path d="M144.408 21.252V0.224L146.088 0V21.252H144.408Z" fill="#013D5B"/>
<path d="M138.485 21.308L138.373 20.328C136.768 21.224 135.181 21.672 133.613 21.672C132.176 21.672 131.037 21.2987 130.197 20.552C129.357 19.7867 128.937 18.7413 128.937 17.416C128.937 16.016 129.404 14.952 130.337 14.224C131.289 13.4773 132.68 13.104 134.509 13.104C135.611 13.104 136.861 13.2347 138.261 13.496V11.592C138.261 9.25868 136.945 8.09202 134.313 8.09202C133.623 8.09202 132.867 8.18535 132.045 8.37201C131.224 8.55868 130.468 8.80135 129.777 9.10002V7.78401C130.449 7.46668 131.215 7.21468 132.073 7.02802C132.951 6.84135 133.781 6.74802 134.565 6.74802C136.32 6.74802 137.645 7.16802 138.541 8.00802C139.456 8.82935 139.913 10.024 139.913 11.592V21.168L138.485 21.308ZM134.005 20.328C134.677 20.328 135.387 20.2253 136.133 20.02C136.88 19.8147 137.589 19.5347 138.261 19.18V14.7C137.085 14.476 135.928 14.364 134.789 14.364C133.352 14.364 132.307 14.6067 131.653 15.092C131 15.5773 130.673 16.3427 130.673 17.388C130.673 19.348 131.784 20.328 134.005 20.328Z" fill="#013D5B"/>
<path d="M122.527 8.45602V17.416C122.527 18.3867 122.732 19.1054 123.143 19.572C123.554 20.02 124.188 20.244 125.047 20.244C125.607 20.244 126.242 20.1413 126.951 19.936V21.168C126.167 21.4294 125.448 21.56 124.795 21.56C123.507 21.56 122.527 21.2147 121.855 20.524C121.183 19.8147 120.847 18.7694 120.847 17.388V8.45602H118.719V7.25202L120.903 7.16802L121.071 3.64002L122.527 3.47202V7.16802H126.755V8.45602H122.527Z" fill="#013D5B"/>
<path d="M114.084 21.252V7.30799L115.764 7.08399V21.252H114.084ZM114.924 3.752C114.551 3.752 114.243 3.64 114 3.41599C113.776 3.19199 113.664 2.88399 113.664 2.49199C113.664 2.09999 113.776 1.79199 114 1.568C114.243 1.34399 114.551 1.23199 114.924 1.23199C115.297 1.23199 115.596 1.34399 115.82 1.568C116.063 1.79199 116.184 2.09999 116.184 2.49199C116.184 2.88399 116.063 3.19199 115.82 3.41599C115.596 3.64 115.297 3.752 114.924 3.752Z" fill="#013D5B"/>
<path d="M98.5254 27.496V7.25202L99.9534 7.11202L100.065 8.09202C101.652 7.19602 103.108 6.74802 104.433 6.74802C106.263 6.74802 107.7 7.39202 108.745 8.68002C109.791 9.94935 110.313 11.7133 110.313 13.972C110.313 16.4547 109.716 18.3587 108.521 19.684C107.345 21.0093 105.637 21.672 103.397 21.672C102.24 21.672 101.176 21.5227 100.205 21.224V27.272L98.5254 27.496ZM104.209 8.09202C103.593 8.09202 102.931 8.19468 102.221 8.40001C101.512 8.60535 100.84 8.88535 100.205 9.24002V19.88C101.176 20.1787 102.193 20.328 103.257 20.328C105.049 20.328 106.375 19.8147 107.233 18.788C108.111 17.7427 108.549 16.1467 108.549 14C108.549 12.0773 108.176 10.612 107.429 9.60402C106.701 8.59601 105.628 8.09202 104.209 8.09202Z" fill="#013D5B"/>
<path d="M92.6024 21.308L92.4904 20.328C90.8851 21.224 89.2984 21.672 87.7304 21.672C86.2931 21.672 85.1544 21.2987 84.3144 20.552C83.4744 19.7867 83.0544 18.7413 83.0544 17.416C83.0544 16.016 83.5211 14.952 84.4544 14.224C85.4064 13.4773 86.7971 13.104 88.6264 13.104C89.7278 13.104 90.9784 13.2347 92.3784 13.496V11.592C92.3784 9.25868 91.0624 8.09202 88.4304 8.09202C87.7398 8.09202 86.9838 8.18535 86.1624 8.37201C85.3411 8.55868 84.5851 8.80135 83.8944 9.10002V7.78401C84.5664 7.46668 85.3318 7.21468 86.1904 7.02802C87.0678 6.84135 87.8984 6.74802 88.6824 6.74802C90.4371 6.74802 91.7624 7.16802 92.6584 8.00802C93.5731 8.82935 94.0304 10.024 94.0304 11.592V21.168L92.6024 21.308ZM88.1224 20.328C88.7944 20.328 89.5038 20.2253 90.2504 20.02C90.9971 19.8147 91.7064 19.5347 92.3784 19.18V14.7C91.2024 14.476 90.0451 14.364 88.9064 14.364C87.4691 14.364 86.4238 14.6067 85.7704 15.092C85.1171 15.5773 84.7904 16.3427 84.7904 17.388C84.7904 19.348 85.9011 20.328 88.1224 20.328Z" fill="#013D5B"/>
<path d="M80.1391 20.468C78.5337 21.2707 76.8537 21.672 75.0991 21.672C72.6164 21.672 70.675 20.776 69.275 18.984C67.875 17.1733 67.175 14.6627 67.175 11.452C67.175 8.24133 67.875 5.73999 69.275 3.94799C70.675 2.13733 72.6164 1.23199 75.0991 1.23199C76.7977 1.23199 78.4497 1.63333 80.055 2.43599V3.86399C79.1964 3.45333 78.3937 3.15466 77.647 2.96799C76.9004 2.78133 76.1257 2.68799 75.3231 2.68799C73.2511 2.68799 71.683 3.43466 70.619 4.92799C69.5737 6.40266 69.051 8.57733 69.051 11.452C69.051 14.3267 69.5737 16.5107 70.619 18.004C71.683 19.4787 73.2511 20.216 75.3231 20.216C76.9097 20.216 78.5151 19.824 80.1391 19.04V20.468Z" fill="#013D5B"/>
<path d="M53.4567 8.45602V17.416C53.4567 18.3867 53.662 19.1054 54.0727 19.572C54.4833 20.02 55.118 20.244 55.9767 20.244C56.5367 20.244 57.1713 20.1413 57.8807 19.936V21.168C57.0967 21.4294 56.378 21.56 55.7247 21.56C54.4367 21.56 53.4567 21.2147 52.7847 20.524C52.1127 19.8147 51.7767 18.7694 51.7767 17.388V8.45602H49.6487V7.25202L51.8327 7.16802L52.0007 3.64002L53.4567 3.47202V7.16802H57.6847V8.45602H53.4567Z" fill="#013D5B"/>
<path d="M37.9607 19.404C39.3607 20.02 40.8074 20.328 42.3007 20.328C44.8207 20.328 46.0807 19.348 46.0807 17.388C46.0807 16.7533 45.894 16.24 45.5207 15.848C45.166 15.456 44.5687 15.1293 43.7287 14.868L41.6007 14.196C40.406 13.8227 39.538 13.356 38.9967 12.796C38.4554 12.2173 38.1847 11.4893 38.1847 10.612C38.1847 9.43601 38.642 8.50268 39.5567 7.81202C40.49 7.10268 41.7407 6.74802 43.3087 6.74802C44.634 6.74802 45.894 7.00002 47.0887 7.50401V8.82001C45.838 8.33468 44.606 8.09202 43.3927 8.09202C42.2914 8.09202 41.4234 8.31601 40.7887 8.76402C40.1727 9.19335 39.8647 9.79068 39.8647 10.556C39.8647 11.0973 40.0327 11.536 40.3687 11.872C40.7234 12.1893 41.3487 12.4973 42.2447 12.796L44.4567 13.524C45.5954 13.8973 46.426 14.392 46.9487 15.008C47.49 15.624 47.7607 16.408 47.7607 17.36C47.7607 18.7413 47.294 19.8053 46.3607 20.552C45.4274 21.2987 44.1114 21.672 42.4127 21.672C40.8447 21.672 39.4354 21.3827 38.1847 20.804L37.9607 19.404Z" fill="#013D5B"/>
<path d="M29.1129 21.672C27.0782 21.672 25.5382 21.0467 24.4929 19.796C23.4662 18.5267 22.9529 16.66 22.9529 14.196C22.9529 11.7507 23.4662 9.90268 24.4929 8.65202C25.5382 7.38268 27.0782 6.74802 29.1129 6.74802C31.1475 6.74802 32.6782 7.38268 33.7049 8.65202C34.7502 9.90268 35.2729 11.7507 35.2729 14.196C35.2729 16.66 34.7502 18.5267 33.7049 19.796C32.6782 21.0467 31.1475 21.672 29.1129 21.672ZM29.1129 20.328C30.6435 20.328 31.7542 19.8427 32.4449 18.872C33.1542 17.8827 33.5089 16.324 33.5089 14.196C33.5089 12.0867 33.1542 10.5467 32.4449 9.57602C31.7542 8.58668 30.6435 8.09202 29.1129 8.09202C27.5822 8.09202 26.4622 8.58668 25.7529 9.57602C25.0622 10.5467 24.7169 12.0867 24.7169 14.196C24.7169 16.324 25.0622 17.8827 25.7529 18.872C26.4622 19.8427 27.5822 20.328 29.1129 20.328Z" fill="#013D5B"/>
<path d="M17.724 21.252L16.66 4.00401L10.528 19.544H8.904L2.716 3.97601L1.68 21.252H0L1.372 1.65201H3.416L9.688 17.556L16.016 1.65201H18.06L19.432 21.252H17.724Z" fill="#013D5B"/>
</svg>
