<svg width="251" height="28" viewBox="0 0 251 28" fill="none" xmlns="http://www.w3.org/2000/svg">
<path d="M249.199 21.532V11.816C249.199 9.51999 248.032 8.37199 245.699 8.37199C245.083 8.37199 244.402 8.47465 243.655 8.67999C242.927 8.88532 242.208 9.16532 241.499 9.51999V21.532H239.819V7.53199L241.247 7.39199L241.359 8.37199C242.983 7.47599 244.57 7.02798 246.119 7.02798C247.631 7.02798 248.798 7.41999 249.619 8.20399C250.459 8.98799 250.879 10.0987 250.879 11.536V21.532H249.199Z" fill="#013D5B"/>
<path d="M235.458 21.028C234.17 21.644 232.788 21.952 231.314 21.952C229.167 21.952 227.515 21.3173 226.358 20.048C225.2 18.7787 224.622 16.9587 224.622 14.588C224.622 12.236 225.163 10.388 226.246 9.04399C227.328 7.69999 228.812 7.02798 230.698 7.02798C232.359 7.02798 233.666 7.55065 234.618 8.59599C235.588 9.62265 236.074 11.032 236.074 12.824C236.074 13.496 236.018 14.14 235.906 14.756H226.274C226.292 18.6573 228.019 20.608 231.454 20.608C232.835 20.608 234.17 20.3093 235.458 19.712V21.028ZM230.67 8.34399C229.4 8.34399 228.364 8.81065 227.562 9.74398C226.759 10.6773 226.33 11.928 226.274 13.496H234.45C234.487 13.1973 234.506 12.936 234.506 12.712C234.506 11.3307 234.17 10.2573 233.498 9.49199C232.826 8.72665 231.883 8.34399 230.67 8.34399Z" fill="#013D5B"/>
<path d="M216.187 21.532L210.867 7.448H212.631L217.027 19.74L221.563 7.448H223.243L217.811 21.532H216.187Z" fill="#013D5B"/>
<path d="M208.633 21.028C207.345 21.644 205.964 21.952 204.489 21.952C202.343 21.952 200.691 21.3173 199.533 20.048C198.376 18.7787 197.797 16.9587 197.797 14.588C197.797 12.236 198.339 10.388 199.421 9.04399C200.504 7.69999 201.988 7.02798 203.873 7.02798C205.535 7.02798 206.841 7.55065 207.793 8.59599C208.764 9.62265 209.249 11.032 209.249 12.824C209.249 13.496 209.193 14.14 209.081 14.756H199.449C199.468 18.6573 201.195 20.608 204.629 20.608C206.011 20.608 207.345 20.3093 208.633 19.712V21.028ZM203.845 8.34399C202.576 8.34399 201.54 8.81065 200.737 9.74398C199.935 10.6773 199.505 11.928 199.449 13.496H207.625C207.663 13.1973 207.681 12.936 207.681 12.712C207.681 11.3307 207.345 10.2573 206.673 9.49199C206.001 8.72665 205.059 8.34399 203.845 8.34399Z" fill="#013D5B"/>
<path d="M185.297 19.684C186.697 20.3 188.144 20.608 189.637 20.608C192.157 20.608 193.417 19.628 193.417 17.668C193.417 17.0333 193.231 16.52 192.857 16.128C192.503 15.736 191.905 15.4093 191.065 15.148L188.937 14.476C187.743 14.1027 186.875 13.636 186.333 13.076C185.792 12.4973 185.521 11.7693 185.521 10.892C185.521 9.71599 185.979 8.78265 186.893 8.09198C187.827 7.38265 189.077 7.02798 190.645 7.02798C191.971 7.02798 193.231 7.27999 194.425 7.78399V9.09999C193.175 8.61465 191.943 8.37199 190.729 8.37199C189.628 8.37199 188.76 8.59599 188.125 9.04399C187.509 9.47332 187.201 10.0707 187.201 10.836C187.201 11.3773 187.369 11.816 187.705 12.152C188.06 12.4693 188.685 12.7773 189.581 13.076L191.793 13.804C192.932 14.1773 193.763 14.672 194.285 15.288C194.827 15.904 195.097 16.688 195.097 17.64C195.097 19.0213 194.631 20.0853 193.697 20.832C192.764 21.5787 191.448 21.952 189.749 21.952C188.181 21.952 186.772 21.6627 185.521 21.084L185.297 19.684Z" fill="#013D5B"/>
<path d="M173.211 21.532V11.816C173.211 9.51999 172.044 8.37199 169.711 8.37199C169.095 8.37199 168.413 8.47465 167.667 8.67999C166.939 8.88532 166.22 9.16532 165.511 9.51999V21.532H163.831V7.53199L165.259 7.39199L165.371 8.37199C166.995 7.47599 168.581 7.02798 170.131 7.02798C171.643 7.02798 172.809 7.41999 173.631 8.20399C174.471 8.98799 174.891 10.0987 174.891 11.536V21.532H173.211Z" fill="#013D5B"/>
<path d="M159.469 21.028C158.181 21.644 156.8 21.952 155.325 21.952C153.179 21.952 151.527 21.3173 150.369 20.048C149.212 18.7787 148.633 16.9587 148.633 14.588C148.633 12.236 149.175 10.388 150.257 9.04399C151.34 7.69999 152.824 7.02798 154.709 7.02798C156.371 7.02798 157.677 7.55065 158.629 8.59599C159.6 9.62265 160.085 11.032 160.085 12.824C160.085 13.496 160.029 14.14 159.917 14.756H150.285C150.304 18.6573 152.031 20.608 155.465 20.608C156.847 20.608 158.181 20.3093 159.469 19.712V21.028ZM154.681 8.34399C153.412 8.34399 152.376 8.81065 151.573 9.74398C150.771 10.6773 150.341 11.928 150.285 13.496H158.461C158.499 13.1973 158.517 12.936 158.517 12.712C158.517 11.3307 158.181 10.2573 157.509 9.49199C156.837 8.72665 155.895 8.34399 154.681 8.34399Z" fill="#013D5B"/>
<path d="M133.999 27.776V7.53199L135.427 7.39199L135.539 8.37199C137.125 7.47599 138.581 7.02798 139.907 7.02798C141.736 7.02798 143.173 7.67198 144.219 8.95998C145.264 10.2293 145.787 11.9933 145.787 14.252C145.787 16.7347 145.189 18.6387 143.995 19.964C142.819 21.2893 141.111 21.952 138.871 21.952C137.713 21.952 136.649 21.8027 135.679 21.504V27.552L133.999 27.776ZM139.683 8.37199C139.067 8.37199 138.404 8.47465 137.695 8.67999C136.985 8.88532 136.313 9.16532 135.679 9.51999V20.16C136.649 20.4587 137.667 20.608 138.731 20.608C140.523 20.608 141.848 20.0947 142.707 19.068C143.584 18.0227 144.023 16.4267 144.023 14.28C144.023 12.3573 143.649 10.892 142.903 9.88399C142.175 8.87599 141.101 8.37199 139.683 8.37199Z" fill="#013D5B"/>
<path d="M124.059 21.952C122.024 21.952 120.484 21.3267 119.439 20.076C118.412 18.8067 117.899 16.94 117.899 14.476C117.899 12.0307 118.412 10.1827 119.439 8.93198C120.484 7.66265 122.024 7.02798 124.059 7.02798C126.094 7.02798 127.624 7.66265 128.651 8.93198C129.696 10.1827 130.219 12.0307 130.219 14.476C130.219 16.94 129.696 18.8067 128.651 20.076C127.624 21.3267 126.094 21.952 124.059 21.952ZM124.059 20.608C125.59 20.608 126.7 20.1227 127.391 19.152C128.1 18.1627 128.455 16.604 128.455 14.476C128.455 12.3667 128.1 10.8267 127.391 9.85598C126.7 8.86665 125.59 8.37199 124.059 8.37199C122.528 8.37199 121.408 8.86665 120.699 9.85598C120.008 10.8267 119.663 12.3667 119.663 14.476C119.663 16.604 120.008 18.1627 120.699 19.152C121.408 20.1227 122.528 20.608 124.059 20.608Z" fill="#013D5B"/>
<path d="M107.461 21.028C106.173 21.644 104.792 21.952 103.317 21.952C101.171 21.952 99.5188 21.3173 98.3615 20.048C97.2042 18.7787 96.6255 16.9587 96.6255 14.588C96.6255 12.236 97.1668 10.388 98.2495 9.04399C99.3322 7.69999 100.816 7.02798 102.701 7.02798C104.363 7.02798 105.669 7.55065 106.621 8.59599C107.592 9.62265 108.077 11.032 108.077 12.824C108.077 13.496 108.021 14.14 107.909 14.756H98.2775C98.2962 18.6573 100.023 20.608 103.457 20.608C104.839 20.608 106.173 20.3093 107.461 19.712V21.028ZM102.673 8.34399C101.404 8.34399 100.368 8.81065 99.5655 9.74398C98.7628 10.6773 98.3335 11.928 98.2775 13.496H106.453C106.491 13.1973 106.509 12.936 106.509 12.712C106.509 11.3307 106.173 10.2573 105.501 9.49199C104.829 8.72665 103.887 8.34399 102.673 8.34399Z" fill="#013D5B"/>
<path d="M88.198 21.532V7.532L89.626 7.392L89.766 8.652C91.0167 7.62533 92.3513 7.112 93.77 7.112C94.274 7.112 94.6753 7.168 94.974 7.28V8.652C94.4887 8.54 94.0593 8.484 93.686 8.484C92.3607 8.484 91.0913 8.96 89.878 9.912V21.532H88.198Z" fill="#013D5B"/>
<path d="M82.275 21.588L82.163 20.608C80.5577 21.504 78.9711 21.952 77.4031 21.952C75.9657 21.952 74.8271 21.5787 73.9871 20.832C73.1471 20.0667 72.7271 19.0213 72.7271 17.696C72.7271 16.296 73.1937 15.232 74.1271 14.504C75.0791 13.7573 76.4697 13.384 78.299 13.384C79.4004 13.384 80.651 13.5147 82.051 13.776V11.872C82.051 9.53865 80.7351 8.37199 78.1031 8.37199C77.4124 8.37199 76.6564 8.46532 75.8351 8.65199C75.0137 8.83865 74.2577 9.08132 73.567 9.37999V8.06398C74.239 7.74665 75.0044 7.49465 75.8631 7.30799C76.7404 7.12132 77.571 7.02798 78.355 7.02798C80.1097 7.02798 81.435 7.44799 82.331 8.28799C83.2457 9.10932 83.703 10.304 83.703 11.872V21.448L82.275 21.588ZM77.7951 20.608C78.4671 20.608 79.1764 20.5053 79.923 20.3C80.6697 20.0947 81.379 19.8147 82.051 19.46V14.98C80.875 14.756 79.7177 14.644 78.579 14.644C77.1417 14.644 76.0964 14.8867 75.443 15.372C74.7897 15.8573 74.4631 16.6227 74.4631 17.668C74.4631 19.628 75.5737 20.608 77.7951 20.608Z" fill="#013D5B"/>
<path d="M53.2271 19.684C54.6271 20.3 56.0737 20.608 57.5671 20.608C60.0871 20.608 61.3471 19.628 61.3471 17.668C61.3471 17.0333 61.1604 16.52 60.7871 16.128C60.4324 15.736 59.8351 15.4093 58.9951 15.148L56.8671 14.476C55.6724 14.1027 54.8044 13.636 54.2631 13.076C53.7217 12.4973 53.4511 11.7693 53.4511 10.892C53.4511 9.71599 53.9084 8.78265 54.8231 8.09198C55.7564 7.38265 57.0071 7.02798 58.5751 7.02798C59.9004 7.02798 61.1604 7.27999 62.3551 7.78399V9.09999C61.1044 8.61465 59.8724 8.37199 58.6591 8.37199C57.5577 8.37199 56.6897 8.59599 56.0551 9.04399C55.4391 9.47332 55.1311 10.0707 55.1311 10.836C55.1311 11.3773 55.2991 11.816 55.6351 12.152C55.9897 12.4693 56.6151 12.7773 57.5111 13.076L59.7231 13.804C60.8617 14.1773 61.6924 14.672 62.2151 15.288C62.7564 15.904 63.0271 16.688 63.0271 17.64C63.0271 19.0213 62.5604 20.0853 61.6271 20.832C60.6937 21.5787 59.3777 21.952 57.6791 21.952C56.1111 21.952 54.7017 21.6627 53.4511 21.084L53.2271 19.684Z" fill="#013D5B"/>
<path d="M49.9576 21.028C48.6696 21.644 47.2882 21.952 45.8136 21.952C43.6669 21.952 42.0149 21.3173 40.8576 20.048C39.7002 18.7786 39.1216 16.9586 39.1216 14.588C39.1216 12.236 39.6629 10.388 40.7456 9.04397C41.8282 7.69997 43.3122 7.02797 45.1976 7.02797C46.8589 7.02797 48.1656 7.55063 49.1176 8.59597C50.0882 9.62263 50.5736 11.032 50.5736 12.824C50.5736 13.496 50.5176 14.14 50.4056 14.756H40.7736C40.7922 18.6573 42.5189 20.608 45.9536 20.608C47.3349 20.608 48.6696 20.3093 49.9576 19.712V21.028ZM45.1696 8.34397C43.9002 8.34397 42.8642 8.81063 42.0616 9.74397C41.2589 10.6773 40.8296 11.928 40.7736 13.496H48.9496C48.9869 13.1973 49.0056 12.936 49.0056 12.712C49.0056 11.3306 48.6696 10.2573 47.9976 9.49197C47.3256 8.72663 46.3829 8.34397 45.1696 8.34397ZM43.6016 5.12397L46.7096 1.28796H48.8376L45.1136 5.12397H43.6016Z" fill="#013D5B"/>
<path d="M31.7423 21.532V8.736H29.6143V7.532L31.7423 7.448V4.284C31.7423 2.90267 32.0783 1.848 32.7503 1.12C33.4409 0.373332 34.4396 0 35.7463 0C36.4556 0 37.1743 0.130665 37.9023 0.391998V1.624C37.2303 1.41867 36.5863 1.316 35.9703 1.316C35.0929 1.316 34.4489 1.54934 34.0383 2.016C33.6276 2.464 33.4223 3.17333 33.4223 4.144V7.448H37.2023V8.736H33.4223V21.532H31.7423Z" fill="#013D5B"/>
<path d="M25.4274 21.588L25.3154 20.608C23.7101 21.504 22.1234 21.952 20.5554 21.952C19.1181 21.952 17.9794 21.5787 17.1394 20.832C16.2994 20.0667 15.8794 19.0213 15.8794 17.696C15.8794 16.296 16.3461 15.232 17.2794 14.504C18.2314 13.7573 19.6221 13.384 21.4514 13.384C22.5527 13.384 23.8034 13.5147 25.2034 13.776V11.872C25.2034 9.53865 23.8874 8.37199 21.2554 8.37199C20.5647 8.37199 19.8087 8.46532 18.9874 8.65199C18.1661 8.83865 17.4101 9.08132 16.7194 9.37999V8.06398C17.3914 7.74665 18.1567 7.49465 19.0154 7.30799C19.8927 7.12132 20.7234 7.02798 21.5074 7.02798C23.2621 7.02798 24.5874 7.44799 25.4834 8.28799C26.3981 9.10932 26.8554 10.304 26.8554 11.872V21.448L25.4274 21.588ZM20.9474 20.608C21.6194 20.608 22.3287 20.5053 23.0754 20.3C23.8221 20.0947 24.5314 19.8147 25.2034 19.46V14.98C24.0274 14.756 22.8701 14.644 21.7314 14.644C20.2941 14.644 19.2487 14.8867 18.5954 15.372C17.9421 15.8573 17.6154 16.6227 17.6154 17.668C17.6154 19.628 18.7261 20.608 20.9474 20.608Z" fill="#013D5B"/>
<path d="M12.964 20.748C11.3587 21.5506 9.67867 21.952 7.924 21.952C5.44133 21.952 3.5 21.056 2.1 19.264C0.7 17.4533 0 14.9426 0 11.732C0 8.5213 0.7 6.01996 2.1 4.22796C3.5 2.4173 5.44133 1.51196 7.924 1.51196C9.62267 1.51196 11.2747 1.9133 12.88 2.71596V4.14396C12.0213 3.7333 11.2187 3.43463 10.472 3.24796C9.72533 3.0613 8.95067 2.96796 8.148 2.96796C6.076 2.96796 4.508 3.71463 3.444 5.20796C2.39867 6.68263 1.876 8.8573 1.876 11.732C1.876 14.6066 2.39867 16.7906 3.444 18.284C4.508 19.7586 6.076 20.496 8.148 20.496C9.73467 20.496 11.34 20.104 12.964 19.32V20.748Z" fill="#013D5B"/>
</svg>
