<svg width="144" height="28" viewBox="0 0 144 28" fill="none" xmlns="http://www.w3.org/2000/svg">
<path d="M133.35 21.252V0.223999L135.03 0V13.412L141.638 7.168H143.626L136.71 13.72L143.85 21.252H141.722L135.03 14.14V21.252H133.35Z" fill="#013D5B"/>
<path d="M128.988 20.748C127.7 21.364 126.319 21.672 124.844 21.672C122.698 21.672 121.046 21.0373 119.888 19.768C118.731 18.4987 118.152 16.6787 118.152 14.308C118.152 11.956 118.694 10.108 119.776 8.76402C120.859 7.42002 122.343 6.74802 124.228 6.74802C125.89 6.74802 127.196 7.27068 128.148 8.31602C129.119 9.34268 129.604 10.752 129.604 12.544C129.604 13.216 129.548 13.86 129.436 14.476H119.804C119.823 18.3773 121.55 20.328 124.984 20.328C126.366 20.328 127.7 20.0293 128.988 19.432V20.748ZM124.2 8.06401C122.931 8.06401 121.895 8.53068 121.092 9.46401C120.29 10.3973 119.86 11.648 119.804 13.216H127.98C128.018 12.9173 128.036 12.656 128.036 12.432C128.036 11.0507 127.7 9.97735 127.028 9.21201C126.356 8.44668 125.414 8.06401 124.2 8.06401Z" fill="#013D5B"/>
<path d="M114.715 20.748C113.427 21.364 112.046 21.672 110.571 21.672C108.424 21.672 106.772 21.0373 105.615 19.768C104.458 18.4987 103.879 16.6787 103.879 14.308C103.879 11.956 104.42 10.108 105.503 8.76402C106.586 7.42002 108.07 6.74802 109.955 6.74802C111.616 6.74802 112.923 7.27068 113.875 8.31602C114.846 9.34268 115.331 10.752 115.331 12.544C115.331 13.216 115.275 13.86 115.163 14.476H105.531C105.55 18.3773 107.276 20.328 110.711 20.328C112.092 20.328 113.427 20.0293 114.715 19.432V20.748ZM109.927 8.06401C108.658 8.06401 107.622 8.53068 106.819 9.46401C106.016 10.3973 105.587 11.648 105.531 13.216H113.707C113.744 12.9173 113.763 12.656 113.763 12.432C113.763 11.0507 113.427 9.97735 112.755 9.21201C112.083 8.44668 111.14 8.06401 109.927 8.06401Z" fill="#013D5B"/>
<path d="M96.2125 21.252L92.4325 9.04403L88.7645 21.252H87.1685L82.6885 7.16803H84.3965L87.9805 19.18L91.5085 7.16803H93.3845L96.9685 19.264L100.524 7.16803H102.148L97.8085 21.252H96.2125Z" fill="#013D5B"/>
<path d="M71.8097 21.308L71.6977 20.328C70.0924 21.224 68.5057 21.672 66.9377 21.672C65.5004 21.672 64.3617 21.2987 63.5217 20.552C62.6817 19.7867 62.2617 18.7413 62.2617 17.416C62.2617 16.016 62.7284 14.952 63.6617 14.224C64.6137 13.4773 66.0044 13.104 67.8337 13.104C68.9351 13.104 70.1857 13.2347 71.5857 13.496V11.592C71.5857 9.25868 70.2697 8.09201 67.6377 8.09201C66.9471 8.09201 66.1911 8.18535 65.3697 8.37202C64.5484 8.55868 63.7924 8.80135 63.1017 9.10001V7.78401C63.7737 7.46668 64.5391 7.21468 65.3977 7.02802C66.2751 6.84135 67.1057 6.74802 67.8897 6.74802C69.6444 6.74802 70.9697 7.16801 71.8657 8.00801C72.7804 8.82934 73.2377 10.024 73.2377 11.592V21.168L71.8097 21.308ZM67.3297 20.328C68.0017 20.328 68.7111 20.2253 69.4577 20.02C70.2044 19.8147 70.9137 19.5347 71.5857 19.18V14.7C70.4097 14.476 69.2524 14.364 68.1137 14.364C66.6764 14.364 65.631 14.6067 64.9777 15.092C64.3244 15.5773 63.9977 16.3427 63.9977 17.388C63.9977 19.348 65.1084 20.328 67.3297 20.328Z" fill="#013D5B"/>
<path d="M42.7617 19.404C44.1617 20.02 45.6084 20.328 47.1017 20.328C49.6217 20.328 50.8817 19.348 50.8817 17.388C50.8817 16.7533 50.6951 16.24 50.3217 15.848C49.9671 15.456 49.3697 15.1293 48.5297 14.868L46.4017 14.196C45.2071 13.8227 44.3391 13.356 43.7977 12.796C43.2564 12.2173 42.9857 11.4893 42.9857 10.612C42.9857 9.43601 43.4431 8.50268 44.3577 7.81201C45.2911 7.10268 46.5417 6.74802 48.1097 6.74802C49.4351 6.74802 50.6951 7.00001 51.8897 7.50401V8.82001C50.6391 8.33468 49.4071 8.09201 48.1937 8.09201C47.0924 8.09201 46.2244 8.31601 45.5897 8.76402C44.9737 9.19335 44.6657 9.79068 44.6657 10.556C44.6657 11.0973 44.8337 11.536 45.1697 11.872C45.5244 12.1894 46.1497 12.4973 47.0457 12.796L49.2577 13.524C50.3964 13.8974 51.2271 14.392 51.7497 15.008C52.2911 15.624 52.5617 16.408 52.5617 17.36C52.5617 18.7413 52.0951 19.8054 51.1617 20.552C50.2284 21.2987 48.9124 21.672 47.2137 21.672C45.6457 21.672 44.2364 21.3827 42.9857 20.804L42.7617 19.404Z" fill="#013D5B"/>
<path d="M29.0974 26.096C30.4227 25.8534 31.4587 25.3867 32.2054 24.696C32.952 24.0054 33.6427 22.904 34.2774 21.392L28.9014 7.16803H30.6654L35.0614 19.516L39.5974 7.16803H41.2774L35.9014 21.112C35.3974 22.456 34.8654 23.548 34.3054 24.388C33.764 25.2467 33.12 25.9187 32.3734 26.404C31.6267 26.908 30.656 27.2907 29.4614 27.552L29.0974 26.096Z" fill="#013D5B"/>
<path d="M25.1066 21.308L24.9946 20.328C23.3893 21.224 21.8026 21.672 20.2346 21.672C18.7973 21.672 17.6586 21.2987 16.8186 20.552C15.9786 19.7867 15.5586 18.7413 15.5586 17.416C15.5586 16.016 16.0253 14.952 16.9586 14.224C17.9106 13.4773 19.3013 13.104 21.1306 13.104C22.2319 13.104 23.4826 13.2347 24.8826 13.496V11.592C24.8826 9.25868 23.5666 8.09201 20.9346 8.09201C20.2439 8.09201 19.4879 8.18535 18.6666 8.37202C17.8453 8.55868 17.0893 8.80135 16.3986 9.10001V7.78401C17.0706 7.46668 17.8359 7.21468 18.6946 7.02802C19.5719 6.84135 20.4026 6.74802 21.1866 6.74802C22.9413 6.74802 24.2666 7.16801 25.1626 8.00801C26.0773 8.82934 26.5346 10.024 26.5346 11.592V21.168L25.1066 21.308ZM20.6266 20.328C21.2986 20.328 22.0079 20.2253 22.7546 20.02C23.5013 19.8147 24.2106 19.5347 24.8826 19.18V14.7C23.7066 14.476 22.5493 14.364 21.4106 14.364C19.9733 14.364 18.9279 14.6067 18.2746 15.092C17.6213 15.5773 17.2946 16.3427 17.2946 17.388C17.2946 19.348 18.4053 20.328 20.6266 20.328Z" fill="#013D5B"/>
<path d="M11.788 0V21.168L10.36 21.308L10.248 20.328C8.66133 21.224 7.20533 21.672 5.88 21.672C4.05067 21.672 2.61333 21.0373 1.568 19.768C0.522667 18.48 0 16.7067 0 14.448C0 11.9653 0.588 10.0613 1.764 8.736C2.95867 7.41067 4.676 6.748 6.916 6.748C8.07333 6.748 9.13733 6.89733 10.108 7.196V0.223999L11.788 0ZM6.104 20.328C6.72 20.328 7.38267 20.2253 8.092 20.02C8.80133 19.8147 9.47333 19.5347 10.108 19.18V8.54C9.13733 8.24133 8.12 8.092 7.056 8.092C5.264 8.092 3.92933 8.61466 3.052 9.66C2.19333 10.6867 1.764 12.2733 1.764 14.42C1.764 16.3427 2.128 17.808 2.856 18.816C3.60267 19.824 4.68533 20.328 6.104 20.328Z" fill="#013D5B"/>
</svg>
