<svg width="620" height="21" viewBox="0 0 620 21" fill="none" xmlns="http://www.w3.org/2000/svg">
<path d="M13.293 16.149L12.495 3.213L7.89599 14.868H6.67799L2.03699 3.192L1.25999 16.149H-1.21444e-05L1.02899 1.449H2.56199L7.26599 13.377L12.012 1.449H13.545L14.574 16.149H13.293ZM21.8347 16.464C20.3087 16.464 19.1537 15.995 18.3697 15.057C17.5997 14.105 17.2147 12.705 17.2147 10.857C17.2147 9.023 17.5997 7.637 18.3697 6.699C19.1537 5.747 20.3087 5.271 21.8347 5.271C23.3607 5.271 24.5087 5.747 25.2787 6.699C26.0627 7.637 26.4547 9.023 26.4547 10.857C26.4547 12.705 26.0627 14.105 25.2787 15.057C24.5087 15.995 23.3607 16.464 21.8347 16.464ZM21.8347 15.456C22.9827 15.456 23.8157 15.092 24.3337 14.364C24.8657 13.622 25.1317 12.453 25.1317 10.857C25.1317 9.275 24.8657 8.12 24.3337 7.392C23.8157 6.65 22.9827 6.279 21.8347 6.279C20.6867 6.279 19.8467 6.65 19.3147 7.392C18.7967 8.12 18.5377 9.275 18.5377 10.857C18.5377 12.453 18.7967 13.622 19.3147 14.364C19.8467 15.092 20.6867 15.456 21.8347 15.456ZM28.4706 14.763C29.5206 15.225 30.6056 15.456 31.7256 15.456C33.6156 15.456 34.5606 14.721 34.5606 13.251C34.5606 12.775 34.4206 12.39 34.1406 12.096C33.8746 11.802 33.4266 11.557 32.7966 11.361L31.2006 10.857C30.3046 10.577 29.6536 10.227 29.2476 9.807C28.8416 9.373 28.6386 8.827 28.6386 8.169C28.6386 7.287 28.9816 6.587 29.6676 6.069C30.3676 5.537 31.3056 5.271 32.4816 5.271C33.4756 5.271 34.4206 5.46 35.3166 5.838V6.825C34.3786 6.461 33.4546 6.279 32.5446 6.279C31.7186 6.279 31.0676 6.447 30.5916 6.783C30.1296 7.105 29.8986 7.553 29.8986 8.127C29.8986 8.533 30.0246 8.862 30.2766 9.114C30.5426 9.352 31.0116 9.583 31.6836 9.807L33.3426 10.353C34.1966 10.633 34.8196 11.004 35.2116 11.466C35.6176 11.928 35.8206 12.516 35.8206 13.23C35.8206 14.266 35.4706 15.064 34.7706 15.624C34.0706 16.184 33.0836 16.464 31.8096 16.464C30.6336 16.464 29.5766 16.247 28.6386 15.813L28.4706 14.763ZM40.0926 6.552V13.272C40.0926 14 40.2466 14.539 40.5546 14.889C40.8626 15.225 41.3386 15.393 41.9826 15.393C42.4026 15.393 42.8786 15.316 43.4106 15.162V16.086C42.8226 16.282 42.2836 16.38 41.7936 16.38C40.8276 16.38 40.0926 16.121 39.5886 15.603C39.0846 15.071 38.8326 14.287 38.8326 13.251V6.552H37.2366V5.649L38.8746 5.586L39.0006 2.94L40.0926 2.814V5.586H43.2636V6.552H40.0926ZM60.1043 15.561C58.9003 16.163 57.6403 16.464 56.3243 16.464C54.4623 16.464 53.0063 15.792 51.9563 14.448C50.9063 13.09 50.3813 11.207 50.3813 8.799C50.3813 6.391 50.9063 4.515 51.9563 3.171C53.0063 1.813 54.4623 1.134 56.3243 1.134C57.5983 1.134 58.8373 1.435 60.0413 2.037V3.108C59.3973 2.8 58.7953 2.576 58.2353 2.436C57.6753 2.296 57.0943 2.226 56.4923 2.226C54.9383 2.226 53.7623 2.786 52.9643 3.906C52.1803 5.012 51.7883 6.643 51.7883 8.799C51.7883 10.955 52.1803 12.593 52.9643 13.713C53.7623 14.819 54.9383 15.372 56.4923 15.372C57.6823 15.372 58.8863 15.078 60.1043 14.49V15.561ZM69.4519 16.191L69.3679 15.456C68.1639 16.128 66.9739 16.464 65.7979 16.464C64.7199 16.464 63.8659 16.184 63.2359 15.624C62.6059 15.05 62.2909 14.266 62.2909 13.272C62.2909 12.222 62.6409 11.424 63.3409 10.878C64.0549 10.318 65.0979 10.038 66.4699 10.038C67.2959 10.038 68.2339 10.136 69.2839 10.332V8.904C69.2839 7.154 68.2969 6.279 66.3229 6.279C65.8049 6.279 65.2379 6.349 64.6219 6.489C64.0059 6.629 63.4389 6.811 62.9209 7.035V6.048C63.4249 5.81 63.9989 5.621 64.6429 5.481C65.3009 5.341 65.9239 5.271 66.5119 5.271C67.8279 5.271 68.8219 5.586 69.4939 6.216C70.1799 6.832 70.5229 7.728 70.5229 8.904V16.086L69.4519 16.191ZM66.0919 15.456C66.5959 15.456 67.1279 15.379 67.6879 15.225C68.2479 15.071 68.7799 14.861 69.2839 14.595V11.235C68.4019 11.067 67.5339 10.983 66.6799 10.983C65.6019 10.983 64.8179 11.165 64.3279 11.529C63.8379 11.893 63.5929 12.467 63.5929 13.251C63.5929 14.721 64.4259 15.456 66.0919 15.456ZM73.8941 20.832V5.649L74.9651 5.544L75.0491 6.279C76.2391 5.607 77.3311 5.271 78.3251 5.271C79.6971 5.271 80.7751 5.754 81.5591 6.72C82.3431 7.672 82.7351 8.995 82.7351 10.689C82.7351 12.551 82.2871 13.979 81.3911 14.973C80.5091 15.967 79.2281 16.464 77.5481 16.464C76.6801 16.464 75.8821 16.352 75.1541 16.128V20.664L73.8941 20.832ZM78.1571 6.279C77.6951 6.279 77.1981 6.356 76.6661 6.51C76.1341 6.664 75.6301 6.874 75.1541 7.14V15.12C75.8821 15.344 76.6451 15.456 77.4431 15.456C78.7871 15.456 79.7811 15.071 80.4251 14.301C81.0831 13.517 81.4121 12.32 81.4121 10.71C81.4121 9.268 81.1321 8.169 80.5721 7.413C80.0261 6.657 79.2211 6.279 78.1571 6.279ZM85.563 16.149V5.691L86.823 5.523V16.149H85.563ZM86.193 3.024C85.913 3.024 85.682 2.94 85.5 2.772C85.332 2.604 85.248 2.373 85.248 2.079C85.248 1.785 85.332 1.554 85.5 1.386C85.682 1.218 85.913 1.134 86.193 1.134C86.473 1.134 86.697 1.218 86.865 1.386C87.047 1.554 87.138 1.785 87.138 2.079C87.138 2.373 87.047 2.604 86.865 2.772C86.697 2.94 86.473 3.024 86.193 3.024ZM91.8953 6.552V13.272C91.8953 14 92.0493 14.539 92.3573 14.889C92.6653 15.225 93.1413 15.393 93.7853 15.393C94.2053 15.393 94.6813 15.316 95.2133 15.162V16.086C94.6253 16.282 94.0863 16.38 93.5963 16.38C92.6303 16.38 91.8953 16.121 91.3913 15.603C90.8873 15.071 90.6353 14.287 90.6353 13.251V6.552H89.0393V5.649L90.6773 5.586L90.8033 2.94L91.8953 2.814V5.586H95.0663V6.552H91.8953ZM103.864 16.191L103.78 15.456C102.576 16.128 101.386 16.464 100.21 16.464C99.132 16.464 98.278 16.184 97.648 15.624C97.018 15.05 96.703 14.266 96.703 13.272C96.703 12.222 97.053 11.424 97.753 10.878C98.467 10.318 99.51 10.038 100.882 10.038C101.708 10.038 102.646 10.136 103.696 10.332V8.904C103.696 7.154 102.709 6.279 100.735 6.279C100.217 6.279 99.65 6.349 99.034 6.489C98.418 6.629 97.851 6.811 97.333 7.035V6.048C97.837 5.81 98.411 5.621 99.055 5.481C99.713 5.341 100.336 5.271 100.924 5.271C102.24 5.271 103.234 5.586 103.906 6.216C104.592 6.832 104.935 7.728 104.935 8.904V16.086L103.864 16.191ZM100.504 15.456C101.008 15.456 101.54 15.379 102.1 15.225C102.66 15.071 103.192 14.861 103.696 14.595V11.235C102.814 11.067 101.946 10.983 101.092 10.983C100.014 10.983 99.23 11.165 98.74 11.529C98.25 11.893 98.005 12.467 98.005 13.251C98.005 14.721 98.838 15.456 100.504 15.456ZM108.306 16.149V0.378001L109.566 0.210001V16.149H108.306ZM123.878 15.393C126.958 15.393 128.498 13.195 128.498 8.799C128.498 4.403 126.958 2.205 123.878 2.205C120.798 2.205 119.258 4.403 119.258 8.799C119.258 13.195 120.798 15.393 123.878 15.393ZM123.878 16.464C121.946 16.464 120.462 15.799 119.426 14.469C118.39 13.139 117.872 11.249 117.872 8.799C117.872 6.349 118.39 4.459 119.426 3.129C120.462 1.799 121.946 1.134 123.878 1.134C125.81 1.134 127.294 1.799 128.33 3.129C129.366 4.459 129.884 6.349 129.884 8.799C129.884 11.249 129.366 13.139 128.33 14.469C127.294 15.799 125.81 16.464 123.878 16.464ZM139.992 16.149V8.862C139.992 7.14 139.117 6.279 137.367 6.279C136.905 6.279 136.394 6.356 135.834 6.51C135.288 6.664 134.749 6.874 134.217 7.14V16.149H132.957V5.649L134.028 5.544L134.112 6.279C135.33 5.607 136.52 5.271 137.682 5.271C138.816 5.271 139.691 5.565 140.307 6.153C140.937 6.741 141.252 7.574 141.252 8.652V16.149H139.992ZM152.06 15.771C151.094 16.233 150.058 16.464 148.952 16.464C147.342 16.464 146.103 15.988 145.235 15.036C144.367 14.084 143.933 12.719 143.933 10.941C143.933 9.177 144.339 7.791 145.151 6.783C145.963 5.775 147.076 5.271 148.49 5.271C149.736 5.271 150.716 5.663 151.43 6.447C152.158 7.217 152.522 8.274 152.522 9.618C152.522 10.122 152.48 10.605 152.396 11.067H145.172C145.186 13.993 146.481 15.456 149.057 15.456C150.093 15.456 151.094 15.232 152.06 14.784V15.771ZM148.469 6.258C147.517 6.258 146.74 6.608 146.138 7.308C145.536 8.008 145.214 8.946 145.172 10.122H151.304C151.332 9.898 151.346 9.702 151.346 9.534C151.346 8.498 151.094 7.693 150.59 7.119C150.086 6.545 149.379 6.258 148.469 6.258ZM169.842 15.561C168.638 16.163 167.378 16.464 166.062 16.464C164.2 16.464 162.744 15.792 161.694 14.448C160.644 13.09 160.119 11.207 160.119 8.799C160.119 6.391 160.644 4.515 161.694 3.171C162.744 1.813 164.2 1.134 166.062 1.134C167.336 1.134 168.575 1.435 169.779 2.037V3.108C169.135 2.8 168.533 2.576 167.973 2.436C167.413 2.296 166.832 2.226 166.23 2.226C164.676 2.226 163.5 2.786 162.702 3.906C161.918 5.012 161.526 6.643 161.526 8.799C161.526 10.955 161.918 12.593 162.702 13.713C163.5 14.819 164.676 15.372 166.23 15.372C167.42 15.372 168.624 15.078 169.842 14.49V15.561ZM179.189 16.191L179.105 15.456C177.901 16.128 176.711 16.464 175.535 16.464C174.457 16.464 173.603 16.184 172.973 15.624C172.343 15.05 172.028 14.266 172.028 13.272C172.028 12.222 172.378 11.424 173.078 10.878C173.792 10.318 174.835 10.038 176.207 10.038C177.033 10.038 177.971 10.136 179.021 10.332V8.904C179.021 7.154 178.034 6.279 176.06 6.279C175.542 6.279 174.975 6.349 174.359 6.489C173.743 6.629 173.176 6.811 172.658 7.035V6.048C173.162 5.81 173.736 5.621 174.38 5.481C175.038 5.341 175.661 5.271 176.249 5.271C177.565 5.271 178.559 5.586 179.231 6.216C179.917 6.832 180.26 7.728 180.26 8.904V16.086L179.189 16.191ZM175.829 15.456C176.333 15.456 176.865 15.379 177.425 15.225C177.985 15.071 178.517 14.861 179.021 14.595V11.235C178.139 11.067 177.271 10.983 176.417 10.983C175.339 10.983 174.555 11.165 174.065 11.529C173.575 11.893 173.33 12.467 173.33 13.251C173.33 14.721 174.163 15.456 175.829 15.456ZM183.925 16.149V6.552H182.329V5.649L183.925 5.586V3.213C183.925 2.177 184.177 1.386 184.681 0.840001C185.199 0.280001 185.948 9.53674e-07 186.928 9.53674e-07C187.46 9.53674e-07 187.999 0.0980009 188.545 0.294001V1.218C188.041 1.064 187.558 0.987001 187.096 0.987001C186.438 0.987001 185.955 1.162 185.647 1.512C185.339 1.848 185.185 2.38 185.185 3.108V5.586H188.02V6.552H185.185V16.149H183.925ZM197.587 15.771C196.621 16.233 195.585 16.464 194.479 16.464C192.869 16.464 191.63 15.988 190.762 15.036C189.894 14.084 189.46 12.719 189.46 10.941C189.46 9.177 189.866 7.791 190.678 6.783C191.49 5.775 192.603 5.271 194.017 5.271C195.263 5.271 196.243 5.663 196.957 6.447C197.685 7.217 198.049 8.274 198.049 9.618C198.049 10.122 198.007 10.605 197.923 11.067H190.699C190.713 13.993 192.008 15.456 194.584 15.456C195.62 15.456 196.621 15.232 197.587 14.784V15.771ZM193.996 6.258C193.044 6.258 192.267 6.608 191.665 7.308C191.063 8.008 190.741 8.946 190.699 10.122H196.831C196.859 9.898 196.873 9.702 196.873 9.534C196.873 8.498 196.621 7.693 196.117 7.119C195.613 6.545 194.906 6.258 193.996 6.258ZM192.82 3.843L195.151 0.966001H196.747L193.954 3.843H192.82ZM200.039 14.763C201.089 15.225 202.174 15.456 203.294 15.456C205.184 15.456 206.129 14.721 206.129 13.251C206.129 12.775 205.989 12.39 205.709 12.096C205.443 11.802 204.995 11.557 204.365 11.361L202.769 10.857C201.873 10.577 201.222 10.227 200.816 9.807C200.41 9.373 200.207 8.827 200.207 8.169C200.207 7.287 200.55 6.587 201.236 6.069C201.936 5.537 202.874 5.271 204.05 5.271C205.044 5.271 205.989 5.46 206.885 5.838V6.825C205.947 6.461 205.023 6.279 204.113 6.279C203.287 6.279 202.636 6.447 202.16 6.783C201.698 7.105 201.467 7.553 201.467 8.127C201.467 8.533 201.593 8.862 201.845 9.114C202.111 9.352 202.58 9.583 203.252 9.807L204.911 10.353C205.765 10.633 206.388 11.004 206.78 11.466C207.186 11.928 207.389 12.516 207.389 13.23C207.389 14.266 207.039 15.064 206.339 15.624C205.639 16.184 204.652 16.464 203.378 16.464C202.202 16.464 201.145 16.247 200.207 15.813L200.039 14.763ZM221.825 16.191L221.741 15.456C220.537 16.128 219.347 16.464 218.171 16.464C217.093 16.464 216.239 16.184 215.609 15.624C214.979 15.05 214.664 14.266 214.664 13.272C214.664 12.222 215.014 11.424 215.714 10.878C216.428 10.318 217.471 10.038 218.843 10.038C219.669 10.038 220.607 10.136 221.657 10.332V8.904C221.657 7.154 220.67 6.279 218.696 6.279C218.178 6.279 217.611 6.349 216.995 6.489C216.379 6.629 215.812 6.811 215.294 7.035V6.048C215.798 5.81 216.372 5.621 217.016 5.481C217.674 5.341 218.297 5.271 218.885 5.271C220.201 5.271 221.195 5.586 221.867 6.216C222.553 6.832 222.896 7.728 222.896 8.904V16.086L221.825 16.191ZM218.465 15.456C218.969 15.456 219.501 15.379 220.061 15.225C220.621 15.071 221.153 14.861 221.657 14.595V11.235C220.775 11.067 219.907 10.983 219.053 10.983C217.975 10.983 217.191 11.165 216.701 11.529C216.211 11.893 215.966 12.467 215.966 13.251C215.966 14.721 216.799 15.456 218.465 15.456ZM226.267 16.149V5.649L227.338 5.544L227.443 6.489C228.381 5.719 229.382 5.334 230.446 5.334C230.824 5.334 231.125 5.376 231.349 5.46V6.489C230.985 6.405 230.663 6.363 230.383 6.363C229.389 6.363 228.437 6.72 227.527 7.434V16.149H226.267ZM240.715 15.771C239.749 16.233 238.713 16.464 237.607 16.464C235.997 16.464 234.758 15.988 233.89 15.036C233.022 14.084 232.588 12.719 232.588 10.941C232.588 9.177 232.994 7.791 233.806 6.783C234.618 5.775 235.731 5.271 237.145 5.271C238.391 5.271 239.371 5.663 240.085 6.447C240.813 7.217 241.177 8.274 241.177 9.618C241.177 10.122 241.135 10.605 241.051 11.067H233.827C233.841 13.993 235.136 15.456 237.712 15.456C238.748 15.456 239.749 15.232 240.715 14.784V15.771ZM237.124 6.258C236.172 6.258 235.395 6.608 234.793 7.308C234.191 8.008 233.869 8.946 233.827 10.122H239.959C239.987 9.898 240.001 9.702 240.001 9.534C240.001 8.498 239.749 7.693 239.245 7.119C238.741 6.545 238.034 6.258 237.124 6.258ZM253.163 16.464C251.637 16.464 250.482 15.995 249.698 15.057C248.928 14.105 248.543 12.705 248.543 10.857C248.543 9.023 248.928 7.637 249.698 6.699C250.482 5.747 251.637 5.271 253.163 5.271C254.689 5.271 255.837 5.747 256.607 6.699C257.391 7.637 257.783 9.023 257.783 10.857C257.783 12.705 257.391 14.105 256.607 15.057C255.837 15.995 254.689 16.464 253.163 16.464ZM253.163 15.456C254.311 15.456 255.144 15.092 255.662 14.364C256.194 13.622 256.46 12.453 256.46 10.857C256.46 9.275 256.194 8.12 255.662 7.392C255.144 6.65 254.311 6.279 253.163 6.279C252.015 6.279 251.175 6.65 250.643 7.392C250.125 8.12 249.866 9.275 249.866 10.857C249.866 12.453 250.125 13.622 250.643 14.364C251.175 15.092 252.015 15.456 253.163 15.456ZM260.618 20.832V5.649L261.689 5.544L261.773 6.279C262.963 5.607 264.055 5.271 265.049 5.271C266.421 5.271 267.499 5.754 268.283 6.72C269.067 7.672 269.459 8.995 269.459 10.689C269.459 12.551 269.011 13.979 268.115 14.973C267.233 15.967 265.952 16.464 264.272 16.464C263.404 16.464 262.606 16.352 261.878 16.128V20.664L260.618 20.832ZM264.881 6.279C264.419 6.279 263.922 6.356 263.39 6.51C262.858 6.664 262.354 6.874 261.878 7.14V15.12C262.606 15.344 263.369 15.456 264.167 15.456C265.511 15.456 266.505 15.071 267.149 14.301C267.807 13.517 268.136 12.32 268.136 10.71C268.136 9.268 267.856 8.169 267.296 7.413C266.75 6.657 265.945 6.279 264.881 6.279ZM279.721 15.771C278.755 16.233 277.719 16.464 276.613 16.464C275.003 16.464 273.764 15.988 272.896 15.036C272.028 14.084 271.594 12.719 271.594 10.941C271.594 9.177 272 7.791 272.812 6.783C273.624 5.775 274.737 5.271 276.151 5.271C277.397 5.271 278.377 5.663 279.091 6.447C279.819 7.217 280.183 8.274 280.183 9.618C280.183 10.122 280.141 10.605 280.057 11.067H272.833C272.847 13.993 274.142 15.456 276.718 15.456C277.754 15.456 278.755 15.232 279.721 14.784V15.771ZM276.13 6.258C275.178 6.258 274.401 6.608 273.799 7.308C273.197 8.008 272.875 8.946 272.833 10.122H278.965C278.993 9.898 279.007 9.702 279.007 9.534C279.007 8.498 278.755 7.693 278.251 7.119C277.747 6.545 277.04 6.258 276.13 6.258ZM290.027 16.149V8.862C290.027 7.14 289.152 6.279 287.402 6.279C286.94 6.279 286.429 6.356 285.869 6.51C285.323 6.664 284.784 6.874 284.252 7.14V16.149H282.992V5.649L284.063 5.544L284.147 6.279C285.365 5.607 286.555 5.271 287.717 5.271C288.851 5.271 289.726 5.565 290.342 6.153C290.972 6.741 291.287 7.574 291.287 8.652V16.149H290.027ZM300.205 16.149V6.552H298.609V5.649L300.205 5.586V3.213C300.205 2.177 300.457 1.386 300.961 0.840001C301.479 0.280001 302.228 9.53674e-07 303.208 9.53674e-07C303.74 9.53674e-07 304.279 0.0980009 304.825 0.294001V1.218C304.321 1.064 303.838 0.987001 303.376 0.987001C302.718 0.987001 302.235 1.162 301.927 1.512C301.619 1.848 301.465 2.38 301.465 3.108V5.586H304.3V6.552H301.465V16.149H300.205ZM310.359 16.464C308.833 16.464 307.678 15.995 306.894 15.057C306.124 14.105 305.739 12.705 305.739 10.857C305.739 9.023 306.124 7.637 306.894 6.699C307.678 5.747 308.833 5.271 310.359 5.271C311.885 5.271 313.033 5.747 313.803 6.699C314.587 7.637 314.979 9.023 314.979 10.857C314.979 12.705 314.587 14.105 313.803 15.057C313.033 15.995 311.885 16.464 310.359 16.464ZM310.359 15.456C311.507 15.456 312.34 15.092 312.858 14.364C313.39 13.622 313.656 12.453 313.656 10.857C313.656 9.275 313.39 8.12 312.858 7.392C312.34 6.65 311.507 6.279 310.359 6.279C309.211 6.279 308.371 6.65 307.839 7.392C307.321 8.12 307.062 9.275 307.062 10.857C307.062 12.453 307.321 13.622 307.839 14.364C308.371 15.092 309.211 15.456 310.359 15.456ZM317.814 16.149V5.649L318.885 5.544L318.99 6.489C319.928 5.719 320.929 5.334 321.993 5.334C322.371 5.334 322.672 5.376 322.896 5.46V6.489C322.532 6.405 322.21 6.363 321.93 6.363C320.936 6.363 319.984 6.72 319.074 7.434V16.149H317.814ZM330.283 16.149V0.378001L331.543 0.210001V6.237C332.719 5.593 333.874 5.271 335.008 5.271C336.142 5.271 337.017 5.565 337.633 6.153C338.263 6.741 338.578 7.574 338.578 8.652V16.149H337.318V8.862C337.318 7.14 336.443 6.279 334.693 6.279C334.231 6.279 333.72 6.356 333.16 6.51C332.614 6.664 332.075 6.874 331.543 7.14V16.149H330.283ZM345.879 16.464C344.353 16.464 343.198 15.995 342.414 15.057C341.644 14.105 341.259 12.705 341.259 10.857C341.259 9.023 341.644 7.637 342.414 6.699C343.198 5.747 344.353 5.271 345.879 5.271C347.405 5.271 348.553 5.747 349.323 6.699C350.107 7.637 350.499 9.023 350.499 10.857C350.499 12.705 350.107 14.105 349.323 15.057C348.553 15.995 347.405 16.464 345.879 16.464ZM345.879 15.456C347.027 15.456 347.86 15.092 348.378 14.364C348.91 13.622 349.176 12.453 349.176 10.857C349.176 9.275 348.91 8.12 348.378 7.392C347.86 6.65 347.027 6.279 345.879 6.279C344.731 6.279 343.891 6.65 343.359 7.392C342.841 8.12 342.582 9.275 342.582 10.857C342.582 12.453 342.841 13.622 343.359 14.364C343.891 15.092 344.731 15.456 345.879 15.456ZM353.334 16.149V0.378001L354.594 0.210001V16.149H353.334ZM358.112 16.149V5.691L359.372 5.523V16.149H358.112ZM358.742 3.024C358.462 3.024 358.231 2.94 358.049 2.772C357.881 2.604 357.797 2.373 357.797 2.079C357.797 1.785 357.881 1.554 358.049 1.386C358.231 1.218 358.462 1.134 358.742 1.134C359.022 1.134 359.246 1.218 359.414 1.386C359.596 1.554 359.687 1.785 359.687 2.079C359.687 2.373 359.596 2.604 359.414 2.772C359.246 2.94 359.022 3.024 358.742 3.024ZM371.038 0.210001V16.086L369.967 16.191L369.883 15.456C368.693 16.128 367.601 16.464 366.607 16.464C365.235 16.464 364.157 15.988 363.373 15.036C362.589 14.07 362.197 12.74 362.197 11.046C362.197 9.184 362.638 7.756 363.52 6.762C364.416 5.768 365.704 5.271 367.384 5.271C368.252 5.271 369.05 5.383 369.778 5.607V0.378001L371.038 0.210001ZM366.775 15.456C367.237 15.456 367.734 15.379 368.266 15.225C368.798 15.071 369.302 14.861 369.778 14.595V6.615C369.05 6.391 368.287 6.279 367.489 6.279C366.145 6.279 365.144 6.671 364.486 7.455C363.842 8.225 363.52 9.415 363.52 11.025C363.52 12.467 363.793 13.566 364.339 14.322C364.899 15.078 365.711 15.456 366.775 15.456ZM381.027 16.191L380.943 15.456C379.739 16.128 378.549 16.464 377.373 16.464C376.295 16.464 375.441 16.184 374.811 15.624C374.181 15.05 373.866 14.266 373.866 13.272C373.866 12.222 374.216 11.424 374.916 10.878C375.63 10.318 376.673 10.038 378.045 10.038C378.871 10.038 379.809 10.136 380.859 10.332V8.904C380.859 7.154 379.872 6.279 377.898 6.279C377.38 6.279 376.813 6.349 376.197 6.489C375.581 6.629 375.014 6.811 374.496 7.035V6.048C375 5.81 375.574 5.621 376.218 5.481C376.876 5.341 377.499 5.271 378.087 5.271C379.403 5.271 380.397 5.586 381.069 6.216C381.755 6.832 382.098 7.728 382.098 8.904V16.086L381.027 16.191ZM377.667 15.456C378.171 15.456 378.703 15.379 379.263 15.225C379.823 15.071 380.355 14.861 380.859 14.595V11.235C379.977 11.067 379.109 10.983 378.255 10.983C377.177 10.983 376.393 11.165 375.903 11.529C375.413 11.893 375.168 12.467 375.168 13.251C375.168 14.721 376.001 15.456 377.667 15.456ZM384.02 19.782C385.014 19.6 385.791 19.25 386.351 18.732C386.911 18.214 387.429 17.388 387.905 16.254L383.873 5.586H385.196L388.493 14.847L391.895 5.586H393.155L389.123 16.044C388.745 17.052 388.346 17.871 387.926 18.501C387.52 19.145 387.037 19.649 386.477 20.013C385.917 20.391 385.189 20.678 384.293 20.874L384.02 19.782ZM407.309 15.771C406.385 16.233 405.377 16.464 404.285 16.464C402.801 16.464 401.653 15.981 400.841 15.015C400.043 14.049 399.644 12.67 399.644 10.878C399.644 9.086 400.043 7.707 400.841 6.741C401.653 5.761 402.801 5.271 404.285 5.271C405.335 5.271 406.329 5.502 407.267 5.964V6.951C406.287 6.517 405.335 6.3 404.411 6.3C403.277 6.3 402.416 6.685 401.828 7.455C401.254 8.225 400.967 9.366 400.967 10.878C400.967 12.376 401.254 13.51 401.828 14.28C402.416 15.05 403.277 15.435 404.411 15.435C405.363 15.435 406.329 15.218 407.309 14.784V15.771ZM410.017 16.149V0.378001L411.277 0.210001V6.237C412.453 5.593 413.608 5.271 414.742 5.271C415.876 5.271 416.751 5.565 417.367 6.153C417.997 6.741 418.312 7.574 418.312 8.652V16.149H417.052V8.862C417.052 7.14 416.177 6.279 414.427 6.279C413.965 6.279 413.454 6.356 412.894 6.51C412.348 6.664 411.809 6.874 411.277 7.14V16.149H410.017ZM429.12 15.771C428.154 16.233 427.118 16.464 426.012 16.464C424.402 16.464 423.163 15.988 422.295 15.036C421.427 14.084 420.993 12.719 420.993 10.941C420.993 9.177 421.399 7.791 422.211 6.783C423.023 5.775 424.136 5.271 425.55 5.271C426.796 5.271 427.776 5.663 428.49 6.447C429.218 7.217 429.582 8.274 429.582 9.618C429.582 10.122 429.54 10.605 429.456 11.067H422.232C422.246 13.993 423.541 15.456 426.117 15.456C427.153 15.456 428.154 15.232 429.12 14.784V15.771ZM425.529 6.258C424.577 6.258 423.8 6.608 423.198 7.308C422.596 8.008 422.274 8.946 422.232 10.122H428.364C428.392 9.898 428.406 9.702 428.406 9.534C428.406 8.498 428.154 7.693 427.65 7.119C427.146 6.545 426.439 6.258 425.529 6.258ZM439.825 15.771C438.859 16.233 437.823 16.464 436.717 16.464C435.107 16.464 433.868 15.988 433 15.036C432.132 14.084 431.698 12.719 431.698 10.941C431.698 9.177 432.104 7.791 432.916 6.783C433.728 5.775 434.841 5.271 436.255 5.271C437.501 5.271 438.481 5.663 439.195 6.447C439.923 7.217 440.287 8.274 440.287 9.618C440.287 10.122 440.245 10.605 440.161 11.067H432.937C432.951 13.993 434.246 15.456 436.822 15.456C437.858 15.456 438.859 15.232 439.825 14.784V15.771ZM436.234 6.258C435.282 6.258 434.505 6.608 433.903 7.308C433.301 8.008 432.979 8.946 432.937 10.122H439.069C439.097 9.898 439.111 9.702 439.111 9.534C439.111 8.498 438.859 7.693 438.355 7.119C437.851 6.545 437.144 6.258 436.234 6.258ZM443.096 16.149V5.649L444.167 5.544L444.272 6.489C445.21 5.719 446.211 5.334 447.275 5.334C447.653 5.334 447.954 5.376 448.178 5.46V6.489C447.814 6.405 447.492 6.363 447.212 6.363C446.218 6.363 445.266 6.72 444.356 7.434V16.149H443.096ZM454.746 14.763C455.796 15.225 456.881 15.456 458.001 15.456C459.891 15.456 460.836 14.721 460.836 13.251C460.836 12.775 460.696 12.39 460.416 12.096C460.15 11.802 459.702 11.557 459.072 11.361L457.476 10.857C456.58 10.577 455.929 10.227 455.523 9.807C455.117 9.373 454.914 8.827 454.914 8.169C454.914 7.287 455.257 6.587 455.943 6.069C456.643 5.537 457.581 5.271 458.757 5.271C459.751 5.271 460.696 5.46 461.592 5.838V6.825C460.654 6.461 459.73 6.279 458.82 6.279C457.994 6.279 457.343 6.447 456.867 6.783C456.405 7.105 456.174 7.553 456.174 8.127C456.174 8.533 456.3 8.862 456.552 9.114C456.818 9.352 457.287 9.583 457.959 9.807L459.618 10.353C460.472 10.633 461.095 11.004 461.487 11.466C461.893 11.928 462.096 12.516 462.096 13.23C462.096 14.266 461.746 15.064 461.046 15.624C460.346 16.184 459.359 16.464 458.085 16.464C456.909 16.464 455.852 16.247 454.914 15.813L454.746 14.763ZM472.248 15.771C471.282 16.233 470.246 16.464 469.14 16.464C467.53 16.464 466.291 15.988 465.423 15.036C464.555 14.084 464.121 12.719 464.121 10.941C464.121 9.177 464.527 7.791 465.339 6.783C466.151 5.775 467.264 5.271 468.678 5.271C469.924 5.271 470.904 5.663 471.618 6.447C472.346 7.217 472.71 8.274 472.71 9.618C472.71 10.122 472.668 10.605 472.584 11.067H465.36C465.374 13.993 466.669 15.456 469.245 15.456C470.281 15.456 471.282 15.232 472.248 14.784V15.771ZM468.657 6.258C467.705 6.258 466.928 6.608 466.326 7.308C465.724 8.008 465.402 8.946 465.36 10.122H471.492C471.52 9.898 471.534 9.702 471.534 9.534C471.534 8.498 471.282 7.693 470.778 7.119C470.274 6.545 469.567 6.258 468.657 6.258ZM477.913 16.149L473.923 5.586H475.246L478.543 14.805L481.945 5.586H483.205L479.131 16.149H477.913ZM492.366 15.771C491.4 16.233 490.364 16.464 489.258 16.464C487.648 16.464 486.409 15.988 485.541 15.036C484.673 14.084 484.239 12.719 484.239 10.941C484.239 9.177 484.645 7.791 485.457 6.783C486.269 5.775 487.382 5.271 488.796 5.271C490.042 5.271 491.022 5.663 491.736 6.447C492.464 7.217 492.828 8.274 492.828 9.618C492.828 10.122 492.786 10.605 492.702 11.067H485.478C485.492 13.993 486.787 15.456 489.363 15.456C490.399 15.456 491.4 15.232 492.366 14.784V15.771ZM488.775 6.258C487.823 6.258 487.046 6.608 486.444 7.308C485.842 8.008 485.52 8.946 485.478 10.122H491.61C491.638 9.898 491.652 9.702 491.652 9.534C491.652 8.498 491.4 7.693 490.896 7.119C490.392 6.545 489.685 6.258 488.775 6.258ZM502.672 16.149V8.862C502.672 7.14 501.797 6.279 500.047 6.279C499.585 6.279 499.074 6.356 498.514 6.51C497.968 6.664 497.429 6.874 496.897 7.14V16.149H495.637V5.649L496.708 5.544L496.792 6.279C498.01 5.607 499.2 5.271 500.362 5.271C501.496 5.271 502.371 5.565 502.987 6.153C503.617 6.741 503.932 7.574 503.932 8.652V16.149H502.672ZM520.704 0.210001V16.086L519.633 16.191L519.549 15.456C518.359 16.128 517.267 16.464 516.273 16.464C514.901 16.464 513.823 15.988 513.039 15.036C512.255 14.07 511.863 12.74 511.863 11.046C511.863 9.184 512.304 7.756 513.186 6.762C514.082 5.768 515.37 5.271 517.05 5.271C517.918 5.271 518.716 5.383 519.444 5.607V0.378001L520.704 0.210001ZM516.441 15.456C516.903 15.456 517.4 15.379 517.932 15.225C518.464 15.071 518.968 14.861 519.444 14.595V6.615C518.716 6.391 517.953 6.279 517.155 6.279C515.811 6.279 514.81 6.671 514.152 7.455C513.508 8.225 513.186 9.415 513.186 11.025C513.186 12.467 513.459 13.566 514.005 14.322C514.565 15.078 515.377 15.456 516.441 15.456ZM530.693 16.191L530.609 15.456C529.405 16.128 528.215 16.464 527.039 16.464C525.961 16.464 525.107 16.184 524.477 15.624C523.847 15.05 523.532 14.266 523.532 13.272C523.532 12.222 523.882 11.424 524.582 10.878C525.296 10.318 526.339 10.038 527.711 10.038C528.537 10.038 529.475 10.136 530.525 10.332V8.904C530.525 7.154 529.538 6.279 527.564 6.279C527.046 6.279 526.479 6.349 525.863 6.489C525.247 6.629 524.68 6.811 524.162 7.035V6.048C524.666 5.81 525.24 5.621 525.884 5.481C526.542 5.341 527.165 5.271 527.753 5.271C529.069 5.271 530.063 5.586 530.735 6.216C531.421 6.832 531.764 7.728 531.764 8.904V16.086L530.693 16.191ZM527.333 15.456C527.837 15.456 528.369 15.379 528.929 15.225C529.489 15.071 530.021 14.861 530.525 14.595V11.235C529.643 11.067 528.775 10.983 527.921 10.983C526.843 10.983 526.059 11.165 525.569 11.529C525.079 11.893 524.834 12.467 524.834 13.251C524.834 14.721 525.667 15.456 527.333 15.456ZM533.686 19.782C534.68 19.6 535.457 19.25 536.017 18.732C536.577 18.214 537.095 17.388 537.571 16.254L533.539 5.586H534.862L538.159 14.847L541.561 5.586H542.821L538.789 16.044C538.411 17.052 538.012 17.871 537.592 18.501C537.186 19.145 536.703 19.649 536.143 20.013C535.583 20.391 534.855 20.678 533.959 20.874L533.686 19.782ZM543.934 14.763C544.984 15.225 546.069 15.456 547.189 15.456C549.079 15.456 550.024 14.721 550.024 13.251C550.024 12.775 549.884 12.39 549.604 12.096C549.338 11.802 548.89 11.557 548.26 11.361L546.664 10.857C545.768 10.577 545.117 10.227 544.711 9.807C544.305 9.373 544.102 8.827 544.102 8.169C544.102 7.287 544.445 6.587 545.131 6.069C545.831 5.537 546.769 5.271 547.945 5.271C548.939 5.271 549.884 5.46 550.78 5.838V6.825C549.842 6.461 548.918 6.279 548.008 6.279C547.182 6.279 546.531 6.447 546.055 6.783C545.593 7.105 545.362 7.553 545.362 8.127C545.362 8.533 545.488 8.862 545.74 9.114C546.006 9.352 546.475 9.583 547.147 9.807L548.806 10.353C549.66 10.633 550.283 11.004 550.675 11.466C551.081 11.928 551.284 12.516 551.284 13.23C551.284 14.266 550.934 15.064 550.234 15.624C549.534 16.184 548.547 16.464 547.273 16.464C546.097 16.464 545.04 16.247 544.102 15.813L543.934 14.763ZM565.72 16.191L565.636 15.456C564.432 16.128 563.242 16.464 562.066 16.464C560.988 16.464 560.134 16.184 559.504 15.624C558.874 15.05 558.559 14.266 558.559 13.272C558.559 12.222 558.909 11.424 559.609 10.878C560.323 10.318 561.366 10.038 562.738 10.038C563.564 10.038 564.502 10.136 565.552 10.332V8.904C565.552 7.154 564.565 6.279 562.591 6.279C562.073 6.279 561.506 6.349 560.89 6.489C560.274 6.629 559.707 6.811 559.189 7.035V6.048C559.693 5.81 560.267 5.621 560.911 5.481C561.569 5.341 562.192 5.271 562.78 5.271C564.096 5.271 565.09 5.586 565.762 6.216C566.448 6.832 566.791 7.728 566.791 8.904V16.086L565.72 16.191ZM562.36 15.456C562.864 15.456 563.396 15.379 563.956 15.225C564.516 15.071 565.048 14.861 565.552 14.595V11.235C564.67 11.067 563.802 10.983 562.948 10.983C561.87 10.983 561.086 11.165 560.596 11.529C560.106 11.893 559.861 12.467 559.861 13.251C559.861 14.721 560.694 15.456 562.36 15.456ZM584.023 16.149L581.188 6.993L578.437 16.149H577.24L573.88 5.586H575.161L577.849 14.595L580.495 5.586H581.902L584.59 14.658L587.257 5.586H588.475L585.22 16.149H584.023ZM597.899 15.771C596.933 16.233 595.897 16.464 594.791 16.464C593.181 16.464 591.942 15.988 591.074 15.036C590.206 14.084 589.772 12.719 589.772 10.941C589.772 9.177 590.178 7.791 590.99 6.783C591.802 5.775 592.915 5.271 594.329 5.271C595.575 5.271 596.555 5.663 597.269 6.447C597.997 7.217 598.361 8.274 598.361 9.618C598.361 10.122 598.319 10.605 598.235 11.067H591.011C591.025 13.993 592.32 15.456 594.896 15.456C595.932 15.456 596.933 15.232 597.899 14.784V15.771ZM594.308 6.258C593.356 6.258 592.579 6.608 591.977 7.308C591.375 8.008 591.053 8.946 591.011 10.122H597.143C597.171 9.898 597.185 9.702 597.185 9.534C597.185 8.498 596.933 7.693 596.429 7.119C595.925 6.545 595.218 6.258 594.308 6.258ZM608.604 15.771C607.638 16.233 606.602 16.464 605.496 16.464C603.886 16.464 602.647 15.988 601.779 15.036C600.911 14.084 600.477 12.719 600.477 10.941C600.477 9.177 600.883 7.791 601.695 6.783C602.507 5.775 603.62 5.271 605.034 5.271C606.28 5.271 607.26 5.663 607.974 6.447C608.702 7.217 609.066 8.274 609.066 9.618C609.066 10.122 609.024 10.605 608.94 11.067H601.716C601.73 13.993 603.025 15.456 605.601 15.456C606.637 15.456 607.638 15.232 608.604 14.784V15.771ZM605.013 6.258C604.061 6.258 603.284 6.608 602.682 7.308C602.08 8.008 601.758 8.946 601.716 10.122H607.848C607.876 9.898 607.89 9.702 607.89 9.534C607.89 8.498 607.638 7.693 607.134 7.119C606.63 6.545 605.923 6.258 605.013 6.258ZM611.876 16.149V0.378001L613.136 0.210001V10.269L618.092 5.586H619.583L614.396 10.5L619.751 16.149H618.155L613.136 10.815V16.149H611.876Z" fill="#013D5B"/>
</svg>
