<svg width="114" height="22" viewBox="0 0 114 22" fill="none" xmlns="http://www.w3.org/2000/svg">
<path d="M104.775 16.698V0.175995L106.095 0V10.538L111.287 5.632H112.849L107.415 10.78L113.025 16.698H111.353L106.095 11.11V16.698H104.775Z" fill="#013D5B"/>
<path d="M101.348 16.302C100.336 16.786 99.2506 17.028 98.092 17.028C96.4053 17.028 95.1073 16.5293 94.198 15.532C93.2886 14.5347 92.834 13.1047 92.834 11.242C92.834 9.394 93.2593 7.94201 94.11 6.88601C94.9607 5.83001 96.1267 5.302 97.608 5.302C98.9133 5.302 99.94 5.71267 100.688 6.534C101.451 7.34067 101.832 8.448 101.832 9.856C101.832 10.384 101.788 10.89 101.7 11.374H94.132C94.1466 14.4393 95.5033 15.972 98.202 15.972C99.2873 15.972 100.336 15.7373 101.348 15.268V16.302ZM97.586 6.33601C96.5886 6.33601 95.7746 6.70267 95.144 7.436C94.5133 8.16934 94.176 9.152 94.132 10.384H100.556C100.585 10.1493 100.6 9.94401 100.6 9.76801C100.6 8.68267 100.336 7.83934 99.808 7.23801C99.28 6.63667 98.5393 6.33601 97.586 6.33601Z" fill="#013D5B"/>
<path d="M90.1331 16.302C89.1211 16.786 88.0358 17.028 86.8771 17.028C85.1905 17.028 83.8925 16.5293 82.9831 15.532C82.0738 14.5347 81.6191 13.1047 81.6191 11.242C81.6191 9.394 82.0445 7.94201 82.8951 6.88601C83.7458 5.83001 84.9118 5.302 86.3931 5.302C87.6985 5.302 88.7251 5.71267 89.4731 6.534C90.2358 7.34067 90.6171 8.448 90.6171 9.856C90.6171 10.384 90.5731 10.89 90.4851 11.374H82.9171C82.9318 14.4393 84.2885 15.972 86.9871 15.972C88.0725 15.972 89.1211 15.7373 90.1331 15.268V16.302ZM86.3711 6.33601C85.3738 6.33601 84.5598 6.70267 83.9291 7.436C83.2985 8.16934 82.9611 9.152 82.9171 10.384H89.3411C89.3705 10.1493 89.3851 9.94401 89.3851 9.76801C89.3851 8.68267 89.1211 7.83934 88.5931 7.23801C88.0651 6.63667 87.3245 6.33601 86.3711 6.33601Z" fill="#013D5B"/>
<path d="M75.5955 16.698L72.6255 7.10599L69.7435 16.698H68.4895L64.9695 5.63199H66.3115L69.1275 15.07L71.8995 5.63199H73.3735L76.1895 15.136L78.9835 5.63199H80.2595L76.8495 16.698H75.5955Z" fill="#013D5B"/>
<path d="M56.4219 16.742L56.3339 15.972C55.0726 16.676 53.8259 17.028 52.5939 17.028C51.4646 17.028 50.5699 16.7347 49.9099 16.148C49.2499 15.5467 48.9199 14.7253 48.9199 13.684C48.9199 12.584 49.2866 11.748 50.0199 11.176C50.7679 10.5893 51.8606 10.296 53.2979 10.296C54.1633 10.296 55.1459 10.3987 56.2459 10.604V9.108C56.2459 7.27467 55.2119 6.358 53.1439 6.358C52.6013 6.358 52.0073 6.43134 51.3619 6.578C50.7166 6.72467 50.1226 6.91533 49.5799 7.15V6.116C50.1079 5.86667 50.7093 5.66867 51.3839 5.522C52.0733 5.37534 52.7259 5.302 53.3419 5.302C54.7206 5.302 55.7619 5.63201 56.4659 6.29201C57.1846 6.93734 57.5439 7.876 57.5439 9.108V16.632L56.4219 16.742ZM52.9019 15.972C53.4299 15.972 53.9873 15.8913 54.5739 15.73C55.1606 15.5687 55.7179 15.3487 56.2459 15.07V11.55C55.3219 11.374 54.4126 11.286 53.5179 11.286C52.3886 11.286 51.5673 11.4767 51.0539 11.858C50.5406 12.2393 50.2839 12.8407 50.2839 13.662C50.2839 15.202 51.1566 15.972 52.9019 15.972Z" fill="#013D5B"/>
<path d="M33.5984 15.246C34.6984 15.73 35.8351 15.972 37.0084 15.972C38.9884 15.972 39.9784 15.202 39.9784 13.662C39.9784 13.1633 39.8317 12.76 39.5384 12.452C39.2597 12.144 38.7904 11.8873 38.1304 11.682L36.4584 11.154C35.5197 10.8607 34.8377 10.494 34.4124 10.054C33.9871 9.59934 33.7744 9.02734 33.7744 8.33801C33.7744 7.41401 34.1337 6.68067 34.8524 6.13801C35.5857 5.58067 36.5684 5.302 37.8004 5.302C38.8417 5.302 39.8317 5.5 40.7704 5.896V6.93001C39.7877 6.54867 38.8197 6.358 37.8664 6.358C37.0011 6.358 36.3191 6.53401 35.8204 6.88601C35.3364 7.22334 35.0944 7.69267 35.0944 8.29401C35.0944 8.71934 35.2264 9.064 35.4904 9.328C35.7691 9.57734 36.2604 9.81934 36.9644 10.054L38.7024 10.626C39.5971 10.9193 40.2497 11.308 40.6604 11.792C41.0857 12.276 41.2984 12.892 41.2984 13.64C41.2984 14.7253 40.9317 15.5613 40.1984 16.148C39.4651 16.7347 38.4311 17.028 37.0964 17.028C35.8644 17.028 34.7571 16.8007 33.7744 16.346L33.5984 15.246Z" fill="#013D5B"/>
<path d="M22.8623 20.504C23.9036 20.3133 24.7176 19.9467 25.3043 19.404C25.8909 18.8613 26.4336 17.996 26.9323 16.808L22.7083 5.63199H24.0943L27.5483 15.334L31.1123 5.63199H32.4323L28.2083 16.588C27.8123 17.644 27.3943 18.502 26.9543 19.162C26.5289 19.8367 26.0229 20.3647 25.4363 20.746C24.8496 21.142 24.0869 21.4427 23.1483 21.648L22.8623 20.504Z" fill="#013D5B"/>
<path d="M19.7266 16.742L19.6386 15.972C18.3773 16.676 17.1306 17.028 15.8986 17.028C14.7693 17.028 13.8746 16.7347 13.2146 16.148C12.5546 15.5467 12.2246 14.7253 12.2246 13.684C12.2246 12.584 12.5913 11.748 13.3246 11.176C14.0726 10.5893 15.1653 10.296 16.6026 10.296C17.4679 10.296 18.4506 10.3987 19.5506 10.604V9.108C19.5506 7.27467 18.5166 6.358 16.4486 6.358C15.9059 6.358 15.3119 6.43134 14.6666 6.578C14.0213 6.72467 13.4273 6.91533 12.8846 7.15V6.116C13.4126 5.86667 14.0139 5.66867 14.6886 5.522C15.3779 5.37534 16.0306 5.302 16.6466 5.302C18.0253 5.302 19.0666 5.63201 19.7706 6.29201C20.4893 6.93734 20.8486 7.876 20.8486 9.108V16.632L19.7266 16.742ZM16.2066 15.972C16.7346 15.972 17.2919 15.8913 17.8786 15.73C18.4653 15.5687 19.0226 15.3487 19.5506 15.07V11.55C18.6266 11.374 17.7173 11.286 16.8226 11.286C15.6933 11.286 14.8719 11.4767 14.3586 11.858C13.8453 12.2393 13.5886 12.8407 13.5886 13.662C13.5886 15.202 14.4613 15.972 16.2066 15.972Z" fill="#013D5B"/>
<path d="M9.262 0V16.632L8.14 16.742L8.052 15.972C6.80533 16.676 5.66133 17.028 4.62 17.028C3.18267 17.028 2.05333 16.5293 1.232 15.532C0.410667 14.52 0 13.1267 0 11.352C0 9.40133 0.462 7.90533 1.386 6.864C2.32467 5.82267 3.674 5.30199 5.434 5.30199C6.34333 5.30199 7.17933 5.41933 7.942 5.654V0.175995L9.262 0ZM4.796 15.972C5.28 15.972 5.80067 15.8913 6.358 15.73C6.91533 15.5687 7.44333 15.3487 7.942 15.07V6.71C7.17933 6.47533 6.38 6.35799 5.544 6.35799C4.136 6.35799 3.08733 6.76866 2.398 7.59C1.72333 8.39666 1.386 9.64333 1.386 11.33C1.386 12.8407 1.672 13.992 2.244 14.784C2.83067 15.576 3.68133 15.972 4.796 15.972Z" fill="#013D5B"/>
</svg>
