<svg width="198" height="22" viewBox="0 0 198 22" fill="none" xmlns="http://www.w3.org/2000/svg">
<path d="M195.799 16.918V9.284C195.799 7.48 194.883 6.578 193.049 6.578C192.565 6.578 192.03 6.65867 191.443 6.82C190.871 6.98134 190.307 7.20134 189.749 7.48V16.918H188.429V5.918L189.551 5.808L189.639 6.578C190.915 5.874 192.162 5.522 193.379 5.522C194.567 5.522 195.484 5.83 196.129 6.446C196.789 7.062 197.119 7.93467 197.119 9.064V16.918H195.799Z" fill="#013D5B"/>
<path d="M185.003 16.522C183.991 17.006 182.905 17.248 181.747 17.248C180.06 17.248 178.762 16.7493 177.853 15.752C176.943 14.7547 176.489 13.3247 176.489 11.462C176.489 9.614 176.914 8.162 177.765 7.106C178.615 6.05 179.781 5.522 181.263 5.522C182.568 5.522 183.595 5.93267 184.343 6.754C185.105 7.56067 185.487 8.668 185.487 10.076C185.487 10.604 185.443 11.11 185.355 11.594H177.787C177.801 14.6593 179.158 16.192 181.857 16.192C182.942 16.192 183.991 15.9573 185.003 15.488V16.522ZM181.241 6.556C180.243 6.556 179.429 6.92267 178.799 7.656C178.168 8.38934 177.831 9.372 177.787 10.604H184.211C184.24 10.3693 184.255 10.164 184.255 9.988C184.255 8.90267 183.991 8.05934 183.463 7.458C182.935 6.85667 182.194 6.556 181.241 6.556Z" fill="#013D5B"/>
<path d="M169.861 16.918L165.681 5.85199H167.067L170.521 15.51L174.085 5.85199H175.405L171.137 16.918H169.861Z" fill="#013D5B"/>
<path d="M163.926 16.522C162.914 17.006 161.829 17.248 160.67 17.248C158.984 17.248 157.686 16.7493 156.776 15.752C155.867 14.7547 155.412 13.3247 155.412 11.462C155.412 9.614 155.838 8.162 156.688 7.106C157.539 6.05 158.705 5.522 160.186 5.522C161.492 5.522 162.518 5.93267 163.266 6.754C164.029 7.56067 164.41 8.668 164.41 10.076C164.41 10.604 164.366 11.11 164.278 11.594H156.71C156.725 14.6593 158.082 16.192 160.78 16.192C161.866 16.192 162.914 15.9573 163.926 15.488V16.522ZM160.164 6.556C159.167 6.556 158.353 6.92267 157.722 7.656C157.092 8.38934 156.754 9.372 156.71 10.604H163.134C163.164 10.3693 163.178 10.164 163.178 9.988C163.178 8.90267 162.914 8.05934 162.386 7.458C161.858 6.85667 161.118 6.556 160.164 6.556Z" fill="#013D5B"/>
<path d="M145.591 15.466C146.691 15.95 147.827 16.192 149.001 16.192C150.981 16.192 151.971 15.422 151.971 13.882C151.971 13.3833 151.824 12.98 151.531 12.672C151.252 12.364 150.783 12.1073 150.123 11.902L148.451 11.374C147.512 11.0807 146.83 10.714 146.405 10.274C145.979 9.81934 145.767 9.24734 145.767 8.558C145.767 7.634 146.126 6.90067 146.845 6.358C147.578 5.80067 148.561 5.522 149.793 5.522C150.834 5.522 151.824 5.72 152.763 6.116V7.15C151.78 6.76867 150.812 6.578 149.859 6.578C148.993 6.578 148.311 6.754 147.813 7.106C147.329 7.44334 147.087 7.91267 147.087 8.514C147.087 8.93934 147.219 9.284 147.483 9.548C147.761 9.79734 148.253 10.0393 148.957 10.274L150.695 10.846C151.589 11.1393 152.242 11.528 152.653 12.012C153.078 12.496 153.291 13.112 153.291 13.86C153.291 14.9453 152.924 15.7813 152.191 16.368C151.457 16.9547 150.423 17.248 149.089 17.248C147.857 17.248 146.749 17.0207 145.767 16.566L145.591 15.466Z" fill="#013D5B"/>
<path d="M136.094 16.918V9.284C136.094 7.48 135.178 6.578 133.344 6.578C132.86 6.578 132.325 6.65867 131.738 6.82C131.166 6.98134 130.602 7.20134 130.044 7.48V16.918H128.724V5.918L129.846 5.808L129.934 6.578C131.21 5.874 132.457 5.522 133.674 5.522C134.862 5.522 135.779 5.83 136.424 6.446C137.084 7.062 137.414 7.93467 137.414 9.064V16.918H136.094Z" fill="#013D5B"/>
<path d="M125.297 16.522C124.285 17.006 123.2 17.248 122.041 17.248C120.355 17.248 119.057 16.7493 118.147 15.752C117.238 14.7547 116.783 13.3247 116.783 11.462C116.783 9.614 117.209 8.162 118.059 7.106C118.91 6.05 120.076 5.522 121.557 5.522C122.863 5.522 123.889 5.93267 124.637 6.754C125.4 7.56067 125.781 8.668 125.781 10.076C125.781 10.604 125.737 11.11 125.649 11.594H118.081C118.096 14.6593 119.453 16.192 122.151 16.192C123.237 16.192 124.285 15.9573 125.297 15.488V16.522ZM121.535 6.556C120.538 6.556 119.724 6.92267 119.093 7.656C118.463 8.38934 118.125 9.372 118.081 10.604H124.505C124.535 10.3693 124.549 10.164 124.549 9.988C124.549 8.90267 124.285 8.05934 123.757 7.458C123.229 6.85667 122.489 6.556 121.535 6.556Z" fill="#013D5B"/>
<path d="M105.285 21.824V5.918L106.407 5.808L106.495 6.578C107.741 5.874 108.885 5.522 109.927 5.522C111.364 5.522 112.493 6.028 113.315 7.04C114.136 8.03733 114.547 9.42334 114.547 11.198C114.547 13.1487 114.077 14.6447 113.139 15.686C112.215 16.7273 110.873 17.248 109.113 17.248C108.203 17.248 107.367 17.1307 106.605 16.896V21.648L105.285 21.824ZM109.751 6.578C109.267 6.578 108.746 6.65867 108.189 6.82C107.631 6.98134 107.103 7.20134 106.605 7.48V15.84C107.367 16.0747 108.167 16.192 109.003 16.192C110.411 16.192 111.452 15.7887 112.127 14.982C112.816 14.1607 113.161 12.9067 113.161 11.22C113.161 9.70933 112.867 8.558 112.281 7.766C111.709 6.974 110.865 6.578 109.751 6.578Z" fill="#013D5B"/>
<path d="M97.475 17.248C95.8763 17.248 94.6663 16.7567 93.845 15.774C93.0383 14.7767 92.635 13.31 92.635 11.374C92.635 9.45267 93.0383 8.00067 93.845 7.018C94.6663 6.02067 95.8763 5.522 97.475 5.522C99.0737 5.522 100.276 6.02067 101.083 7.018C101.904 8.00067 102.315 9.45267 102.315 11.374C102.315 13.31 101.904 14.7767 101.083 15.774C100.276 16.7567 99.0737 17.248 97.475 17.248ZM97.475 16.192C98.6777 16.192 99.5503 15.8107 100.093 15.048C100.65 14.2707 100.929 13.046 100.929 11.374C100.929 9.71667 100.65 8.50667 100.093 7.744C99.5503 6.96667 98.6777 6.578 97.475 6.578C96.2723 6.578 95.3923 6.96667 94.835 7.744C94.2923 8.50667 94.021 9.71667 94.021 11.374C94.021 13.046 94.2923 14.2707 94.835 15.048C95.3923 15.8107 96.2723 16.192 97.475 16.192Z" fill="#013D5B"/>
<path d="M84.4342 16.522C83.4222 17.006 82.3368 17.248 81.1782 17.248C79.4915 17.248 78.1935 16.7493 77.2842 15.752C76.3748 14.7547 75.9202 13.3247 75.9202 11.462C75.9202 9.614 76.3455 8.162 77.1962 7.106C78.0468 6.05 79.2128 5.522 80.6942 5.522C81.9995 5.522 83.0262 5.93267 83.7742 6.754C84.5368 7.56067 84.9182 8.668 84.9182 10.076C84.9182 10.604 84.8742 11.11 84.7862 11.594H77.2182C77.2328 14.6593 78.5895 16.192 81.2882 16.192C82.3735 16.192 83.4222 15.9573 84.4342 15.488V16.522ZM80.6722 6.556C79.6748 6.556 78.8608 6.92267 78.2302 7.656C77.5995 8.38934 77.2622 9.372 77.2182 10.604H83.6422C83.6715 10.3693 83.6862 10.164 83.6862 9.988C83.6862 8.90267 83.4222 8.05934 82.8942 7.458C82.3662 6.85667 81.6255 6.556 80.6722 6.556Z" fill="#013D5B"/>
<path d="M69.2985 16.918V5.91801L70.4205 5.80801L70.5305 6.79802C71.5131 5.99135 72.5618 5.58801 73.6765 5.58801C74.0725 5.58801 74.3878 5.63201 74.6225 5.72001V6.79802C74.2411 6.71002 73.9038 6.66602 73.6105 6.66602C72.5691 6.66602 71.5718 7.04001 70.6185 7.78801V16.918H69.2985Z" fill="#013D5B"/>
<path d="M64.6448 16.962L64.5568 16.192C63.2955 16.896 62.0488 17.248 60.8168 17.248C59.6875 17.248 58.7928 16.9547 58.1328 16.368C57.4728 15.7667 57.1428 14.9453 57.1428 13.904C57.1428 12.804 57.5095 11.968 58.2428 11.396C58.9908 10.8093 60.0835 10.516 61.5208 10.516C62.3862 10.516 63.3688 10.6187 64.4688 10.824V9.328C64.4688 7.49467 63.4348 6.578 61.3668 6.578C60.8242 6.578 60.2302 6.65134 59.5848 6.798C58.9395 6.94467 58.3455 7.13534 57.8028 7.37V6.336C58.3308 6.08667 58.9322 5.88867 59.6068 5.742C60.2962 5.59534 60.9488 5.522 61.5648 5.522C62.9435 5.522 63.9848 5.852 64.6888 6.512C65.4075 7.15733 65.7668 8.096 65.7668 9.328V16.852L64.6448 16.962ZM61.1248 16.192C61.6528 16.192 62.2102 16.1113 62.7968 15.95C63.3835 15.7887 63.9408 15.5687 64.4688 15.29V11.77C63.5448 11.594 62.6355 11.506 61.7408 11.506C60.6115 11.506 59.7902 11.6967 59.2768 12.078C58.7635 12.4593 58.5068 13.0607 58.5068 13.882C58.5068 15.422 59.3795 16.192 61.1248 16.192Z" fill="#013D5B"/>
<path d="M41.8213 15.466C42.9213 15.95 44.058 16.192 45.2313 16.192C47.2113 16.192 48.2013 15.422 48.2013 13.882C48.2013 13.3833 48.0546 12.98 47.7613 12.672C47.4826 12.364 47.0133 12.1073 46.3533 11.902L44.6813 11.374C43.7426 11.0807 43.0606 10.714 42.6353 10.274C42.21 9.81934 41.9973 9.24734 41.9973 8.558C41.9973 7.634 42.3566 6.90067 43.0753 6.358C43.8086 5.80067 44.7913 5.522 46.0233 5.522C47.0646 5.522 48.0546 5.72 48.9933 6.116V7.15C48.0106 6.76867 47.0426 6.578 46.0893 6.578C45.224 6.578 44.542 6.754 44.0433 7.106C43.5593 7.44334 43.3173 7.91267 43.3173 8.514C43.3173 8.93934 43.4493 9.284 43.7133 9.548C43.992 9.79734 44.4833 10.0393 45.1873 10.274L46.9253 10.846C47.82 11.1393 48.4726 11.528 48.8833 12.012C49.3086 12.496 49.5213 13.112 49.5213 13.86C49.5213 14.9453 49.1546 15.7813 48.4213 16.368C47.688 16.9547 46.654 17.248 45.3193 17.248C44.0873 17.248 42.98 17.0207 41.9973 16.566L41.8213 15.466Z" fill="#013D5B"/>
<path d="M39.2525 16.522C38.2405 17.006 37.1552 17.248 35.9965 17.248C34.3099 17.248 33.0119 16.7493 32.1025 15.752C31.1932 14.7547 30.7385 13.3247 30.7385 11.462C30.7385 9.61399 31.1639 8.16199 32.0145 7.106C32.8652 6.05 34.0312 5.522 35.5125 5.522C36.8179 5.522 37.8445 5.93266 38.5925 6.75399C39.3552 7.56066 39.7365 8.668 39.7365 10.076C39.7365 10.604 39.6925 11.11 39.6045 11.594H32.0365C32.0512 14.6593 33.4079 16.192 36.1065 16.192C37.1919 16.192 38.2405 15.9573 39.2525 15.488V16.522ZM35.4905 6.556C34.4932 6.556 33.6792 6.92266 33.0485 7.65599C32.4179 8.38933 32.0805 9.372 32.0365 10.604H38.4605C38.4899 10.3693 38.5045 10.164 38.5045 9.988C38.5045 8.90266 38.2405 8.05933 37.7125 7.458C37.1845 6.85666 36.4439 6.556 35.4905 6.556ZM34.2585 4.02599L36.7005 1.01199H38.3725L35.4465 4.02599H34.2585Z" fill="#013D5B"/>
<path d="M24.9404 16.918V6.864H23.2684V5.918L24.9404 5.852V3.366C24.9404 2.28066 25.2044 1.452 25.7324 0.879997C26.2751 0.29333 27.0598 0 28.0864 0C28.6438 0 29.2084 0.102665 29.7804 0.307999V1.276C29.2524 1.11466 28.7464 1.034 28.2624 1.034C27.5731 1.034 27.0671 1.21733 26.7444 1.584C26.4218 1.936 26.2604 2.49333 26.2604 3.256V5.852H29.2304V6.864H26.2604V16.918H24.9404Z" fill="#013D5B"/>
<path d="M19.9788 16.962L19.8908 16.192C18.6295 16.896 17.3828 17.248 16.1508 17.248C15.0215 17.248 14.1268 16.9547 13.4668 16.368C12.8068 15.7667 12.4768 14.9453 12.4768 13.904C12.4768 12.804 12.8435 11.968 13.5768 11.396C14.3248 10.8093 15.4175 10.516 16.8548 10.516C17.7201 10.516 18.7028 10.6187 19.8028 10.824V9.328C19.8028 7.49467 18.7688 6.578 16.7008 6.578C16.1581 6.578 15.5641 6.65134 14.9188 6.798C14.2735 6.94467 13.6795 7.13534 13.1368 7.37V6.336C13.6648 6.08667 14.2661 5.88867 14.9408 5.742C15.6301 5.59534 16.2828 5.522 16.8988 5.522C18.2775 5.522 19.3188 5.852 20.0228 6.512C20.7415 7.15733 21.1008 8.096 21.1008 9.328V16.852L19.9788 16.962ZM16.4588 16.192C16.9868 16.192 17.5441 16.1113 18.1308 15.95C18.7175 15.7887 19.2748 15.5687 19.8028 15.29V11.77C18.8788 11.594 17.9695 11.506 17.0748 11.506C15.9455 11.506 15.1241 11.6967 14.6108 12.078C14.0975 12.4593 13.8408 13.0607 13.8408 13.882C13.8408 15.422 14.7135 16.192 16.4588 16.192Z" fill="#013D5B"/>
<path d="M10.186 16.302C8.92467 16.9327 7.60467 17.248 6.226 17.248C4.27533 17.248 2.75 16.544 1.65 15.136C0.55 13.7133 0 11.7407 0 9.21799C0 6.69532 0.55 4.72999 1.65 3.32199C2.75 1.89932 4.27533 1.18799 6.226 1.18799C7.56067 1.18799 8.85867 1.50332 10.12 2.13399V3.25599C9.44533 2.93332 8.81467 2.69865 8.228 2.55199C7.64133 2.40532 7.03267 2.33199 6.402 2.33199C4.774 2.33199 3.542 2.91865 2.706 4.09199C1.88467 5.25065 1.474 6.95932 1.474 9.21799C1.474 11.4767 1.88467 13.1927 2.706 14.366C3.542 15.5247 4.774 16.104 6.402 16.104C7.64867 16.104 8.91 15.796 10.186 15.18V16.302Z" fill="#013D5B"/>
</svg>
