<svg width="160" height="22" viewBox="0 0 160 22" fill="none" xmlns="http://www.w3.org/2000/svg">
<path d="M159.3 16.302C158.288 16.786 157.203 17.028 156.044 17.028C154.358 17.028 153.06 16.5293 152.15 15.532C151.241 14.5347 150.786 13.1047 150.786 11.242C150.786 9.394 151.212 7.942 152.062 6.886C152.913 5.83 154.079 5.302 155.56 5.302C156.866 5.302 157.892 5.71267 158.64 6.534C159.403 7.34067 159.784 8.448 159.784 9.856C159.784 10.384 159.74 10.89 159.652 11.374H152.084C152.099 14.4393 153.456 15.972 156.154 15.972C157.24 15.972 158.288 15.7373 159.3 15.268V16.302ZM155.538 6.336C154.541 6.336 153.727 6.70267 153.096 7.436C152.466 8.16933 152.128 9.152 152.084 10.384H158.508C158.538 10.1493 158.552 9.944 158.552 9.768C158.552 8.68267 158.288 7.83933 157.76 7.238C157.232 6.63667 156.492 6.336 155.538 6.336Z" fill="#013D5B"/>
<path d="M146.658 16.698V9.064C146.658 7.26 145.741 6.358 143.908 6.358C143.424 6.358 142.889 6.43867 142.302 6.6C141.73 6.76133 141.165 6.98133 140.608 7.26V16.698H139.288V5.698L140.41 5.588L140.498 6.358C141.774 5.654 143.021 5.302 144.238 5.302C145.426 5.302 146.343 5.61 146.988 6.226C147.648 6.842 147.978 7.71467 147.978 8.844V16.698H146.658Z" fill="#013D5B"/>
<path d="M129.777 15.906C133.004 15.906 134.617 13.6033 134.617 8.99799C134.617 4.39265 133.004 2.08999 129.777 2.08999C126.551 2.08999 124.937 4.39265 124.937 8.99799C124.937 13.6033 126.551 15.906 129.777 15.906ZM129.777 17.028C127.753 17.028 126.199 16.3313 125.113 14.938C124.028 13.5447 123.485 11.5647 123.485 8.99799C123.485 6.43132 124.028 4.45132 125.113 3.05799C126.199 1.66465 127.753 0.967987 129.777 0.967987C131.801 0.967987 133.356 1.66465 134.441 3.05799C135.527 4.45132 136.069 6.43132 136.069 8.99799C136.069 11.5647 135.527 13.5447 134.441 14.938C133.356 16.3313 131.801 17.028 129.777 17.028Z" fill="#013D5B"/>
<path d="M113.464 16.698V0.176L114.784 0V16.698H113.464Z" fill="#013D5B"/>
<path d="M108.81 16.742L108.722 15.972C107.461 16.676 106.214 17.028 104.982 17.028C103.853 17.028 102.958 16.7347 102.298 16.148C101.638 15.5467 101.308 14.7253 101.308 13.684C101.308 12.584 101.675 11.748 102.408 11.176C103.156 10.5893 104.249 10.296 105.686 10.296C106.551 10.296 107.534 10.3987 108.634 10.604V9.108C108.634 7.27467 107.6 6.358 105.532 6.358C104.989 6.358 104.395 6.43133 103.75 6.578C103.105 6.72467 102.511 6.91533 101.968 7.15V6.116C102.496 5.86667 103.097 5.66867 103.772 5.522C104.461 5.37533 105.114 5.302 105.73 5.302C107.109 5.302 108.15 5.632 108.854 6.292C109.573 6.93734 109.932 7.876 109.932 9.108V16.632L108.81 16.742ZM105.29 15.972C105.818 15.972 106.375 15.8913 106.962 15.73C107.549 15.5687 108.106 15.3487 108.634 15.07V11.55C107.71 11.374 106.801 11.286 105.906 11.286C104.777 11.286 103.955 11.4767 103.442 11.858C102.929 12.2393 102.672 12.8407 102.672 13.662C102.672 15.202 103.545 15.972 105.29 15.972Z" fill="#013D5B"/>
<path d="M96.2713 6.644V13.684C96.2713 14.4467 96.4326 15.0113 96.7553 15.378C97.078 15.73 97.5766 15.906 98.2513 15.906C98.6913 15.906 99.19 15.8253 99.7473 15.664V16.632C99.1313 16.8373 98.5666 16.94 98.0533 16.94C97.0413 16.94 96.2713 16.6687 95.7433 16.126C95.2153 15.5687 94.9513 14.7473 94.9513 13.662V6.644H93.2793V5.698L94.9953 5.632L95.1273 2.86L96.2713 2.728V5.632H99.5933V6.644H96.2713Z" fill="#013D5B"/>
<path d="M89.6374 16.698V5.74199L90.9574 5.56599V16.698H89.6374ZM90.2974 2.94799C90.004 2.94799 89.762 2.85999 89.5714 2.68399C89.3954 2.50799 89.3074 2.26599 89.3074 1.95799C89.3074 1.64999 89.3954 1.40799 89.5714 1.23199C89.762 1.05599 90.004 0.967987 90.2974 0.967987C90.5907 0.967987 90.8254 1.05599 91.0014 1.23199C91.192 1.40799 91.2874 1.64999 91.2874 1.95799C91.2874 2.26599 91.192 2.50799 91.0014 2.68399C90.8254 2.85999 90.5907 2.94799 90.2974 2.94799Z" fill="#013D5B"/>
<path d="M77.4128 21.604V5.698L78.5348 5.588L78.6228 6.358C79.8695 5.654 81.0135 5.302 82.0548 5.302C83.4922 5.302 84.6215 5.808 85.4428 6.82C86.2642 7.81734 86.6748 9.20333 86.6748 10.978C86.6748 12.9287 86.2055 14.4247 85.2668 15.466C84.3428 16.5073 83.0008 17.028 81.2408 17.028C80.3315 17.028 79.4955 16.9107 78.7328 16.676V21.428L77.4128 21.604ZM81.8788 6.358C81.3948 6.358 80.8742 6.43867 80.3168 6.6C79.7595 6.76133 79.2315 6.98133 78.7328 7.26V15.62C79.4955 15.8547 80.2948 15.972 81.1308 15.972C82.5388 15.972 83.5802 15.5687 84.2548 14.762C84.9442 13.9407 85.2888 12.6867 85.2888 11C85.2888 9.48934 84.9955 8.338 84.4088 7.546C83.8368 6.754 82.9935 6.358 81.8788 6.358Z" fill="#013D5B"/>
<path d="M72.7591 16.742L72.6711 15.972C71.4097 16.676 70.1631 17.028 68.9311 17.028C67.8017 17.028 66.9071 16.7347 66.2471 16.148C65.5871 15.5467 65.2571 14.7253 65.2571 13.684C65.2571 12.584 65.6237 11.748 66.3571 11.176C67.1051 10.5893 68.1977 10.296 69.6351 10.296C70.5004 10.296 71.4831 10.3987 72.5831 10.604V9.108C72.5831 7.27467 71.5491 6.358 69.4811 6.358C68.9384 6.358 68.3444 6.43133 67.6991 6.578C67.0537 6.72467 66.4597 6.91533 65.9171 7.15V6.116C66.4451 5.86667 67.0464 5.66867 67.7211 5.522C68.4104 5.37533 69.0631 5.302 69.6791 5.302C71.0577 5.302 72.0991 5.632 72.8031 6.292C73.5217 6.93734 73.8811 7.876 73.8811 9.108V16.632L72.7591 16.742ZM69.2391 15.972C69.7671 15.972 70.3244 15.8913 70.9111 15.73C71.4977 15.5687 72.0551 15.3487 72.5831 15.07V11.55C71.6591 11.374 70.7497 11.286 69.8551 11.286C68.7257 11.286 67.9044 11.4767 67.3911 11.858C66.8777 12.2393 66.6211 12.8407 66.6211 13.662C66.6211 15.202 67.4937 15.972 69.2391 15.972Z" fill="#013D5B"/>
<path d="M62.9664 16.082C61.7051 16.7127 60.3851 17.028 59.0064 17.028C57.0557 17.028 55.5304 16.324 54.4304 14.916C53.3304 13.4933 52.7804 11.5207 52.7804 8.99799C52.7804 6.47532 53.3304 4.50999 54.4304 3.10199C55.5304 1.67932 57.0557 0.967987 59.0064 0.967987C60.3411 0.967987 61.6391 1.28332 62.9004 1.91399V3.03599C62.2257 2.71332 61.5951 2.47865 61.0084 2.33199C60.4217 2.18532 59.8131 2.11199 59.1824 2.11199C57.5544 2.11199 56.3224 2.69865 55.4864 3.87199C54.6651 5.03065 54.2544 6.73932 54.2544 8.99799C54.2544 11.2567 54.6651 12.9727 55.4864 14.146C56.3224 15.3047 57.5544 15.884 59.1824 15.884C60.4291 15.884 61.6904 15.576 62.9664 14.96V16.082Z" fill="#013D5B"/>
<path d="M42.0018 6.644V13.684C42.0018 14.4467 42.1631 15.0113 42.4858 15.378C42.8084 15.73 43.3071 15.906 43.9818 15.906C44.4218 15.906 44.9204 15.8253 45.4778 15.664V16.632C44.8618 16.8373 44.2971 16.94 43.7838 16.94C42.7718 16.94 42.0018 16.6687 41.4738 16.126C40.9458 15.5687 40.6818 14.7473 40.6818 13.662V6.644H39.0098V5.698L40.7258 5.632L40.8578 2.86L42.0018 2.728V5.632H45.3238V6.644H42.0018Z" fill="#013D5B"/>
<path d="M29.8263 15.246C30.9263 15.73 32.063 15.972 33.2363 15.972C35.2163 15.972 36.2063 15.202 36.2063 13.662C36.2063 13.1633 36.0596 12.76 35.7663 12.452C35.4876 12.144 35.0183 11.8873 34.3583 11.682L32.6863 11.154C31.7476 10.8607 31.0656 10.494 30.6403 10.054C30.215 9.59933 30.0023 9.02733 30.0023 8.338C30.0023 7.414 30.3616 6.68067 31.0803 6.138C31.8136 5.58067 32.7963 5.302 34.0283 5.302C35.0696 5.302 36.0596 5.5 36.9983 5.896V6.93C36.0156 6.54867 35.0476 6.358 34.0943 6.358C33.229 6.358 32.547 6.534 32.0483 6.886C31.5643 7.22333 31.3223 7.69267 31.3223 8.294C31.3223 8.71934 31.4543 9.064 31.7183 9.328C31.997 9.57734 32.4883 9.81933 33.1923 10.054L34.9303 10.626C35.825 10.9193 36.4776 11.308 36.8883 11.792C37.3136 12.276 37.5263 12.892 37.5263 13.64C37.5263 14.7253 37.1596 15.5613 36.4263 16.148C35.693 16.7347 34.659 17.028 33.3243 17.028C32.0923 17.028 30.985 16.8007 30.0023 16.346L29.8263 15.246Z" fill="#013D5B"/>
<path d="M22.8744 17.028C21.2758 17.028 20.0658 16.5367 19.2444 15.554C18.4378 14.5567 18.0344 13.09 18.0344 11.154C18.0344 9.23267 18.4378 7.78067 19.2444 6.798C20.0658 5.80067 21.2758 5.302 22.8744 5.302C24.4731 5.302 25.6758 5.80067 26.4824 6.798C27.3038 7.78067 27.7144 9.23267 27.7144 11.154C27.7144 13.09 27.3038 14.5567 26.4824 15.554C25.6758 16.5367 24.4731 17.028 22.8744 17.028ZM22.8744 15.972C24.0771 15.972 24.9498 15.5907 25.4924 14.828C26.0498 14.0507 26.3284 12.826 26.3284 11.154C26.3284 9.49667 26.0498 8.28667 25.4924 7.524C24.9498 6.74667 24.0771 6.358 22.8744 6.358C21.6718 6.358 20.7918 6.74667 20.2344 7.524C19.6918 8.28667 19.4204 9.49667 19.4204 11.154C19.4204 12.826 19.6918 14.0507 20.2344 14.828C20.7918 15.5907 21.6718 15.972 22.8744 15.972Z" fill="#013D5B"/>
<path d="M13.926 16.698L13.09 3.146L8.272 15.356H6.996L2.134 3.124L1.32 16.698H0L1.078 1.298H2.684L7.612 13.794L12.584 1.298H14.19L15.268 16.698H13.926Z" fill="#013D5B"/>
</svg>
