<svg width="318" height="23" viewBox="0 0 318 23" fill="none" xmlns="http://www.w3.org/2000/svg">
<path d="M309.917 15.939C311.067 16.445 312.256 16.698 313.482 16.698C315.552 16.698 316.587 15.893 316.587 14.283C316.587 13.7617 316.434 13.34 316.127 13.018C315.836 12.696 315.345 12.4277 314.655 12.213L312.907 11.661C311.926 11.3543 311.213 10.971 310.768 10.511C310.324 10.0357 310.101 9.43767 310.101 8.717C310.101 7.751 310.477 6.98433 311.228 6.417C311.995 5.83433 313.022 5.543 314.31 5.543C315.399 5.543 316.434 5.75 317.415 6.164V7.245C316.388 6.84633 315.376 6.647 314.379 6.647C313.475 6.647 312.762 6.831 312.24 7.199C311.734 7.55167 311.481 8.04234 311.481 8.671C311.481 9.11567 311.619 9.476 311.895 9.752C312.187 10.0127 312.7 10.2657 313.436 10.511L315.253 11.109C316.189 11.4157 316.871 11.822 317.3 12.328C317.745 12.834 317.967 13.478 317.967 14.26C317.967 15.3947 317.584 16.2687 316.817 16.882C316.051 17.4953 314.97 17.802 313.574 17.802C312.286 17.802 311.129 17.5643 310.101 17.089L309.917 15.939Z" fill="#013D5B"/>
<path d="M304.79 6.946V14.306C304.79 15.1033 304.959 15.6937 305.296 16.077C305.633 16.445 306.155 16.629 306.86 16.629C307.32 16.629 307.841 16.5447 308.424 16.376V17.388C307.78 17.6027 307.19 17.71 306.653 17.71C305.595 17.71 304.79 17.4263 304.238 16.859C303.686 16.2763 303.41 15.4177 303.41 14.283V6.946H301.662V5.957L303.456 5.888L303.594 2.99L304.79 2.852V5.888H308.263V6.946H304.79Z" fill="#013D5B"/>
<path d="M298.013 17.457V9.476C298.013 7.59 297.054 6.647 295.138 6.647C294.632 6.647 294.072 6.73133 293.459 6.9C292.861 7.06867 292.27 7.29867 291.688 7.59V17.457H290.308V5.957L291.481 5.842L291.573 6.647C292.907 5.911 294.21 5.543 295.483 5.543C296.725 5.543 297.683 5.865 298.358 6.509C299.048 7.153 299.393 8.06533 299.393 9.246V17.457H298.013Z" fill="#013D5B"/>
<path d="M278.836 5.888V13.869C278.836 15.755 279.764 16.698 281.619 16.698C282.125 16.698 282.677 16.6137 283.275 16.445C283.889 16.2763 284.487 16.0463 285.069 15.755V5.888H286.449V17.388L285.276 17.503L285.184 16.698C283.85 17.434 282.547 17.802 281.274 17.802C280.063 17.802 279.12 17.48 278.445 16.836C277.786 16.1767 277.456 15.2643 277.456 14.099V5.888H278.836Z" fill="#013D5B"/>
<path d="M269.452 17.802C267.781 17.802 266.516 17.2883 265.657 16.261C264.814 15.2183 264.392 13.685 264.392 11.661C264.392 9.65233 264.814 8.13433 265.657 7.107C266.516 6.06433 267.781 5.543 269.452 5.543C271.124 5.543 272.381 6.06433 273.224 7.107C274.083 8.13433 274.512 9.65233 274.512 11.661C274.512 13.685 274.083 15.2183 273.224 16.261C272.381 17.2883 271.124 17.802 269.452 17.802ZM269.452 16.698C270.71 16.698 271.622 16.2993 272.189 15.502C272.772 14.6893 273.063 13.409 273.063 11.661C273.063 9.92833 272.772 8.66333 272.189 7.866C271.622 7.05333 270.71 6.647 269.452 6.647C268.195 6.647 267.275 7.05333 266.692 7.866C266.125 8.66333 265.841 9.92833 265.841 11.661C265.841 13.409 266.125 14.6893 266.692 15.502C267.275 16.2993 268.195 16.698 269.452 16.698Z" fill="#013D5B"/>
<path d="M262.41 17.043C261.398 17.549 260.294 17.802 259.098 17.802C257.473 17.802 256.216 17.273 255.326 16.215C254.452 15.157 254.015 13.6467 254.015 11.684C254.015 9.72134 254.452 8.211 255.326 7.153C256.216 6.07967 257.473 5.543 259.098 5.543C260.248 5.543 261.337 5.796 262.364 6.302V7.383C261.291 6.90767 260.248 6.67 259.236 6.67C257.994 6.67 257.051 7.09167 256.407 7.935C255.779 8.77833 255.464 10.028 255.464 11.684C255.464 13.3247 255.779 14.5667 256.407 15.41C257.051 16.2533 257.994 16.675 259.236 16.675C260.279 16.675 261.337 16.4373 262.41 15.962V17.043Z" fill="#013D5B"/>
<path d="M252.033 17.043C251.021 17.549 249.917 17.802 248.721 17.802C247.096 17.802 245.839 17.273 244.949 16.215C244.075 15.157 243.638 13.6467 243.638 11.684C243.638 9.72134 244.075 8.211 244.949 7.153C245.839 6.07967 247.096 5.543 248.721 5.543C249.871 5.543 250.96 5.796 251.987 6.302V7.383C250.914 6.90767 249.871 6.67 248.859 6.67C247.617 6.67 246.674 7.09167 246.03 7.935C245.402 8.77833 245.087 10.028 245.087 11.684C245.087 13.3247 245.402 14.5667 246.03 15.41C246.674 16.2533 247.617 16.675 248.859 16.675C249.902 16.675 250.96 16.4373 252.033 15.962V17.043Z" fill="#013D5B"/>
<path d="M239.532 17.503L239.44 16.698C238.122 17.434 236.818 17.802 235.53 17.802C234.35 17.802 233.414 17.4953 232.724 16.882C232.034 16.2533 231.689 15.3947 231.689 14.306C231.689 13.156 232.073 12.282 232.839 11.684C233.621 11.0707 234.764 10.764 236.266 10.764C237.171 10.764 238.198 10.8713 239.348 11.086V9.522C239.348 7.60533 238.267 6.647 236.105 6.647C235.538 6.647 234.917 6.72367 234.242 6.877C233.568 7.03033 232.947 7.22967 232.379 7.475V6.394C232.931 6.13333 233.56 5.92633 234.265 5.773C234.986 5.61967 235.668 5.543 236.312 5.543C237.754 5.543 238.842 5.888 239.578 6.578C240.33 7.25267 240.705 8.234 240.705 9.522V17.388L239.532 17.503ZM235.852 16.698C236.404 16.698 236.987 16.6137 237.6 16.445C238.214 16.2763 238.796 16.0463 239.348 15.755V12.075C238.382 11.891 237.432 11.799 236.496 11.799C235.316 11.799 234.457 11.9983 233.92 12.397C233.384 12.7957 233.115 13.4243 233.115 14.283C233.115 15.893 234.028 16.698 235.852 16.698Z" fill="#013D5B"/>
<path d="M217.69 22.816C216.325 22.816 215.168 22.5783 214.217 22.103L214.033 20.93C215.29 21.4513 216.486 21.712 217.621 21.712C220.182 21.712 221.462 20.5237 221.462 18.147V16.56C220.879 16.882 220.281 17.135 219.668 17.319C219.07 17.503 218.51 17.595 217.989 17.595C216.486 17.595 215.306 17.089 214.447 16.077C213.588 15.065 213.159 13.662 213.159 11.868C213.159 9.82867 213.642 8.26467 214.608 7.176C215.589 6.08733 217 5.543 218.84 5.543C220.235 5.543 221.569 5.78833 222.842 6.279V18.032C222.842 19.5653 222.397 20.746 221.508 21.574C220.619 22.402 219.346 22.816 217.69 22.816ZM218.173 16.491C218.679 16.491 219.223 16.4067 219.806 16.238C220.389 16.0693 220.941 15.8393 221.462 15.548V7.015C220.665 6.76967 219.829 6.647 218.955 6.647C217.483 6.647 216.387 7.07633 215.666 7.935C214.961 8.77833 214.608 10.0817 214.608 11.845C214.608 13.363 214.907 14.5207 215.505 15.318C216.118 16.1 217.008 16.491 218.173 16.491Z" fill="#013D5B"/>
<path d="M208.843 17.457V9.476C208.843 7.59 207.884 6.647 205.968 6.647C205.462 6.647 204.902 6.73133 204.289 6.9C203.691 7.06867 203.1 7.29867 202.518 7.59V17.457H201.138V5.957L202.311 5.842L202.403 6.647C203.737 5.911 205.04 5.543 206.313 5.543C207.555 5.543 208.513 5.865 209.188 6.509C209.878 7.153 210.223 8.06533 210.223 9.246V17.457H208.843Z" fill="#013D5B"/>
<path d="M195.904 17.457V6.003L197.284 5.819V17.457H195.904ZM196.594 3.082C196.288 3.082 196.035 2.99 195.835 2.806C195.651 2.622 195.559 2.369 195.559 2.047C195.559 1.725 195.651 1.472 195.835 1.288C196.035 1.104 196.288 1.012 196.594 1.012C196.901 1.012 197.146 1.104 197.33 1.288C197.53 1.472 197.629 1.725 197.629 2.047C197.629 2.369 197.53 2.622 197.33 2.806C197.146 2.99 196.901 3.082 196.594 3.082Z" fill="#013D5B"/>
<path d="M185.325 17.457V0.184L186.705 0V11.017L192.133 5.888H193.766L188.085 11.27L193.95 17.457H192.202L186.705 11.615V17.457H185.325Z" fill="#013D5B"/>
<path d="M182.36 17.043C181.348 17.549 180.244 17.802 179.048 17.802C177.422 17.802 176.165 17.273 175.276 16.215C174.402 15.157 173.965 13.6467 173.965 11.684C173.965 9.72134 174.402 8.211 175.276 7.153C176.165 6.07967 177.422 5.543 179.048 5.543C180.198 5.543 181.286 5.796 182.314 6.302V7.383C181.24 6.90767 180.198 6.67 179.186 6.67C177.944 6.67 177.001 7.09167 176.357 7.935C175.728 8.77833 175.414 10.028 175.414 11.684C175.414 13.3247 175.728 14.5667 176.357 15.41C177.001 16.2533 177.944 16.675 179.186 16.675C180.228 16.675 181.286 16.4373 182.36 15.962V17.043Z" fill="#013D5B"/>
<path d="M171.141 17.043C170.083 17.549 168.948 17.802 167.737 17.802C165.974 17.802 164.617 17.2807 163.666 16.238C162.715 15.1953 162.24 13.7003 162.24 11.753C162.24 9.821 162.685 8.303 163.574 7.199C164.463 6.095 165.682 5.543 167.231 5.543C168.596 5.543 169.669 5.97233 170.451 6.831C171.248 7.67433 171.647 8.832 171.647 10.304C171.647 10.856 171.601 11.385 171.509 11.891H163.597C163.612 15.0957 165.031 16.698 167.852 16.698C168.987 16.698 170.083 16.4527 171.141 15.962V17.043ZM167.208 6.624C166.165 6.624 165.314 7.00733 164.655 7.774C163.996 8.54067 163.643 9.568 163.597 10.856H170.313C170.344 10.6107 170.359 10.396 170.359 10.212C170.359 9.07734 170.083 8.19567 169.531 7.567C168.979 6.93833 168.205 6.624 167.208 6.624Z" fill="#013D5B"/>
<path d="M150.219 17.457V0.184L151.599 0V6.601C152.887 5.89567 154.152 5.543 155.394 5.543C156.636 5.543 157.594 5.865 158.269 6.509C158.959 7.153 159.304 8.06533 159.304 9.246V17.457H157.924V9.476C157.924 7.59 156.965 6.647 155.049 6.647C154.543 6.647 153.983 6.73133 153.37 6.9C152.772 7.06867 152.181 7.29867 151.599 7.59V17.457H150.219Z" fill="#013D5B"/>
<path d="M147.253 17.043C146.241 17.549 145.137 17.802 143.941 17.802C142.316 17.802 141.059 17.273 140.169 16.215C139.295 15.157 138.858 13.6467 138.858 11.684C138.858 9.72134 139.295 8.211 140.169 7.153C141.059 6.07967 142.316 5.543 143.941 5.543C145.091 5.543 146.18 5.796 147.207 6.302V7.383C146.134 6.90767 145.091 6.67 144.079 6.67C142.837 6.67 141.894 7.09167 141.25 7.935C140.622 8.77833 140.307 10.028 140.307 11.684C140.307 13.3247 140.622 14.5667 141.25 15.41C141.894 16.2533 142.837 16.675 144.079 16.675C145.122 16.675 146.18 16.4373 147.253 15.962V17.043Z" fill="#013D5B"/>
<path d="M128.792 17.457V9.476C128.792 7.59 127.834 6.647 125.917 6.647C125.411 6.647 124.851 6.73133 124.238 6.9C123.64 7.06867 123.05 7.29867 122.467 7.59V17.457H121.087V5.957L122.26 5.842L122.352 6.647C123.686 5.911 124.989 5.543 126.262 5.543C127.504 5.543 128.462 5.865 129.137 6.509C129.827 7.153 130.172 8.06533 130.172 9.246V17.457H128.792Z" fill="#013D5B"/>
<path d="M112.922 17.802C111.251 17.802 109.986 17.2883 109.127 16.261C108.284 15.2183 107.862 13.685 107.862 11.661C107.862 9.65233 108.284 8.13433 109.127 7.107C109.986 6.06433 111.251 5.543 112.922 5.543C114.593 5.543 115.851 6.06433 116.694 7.107C117.553 8.13433 117.982 9.65233 117.982 11.661C117.982 13.685 117.553 15.2183 116.694 16.261C115.851 17.2883 114.593 17.802 112.922 17.802ZM112.922 16.698C114.179 16.698 115.092 16.2993 115.659 15.502C116.242 14.6893 116.533 13.409 116.533 11.661C116.533 9.92833 116.242 8.66333 115.659 7.866C115.092 7.05333 114.179 6.647 112.922 6.647C111.665 6.647 110.745 7.05333 110.162 7.866C109.595 8.66333 109.311 9.92833 109.311 11.661C109.311 13.409 109.595 14.6893 110.162 15.502C110.745 16.2993 111.665 16.698 112.922 16.698Z" fill="#013D5B"/>
<path d="M91.8442 15.939C92.9942 16.445 94.1825 16.698 95.4092 16.698C97.4792 16.698 98.5142 15.893 98.5142 14.283C98.5142 13.7617 98.3609 13.34 98.0542 13.018C97.7629 12.696 97.2722 12.4277 96.5822 12.213L94.8342 11.661C93.8529 11.3543 93.1399 10.971 92.6952 10.511C92.2505 10.0357 92.0282 9.43767 92.0282 8.717C92.0282 7.751 92.4039 6.98433 93.1552 6.417C93.9219 5.83433 94.9492 5.543 96.2372 5.543C97.3259 5.543 98.3609 5.75 99.3422 6.164V7.245C98.3149 6.84633 97.3029 6.647 96.3062 6.647C95.4015 6.647 94.6885 6.831 94.1672 7.199C93.6612 7.55167 93.4082 8.04234 93.4082 8.671C93.4082 9.11567 93.5462 9.476 93.8222 9.752C94.1135 10.0127 94.6272 10.2657 95.3632 10.511L97.1802 11.109C98.1155 11.4157 98.7979 11.822 99.2272 12.328C99.6719 12.834 99.8942 13.478 99.8942 14.26C99.8942 15.3947 99.5109 16.2687 98.7442 16.882C97.9775 17.4953 96.8965 17.802 95.5012 17.802C94.2132 17.802 93.0555 17.5643 92.0282 17.089L91.8442 15.939Z" fill="#013D5B"/>
<path d="M87.6526 17.457V9.246C87.6526 7.51333 86.8323 6.647 85.1916 6.647C84.241 6.647 83.1523 6.992 81.9256 7.682C82.0483 8.096 82.1096 8.54067 82.1096 9.016V17.457H80.7296V9.246C80.7296 7.51333 79.9093 6.647 78.2686 6.647C77.3486 6.647 76.3213 6.96133 75.1866 7.59V17.457H73.8066V5.957L74.9796 5.842L75.0716 6.647C76.375 5.911 77.5556 5.543 78.6136 5.543C79.963 5.543 80.9366 5.98767 81.5346 6.877C83.022 5.98767 84.356 5.543 85.5366 5.543C86.656 5.543 87.5146 5.842 88.1126 6.44C88.726 7.038 89.0326 7.89667 89.0326 9.016V17.457H87.6526Z" fill="#013D5B"/>
<path d="M62.3352 5.888V13.869C62.3352 15.755 63.2629 16.698 65.1182 16.698C65.6242 16.698 66.1762 16.6137 66.7742 16.445C67.3875 16.2763 67.9855 16.0463 68.5682 15.755V5.888H69.9482V17.388L68.7752 17.503L68.6832 16.698C67.3492 17.434 66.0459 17.802 64.7732 17.802C63.5619 17.802 62.6189 17.48 61.9442 16.836C61.2849 16.1767 60.9552 15.2643 60.9552 14.099V5.888H62.3352Z" fill="#013D5B"/>
<path d="M56.0276 17.457V9.246C56.0276 7.51333 55.2073 6.647 53.5666 6.647C52.616 6.647 51.5273 6.992 50.3006 7.682C50.4233 8.096 50.4846 8.54067 50.4846 9.016V17.457H49.1046V9.246C49.1046 7.51333 48.2843 6.647 46.6436 6.647C45.7236 6.647 44.6963 6.96133 43.5616 7.59V17.457H42.1816V5.957L43.3546 5.842L43.4466 6.647C44.75 5.911 45.9306 5.543 46.9886 5.543C48.338 5.543 49.3116 5.98767 49.9096 6.877C51.397 5.98767 52.731 5.543 53.9116 5.543C55.031 5.543 55.8896 5.842 56.4876 6.44C57.101 7.038 57.4076 7.89667 57.4076 9.016V17.457H56.0276Z" fill="#013D5B"/>
<path d="M36.9482 17.457V6.003L38.3282 5.819V17.457H36.9482ZM37.6382 3.082C37.3316 3.082 37.0786 2.99 36.8792 2.806C36.6952 2.622 36.6032 2.369 36.6032 2.047C36.6032 1.725 36.6952 1.472 36.8792 1.288C37.0786 1.104 37.3316 1.012 37.6382 1.012C37.9449 1.012 38.1902 1.104 38.3742 1.288C38.5736 1.472 38.6732 1.725 38.6732 2.047C38.6732 2.369 38.5736 2.622 38.3742 2.806C38.1902 2.99 37.9449 3.082 37.6382 3.082Z" fill="#013D5B"/>
<path d="M31.873 17.457V9.476C31.873 7.59 30.9146 6.647 28.998 6.647C28.492 6.647 27.9323 6.73133 27.319 6.9C26.721 7.06867 26.1306 7.29867 25.548 7.59V17.457H24.168V5.957L25.341 5.842L25.433 6.647C26.767 5.911 28.0703 5.543 29.343 5.543C30.585 5.543 31.5433 5.865 32.218 6.509C32.908 7.153 33.253 8.06533 33.253 9.246V17.457H31.873Z" fill="#013D5B"/>
<path d="M18.9346 17.457V6.003L20.3146 5.819V17.457H18.9346ZM19.6246 3.082C19.3179 3.082 19.0649 2.99 18.8656 2.806C18.6816 2.622 18.5896 2.369 18.5896 2.047C18.5896 1.725 18.6816 1.472 18.8656 1.288C19.0649 1.104 19.3179 1.012 19.6246 1.012C19.9312 1.012 20.1766 1.104 20.3606 1.288C20.5599 1.472 20.6596 1.725 20.6596 2.047C20.6596 2.369 20.5599 2.622 20.3606 2.806C20.1766 2.99 19.9312 3.082 19.6246 3.082Z" fill="#013D5B"/>
<path d="M13.846 17.457V9.246C13.846 7.51333 13.0257 6.647 11.385 6.647C10.4343 6.647 9.34567 6.992 8.119 7.682C8.24167 8.096 8.303 8.54067 8.303 9.016V17.457H6.923V9.246C6.923 7.51333 6.10267 6.647 4.462 6.647C3.542 6.647 2.51467 6.96133 1.38 7.59V17.457H0V5.957L1.173 5.842L1.265 6.647C2.56833 5.911 3.749 5.543 4.807 5.543C6.15633 5.543 7.13 5.98767 7.728 6.877C9.21533 5.98767 10.5493 5.543 11.73 5.543C12.8493 5.543 13.708 5.842 14.306 6.44C14.9193 7.038 15.226 7.89667 15.226 9.016V17.457H13.846Z" fill="#013D5B"/>
</svg>
