<svg width="65" height="12" viewBox="0 0 65 12" fill="none" xmlns="http://www.w3.org/2000/svg">
<path d="M60.5221 11.535V4.035L61.2871 3.96L61.3621 4.635C62.0321 4.085 62.7471 3.81 63.5071 3.81C63.7771 3.81 63.9921 3.84 64.1521 3.9V4.635C63.8921 4.575 63.6621 4.545 63.4621 4.545C62.7521 4.545 62.0721 4.8 61.4221 5.31V11.535H60.5221Z" fill="#013D5B"/>
<path d="M55.1972 11.76C54.1072 11.76 53.2822 11.425 52.7222 10.755C52.1722 10.075 51.8972 9.07502 51.8972 7.75501C51.8972 6.44501 52.1722 5.45501 52.7222 4.78501C53.2822 4.10501 54.1072 3.76501 55.1972 3.76501C56.2872 3.76501 57.1072 4.10501 57.6572 4.78501C58.2172 5.45501 58.4972 6.44501 58.4972 7.75501C58.4972 9.07502 58.2172 10.075 57.6572 10.755C57.1072 11.425 56.2872 11.76 55.1972 11.76ZM55.1972 11.04C56.0172 11.04 56.6122 10.78 56.9822 10.26C57.3622 9.73001 57.5522 8.89501 57.5522 7.75501C57.5522 6.62501 57.3622 5.80001 56.9822 5.28001C56.6122 4.75001 56.0172 4.48501 55.1972 4.48501C54.3772 4.48501 53.7772 4.75001 53.3972 5.28001C53.0272 5.80001 52.8422 6.62501 52.8422 7.75501C52.8422 8.89501 53.0272 9.73001 53.3972 10.26C53.7772 10.78 54.3772 11.04 55.1972 11.04Z" fill="#013D5B"/>
<path d="M41.4507 10.545C42.2007 10.875 42.9757 11.04 43.7757 11.04C45.1257 11.04 45.8007 10.515 45.8007 9.46501C45.8007 9.12501 45.7007 8.85001 45.5007 8.64001C45.3107 8.43001 44.9907 8.25501 44.5407 8.11501L43.4007 7.75501C42.7607 7.55501 42.2957 7.30501 42.0057 7.00501C41.7157 6.69501 41.5707 6.30501 41.5707 5.83501C41.5707 5.20501 41.8157 4.70501 42.3057 4.33501C42.8057 3.95501 43.4757 3.76501 44.3157 3.76501C45.0257 3.76501 45.7007 3.90001 46.3407 4.17001V4.87501C45.6707 4.61501 45.0107 4.48501 44.3607 4.48501C43.7707 4.48501 43.3057 4.60501 42.9657 4.84501C42.6357 5.07501 42.4707 5.39501 42.4707 5.80501C42.4707 6.09501 42.5607 6.33001 42.7407 6.51001C42.9307 6.68001 43.2657 6.84501 43.7457 7.00501L44.9307 7.39501C45.5407 7.59501 45.9857 7.86001 46.2657 8.19001C46.5557 8.52001 46.7007 8.94001 46.7007 9.45001C46.7007 10.19 46.4507 10.76 45.9507 11.16C45.4507 11.56 44.7457 11.76 43.8357 11.76C42.9957 11.76 42.2407 11.605 41.5707 11.295L41.4507 10.545Z" fill="#013D5B"/>
<path d="M39.6993 11.265C39.0093 11.595 38.2693 11.76 37.4793 11.76C36.3293 11.76 35.4443 11.42 34.8243 10.74C34.2043 10.06 33.8943 9.08501 33.8943 7.81501C33.8943 6.55501 34.1843 5.56501 34.7643 4.84501C35.3443 4.12501 36.1393 3.76501 37.1493 3.76501C38.0393 3.76501 38.7393 4.04501 39.2493 4.60501C39.7693 5.15501 40.0293 5.91001 40.0293 6.87001C40.0293 7.23001 39.9993 7.57501 39.9393 7.90501H34.7793C34.7893 9.99501 35.7143 11.04 37.5543 11.04C38.2943 11.04 39.0093 10.88 39.6993 10.56V11.265ZM37.1343 4.47001C36.4543 4.47001 35.8993 4.72001 35.4693 5.22001C35.0393 5.72001 34.8093 6.39001 34.7793 7.23001H39.1593C39.1793 7.07001 39.1893 6.93001 39.1893 6.81001C39.1893 6.07001 39.0093 5.49501 38.6493 5.08501C38.2893 4.67501 37.7843 4.47001 37.1343 4.47001Z" fill="#013D5B"/>
<path d="M32.0528 11.265C31.3628 11.595 30.6228 11.76 29.8328 11.76C28.6828 11.76 27.7978 11.42 27.1778 10.74C26.5578 10.06 26.2478 9.08501 26.2478 7.81501C26.2478 6.55501 26.5378 5.56501 27.1178 4.84501C27.6978 4.12501 28.4928 3.76501 29.5028 3.76501C30.3928 3.76501 31.0928 4.04501 31.6028 4.60501C32.1228 5.15501 32.3828 5.91001 32.3828 6.87001C32.3828 7.23001 32.3528 7.57501 32.2928 7.90501H27.1328C27.1428 9.99501 28.0678 11.04 29.9078 11.04C30.6478 11.04 31.3628 10.88 32.0528 10.56V11.265ZM29.4878 4.47001C28.8078 4.47001 28.2528 4.72001 27.8228 5.22001C27.3928 5.72001 27.1628 6.39001 27.1328 7.23001H31.5128C31.5328 7.07001 31.5428 6.93001 31.5428 6.81001C31.5428 6.07001 31.3628 5.49501 31.0028 5.08501C30.6428 4.67501 30.1378 4.47001 29.4878 4.47001Z" fill="#013D5B"/>
<path d="M22.2946 11.535V4.68H21.1546V4.035L22.2946 3.99V2.295C22.2946 1.555 22.4746 0.99 22.8346 0.6C23.2046 0.2 23.7396 0 24.4396 0C24.8196 0 25.2046 0.0700001 25.5946 0.21V0.87C25.2346 0.76 24.8896 0.705 24.5596 0.705C24.0896 0.705 23.7446 0.83 23.5246 1.08C23.3046 1.32 23.1946 1.7 23.1946 2.22V3.99H25.2196V4.68H23.1946V11.535H22.2946Z" fill="#013D5B"/>
<path d="M13.0097 11.76C11.9197 11.76 11.0947 11.425 10.5347 10.755C9.98472 10.075 9.70972 9.07502 9.70972 7.75501C9.70972 6.44501 9.98472 5.45501 10.5347 4.78501C11.0947 4.10501 11.9197 3.76501 13.0097 3.76501C14.0997 3.76501 14.9197 4.10501 15.4697 4.78501C16.0297 5.45501 16.3097 6.44501 16.3097 7.75501C16.3097 9.07502 16.0297 10.075 15.4697 10.755C14.9197 11.425 14.0997 11.76 13.0097 11.76ZM13.0097 11.04C13.8297 11.04 14.4247 10.78 14.7947 10.26C15.1747 9.73001 15.3647 8.89501 15.3647 7.75501C15.3647 6.62501 15.1747 5.80001 14.7947 5.28001C14.4247 4.75001 13.8297 4.48501 13.0097 4.48501C12.1897 4.48501 11.5897 4.75001 11.2097 5.28001C10.8397 5.80001 10.6547 6.62501 10.6547 7.75501C10.6547 8.89501 10.8397 9.73001 11.2097 10.26C11.5897 10.78 12.1897 11.04 13.0097 11.04Z" fill="#013D5B"/>
<path d="M6.54 1.035H7.455V11.535H6.555L0.915 2.595V11.535H0V1.035H0.9L6.54 9.975V1.035Z" fill="#013D5B"/>
</svg>
