<svg width="85" height="11" viewBox="0 0 85 11" fill="none" xmlns="http://www.w3.org/2000/svg">
<path d="M83.9947 10.725V5.52002C83.9947 4.29002 83.3697 3.67502 82.1197 3.67502C81.7897 3.67502 81.4247 3.73002 81.0247 3.84002C80.6347 3.95002 80.2497 4.10002 79.8697 4.29002V10.725H78.9697V3.22502L79.7347 3.15002L79.7947 3.67502C80.6647 3.19502 81.5147 2.95502 82.3447 2.95502C83.1547 2.95502 83.7797 3.16502 84.2197 3.58502C84.6697 4.00502 84.8947 4.60002 84.8947 5.37002V10.725H83.9947Z" fill="#013D5B"/>
<path d="M73.6449 10.95C72.5549 10.95 71.7298 10.615 71.1698 9.94502C70.6198 9.26502 70.3448 8.26502 70.3448 6.94502C70.3448 5.63502 70.6198 4.64502 71.1698 3.97502C71.7298 3.29502 72.5549 2.95502 73.6449 2.95502C74.7349 2.95502 75.5549 3.29502 76.1049 3.97502C76.6649 4.64502 76.9448 5.63502 76.9448 6.94502C76.9448 8.26502 76.6649 9.26502 76.1049 9.94502C75.5549 10.615 74.7349 10.95 73.6449 10.95ZM73.6449 10.23C74.4649 10.23 75.0598 9.97002 75.4298 9.45002C75.8098 8.92002 75.9998 8.08502 75.9998 6.94502C75.9998 5.81502 75.8098 4.99002 75.4298 4.47002C75.0598 3.94002 74.4649 3.67502 73.6449 3.67502C72.8249 3.67502 72.2248 3.94002 71.8448 4.47002C71.4748 4.99002 71.2898 5.81502 71.2898 6.94502C71.2898 8.08502 71.4748 8.92002 71.8448 9.45002C72.2248 9.97002 72.8249 10.23 73.6449 10.23Z" fill="#013D5B"/>
<path d="M59.8984 9.73502C60.6484 10.065 61.4234 10.23 62.2234 10.23C63.5734 10.23 64.2484 9.70502 64.2484 8.65502C64.2484 8.31502 64.1484 8.04002 63.9484 7.83002C63.7584 7.62002 63.4384 7.44502 62.9884 7.30502L61.8484 6.94502C61.2084 6.74502 60.7434 6.49502 60.4534 6.19502C60.1634 5.88502 60.0184 5.49502 60.0184 5.02502C60.0184 4.39502 60.2634 3.89502 60.7534 3.52502C61.2534 3.14502 61.9234 2.95502 62.7634 2.95502C63.4734 2.95502 64.1484 3.09002 64.7884 3.36002V4.06502C64.1184 3.80502 63.4584 3.67502 62.8084 3.67502C62.2184 3.67502 61.7534 3.79502 61.4134 4.03502C61.0834 4.26502 60.9184 4.58502 60.9184 4.99502C60.9184 5.28502 61.0084 5.52002 61.1884 5.70002C61.3784 5.87002 61.7134 6.03502 62.1934 6.19502L63.3784 6.58502C63.9884 6.78502 64.4334 7.05002 64.7134 7.38002C65.0034 7.71002 65.1484 8.13002 65.1484 8.64002C65.1484 9.38002 64.8984 9.95002 64.3984 10.35C63.8984 10.75 63.1934 10.95 62.2834 10.95C61.4434 10.95 60.6884 10.795 60.0184 10.485L59.8984 9.73502Z" fill="#013D5B"/>
<path d="M57.1648 10.725V5.37002C57.1648 4.24002 56.6298 3.67502 55.5598 3.67502C54.9398 3.67502 54.2298 3.90002 53.4298 4.35002C53.5098 4.62002 53.5498 4.91002 53.5498 5.22002V10.725H52.6498V5.37002C52.6498 4.24002 52.1148 3.67502 51.0448 3.67502C50.4448 3.67502 49.7748 3.88002 49.0348 4.29002V10.725H48.1348V3.22502L48.8998 3.15002L48.9598 3.67502C49.8098 3.19502 50.5798 2.95502 51.2698 2.95502C52.1498 2.95502 52.7848 3.24502 53.1748 3.82502C54.1448 3.24502 55.0148 2.95502 55.7848 2.95502C56.5148 2.95502 57.0748 3.15002 57.4648 3.54002C57.8648 3.93002 58.0648 4.49002 58.0648 5.22002V10.725H57.1648Z" fill="#013D5B"/>
<path d="M40.6534 3.17999V8.38499C40.6534 9.61499 41.2584 10.23 42.4684 10.23C42.7984 10.23 43.1584 10.175 43.5484 10.065C43.9484 9.95499 44.3384 9.80499 44.7184 9.61499V3.17999H45.6184V10.68L44.8534 10.755L44.7934 10.23C43.9234 10.71 43.0734 10.95 42.2434 10.95C41.4534 10.95 40.8384 10.74 40.3984 10.32C39.9684 9.88999 39.7534 9.29499 39.7534 8.53499V3.17999H40.6534Z" fill="#013D5B"/>
<path d="M36.5398 10.725V5.37002C36.5398 4.24002 36.0048 3.67502 34.9348 3.67502C34.3148 3.67502 33.6048 3.90002 32.8048 4.35002C32.8848 4.62002 32.9248 4.91002 32.9248 5.22002V10.725H32.0248V5.37002C32.0248 4.24002 31.4898 3.67502 30.4198 3.67502C29.8198 3.67502 29.1498 3.88002 28.4098 4.29002V10.725H27.5098V3.22502L28.2748 3.15002L28.3348 3.67502C29.1848 3.19502 29.9548 2.95502 30.6448 2.95502C31.5248 2.95502 32.1598 3.24502 32.5498 3.82502C33.5198 3.24502 34.3898 2.95502 35.1598 2.95502C35.8898 2.95502 36.4498 3.15002 36.8398 3.54002C37.2398 3.93002 37.4398 4.49002 37.4398 5.22002V10.725H36.5398Z" fill="#013D5B"/>
<path d="M24.0967 10.725V3.255L24.9967 3.135V10.725H24.0967ZM24.5467 1.35C24.3467 1.35 24.1817 1.29 24.0517 1.17C23.9317 1.05 23.8717 0.884999 23.8717 0.674999C23.8717 0.464999 23.9317 0.3 24.0517 0.18C24.1817 0.0600001 24.3467 0 24.5467 0C24.7467 0 24.9067 0.0600001 25.0267 0.18C25.1567 0.3 25.2217 0.464999 25.2217 0.674999C25.2217 0.884999 25.1567 1.05 25.0267 1.17C24.9067 1.29 24.7467 1.35 24.5467 1.35Z" fill="#013D5B"/>
<path d="M20.7867 10.725V5.52002C20.7867 4.29002 20.1617 3.67502 18.9117 3.67502C18.5817 3.67502 18.2167 3.73002 17.8167 3.84002C17.4267 3.95002 17.0417 4.10002 16.6617 4.29002V10.725H15.7617V3.22502L16.5267 3.15002L16.5867 3.67502C17.4567 3.19502 18.3067 2.95502 19.1367 2.95502C19.9467 2.95502 20.5717 3.16502 21.0117 3.58502C21.4617 4.00502 21.6867 4.60002 21.6867 5.37002V10.725H20.7867Z" fill="#013D5B"/>
<path d="M12.3486 10.725V3.255L13.2486 3.135V10.725H12.3486ZM12.7986 1.35C12.5986 1.35 12.4336 1.29 12.3036 1.17C12.1836 1.05 12.1236 0.884999 12.1236 0.674999C12.1236 0.464999 12.1836 0.3 12.3036 0.18C12.4336 0.0600001 12.5986 0 12.7986 0C12.9986 0 13.1586 0.0600001 13.2786 0.18C13.4086 0.3 13.4736 0.464999 13.4736 0.674999C13.4736 0.884999 13.4086 1.05 13.2786 1.17C13.1586 1.29 12.9986 1.35 12.7986 1.35Z" fill="#013D5B"/>
<path d="M9.03 10.725V5.37002C9.03 4.24002 8.495 3.67502 7.425 3.67502C6.805 3.67502 6.095 3.90002 5.295 4.35002C5.375 4.62002 5.415 4.91002 5.415 5.22002V10.725H4.515V5.37002C4.515 4.24002 3.98 3.67502 2.91 3.67502C2.31 3.67502 1.64 3.88002 0.9 4.29002V10.725H0V3.22502L0.765 3.15002L0.825 3.67502C1.675 3.19502 2.445 2.95502 3.135 2.95502C4.015 2.95502 4.65 3.24502 5.04 3.82502C6.01 3.24502 6.88 2.95502 7.65 2.95502C8.38 2.95502 8.94 3.15002 9.33 3.54002C9.73 3.93002 9.93 4.49002 9.93 5.22002V10.725H9.03Z" fill="#013D5B"/>
</svg>
