<svg width="101" height="13" viewBox="0 0 101 13" fill="none" xmlns="http://www.w3.org/2000/svg">
<path d="M96.4606 9.08165C97.1091 9.36996 97.7792 9.51411 98.4709 9.51411C99.6382 9.51411 100.222 9.05544 100.222 8.1381C100.222 7.84106 100.135 7.6008 99.9624 7.41733C99.7981 7.23387 99.5214 7.08098 99.1323 6.95867L98.1466 6.64415C97.5933 6.46942 97.1912 6.251 96.9405 5.98891C96.6897 5.71807 96.5643 5.37735 96.5643 4.96673C96.5643 4.41633 96.7762 3.9795 97.1998 3.65625C97.6322 3.32426 98.2115 3.15826 98.9378 3.15826C99.5517 3.15826 100.135 3.27621 100.689 3.5121V4.12802C100.109 3.90087 99.5387 3.7873 98.9767 3.7873C98.4666 3.7873 98.0645 3.89214 97.7705 4.10181C97.4852 4.30275 97.3425 4.58232 97.3425 4.94052C97.3425 5.19388 97.4203 5.39919 97.576 5.55645C97.7403 5.70497 98.0299 5.84912 98.4449 5.98891L99.4695 6.32964C99.997 6.50437 100.382 6.73588 100.624 7.02419C100.875 7.3125 101 7.67943 101 8.125C101 8.7715 100.784 9.26949 100.351 9.61895C99.9192 9.96841 99.3096 10.1431 98.5228 10.1431C97.7965 10.1431 97.1436 10.0077 96.5643 9.73689L96.4606 9.08165Z" fill="#013D5B"/>
<path d="M93.5692 3.95766V8.15121C93.5692 8.60551 93.6643 8.94187 93.8545 9.16028C94.0447 9.36996 94.3387 9.4748 94.7365 9.4748C94.9958 9.4748 95.2898 9.42675 95.6184 9.33064V9.90726C95.2552 10.0296 94.9224 10.0907 94.6197 10.0907C94.0231 10.0907 93.5692 9.9291 93.2579 9.60585C92.9466 9.27386 92.791 8.78461 92.791 8.13811V3.95766H91.8053V3.39415L92.8169 3.35484L92.8948 1.70363L93.5692 1.625V3.35484H95.5276V3.95766H93.5692Z" fill="#013D5B"/>
<path d="M89.7474 9.94657V5.39919C89.7474 4.32459 89.207 3.7873 88.1262 3.7873C87.8408 3.7873 87.5252 3.83535 87.1794 3.93145C86.8422 4.02755 86.5093 4.1586 86.1807 4.3246V9.94657H85.4025V3.39415L86.064 3.32863L86.1159 3.7873C86.8681 3.36794 87.6031 3.15826 88.3207 3.15826C89.0211 3.15826 89.5615 3.34173 89.9419 3.70867C90.331 4.0756 90.5256 4.59543 90.5256 5.26815V9.94657H89.7474Z" fill="#013D5B"/>
<path d="M78.9338 3.35483V7.90221C78.9338 8.9768 79.4569 9.5141 80.5032 9.5141C80.7885 9.5141 81.0998 9.46605 81.437 9.36995C81.7828 9.27385 82.1201 9.1428 82.4486 8.97681V3.35483H83.2268V9.90725L82.5653 9.97277L82.5135 9.5141C81.7612 9.93346 81.0263 10.1431 80.3086 10.1431C79.6255 10.1431 79.0938 9.95967 78.7133 9.59273C78.3415 9.21706 78.1556 8.69723 78.1556 8.03325V3.35483H78.9338Z" fill="#013D5B"/>
<path d="M73.6422 10.1431C72.6998 10.1431 71.9864 9.85047 71.5022 9.26512C71.0267 8.67103 70.7889 7.79738 70.7889 6.64415C70.7889 5.49966 71.0267 4.63475 71.5022 4.0494C71.9864 3.45531 72.6998 3.15826 73.6422 3.15826C74.5847 3.15826 75.2937 3.45531 75.7693 4.0494C76.2535 4.63475 76.4956 5.49966 76.4956 6.64415C76.4956 7.79738 76.2535 8.67103 75.7693 9.26512C75.2937 9.85047 74.5847 10.1431 73.6422 10.1431ZM73.6422 9.51411C74.3512 9.51411 74.8657 9.28696 75.1856 8.83266C75.5142 8.36962 75.6785 7.64012 75.6785 6.64415C75.6785 5.65692 75.5142 4.93615 75.1856 4.48185C74.8657 4.01881 74.3512 3.7873 73.6422 3.7873C72.9332 3.7873 72.4144 4.01881 72.0858 4.48185C71.7659 4.93615 71.606 5.65692 71.606 6.64415C71.606 7.64012 71.7659 8.36962 72.0858 8.83266C72.4144 9.28696 72.9332 9.51411 73.6422 9.51411Z" fill="#013D5B"/>
<path d="M69.6713 9.71068C69.1006 9.99899 68.4781 10.1431 67.8036 10.1431C66.8871 10.1431 66.1781 9.84173 65.6766 9.23891C65.1837 8.63608 64.9373 7.77554 64.9373 6.65726C64.9373 5.53898 65.1837 4.67842 65.6766 4.0756C66.1781 3.46404 66.8871 3.15826 67.8036 3.15826C68.4521 3.15826 69.066 3.30242 69.6453 3.59072V4.20665C69.0401 3.93582 68.4521 3.8004 67.8814 3.8004C67.1811 3.8004 66.6493 4.04066 66.2862 4.52117C65.9317 5.00168 65.7544 5.71371 65.7544 6.65726C65.7544 7.59207 65.9317 8.29973 66.2862 8.78024C66.6493 9.26075 67.1811 9.501 67.8814 9.501C68.4694 9.501 69.066 9.36559 69.6713 9.09475V9.71068Z" fill="#013D5B"/>
<path d="M63.8197 9.71068C63.249 9.99899 62.6265 10.1431 61.9521 10.1431C61.0355 10.1431 60.3265 9.84173 59.825 9.23891C59.3322 8.63608 59.0858 7.77554 59.0858 6.65726C59.0858 5.53898 59.3322 4.67842 59.825 4.0756C60.3265 3.46404 61.0355 3.15826 61.9521 3.15826C62.6006 3.15826 63.2145 3.30242 63.7938 3.59072V4.20665C63.1885 3.93582 62.6006 3.8004 62.0299 3.8004C61.3295 3.8004 60.7978 4.04066 60.4346 4.52117C60.0801 5.00168 59.9028 5.71371 59.9028 6.65726C59.9028 7.59207 60.0801 8.29973 60.4346 8.78024C60.7978 9.26075 61.3295 9.501 62.0299 9.501C62.6178 9.501 63.2145 9.36559 63.8197 9.09475V9.71068Z" fill="#013D5B"/>
<path d="M56.7702 9.97278L56.7183 9.51411C55.9747 9.93346 55.2398 10.1431 54.5135 10.1431C53.8477 10.1431 53.3203 9.96841 52.9312 9.61895C52.5421 9.26075 52.3475 8.7715 52.3475 8.15121C52.3475 7.49597 52.5637 6.99798 52.996 6.65726C53.437 6.30779 54.0812 6.13307 54.9285 6.13307C55.4387 6.13307 56.018 6.19422 56.6665 6.31653V5.4254C56.6665 4.33333 56.0569 3.7873 54.8377 3.7873C54.5178 3.7873 54.1676 3.83098 53.7872 3.91835C53.4067 4.00571 53.0565 4.11929 52.7366 4.25907V3.64314C53.0479 3.49462 53.4024 3.37668 53.8001 3.28931C54.2065 3.20195 54.5913 3.15826 54.9545 3.15826C55.7672 3.15826 56.3811 3.35484 56.7962 3.74798C57.2198 4.13239 57.4317 4.69153 57.4317 5.4254V9.90725L56.7702 9.97278ZM54.6951 9.51411C55.0063 9.51411 55.3349 9.46606 55.6808 9.36996C56.0266 9.27386 56.3552 9.14281 56.6665 8.97681V6.88004C56.1217 6.7752 55.5856 6.72278 55.0582 6.72278C54.3924 6.72278 53.9082 6.83636 53.6056 7.06351C53.303 7.29066 53.1517 7.64886 53.1517 8.1381C53.1517 9.05544 53.6661 9.51411 54.6951 9.51411Z" fill="#013D5B"/>
<path d="M44.4534 13C43.6838 13 43.031 12.8646 42.4949 12.5937L42.3912 11.9254C43.1002 12.2224 43.7746 12.371 44.4144 12.371C45.8584 12.371 46.5804 11.6939 46.5804 10.3397V9.43548C46.2518 9.61894 45.9146 9.7631 45.5688 9.86794C45.2315 9.97278 44.9159 10.0252 44.622 10.0252C43.7746 10.0252 43.1088 9.73689 42.6246 9.16028C42.1404 8.58367 41.8983 7.78428 41.8983 6.7621C41.8983 5.60014 42.1707 4.709 42.7154 4.08871C43.2688 3.46841 44.0643 3.15826 45.1018 3.15826C45.8887 3.15826 46.6409 3.29805 47.3586 3.57762V10.2742C47.3586 11.1478 47.1078 11.8206 46.6063 12.2923C46.1048 12.7641 45.3872 13 44.4534 13ZM44.7257 9.39617C45.0111 9.39617 45.318 9.34811 45.6466 9.25201C45.9751 9.15591 46.2864 9.02486 46.5804 8.85887V3.99697C46.1308 3.85719 45.6595 3.7873 45.1667 3.7873C44.3366 3.7873 43.7184 4.03192 43.312 4.52117C42.9143 5.00168 42.7154 5.74429 42.7154 6.74899C42.7154 7.61391 42.884 8.27352 43.2212 8.72782C43.5671 9.17338 44.0686 9.39617 44.7257 9.39617Z" fill="#013D5B"/>
<path d="M39.4644 9.94657V5.39919C39.4644 4.32459 38.924 3.7873 37.8432 3.7873C37.5578 3.7873 37.2422 3.83535 36.8964 3.93145C36.5591 4.02755 36.2263 4.1586 35.8977 4.3246V9.94657H35.1195V3.39415L35.781 3.32863L35.8328 3.7873C36.5851 3.36794 37.32 3.15826 38.0377 3.15826C38.7381 3.15826 39.2785 3.34173 39.6589 3.70867C40.048 4.0756 40.2426 4.59543 40.2426 5.26815V9.94657H39.4644Z" fill="#013D5B"/>
<path d="M32.1684 9.94659V3.42038L32.9466 3.31554V9.94659H32.1684ZM32.5575 1.75607C32.3846 1.75607 32.2419 1.70365 32.1295 1.59881C32.0257 1.49397 31.9738 1.34982 31.9738 1.16635C31.9738 0.982882 32.0257 0.838728 32.1295 0.73389C32.2419 0.629051 32.3846 0.57663 32.5575 0.57663C32.7304 0.57663 32.8688 0.629051 32.9725 0.73389C33.0849 0.838728 33.1411 0.982882 33.1411 1.16635C33.1411 1.34982 33.0849 1.49397 32.9725 1.59881C32.8688 1.70365 32.7304 1.75607 32.5575 1.75607Z" fill="#013D5B"/>
<path d="M26.2028 9.94657V0.104839L26.981 0V6.27722L30.0419 3.35484H30.9627L27.7592 6.42137L31.0665 9.94657H30.0808L26.981 6.61794V9.94657H26.2028Z" fill="#013D5B"/>
<path d="M24.5305 9.71068C23.9599 9.99899 23.3373 10.1431 22.6629 10.1431C21.7464 10.1431 21.0373 9.84173 20.5358 9.23891C20.043 8.63608 19.7966 7.77554 19.7966 6.65726C19.7966 5.53898 20.043 4.67842 20.5358 4.0756C21.0373 3.46404 21.7464 3.15826 22.6629 3.15826C23.3114 3.15826 23.9253 3.30242 24.5046 3.59072V4.20665C23.8993 3.93582 23.3114 3.8004 22.7407 3.8004C22.0403 3.8004 21.5086 4.04066 21.1454 4.52117C20.7909 5.00168 20.6137 5.71371 20.6137 6.65726C20.6137 7.59207 20.7909 8.29973 21.1454 8.78024C21.5086 9.26075 22.0403 9.501 22.7407 9.501C23.3287 9.501 23.9253 9.36559 24.5305 9.09475V9.71068Z" fill="#013D5B"/>
<path d="M18.2043 9.71068C17.6077 9.99899 16.9679 10.1431 16.2848 10.1431C15.2905 10.1431 14.5253 9.8461 13.9892 9.25201C13.4531 8.65793 13.1851 7.80611 13.1851 6.69657C13.1851 5.59577 13.4358 4.73085 13.9373 4.10181C14.4388 3.47278 15.1262 3.15826 15.9995 3.15826C16.769 3.15826 17.3743 3.40289 17.8153 3.89214C18.2649 4.37265 18.4897 5.03226 18.4897 5.87097C18.4897 6.18548 18.4637 6.48689 18.4119 6.7752H13.9503C13.9589 8.60114 14.7587 9.51411 16.3497 9.51411C16.9895 9.51411 17.6077 9.37432 18.2043 9.09475V9.71068ZM15.9865 3.77419C15.3986 3.77419 14.9187 3.99261 14.5469 4.42943C14.1751 4.86626 13.9762 5.45161 13.9503 6.18548H17.7374C17.7547 6.04569 17.7634 5.92338 17.7634 5.81855C17.7634 5.17204 17.6077 4.66969 17.2965 4.31149C16.9852 3.95329 16.5485 3.77419 15.9865 3.77419Z" fill="#013D5B"/>
<path d="M6.40625 9.94657V0.104839L7.18443 0V3.76109C7.91074 3.35921 8.62407 3.15826 9.32444 3.15826C10.0248 3.15826 10.5652 3.34173 10.9457 3.70867C11.3347 4.0756 11.5293 4.59543 11.5293 5.26815V9.94657H10.7511V5.39919C10.7511 4.32459 10.2107 3.7873 9.12989 3.7873C8.84456 3.7873 8.52896 3.83535 8.1831 3.93145C7.84589 4.02755 7.513 4.1586 7.18443 4.3246V9.94657H6.40625Z" fill="#013D5B"/>
<path d="M4.73395 9.71068C4.16328 9.99899 3.54074 10.1431 2.86631 10.1431C1.94978 10.1431 1.24077 9.84173 0.739275 9.23891C0.246425 8.63608 0 7.77554 0 6.65726C0 5.53898 0.246425 4.67842 0.739275 4.0756C1.24077 3.46404 1.94978 3.15826 2.86631 3.15826C3.5148 3.15826 4.1287 3.30242 4.70801 3.59072V4.20665C4.10276 3.93582 3.5148 3.8004 2.94413 3.8004C2.24376 3.8004 1.712 4.04066 1.34885 4.52117C0.994346 5.00168 0.817093 5.71371 0.817093 6.65726C0.817093 7.59207 0.994346 8.29973 1.34885 8.78024C1.712 9.26075 2.24376 9.501 2.94413 9.501C3.53209 9.501 4.1287 9.36559 4.73395 9.09475V9.71068Z" fill="#013D5B"/>
</svg>
