<svg width="792" height="31" viewBox="0 0 792 31" fill="none" xmlns="http://www.w3.org/2000/svg">
<path d="M780.862 21.09C782.362 21.75 783.912 22.08 785.512 22.08C788.212 22.08 789.562 21.03 789.562 18.93C789.562 18.25 789.362 17.7 788.962 17.28C788.582 16.86 787.942 16.51 787.042 16.23L784.762 15.51C783.482 15.11 782.552 14.61 781.972 14.01C781.392 13.39 781.102 12.61 781.102 11.67C781.102 10.41 781.592 9.41 782.572 8.67C783.572 7.91 784.912 7.53 786.592 7.53C788.012 7.53 789.362 7.8 790.642 8.34V9.75C789.302 9.23 787.982 8.97 786.682 8.97C785.502 8.97 784.572 9.21 783.892 9.69C783.232 10.15 782.902 10.79 782.902 11.61C782.902 12.19 783.082 12.66 783.442 13.02C783.822 13.36 784.492 13.69 785.452 14.01L787.822 14.79C789.042 15.19 789.932 15.72 790.492 16.38C791.072 17.04 791.362 17.88 791.362 18.9C791.362 20.38 790.862 21.52 789.862 22.32C788.862 23.12 787.452 23.52 785.632 23.52C783.952 23.52 782.442 23.21 781.102 22.59L780.862 21.09Z" fill="#013D5B"/>
<path d="M774.174 9.36V18.96C774.174 20 774.394 20.77 774.834 21.27C775.274 21.75 775.954 21.99 776.874 21.99C777.474 21.99 778.154 21.88 778.914 21.66V22.98C778.074 23.26 777.304 23.4 776.604 23.4C775.224 23.4 774.174 23.03 773.454 22.29C772.734 21.53 772.374 20.41 772.374 18.93V9.36H770.094V8.07L772.434 7.98L772.614 4.2L774.174 4.02V7.98H778.704V9.36H774.174Z" fill="#013D5B"/>
<path d="M765.334 23.07V12.66C765.334 10.2 764.084 8.97 761.584 8.97C760.924 8.97 760.194 9.08 759.394 9.3C758.614 9.52 757.844 9.82 757.084 10.2V23.07H755.284V8.07L756.814 7.92L756.934 8.97C758.674 8.01 760.374 7.53 762.034 7.53C763.654 7.53 764.904 7.95 765.784 8.79C766.684 9.63 767.134 10.82 767.134 12.36V23.07H765.334Z" fill="#013D5B"/>
<path d="M740.321 7.98V18.39C740.321 20.85 741.531 22.08 743.951 22.08C744.611 22.08 745.332 21.97 746.112 21.75C746.912 21.53 747.691 21.23 748.451 20.85V7.98H750.251V22.98L748.721 23.13L748.602 22.08C746.862 23.04 745.161 23.52 743.501 23.52C741.921 23.52 740.691 23.1 739.811 22.26C738.951 21.4 738.521 20.21 738.521 18.69V7.98H740.321Z" fill="#013D5B"/>
<path d="M728.082 23.52C725.902 23.52 724.252 22.85 723.132 21.51C722.032 20.15 721.482 18.15 721.482 15.51C721.482 12.89 722.032 10.91 723.132 9.57C724.252 8.21 725.902 7.53 728.082 7.53C730.262 7.53 731.902 8.21 733.002 9.57C734.122 10.91 734.682 12.89 734.682 15.51C734.682 18.15 734.122 20.15 733.002 21.51C731.902 22.85 730.262 23.52 728.082 23.52ZM728.082 22.08C729.722 22.08 730.912 21.56 731.652 20.52C732.412 19.46 732.792 17.79 732.792 15.51C732.792 13.25 732.412 11.6 731.652 10.56C730.912 9.5 729.722 8.97 728.082 8.97C726.442 8.97 725.242 9.5 724.482 10.56C723.742 11.6 723.372 13.25 723.372 15.51C723.372 17.79 723.742 19.46 724.482 20.52C725.242 21.56 726.442 22.08 728.082 22.08Z" fill="#013D5B"/>
<path d="M718.896 22.53C717.576 23.19 716.136 23.52 714.576 23.52C712.456 23.52 710.816 22.83 709.656 21.45C708.516 20.07 707.947 18.1 707.947 15.54C707.947 12.98 708.516 11.01 709.656 9.63C710.816 8.23 712.456 7.53 714.576 7.53C716.076 7.53 717.496 7.86 718.836 8.52V9.93C717.436 9.31 716.077 9 714.757 9C713.137 9 711.907 9.55 711.067 10.65C710.247 11.75 709.836 13.38 709.836 15.54C709.836 17.68 710.247 19.3 711.067 20.4C711.907 21.5 713.137 22.05 714.757 22.05C716.117 22.05 717.496 21.74 718.896 21.12V22.53Z" fill="#013D5B"/>
<path d="M705.361 22.53C704.041 23.19 702.601 23.52 701.041 23.52C698.921 23.52 697.281 22.83 696.121 21.45C694.981 20.07 694.411 18.1 694.411 15.54C694.411 12.98 694.981 11.01 696.121 9.63C697.281 8.23 698.921 7.53 701.041 7.53C702.541 7.53 703.961 7.86 705.301 8.52V9.93C703.901 9.31 702.541 9 701.221 9C699.601 9 698.371 9.55 697.531 10.65C696.711 11.75 696.301 13.38 696.301 15.54C696.301 17.68 696.711 19.3 697.531 20.4C698.371 21.5 699.601 22.05 701.221 22.05C702.581 22.05 703.961 21.74 705.361 21.12V22.53Z" fill="#013D5B"/>
<path d="M689.055 23.13L688.935 22.08C687.215 23.04 685.515 23.52 683.835 23.52C682.295 23.52 681.075 23.12 680.175 22.32C679.275 21.5 678.825 20.38 678.825 18.96C678.825 17.46 679.325 16.32 680.325 15.54C681.345 14.74 682.835 14.34 684.795 14.34C685.975 14.34 687.315 14.48 688.815 14.76V12.72C688.815 10.22 687.405 8.97 684.585 8.97C683.845 8.97 683.035 9.07 682.155 9.27C681.275 9.47 680.465 9.73 679.725 10.05V8.64C680.445 8.3 681.265 8.03 682.185 7.83C683.125 7.63 684.015 7.53 684.855 7.53C686.735 7.53 688.155 7.98 689.115 8.88C690.095 9.76 690.585 11.04 690.585 12.72V22.98L689.055 23.13ZM684.255 22.08C684.975 22.08 685.735 21.97 686.535 21.75C687.335 21.53 688.095 21.23 688.815 20.85V16.05C687.555 15.81 686.315 15.69 685.095 15.69C683.555 15.69 682.435 15.95 681.735 16.47C681.035 16.99 680.685 17.81 680.685 18.93C680.685 21.03 681.875 22.08 684.255 22.08Z" fill="#013D5B"/>
<path d="M660.565 30.06C658.785 30.06 657.275 29.75 656.035 29.13L655.795 27.6C657.435 28.28 658.995 28.62 660.475 28.62C663.815 28.62 665.485 27.07 665.485 23.97V21.9C664.725 22.32 663.946 22.65 663.146 22.89C662.366 23.13 661.636 23.25 660.956 23.25C658.996 23.25 657.456 22.59 656.336 21.27C655.216 19.95 654.656 18.12 654.656 15.78C654.656 13.12 655.285 11.08 656.545 9.66C657.825 8.24 659.665 7.53 662.065 7.53C663.885 7.53 665.625 7.85 667.285 8.49V23.82C667.285 25.82 666.705 27.36 665.545 28.44C664.385 29.52 662.725 30.06 660.565 30.06ZM661.195 21.81C661.855 21.81 662.566 21.7 663.326 21.48C664.086 21.26 664.805 20.96 665.485 20.58V9.45C664.445 9.13 663.356 8.97 662.216 8.97C660.296 8.97 658.865 9.53 657.925 10.65C657.005 11.75 656.545 13.45 656.545 15.75C656.545 17.73 656.936 19.24 657.716 20.28C658.516 21.3 659.675 21.81 661.195 21.81Z" fill="#013D5B"/>
<path d="M649.026 23.07V12.66C649.026 10.2 647.776 8.97 645.276 8.97C644.616 8.97 643.886 9.08 643.086 9.3C642.306 9.52 641.536 9.82 640.776 10.2V23.07H638.976V8.07L640.506 7.92L640.626 8.97C642.366 8.01 644.066 7.53 645.726 7.53C647.346 7.53 648.596 7.95 649.476 8.79C650.376 9.63 650.826 10.82 650.826 12.36V23.07H649.026Z" fill="#013D5B"/>
<path d="M632.149 23.07V8.13L633.949 7.89V23.07H632.149ZM633.049 4.32C632.649 4.32 632.319 4.2 632.059 3.96C631.819 3.72 631.699 3.39 631.699 2.97C631.699 2.55 631.819 2.22 632.059 1.98C632.319 1.74 632.649 1.62 633.049 1.62C633.449 1.62 633.769 1.74 634.009 1.98C634.269 2.22 634.399 2.55 634.399 2.97C634.399 3.39 634.269 3.72 634.009 3.96C633.769 4.2 633.449 4.32 633.049 4.32Z" fill="#013D5B"/>
<path d="M618.351 23.07V0.54L620.151 0.299999V14.67L627.231 7.98H629.361L621.951 15L629.601 23.07H627.321L620.151 15.45V23.07H618.351Z" fill="#013D5B"/>
<path d="M614.482 22.53C613.162 23.19 611.722 23.52 610.162 23.52C608.042 23.52 606.402 22.83 605.242 21.45C604.102 20.07 603.532 18.1 603.532 15.54C603.532 12.98 604.102 11.01 605.242 9.63C606.402 8.23 608.042 7.53 610.162 7.53C611.662 7.53 613.082 7.86 614.422 8.52V9.93C613.022 9.31 611.662 9 610.342 9C608.722 9 607.492 9.55 606.652 10.65C605.832 11.75 605.422 13.38 605.422 15.54C605.422 17.68 605.832 19.3 606.652 20.4C607.492 21.5 608.722 22.05 610.342 22.05C611.702 22.05 613.082 21.74 614.482 21.12V22.53Z" fill="#013D5B"/>
<path d="M599.849 22.53C598.469 23.19 596.989 23.52 595.409 23.52C593.109 23.52 591.339 22.84 590.099 21.48C588.859 20.12 588.24 18.17 588.24 15.63C588.24 13.11 588.819 11.13 589.979 9.69C591.139 8.25 592.729 7.53 594.749 7.53C596.529 7.53 597.929 8.09 598.949 9.21C599.989 10.31 600.509 11.82 600.509 13.74C600.509 14.46 600.449 15.15 600.329 15.81H590.009C590.029 19.99 591.879 22.08 595.559 22.08C597.039 22.08 598.469 21.76 599.849 21.12V22.53ZM594.719 8.94C593.359 8.94 592.249 9.44 591.389 10.44C590.529 11.44 590.069 12.78 590.009 14.46H598.769C598.809 14.14 598.829 13.86 598.829 13.62C598.829 12.14 598.469 10.99 597.749 10.17C597.029 9.35 596.019 8.94 594.719 8.94Z" fill="#013D5B"/>
<path d="M572.56 23.07V0.54L574.36 0.299999V8.91C576.04 7.99 577.69 7.53 579.31 7.53C580.93 7.53 582.18 7.95 583.06 8.79C583.96 9.63 584.41 10.82 584.41 12.36V23.07H582.61V12.66C582.61 10.2 581.36 8.97 578.86 8.97C578.2 8.97 577.47 9.08 576.67 9.3C575.89 9.52 575.12 9.82 574.36 10.2V23.07H572.56Z" fill="#013D5B"/>
<path d="M568.691 22.53C567.371 23.19 565.931 23.52 564.371 23.52C562.251 23.52 560.611 22.83 559.451 21.45C558.311 20.07 557.741 18.1 557.741 15.54C557.741 12.98 558.311 11.01 559.451 9.63C560.611 8.23 562.251 7.53 564.371 7.53C565.871 7.53 567.291 7.86 568.631 8.52V9.93C567.231 9.31 565.871 9 564.551 9C562.931 9 561.701 9.55 560.861 10.65C560.041 11.75 559.631 13.38 559.631 15.54C559.631 17.68 560.041 19.3 560.861 20.4C561.701 21.5 562.931 22.05 564.551 22.05C565.911 22.05 567.291 21.74 568.691 21.12V22.53Z" fill="#013D5B"/>
<path d="M544.612 23.07V12.66C544.612 10.2 543.362 8.97 540.862 8.97C540.202 8.97 539.472 9.08 538.672 9.3C537.892 9.52 537.122 9.82 536.362 10.2V23.07H534.562V8.07L536.091 7.92L536.211 8.97C537.951 8.01 539.652 7.53 541.312 7.53C542.932 7.53 544.182 7.95 545.062 8.79C545.962 9.63 546.411 10.82 546.411 12.36V23.07H544.612Z" fill="#013D5B"/>
<path d="M523.912 23.52C521.732 23.52 520.082 22.85 518.962 21.51C517.862 20.15 517.312 18.15 517.312 15.51C517.312 12.89 517.862 10.91 518.962 9.57C520.082 8.21 521.732 7.53 523.912 7.53C526.092 7.53 527.732 8.21 528.832 9.57C529.952 10.91 530.512 12.89 530.512 15.51C530.512 18.15 529.952 20.15 528.832 21.51C527.732 22.85 526.092 23.52 523.912 23.52ZM523.912 22.08C525.552 22.08 526.742 21.56 527.482 20.52C528.242 19.46 528.622 17.79 528.622 15.51C528.622 13.25 528.242 11.6 527.482 10.56C526.742 9.5 525.552 8.97 523.912 8.97C522.272 8.97 521.072 9.5 520.312 10.56C519.572 11.6 519.202 13.25 519.202 15.51C519.202 17.79 519.572 19.46 520.312 20.52C521.072 21.56 522.272 22.08 523.912 22.08Z" fill="#013D5B"/>
<path d="M496.419 21.09C497.919 21.75 499.469 22.08 501.069 22.08C503.769 22.08 505.119 21.03 505.119 18.93C505.119 18.25 504.919 17.7 504.519 17.28C504.139 16.86 503.499 16.51 502.599 16.23L500.319 15.51C499.039 15.11 498.109 14.61 497.529 14.01C496.949 13.39 496.659 12.61 496.659 11.67C496.659 10.41 497.149 9.41 498.129 8.67C499.129 7.91 500.469 7.53 502.149 7.53C503.569 7.53 504.919 7.8 506.199 8.34V9.75C504.859 9.23 503.539 8.97 502.239 8.97C501.059 8.97 500.129 9.21 499.449 9.69C498.789 10.15 498.459 10.79 498.459 11.61C498.459 12.19 498.639 12.66 498.999 13.02C499.379 13.36 500.049 13.69 501.009 14.01L503.379 14.79C504.599 15.19 505.489 15.72 506.049 16.38C506.629 17.04 506.919 17.88 506.919 18.9C506.919 20.38 506.419 21.52 505.419 22.32C504.419 23.12 503.009 23.52 501.189 23.52C499.509 23.52 497.999 23.21 496.659 22.59L496.419 21.09Z" fill="#013D5B"/>
<path d="M490.952 23.07V12.36C490.952 10.1 489.882 8.97 487.742 8.97C486.502 8.97 485.082 9.42 483.482 10.32C483.642 10.86 483.722 11.44 483.722 12.06V23.07H481.922V12.36C481.922 10.1 480.852 8.97 478.712 8.97C477.512 8.97 476.172 9.38 474.692 10.2V23.07H472.892V8.07L474.422 7.92L474.542 8.97C476.242 8.01 477.782 7.53 479.162 7.53C480.922 7.53 482.192 8.11 482.972 9.27C484.912 8.11 486.652 7.53 488.192 7.53C489.652 7.53 490.772 7.92 491.552 8.7C492.352 9.48 492.752 10.6 492.752 12.06V23.07H490.952Z" fill="#013D5B"/>
<path d="M457.929 7.98V18.39C457.929 20.85 459.139 22.08 461.559 22.08C462.219 22.08 462.939 21.97 463.719 21.75C464.519 21.53 465.299 21.23 466.059 20.85V7.98H467.859V22.98L466.329 23.13L466.209 22.08C464.469 23.04 462.769 23.52 461.109 23.52C459.529 23.52 458.299 23.1 457.419 22.26C456.559 21.4 456.129 20.21 456.129 18.69V7.98H457.929Z" fill="#013D5B"/>
<path d="M449.702 23.07V12.36C449.702 10.1 448.632 8.97 446.492 8.97C445.252 8.97 443.832 9.42 442.232 10.32C442.392 10.86 442.472 11.44 442.472 12.06V23.07H440.672V12.36C440.672 10.1 439.602 8.97 437.462 8.97C436.262 8.97 434.922 9.38 433.442 10.2V23.07H431.642V8.07L433.172 7.92L433.292 8.97C434.992 8.01 436.532 7.53 437.912 7.53C439.672 7.53 440.942 8.11 441.722 9.27C443.662 8.11 445.402 7.53 446.942 7.53C448.402 7.53 449.522 7.92 450.302 8.7C451.102 9.48 451.502 10.6 451.502 12.06V23.07H449.702Z" fill="#013D5B"/>
<path d="M424.815 23.07V8.13L426.615 7.89V23.07H424.815ZM425.715 4.32C425.315 4.32 424.985 4.2 424.725 3.96C424.485 3.72 424.365 3.39 424.365 2.97C424.365 2.55 424.485 2.22 424.725 1.98C424.985 1.74 425.315 1.62 425.715 1.62C426.115 1.62 426.435 1.74 426.675 1.98C426.935 2.22 427.065 2.55 427.065 2.97C427.065 3.39 426.935 3.72 426.675 3.96C426.435 4.2 426.115 4.32 425.715 4.32Z" fill="#013D5B"/>
<path d="M418.196 23.07V12.66C418.196 10.2 416.946 8.97 414.446 8.97C413.786 8.97 413.056 9.08 412.256 9.3C411.476 9.52 410.706 9.82 409.946 10.2V23.07H408.146V8.07L409.676 7.92L409.796 8.97C411.536 8.01 413.236 7.53 414.896 7.53C416.516 7.53 417.766 7.95 418.646 8.79C419.546 9.63 419.996 10.82 419.996 12.36V23.07H418.196Z" fill="#013D5B"/>
<path d="M401.319 23.07V8.13L403.119 7.89V23.07H401.319ZM402.219 4.32C401.819 4.32 401.489 4.2 401.229 3.96C400.989 3.72 400.869 3.39 400.869 2.97C400.869 2.55 400.989 2.22 401.229 1.98C401.489 1.74 401.819 1.62 402.219 1.62C402.619 1.62 402.939 1.74 403.179 1.98C403.439 2.22 403.569 2.55 403.569 2.97C403.569 3.39 403.439 3.72 403.179 3.96C402.939 4.2 402.619 4.32 402.219 4.32Z" fill="#013D5B"/>
<path d="M394.682 23.07V12.36C394.682 10.1 393.612 8.97 391.472 8.97C390.232 8.97 388.812 9.42 387.212 10.32C387.372 10.86 387.452 11.44 387.452 12.06V23.07H385.652V12.36C385.652 10.1 384.582 8.97 382.442 8.97C381.242 8.97 379.902 9.38 378.422 10.2V23.07H376.622V8.07L378.152 7.92L378.272 8.97C379.972 8.01 381.512 7.53 382.892 7.53C384.652 7.53 385.922 8.11 386.702 9.27C388.642 8.11 390.382 7.53 391.922 7.53C393.382 7.53 394.502 7.92 395.282 8.7C396.082 9.48 396.482 10.6 396.482 12.06V23.07H394.682Z" fill="#013D5B"/>
<path d="M358.81 23.07V8.07L360.34 7.92L360.49 9.27C361.83 8.17 363.26 7.62 364.78 7.62C365.32 7.62 365.75 7.68 366.07 7.8V9.27C365.55 9.15 365.09 9.09 364.69 9.09C363.27 9.09 361.91 9.6 360.61 10.62V23.07H358.81Z" fill="#013D5B"/>
<path d="M348.16 23.52C345.98 23.52 344.33 22.85 343.21 21.51C342.11 20.15 341.56 18.15 341.56 15.51C341.56 12.89 342.11 10.91 343.21 9.57C344.33 8.21 345.98 7.53 348.16 7.53C350.34 7.53 351.98 8.21 353.08 9.57C354.2 10.91 354.76 12.89 354.76 15.51C354.76 18.15 354.2 20.15 353.08 21.51C351.98 22.85 350.34 23.52 348.16 23.52ZM348.16 22.08C349.8 22.08 350.99 21.56 351.73 20.52C352.49 19.46 352.87 17.79 352.87 15.51C352.87 13.25 352.49 11.6 351.73 10.56C350.99 9.5 349.8 8.97 348.16 8.97C346.52 8.97 345.32 9.5 344.56 10.56C343.82 11.6 343.45 13.25 343.45 15.51C343.45 17.79 343.82 19.46 344.56 20.52C345.32 21.56 346.52 22.08 348.16 22.08Z" fill="#013D5B"/>
<path d="M320.667 21.09C322.167 21.75 323.717 22.08 325.317 22.08C328.017 22.08 329.367 21.03 329.367 18.93C329.367 18.25 329.167 17.7 328.767 17.28C328.387 16.86 327.747 16.51 326.847 16.23L324.567 15.51C323.287 15.11 322.357 14.61 321.777 14.01C321.197 13.39 320.907 12.61 320.907 11.67C320.907 10.41 321.397 9.41 322.377 8.67C323.377 7.91 324.717 7.53 326.397 7.53C327.817 7.53 329.167 7.8 330.447 8.34V9.75C329.107 9.23 327.787 8.97 326.487 8.97C325.307 8.97 324.377 9.21 323.697 9.69C323.037 10.15 322.707 10.79 322.707 11.61C322.707 12.19 322.887 12.66 323.247 13.02C323.627 13.36 324.297 13.69 325.257 14.01L327.627 14.79C328.847 15.19 329.737 15.72 330.297 16.38C330.877 17.04 331.167 17.88 331.167 18.9C331.167 20.38 330.667 21.52 329.667 22.32C328.667 23.12 327.257 23.52 325.437 23.52C323.757 23.52 322.247 23.21 320.907 22.59L320.667 21.09Z" fill="#013D5B"/>
<path d="M317.164 22.53C315.784 23.19 314.304 23.52 312.724 23.52C310.424 23.52 308.654 22.84 307.414 21.48C306.174 20.12 305.554 18.17 305.554 15.63C305.554 13.11 306.134 11.13 307.294 9.69C308.454 8.25 310.044 7.53 312.064 7.53C313.844 7.53 315.244 8.09 316.264 9.21C317.304 10.31 317.824 11.82 317.824 13.74C317.824 14.46 317.764 15.15 317.644 15.81H307.324C307.344 19.99 309.194 22.08 312.874 22.08C314.354 22.08 315.784 21.76 317.164 21.12V22.53ZM312.034 8.94C310.674 8.94 309.564 9.44 308.704 10.44C307.844 11.44 307.384 12.78 307.324 14.46H316.084C316.124 14.14 316.144 13.86 316.144 13.62C316.144 12.14 315.784 10.99 315.064 10.17C314.344 9.35 313.334 8.94 312.034 8.94Z" fill="#013D5B"/>
<path d="M301.871 22.53C300.491 23.19 299.011 23.52 297.431 23.52C295.131 23.52 293.361 22.84 292.121 21.48C290.881 20.12 290.261 18.17 290.261 15.63C290.261 13.11 290.841 11.13 292.001 9.69C293.161 8.25 294.751 7.53 296.771 7.53C298.551 7.53 299.951 8.09 300.971 9.21C302.011 10.31 302.531 11.82 302.531 13.74C302.531 14.46 302.471 15.15 302.351 15.81H292.031C292.051 19.99 293.901 22.08 297.581 22.08C299.061 22.08 300.491 21.76 301.871 21.12V22.53ZM296.741 8.94C295.381 8.94 294.271 9.44 293.411 10.44C292.551 11.44 292.091 12.78 292.031 14.46H300.791C300.831 14.14 300.851 13.86 300.851 13.62C300.851 12.14 300.491 10.99 299.771 10.17C299.051 9.35 298.041 8.94 296.741 8.94Z" fill="#013D5B"/>
<path d="M282.355 23.07V9.36H280.075V8.07L282.355 7.98V4.59C282.355 3.11 282.715 1.98 283.435 1.2C284.175 0.4 285.245 0 286.645 0C287.405 0 288.175 0.14 288.955 0.42V1.74C288.235 1.52 287.545 1.41 286.885 1.41C285.945 1.41 285.255 1.66 284.815 2.16C284.375 2.64 284.155 3.4 284.155 4.44V7.98H288.205V9.36H284.155V23.07H282.355Z" fill="#013D5B"/>
<path d="M263.785 23.52C261.605 23.52 259.955 22.85 258.835 21.51C257.735 20.15 257.185 18.15 257.185 15.51C257.185 12.89 257.735 10.91 258.835 9.57C259.955 8.21 261.605 7.53 263.785 7.53C265.965 7.53 267.605 8.21 268.705 9.57C269.825 10.91 270.385 12.89 270.385 15.51C270.385 18.15 269.825 20.15 268.705 21.51C267.605 22.85 265.965 23.52 263.785 23.52ZM263.785 22.08C265.425 22.08 266.615 21.56 267.355 20.52C268.115 19.46 268.495 17.79 268.495 15.51C268.495 13.25 268.115 11.6 267.355 10.56C266.615 9.5 265.425 8.97 263.785 8.97C262.145 8.97 260.945 9.5 260.185 10.56C259.445 11.6 259.075 13.25 259.075 15.51C259.075 17.79 259.445 19.46 260.185 20.52C260.945 21.56 262.145 22.08 263.785 22.08Z" fill="#013D5B"/>
<path d="M251.555 23.07V12.66C251.555 10.2 250.305 8.97 247.805 8.97C247.145 8.97 246.415 9.08 245.615 9.3C244.835 9.52 244.065 9.82 243.305 10.2V23.07H241.505V8.07L243.035 7.92L243.155 8.97C244.895 8.01 246.595 7.53 248.255 7.53C249.875 7.53 251.125 7.95 252.005 8.79C252.905 9.63 253.355 10.82 253.355 12.36V23.07H251.555Z" fill="#013D5B"/>
<path d="M223.692 23.07V8.07L225.222 7.92L225.372 9.27C226.712 8.17 228.142 7.62 229.662 7.62C230.202 7.62 230.632 7.68 230.952 7.8V9.27C230.432 9.15 229.972 9.09 229.572 9.09C228.152 9.09 226.792 9.6 225.492 10.62V23.07H223.692Z" fill="#013D5B"/>
<path d="M213.043 23.52C210.863 23.52 209.213 22.85 208.093 21.51C206.993 20.15 206.443 18.15 206.443 15.51C206.443 12.89 206.993 10.91 208.093 9.57C209.213 8.21 210.863 7.53 213.043 7.53C215.223 7.53 216.863 8.21 217.963 9.57C219.083 10.91 219.643 12.89 219.643 15.51C219.643 18.15 219.083 20.15 217.963 21.51C216.863 22.85 215.223 23.52 213.043 23.52ZM213.043 22.08C214.683 22.08 215.873 21.56 216.613 20.52C217.373 19.46 217.753 17.79 217.753 15.51C217.753 13.25 217.373 11.6 216.613 10.56C215.873 9.5 214.683 8.97 213.043 8.97C211.403 8.97 210.203 9.5 209.443 10.56C208.703 11.6 208.333 13.25 208.333 15.51C208.333 17.79 208.703 19.46 209.443 20.52C210.203 21.56 211.403 22.08 213.043 22.08Z" fill="#013D5B"/>
<path d="M198.536 23.07V9.36H196.256V8.07L198.536 7.98V4.59C198.536 3.11 198.896 1.98 199.616 1.2C200.356 0.4 201.426 0 202.826 0C203.586 0 204.356 0.14 205.136 0.42V1.74C204.416 1.52 203.726 1.41 203.066 1.41C202.126 1.41 201.436 1.66 200.996 2.16C200.556 2.64 200.336 3.4 200.336 4.44V7.98H204.386V9.36H200.336V23.07H198.536Z" fill="#013D5B"/>
<path d="M183.996 23.07V12.66C183.996 10.2 182.746 8.97 180.246 8.97C179.586 8.97 178.856 9.08 178.056 9.3C177.276 9.52 176.506 9.82 175.746 10.2V23.07H173.946V8.07L175.476 7.92L175.596 8.97C177.336 8.01 179.036 7.53 180.696 7.53C182.316 7.53 183.566 7.95 184.446 8.79C185.346 9.63 185.796 10.82 185.796 12.36V23.07H183.996Z" fill="#013D5B"/>
<path d="M163.297 23.52C161.117 23.52 159.467 22.85 158.347 21.51C157.247 20.15 156.697 18.15 156.697 15.51C156.697 12.89 157.247 10.91 158.347 9.57C159.467 8.21 161.117 7.53 163.297 7.53C165.477 7.53 167.117 8.21 168.217 9.57C169.337 10.91 169.897 12.89 169.897 15.51C169.897 18.15 169.337 20.15 168.217 21.51C167.117 22.85 165.477 23.52 163.297 23.52ZM163.297 22.08C164.937 22.08 166.127 21.56 166.867 20.52C167.627 19.46 168.007 17.79 168.007 15.51C168.007 13.25 167.627 11.6 166.867 10.56C166.127 9.5 164.937 8.97 163.297 8.97C161.657 8.97 160.457 9.5 159.697 10.56C158.957 11.6 158.587 13.25 158.587 15.51C158.587 17.79 158.957 19.46 159.697 20.52C160.457 21.56 161.657 22.08 163.297 22.08Z" fill="#013D5B"/>
<path d="M143.304 21.09C144.804 21.75 146.354 22.08 147.954 22.08C150.654 22.08 152.004 21.03 152.004 18.93C152.004 18.25 151.804 17.7 151.404 17.28C151.024 16.86 150.384 16.51 149.484 16.23L147.204 15.51C145.924 15.11 144.994 14.61 144.414 14.01C143.834 13.39 143.544 12.61 143.544 11.67C143.544 10.41 144.034 9.41 145.014 8.67C146.014 7.91 147.354 7.53 149.034 7.53C150.454 7.53 151.804 7.8 153.084 8.34V9.75C151.744 9.23 150.424 8.97 149.124 8.97C147.944 8.97 147.014 9.21 146.334 9.69C145.674 10.15 145.344 10.79 145.344 11.61C145.344 12.19 145.524 12.66 145.884 13.02C146.264 13.36 146.934 13.69 147.894 14.01L150.264 14.79C151.484 15.19 152.374 15.72 152.934 16.38C153.514 17.04 153.804 17.88 153.804 18.9C153.804 20.38 153.304 21.52 152.304 22.32C151.304 23.12 149.894 23.52 148.074 23.52C146.394 23.52 144.884 23.21 143.544 22.59L143.304 21.09Z" fill="#013D5B"/>
<path d="M138.128 23.13L138.008 22.08C136.288 23.04 134.588 23.52 132.908 23.52C131.368 23.52 130.148 23.12 129.248 22.32C128.348 21.5 127.898 20.38 127.898 18.96C127.898 17.46 128.398 16.32 129.398 15.54C130.418 14.74 131.908 14.34 133.868 14.34C135.048 14.34 136.388 14.48 137.888 14.76V12.72C137.888 10.22 136.478 8.97 133.658 8.97C132.918 8.97 132.108 9.07 131.228 9.27C130.348 9.47 129.538 9.73 128.798 10.05V8.64C129.518 8.3 130.338 8.03 131.258 7.83C132.198 7.63 133.088 7.53 133.928 7.53C135.808 7.53 137.228 7.98 138.188 8.88C139.168 9.76 139.658 11.04 139.658 12.72V22.98L138.128 23.13ZM133.328 22.08C134.048 22.08 134.808 21.97 135.608 21.75C136.408 21.53 137.168 21.23 137.888 20.85V16.05C136.628 15.81 135.388 15.69 134.168 15.69C132.628 15.69 131.508 15.95 130.808 16.47C130.108 16.99 129.758 17.81 129.758 18.93C129.758 21.03 130.948 22.08 133.328 22.08Z" fill="#013D5B"/>
<path d="M124.215 22.53C122.835 23.19 121.355 23.52 119.775 23.52C117.475 23.52 115.705 22.84 114.465 21.48C113.225 20.12 112.605 18.17 112.605 15.63C112.605 13.11 113.185 11.13 114.345 9.69C115.505 8.25 117.095 7.53 119.115 7.53C120.895 7.53 122.295 8.09 123.315 9.21C124.355 10.31 124.875 11.82 124.875 13.74C124.875 14.46 124.815 15.15 124.695 15.81H114.375C114.395 19.99 116.245 22.08 119.925 22.08C121.405 22.08 122.835 21.76 124.215 21.12V22.53ZM119.085 8.94C117.725 8.94 116.615 9.44 115.755 10.44C114.895 11.44 114.435 12.78 114.375 14.46H123.135C123.175 14.14 123.195 13.86 123.195 13.62C123.195 12.14 122.835 10.99 122.115 10.17C121.395 9.35 120.385 8.94 119.085 8.94Z" fill="#013D5B"/>
<path d="M99.2119 21.09C100.712 21.75 102.262 22.08 103.862 22.08C106.562 22.08 107.912 21.03 107.912 18.93C107.912 18.25 107.712 17.7 107.312 17.28C106.932 16.86 106.292 16.51 105.392 16.23L103.112 15.51C101.832 15.11 100.902 14.61 100.322 14.01C99.7419 13.39 99.4519 12.61 99.4519 11.67C99.4519 10.41 99.9419 9.41 100.922 8.67C101.922 7.91 103.262 7.53 104.942 7.53C106.362 7.53 107.712 7.8 108.992 8.34V9.75C107.652 9.23 106.332 8.97 105.032 8.97C103.852 8.97 102.922 9.21 102.242 9.69C101.582 10.15 101.252 10.79 101.252 11.61C101.252 12.19 101.432 12.66 101.792 13.02C102.172 13.36 102.842 13.69 103.802 14.01L106.172 14.79C107.392 15.19 108.282 15.72 108.842 16.38C109.422 17.04 109.712 17.88 109.712 18.9C109.712 20.38 109.212 21.52 108.212 22.32C107.212 23.12 105.802 23.52 103.982 23.52C102.302 23.52 100.792 23.21 99.4519 22.59L99.2119 21.09Z" fill="#013D5B"/>
<path d="M88.2089 22.53C86.8289 23.19 85.3489 23.52 83.7689 23.52C81.4689 23.52 79.6989 22.84 78.4589 21.48C77.2189 20.12 76.5989 18.17 76.5989 15.63C76.5989 13.11 77.1789 11.13 78.3389 9.69C79.4989 8.25 81.0889 7.53 83.1089 7.53C84.8889 7.53 86.2889 8.09 87.3089 9.21C88.3489 10.31 88.8689 11.82 88.8689 13.74C88.8689 14.46 88.8089 15.15 88.6889 15.81H78.3689C78.3889 19.99 80.2389 22.08 83.9189 22.08C85.3989 22.08 86.8289 21.76 88.2089 21.12V22.53ZM83.0789 8.94C81.7189 8.94 80.6089 9.44 79.7489 10.44C78.8889 11.44 78.4289 12.78 78.3689 14.46H87.1289C87.1689 14.14 87.1889 13.86 87.1889 13.62C87.1889 12.14 86.8289 10.99 86.1089 10.17C85.3889 9.35 84.3789 8.94 83.0789 8.94Z" fill="#013D5B"/>
<path d="M60.9189 23.07V0.54L62.7189 0.299999V8.91C64.3989 7.99 66.0489 7.53 67.6689 7.53C69.2889 7.53 70.5389 7.95 71.4189 8.79C72.3189 9.63 72.7689 10.82 72.7689 12.36V23.07H70.9689V12.66C70.9689 10.2 69.7189 8.97 67.2189 8.97C66.5589 8.97 65.8289 9.08 65.0289 9.3C64.2489 9.52 63.4789 9.82 62.7189 10.2V23.07H60.9189Z" fill="#013D5B"/>
<path d="M53.0607 9.36V18.96C53.0607 20 53.2807 20.77 53.7207 21.27C54.1607 21.75 54.8407 21.99 55.7607 21.99C56.3607 21.99 57.0407 21.88 57.8007 21.66V22.98C56.9607 23.26 56.1907 23.4 55.4907 23.4C54.1107 23.4 53.0607 23.03 52.3407 22.29C51.6207 21.53 51.2607 20.41 51.2607 18.93V9.36H48.9807V8.07L51.3207 7.98L51.5007 4.2L53.0607 4.02V7.98H57.5907V9.36H53.0607Z" fill="#013D5B"/>
<path d="M28.958 21.09C30.458 21.75 32.008 22.08 33.608 22.08C36.308 22.08 37.658 21.03 37.658 18.93C37.658 18.25 37.458 17.7 37.058 17.28C36.678 16.86 36.038 16.51 35.138 16.23L32.858 15.51C31.578 15.11 30.648 14.61 30.068 14.01C29.488 13.39 29.198 12.61 29.198 11.67C29.198 10.41 29.688 9.41 30.668 8.67C31.668 7.91 33.008 7.53 34.688 7.53C36.108 7.53 37.458 7.8 38.738 8.34V9.75C37.398 9.23 36.078 8.97 34.778 8.97C33.598 8.97 32.668 9.21 31.988 9.69C31.328 10.15 30.998 10.79 30.998 11.61C30.998 12.19 31.178 12.66 31.538 13.02C31.918 13.36 32.588 13.69 33.548 14.01L35.918 14.79C37.138 15.19 38.028 15.72 38.588 16.38C39.168 17.04 39.458 17.88 39.458 18.9C39.458 20.38 38.958 21.52 37.958 22.32C36.958 23.12 35.548 23.52 33.728 23.52C32.048 23.52 30.538 23.21 29.198 22.59L28.958 21.09Z" fill="#013D5B"/>
<path d="M23.3018 23.07V8.13L25.1018 7.89V23.07H23.3018ZM24.2018 4.32C23.8018 4.32 23.4718 4.2 23.2118 3.96C22.9718 3.72 22.8518 3.39 22.8518 2.97C22.8518 2.55 22.9718 2.22 23.2118 1.98C23.4718 1.74 23.8018 1.62 24.2018 1.62C24.6018 1.62 24.9218 1.74 25.1618 1.98C25.4218 2.22 25.5518 2.55 25.5518 2.97C25.5518 3.39 25.4218 3.72 25.1618 3.96C24.9218 4.2 24.6018 4.32 24.2018 4.32Z" fill="#013D5B"/>
<path d="M12.1222 23.07V3.6H5.79224V2.07H20.3422V3.6H14.0122V23.07H12.1222Z" fill="#013D5B"/>
<path d="M0 8.58C0.54 7.88 0.97 7.15 1.29 6.39C1.63 5.61 1.81 4.88 1.83 4.2C1.53 4.12 1.3 3.97 1.14 3.75C0.98 3.51 0.9 3.22 0.9 2.88C0.9 2.46 1.03 2.13 1.29 1.89C1.55 1.63 1.88 1.5 2.28 1.5C2.72 1.5 3.06 1.66 3.3 1.98C3.54 2.28 3.66 2.7 3.66 3.24C3.66 4.12 3.37 5.11 2.79 6.21C2.23 7.29 1.52 8.22 0.66 9L0 8.58Z" fill="#013D5B"/>
</svg>
