<svg width="240" height="14" viewBox="0 0 240 14" fill="none" xmlns="http://www.w3.org/2000/svg">
<path d="M235.342 9.13894C235.992 9.42494 236.664 9.56794 237.357 9.56794C238.527 9.56794 239.112 9.11294 239.112 8.20294C239.112 7.90827 239.025 7.66994 238.852 7.48794C238.687 7.30594 238.41 7.15427 238.02 7.03294L237.032 6.72094C236.477 6.54761 236.074 6.33094 235.823 6.07094C235.572 5.80227 235.446 5.46427 235.446 5.05694C235.446 4.51094 235.658 4.07761 236.083 3.75694C236.516 3.42761 237.097 3.26294 237.825 3.26294C238.44 3.26294 239.025 3.37994 239.58 3.61394V4.22494C238.999 3.99961 238.427 3.88694 237.864 3.88694C237.353 3.88694 236.95 3.99094 236.655 4.19894C236.369 4.39827 236.226 4.67561 236.226 5.03094C236.226 5.28227 236.304 5.48594 236.46 5.64194C236.625 5.78927 236.915 5.93227 237.331 6.07094L238.358 6.40894C238.887 6.58227 239.272 6.81194 239.515 7.09794C239.766 7.38394 239.892 7.74794 239.892 8.18994C239.892 8.83127 239.675 9.32527 239.242 9.67194C238.809 10.0186 238.198 10.1919 237.409 10.1919C236.681 10.1919 236.027 10.0576 235.446 9.78894L235.342 9.13894Z" fill="#013D5B"/>
<path d="M232.444 4.05594V8.21594C232.444 8.66661 232.539 9.00028 232.73 9.21694C232.92 9.42494 233.215 9.52894 233.614 9.52894C233.874 9.52894 234.168 9.48128 234.498 9.38594V9.95794C234.134 10.0793 233.8 10.1399 233.497 10.1399C232.899 10.1399 232.444 9.97961 232.132 9.65894C231.82 9.32961 231.664 8.84428 231.664 8.20294V4.05594H230.676V3.49694L231.69 3.45794L231.768 1.81994L232.444 1.74194V3.45794H234.407V4.05594H232.444Z" fill="#013D5B"/>
<path d="M228.613 9.99694V5.48594C228.613 4.41994 228.071 3.88694 226.988 3.88694C226.702 3.88694 226.386 3.93461 226.039 4.02994C225.701 4.12527 225.367 4.25527 225.038 4.41994V9.99694H224.258V3.49694L224.921 3.43194L224.973 3.88694C225.727 3.47094 226.464 3.26294 227.183 3.26294C227.885 3.26294 228.427 3.44494 228.808 3.80894C229.198 4.17294 229.393 4.68861 229.393 5.35594V9.99694H228.613Z" fill="#013D5B"/>
<path d="M217.774 3.45789V7.96889C217.774 9.03489 218.299 9.56789 219.347 9.56789C219.633 9.56789 219.945 9.52022 220.283 9.42489C220.63 9.32955 220.968 9.19955 221.297 9.03489V3.45789H222.077V9.95789L221.414 10.0229L221.362 9.56789C220.608 9.98389 219.872 10.1919 219.152 10.1919C218.468 10.1919 217.935 10.0099 217.553 9.64589C217.181 9.27322 216.994 8.75755 216.994 8.09889V3.45789H217.774Z" fill="#013D5B"/>
<path d="M212.47 10.1919C211.526 10.1919 210.811 9.90161 210.325 9.32094C209.849 8.73161 209.61 7.86494 209.61 6.72094C209.61 5.58561 209.849 4.72761 210.325 4.14694C210.811 3.55761 211.526 3.26294 212.47 3.26294C213.415 3.26294 214.126 3.55761 214.602 4.14694C215.088 4.72761 215.33 5.58561 215.33 6.72094C215.33 7.86494 215.088 8.73161 214.602 9.32094C214.126 9.90161 213.415 10.1919 212.47 10.1919ZM212.47 9.56794C213.181 9.56794 213.697 9.34261 214.017 8.89194C214.347 8.43261 214.511 7.70894 214.511 6.72094C214.511 5.74161 214.347 5.02661 214.017 4.57594C213.697 4.11661 213.181 3.88694 212.47 3.88694C211.76 3.88694 211.24 4.11661 210.91 4.57594C210.59 5.02661 210.429 5.74161 210.429 6.72094C210.429 7.70894 210.59 8.43261 210.91 8.89194C211.24 9.34261 211.76 9.56794 212.47 9.56794Z" fill="#013D5B"/>
<path d="M208.49 9.76294C207.918 10.0489 207.294 10.1919 206.618 10.1919C205.699 10.1919 204.989 9.89294 204.486 9.29494C203.992 8.69694 203.745 7.84327 203.745 6.73394C203.745 5.62461 203.992 4.77094 204.486 4.17294C204.989 3.56627 205.699 3.26294 206.618 3.26294C207.268 3.26294 207.883 3.40594 208.464 3.69194V4.30294C207.857 4.03427 207.268 3.89994 206.696 3.89994C205.994 3.89994 205.461 4.13827 205.097 4.61494C204.742 5.09161 204.564 5.79794 204.564 6.73394C204.564 7.66127 204.742 8.36327 205.097 8.83994C205.461 9.31661 205.994 9.55494 206.696 9.55494C207.285 9.55494 207.883 9.42061 208.49 9.15194V9.76294Z" fill="#013D5B"/>
<path d="M202.625 9.76294C202.053 10.0489 201.429 10.1919 200.753 10.1919C199.834 10.1919 199.124 9.89294 198.621 9.29494C198.127 8.69694 197.88 7.84327 197.88 6.73394C197.88 5.62461 198.127 4.77094 198.621 4.17294C199.124 3.56627 199.834 3.26294 200.753 3.26294C201.403 3.26294 202.018 3.40594 202.599 3.69194V4.30294C201.992 4.03427 201.403 3.89994 200.831 3.89994C200.129 3.89994 199.596 4.13827 199.232 4.61494C198.877 5.09161 198.699 5.79794 198.699 6.73394C198.699 7.66127 198.877 8.36327 199.232 8.83994C199.596 9.31661 200.129 9.55494 200.831 9.55494C201.42 9.55494 202.018 9.42061 202.625 9.15194V9.76294Z" fill="#013D5B"/>
<path d="M195.559 10.0229L195.507 9.56794C194.762 9.98394 194.025 10.1919 193.297 10.1919C192.63 10.1919 192.101 10.0186 191.711 9.67194C191.321 9.31661 191.126 8.83127 191.126 8.21594C191.126 7.56594 191.343 7.07194 191.776 6.73394C192.218 6.38727 192.864 6.21394 193.713 6.21394C194.224 6.21394 194.805 6.27461 195.455 6.39594V5.51194C195.455 4.42861 194.844 3.88694 193.622 3.88694C193.301 3.88694 192.95 3.93027 192.569 4.01694C192.188 4.10361 191.837 4.21627 191.516 4.35494V3.74394C191.828 3.59661 192.183 3.47961 192.582 3.39294C192.989 3.30627 193.375 3.26294 193.739 3.26294C194.554 3.26294 195.169 3.45794 195.585 3.84794C196.01 4.22927 196.222 4.78394 196.222 5.51194V9.95794L195.559 10.0229ZM193.479 9.56794C193.791 9.56794 194.12 9.52027 194.467 9.42494C194.814 9.32961 195.143 9.19961 195.455 9.03494V6.95494C194.909 6.85094 194.372 6.79894 193.843 6.79894C193.176 6.79894 192.69 6.91161 192.387 7.13694C192.084 7.36227 191.932 7.71761 191.932 8.20294C191.932 9.11294 192.448 9.56794 193.479 9.56794Z" fill="#013D5B"/>
<path d="M183.213 13.0259C182.442 13.0259 181.788 12.8916 181.25 12.6229L181.146 11.9599C181.857 12.2546 182.533 12.4019 183.174 12.4019C184.622 12.4019 185.345 11.7303 185.345 10.3869V9.48994C185.016 9.67194 184.678 9.81494 184.331 9.91894C183.993 10.0229 183.677 10.0749 183.382 10.0749C182.533 10.0749 181.866 9.78894 181.38 9.21694C180.895 8.64494 180.652 7.85194 180.652 6.83794C180.652 5.68527 180.925 4.80127 181.471 4.18594C182.026 3.57061 182.823 3.26294 183.863 3.26294C184.652 3.26294 185.406 3.40161 186.125 3.67894V10.3219C186.125 11.1886 185.874 11.8559 185.371 12.3239C184.869 12.7919 184.149 13.0259 183.213 13.0259ZM183.486 9.45094C183.772 9.45094 184.08 9.40327 184.409 9.30794C184.739 9.21261 185.051 9.08261 185.345 8.91794V4.09494C184.895 3.95627 184.422 3.88694 183.928 3.88694C183.096 3.88694 182.477 4.12961 182.069 4.61494C181.671 5.09161 181.471 5.82827 181.471 6.82494C181.471 7.68294 181.64 8.33727 181.978 8.78794C182.325 9.22994 182.828 9.45094 183.486 9.45094Z" fill="#013D5B"/>
<path d="M178.213 9.99694V5.48594C178.213 4.41994 177.671 3.88694 176.588 3.88694C176.302 3.88694 175.985 3.93461 175.639 4.02994C175.301 4.12527 174.967 4.25527 174.638 4.41994V9.99694H173.858V3.49694L174.521 3.43194L174.573 3.88694C175.327 3.47094 176.063 3.26294 176.783 3.26294C177.485 3.26294 178.026 3.44494 178.408 3.80894C178.798 4.17294 178.993 4.68861 178.993 5.35594V9.99694H178.213Z" fill="#013D5B"/>
<path d="M170.9 9.9969V3.5229L171.68 3.4189V9.9969H170.9ZM171.29 1.8719C171.116 1.8719 170.973 1.8199 170.861 1.7159C170.757 1.6119 170.705 1.4689 170.705 1.2869C170.705 1.1049 170.757 0.961904 170.861 0.857905C170.973 0.753904 171.116 0.701904 171.29 0.701904C171.463 0.701904 171.602 0.753904 171.706 0.857905C171.818 0.961904 171.875 1.1049 171.875 1.2869C171.875 1.4689 171.818 1.6119 171.706 1.7159C171.602 1.8199 171.463 1.8719 171.29 1.8719Z" fill="#013D5B"/>
<path d="M164.92 9.99701V0.234005L165.7 0.130005V6.35701L168.768 3.45801H169.691L166.48 6.5L169.795 9.99701H168.807L165.7 6.69501V9.99701H164.92Z" fill="#013D5B"/>
<path d="M163.244 9.76294C162.672 10.0489 162.048 10.1919 161.372 10.1919C160.453 10.1919 159.743 9.89294 159.24 9.29494C158.746 8.69694 158.499 7.84327 158.499 6.73394C158.499 5.62461 158.746 4.77094 159.24 4.17294C159.743 3.56627 160.453 3.26294 161.372 3.26294C162.022 3.26294 162.637 3.40594 163.218 3.69194V4.30294C162.611 4.03427 162.022 3.89994 161.45 3.89994C160.748 3.89994 160.215 4.13827 159.851 4.61494C159.496 5.09161 159.318 5.79794 159.318 6.73394C159.318 7.66127 159.496 8.36327 159.851 8.83994C160.215 9.31661 160.748 9.55494 161.45 9.55494C162.039 9.55494 162.637 9.42061 163.244 9.15194V9.76294Z" fill="#013D5B"/>
<path d="M156.903 9.76294C156.305 10.0489 155.664 10.1919 154.979 10.1919C153.982 10.1919 153.215 9.89727 152.678 9.30794C152.141 8.71861 151.872 7.87361 151.872 6.77294C151.872 5.68094 152.123 4.82294 152.626 4.19894C153.129 3.57494 153.818 3.26294 154.693 3.26294C155.464 3.26294 156.071 3.50561 156.513 3.99094C156.964 4.46761 157.189 5.12194 157.189 5.95394C157.189 6.26594 157.163 6.56494 157.111 6.85094H152.639C152.648 8.66227 153.449 9.56794 155.044 9.56794C155.685 9.56794 156.305 9.42927 156.903 9.15194V9.76294ZM154.68 3.87394C154.091 3.87394 153.61 4.09061 153.237 4.52394C152.864 4.95727 152.665 5.53794 152.639 6.26594H156.435C156.452 6.12727 156.461 6.00594 156.461 5.90194C156.461 5.26061 156.305 4.76227 155.993 4.40694C155.681 4.05161 155.243 3.87394 154.68 3.87394Z" fill="#013D5B"/>
<path d="M145.077 9.99701V0.234005L145.857 0.130005V3.86101C146.585 3.46234 147.3 3.26301 148.002 3.26301C148.704 3.26301 149.246 3.44501 149.627 3.80901C150.017 4.17301 150.212 4.68867 150.212 5.35601V9.99701H149.432V5.48601C149.432 4.42001 148.891 3.88701 147.807 3.88701C147.521 3.88701 147.205 3.93467 146.858 4.03001C146.52 4.12534 146.187 4.25534 145.857 4.42001V9.99701H145.077Z" fill="#013D5B"/>
<path d="M143.401 9.76294C142.829 10.0489 142.205 10.1919 141.529 10.1919C140.611 10.1919 139.9 9.89294 139.397 9.29494C138.903 8.69694 138.656 7.84327 138.656 6.73394C138.656 5.62461 138.903 4.77094 139.397 4.17294C139.9 3.56627 140.611 3.26294 141.529 3.26294C142.179 3.26294 142.795 3.40594 143.375 3.69194V4.30294C142.769 4.03427 142.179 3.89994 141.607 3.89994C140.905 3.89994 140.372 4.13827 140.008 4.61494C139.653 5.09161 139.475 5.79794 139.475 6.73394C139.475 7.66127 139.653 8.36327 140.008 8.83994C140.372 9.31661 140.905 9.55494 141.607 9.55494C142.197 9.55494 142.795 9.42061 143.401 9.15194V9.76294Z" fill="#013D5B"/>
<path d="M132.967 9.99694V5.48594C132.967 4.41994 132.425 3.88694 131.342 3.88694C131.056 3.88694 130.739 3.93461 130.393 4.02994C130.055 4.12527 129.721 4.25527 129.392 4.41994V9.99694H128.612V3.49694L129.275 3.43194L129.327 3.88694C130.081 3.47094 130.817 3.26294 131.537 3.26294C132.239 3.26294 132.78 3.44494 133.162 3.80894C133.552 4.17294 133.747 4.68861 133.747 5.35594V9.99694H132.967Z" fill="#013D5B"/>
<path d="M123.997 10.1919C123.052 10.1919 122.337 9.90161 121.852 9.32094C121.375 8.73161 121.137 7.86494 121.137 6.72094C121.137 5.58561 121.375 4.72761 121.852 4.14694C122.337 3.55761 123.052 3.26294 123.997 3.26294C124.941 3.26294 125.652 3.55761 126.129 4.14694C126.614 4.72761 126.857 5.58561 126.857 6.72094C126.857 7.86494 126.614 8.73161 126.129 9.32094C125.652 9.90161 124.941 10.1919 123.997 10.1919ZM123.997 9.56794C124.707 9.56794 125.223 9.34261 125.544 8.89194C125.873 8.43261 126.038 7.70894 126.038 6.72094C126.038 5.74161 125.873 5.02661 125.544 4.57594C125.223 4.11661 124.707 3.88694 123.997 3.88694C123.286 3.88694 122.766 4.11661 122.437 4.57594C122.116 5.02661 121.956 5.74161 121.956 6.72094C121.956 7.70894 122.116 8.43261 122.437 8.89194C122.766 9.34261 123.286 9.56794 123.997 9.56794Z" fill="#013D5B"/>
<path d="M112.083 9.13894C112.733 9.42494 113.405 9.56794 114.098 9.56794C115.268 9.56794 115.853 9.11294 115.853 8.20294C115.853 7.90827 115.766 7.66994 115.593 7.48794C115.428 7.30594 115.151 7.15427 114.761 7.03294L113.773 6.72094C113.218 6.54761 112.815 6.33094 112.564 6.07094C112.313 5.80227 112.187 5.46427 112.187 5.05694C112.187 4.51094 112.399 4.07761 112.824 3.75694C113.257 3.42761 113.838 3.26294 114.566 3.26294C115.181 3.26294 115.766 3.37994 116.321 3.61394V4.22494C115.74 3.99961 115.168 3.88694 114.605 3.88694C114.094 3.88694 113.691 3.99094 113.396 4.19894C113.11 4.39827 112.967 4.67561 112.967 5.03094C112.967 5.28227 113.045 5.48594 113.201 5.64194C113.366 5.78927 113.656 5.93227 114.072 6.07094L115.099 6.40894C115.628 6.58227 116.013 6.81194 116.256 7.09794C116.507 7.38394 116.633 7.74794 116.633 8.18994C116.633 8.83127 116.416 9.32527 115.983 9.67194C115.55 10.0186 114.939 10.1919 114.15 10.1919C113.422 10.1919 112.768 10.0576 112.187 9.78894L112.083 9.13894Z" fill="#013D5B"/>
<path d="M109.714 9.99694V5.35594C109.714 4.37661 109.25 3.88694 108.323 3.88694C107.786 3.88694 107.17 4.08194 106.477 4.47194C106.546 4.70594 106.581 4.95727 106.581 5.22594V9.99694H105.801V5.35594C105.801 4.37661 105.337 3.88694 104.41 3.88694C103.89 3.88694 103.309 4.06461 102.668 4.41994V9.99694H101.888V3.49694L102.551 3.43194L102.603 3.88694C103.34 3.47094 104.007 3.26294 104.605 3.26294C105.368 3.26294 105.918 3.51427 106.256 4.01694C107.097 3.51427 107.851 3.26294 108.518 3.26294C109.151 3.26294 109.636 3.43194 109.974 3.76994C110.321 4.10794 110.494 4.59327 110.494 5.22594V9.99694H109.714Z" fill="#013D5B"/>
<path d="M95.4042 3.45789V7.96889C95.4042 9.03489 95.9285 9.56789 96.9772 9.56789C97.2632 9.56789 97.5752 9.52022 97.9132 9.42489C98.2598 9.32955 98.5978 9.19955 98.9272 9.03489V3.45789H99.7072V9.95789L99.0442 10.0229L98.9922 9.56789C98.2382 9.98389 97.5015 10.1919 96.7822 10.1919C96.0975 10.1919 95.5645 10.0099 95.1832 9.64589C94.8105 9.27322 94.6242 8.75755 94.6242 8.09889V3.45789H95.4042Z" fill="#013D5B"/>
<path d="M91.839 9.99694V5.35594C91.839 4.37661 91.3753 3.88694 90.448 3.88694C89.9107 3.88694 89.2953 4.08194 88.602 4.47194C88.6713 4.70594 88.706 4.95727 88.706 5.22594V9.99694H87.926V5.35594C87.926 4.37661 87.4623 3.88694 86.535 3.88694C86.015 3.88694 85.4343 4.06461 84.793 4.41994V9.99694H84.013V3.49694L84.676 3.43194L84.728 3.88694C85.4647 3.47094 86.132 3.26294 86.73 3.26294C87.4927 3.26294 88.043 3.51427 88.381 4.01694C89.2217 3.51427 89.9757 3.26294 90.643 3.26294C91.2757 3.26294 91.761 3.43194 92.099 3.76994C92.4457 4.10794 92.619 4.59327 92.619 5.22594V9.99694H91.839Z" fill="#013D5B"/>
<path d="M81.055 9.9969V3.5229L81.835 3.4189V9.9969H81.055ZM81.445 1.8719C81.2717 1.8719 81.1287 1.8199 81.016 1.7159C80.912 1.6119 80.86 1.4689 80.86 1.2869C80.86 1.1049 80.912 0.961904 81.016 0.857905C81.1287 0.753904 81.2717 0.701904 81.445 0.701904C81.6183 0.701904 81.757 0.753904 81.861 0.857905C81.9737 0.961904 82.03 1.1049 82.03 1.2869C82.03 1.4689 81.9737 1.6119 81.861 1.7159C81.757 1.8199 81.6183 1.8719 81.445 1.8719Z" fill="#013D5B"/>
<path d="M78.1864 9.99694V5.48594C78.1864 4.41994 77.6447 3.88694 76.5614 3.88694C76.2754 3.88694 75.959 3.93461 75.6124 4.02994C75.2744 4.12527 74.9407 4.25527 74.6114 4.41994V9.99694H73.8314V3.49694L74.4944 3.43194L74.5464 3.88694C75.3004 3.47094 76.037 3.26294 76.7564 3.26294C77.4584 3.26294 78 3.44494 78.3814 3.80894C78.7714 4.17294 78.9664 4.68861 78.9664 5.35594V9.99694H78.1864Z" fill="#013D5B"/>
<path d="M70.8734 9.9969V3.5229L71.6534 3.4189V9.9969H70.8734ZM71.2634 1.8719C71.09 1.8719 70.947 1.8199 70.8344 1.7159C70.7304 1.6119 70.6784 1.4689 70.6784 1.2869C70.6784 1.1049 70.7304 0.961904 70.8344 0.857905C70.947 0.753904 71.09 0.701904 71.2634 0.701904C71.4367 0.701904 71.5754 0.753904 71.6794 0.857905C71.792 0.961904 71.8484 1.1049 71.8484 1.2869C71.8484 1.4689 71.792 1.6119 71.6794 1.7159C71.5754 1.8199 71.4367 1.8719 71.2634 1.8719Z" fill="#013D5B"/>
<path d="M67.9972 9.99694V5.35594C67.9972 4.37661 67.5335 3.88694 66.6062 3.88694C66.0689 3.88694 65.4535 4.08194 64.7602 4.47194C64.8295 4.70594 64.8642 4.95727 64.8642 5.22594V9.99694H64.0842V5.35594C64.0842 4.37661 63.6205 3.88694 62.6932 3.88694C62.1732 3.88694 61.5925 4.06461 60.9512 4.41994V9.99694H60.1712V3.49694L60.8342 3.43194L60.8862 3.88694C61.6229 3.47094 62.2902 3.26294 62.8882 3.26294C63.6509 3.26294 64.2012 3.51427 64.5392 4.01694C65.3799 3.51427 66.1339 3.26294 66.8012 3.26294C67.4339 3.26294 67.9192 3.43194 68.2572 3.76994C68.6039 4.10794 68.7772 4.59327 68.7772 5.22594V9.99694H67.9972Z" fill="#013D5B"/>
<path d="M52.4525 9.997V3.497L53.1155 3.432L53.1805 4.017C53.7611 3.54034 54.3808 3.302 55.0395 3.302C55.2735 3.302 55.4598 3.328 55.5985 3.38V4.017C55.3731 3.965 55.1738 3.939 55.0005 3.939C54.3851 3.939 53.7958 4.16 53.2325 4.602V9.997H52.4525Z" fill="#013D5B"/>
<path d="M47.8376 10.1919C46.8929 10.1919 46.1779 9.90161 45.6926 9.32094C45.2159 8.73161 44.9776 7.86494 44.9776 6.72094C44.9776 5.58561 45.2159 4.72761 45.6926 4.14694C46.1779 3.55761 46.8929 3.26294 47.8376 3.26294C48.7822 3.26294 49.4929 3.55761 49.9696 4.14694C50.4549 4.72761 50.6976 5.58561 50.6976 6.72094C50.6976 7.86494 50.4549 8.73161 49.9696 9.32094C49.4929 9.90161 48.7822 10.1919 47.8376 10.1919ZM47.8376 9.56794C48.5482 9.56794 49.0639 9.34261 49.3846 8.89194C49.7139 8.43261 49.8786 7.70894 49.8786 6.72094C49.8786 5.74161 49.7139 5.02661 49.3846 4.57594C49.0639 4.11661 48.5482 3.88694 47.8376 3.88694C47.1269 3.88694 46.6069 4.11661 46.2776 4.57594C45.9569 5.02661 45.7966 5.74161 45.7966 6.72094C45.7966 7.70894 45.9569 8.43261 46.2776 8.89194C46.6069 9.34261 47.1269 9.56794 47.8376 9.56794Z" fill="#013D5B"/>
<path d="M35.924 9.13894C36.574 9.42494 37.2456 9.56794 37.939 9.56794C39.109 9.56794 39.694 9.11294 39.694 8.20294C39.694 7.90827 39.6073 7.66994 39.434 7.48794C39.2693 7.30594 38.992 7.15427 38.602 7.03294L37.614 6.72094C37.0593 6.54761 36.6563 6.33094 36.405 6.07094C36.1536 5.80227 36.028 5.46427 36.028 5.05694C36.028 4.51094 36.2403 4.07761 36.665 3.75694C37.0983 3.42761 37.679 3.26294 38.407 3.26294C39.0223 3.26294 39.6073 3.37994 40.162 3.61394V4.22494C39.5813 3.99961 39.0093 3.88694 38.446 3.88694C37.9346 3.88694 37.5316 3.99094 37.237 4.19894C36.951 4.39827 36.808 4.67561 36.808 5.03094C36.808 5.28227 36.886 5.48594 37.042 5.64194C37.2066 5.78927 37.497 5.93227 37.913 6.07094L38.94 6.40894C39.4686 6.58227 39.8543 6.81194 40.097 7.09794C40.3483 7.38394 40.474 7.74794 40.474 8.18994C40.474 8.83127 40.2573 9.32527 39.824 9.67194C39.3906 10.0186 38.7796 10.1919 37.991 10.1919C37.263 10.1919 36.6086 10.0576 36.028 9.78894L35.924 9.13894Z" fill="#013D5B"/>
<path d="M34.406 9.76294C33.808 10.0489 33.1667 10.1919 32.482 10.1919C31.4854 10.1919 30.7184 9.89727 30.181 9.30794C29.6437 8.71861 29.375 7.87361 29.375 6.77294C29.375 5.68094 29.6264 4.82294 30.129 4.19894C30.6317 3.57494 31.3207 3.26294 32.196 3.26294C32.9674 3.26294 33.574 3.50561 34.016 3.99094C34.4667 4.46761 34.692 5.12194 34.692 5.95394C34.692 6.26594 34.666 6.56494 34.614 6.85094H30.142C30.1507 8.66227 30.9524 9.56794 32.547 9.56794C33.1884 9.56794 33.808 9.42927 34.406 9.15194V9.76294ZM32.183 3.87394C31.5937 3.87394 31.1127 4.09061 30.74 4.52394C30.3674 4.95727 30.168 5.53794 30.142 6.26594H33.938C33.9554 6.12727 33.964 6.00594 33.964 5.90194C33.964 5.26061 33.808 4.76227 33.496 4.40694C33.184 4.05161 32.7464 3.87394 32.183 3.87394Z" fill="#013D5B"/>
<path d="M27.7791 9.76294C27.1811 10.0489 26.5397 10.1919 25.8551 10.1919C24.8584 10.1919 24.0914 9.89727 23.5541 9.30794C23.0167 8.71861 22.7481 7.87361 22.7481 6.77294C22.7481 5.68094 22.9994 4.82294 23.5021 4.19894C24.0047 3.57494 24.6937 3.26294 25.5691 3.26294C26.3404 3.26294 26.9471 3.50561 27.3891 3.99094C27.8397 4.46761 28.0651 5.12194 28.0651 5.95394C28.0651 6.26594 28.0391 6.56494 27.9871 6.85094H23.5151C23.5237 8.66227 24.3254 9.56794 25.9201 9.56794C26.5614 9.56794 27.1811 9.42927 27.7791 9.15194V9.76294ZM25.5561 3.87394C24.9667 3.87394 24.4857 4.09061 24.1131 4.52394C23.7404 4.95727 23.5411 5.53794 23.5151 6.26594H27.3111C27.3284 6.12727 27.3371 6.00594 27.3371 5.90194C27.3371 5.26061 27.1811 4.76227 26.8691 4.40694C26.5571 4.05161 26.1194 3.87394 25.5561 3.87394Z" fill="#013D5B"/>
<path d="M19.322 9.997V4.056H18.334V3.497L19.322 3.458V1.989C19.322 1.34767 19.478 0.858 19.79 0.52C20.1106 0.173333 20.5743 0 21.181 0C21.5103 0 21.844 0.0606666 22.182 0.182V0.754C21.87 0.658667 21.571 0.611 21.285 0.611C20.8776 0.611 20.5786 0.719333 20.388 0.936C20.1973 1.144 20.102 1.47333 20.102 1.924V3.458H21.857V4.056H20.102V9.997H19.322Z" fill="#013D5B"/>
<path d="M11.2751 10.1919C10.3304 10.1919 9.6154 9.90161 9.13006 9.32094C8.6534 8.73161 8.41506 7.86494 8.41506 6.72094C8.41506 5.58561 8.6534 4.72761 9.13006 4.14694C9.6154 3.55761 10.3304 3.26294 11.2751 3.26294C12.2197 3.26294 12.9304 3.55761 13.4071 4.14694C13.8924 4.72761 14.1351 5.58561 14.1351 6.72094C14.1351 7.86494 13.8924 8.73161 13.4071 9.32094C12.9304 9.90161 12.2197 10.1919 11.2751 10.1919ZM11.2751 9.56794C11.9857 9.56794 12.5014 9.34261 12.8221 8.89194C13.1514 8.43261 13.3161 7.70894 13.3161 6.72094C13.3161 5.74161 13.1514 5.02661 12.8221 4.57594C12.5014 4.11661 11.9857 3.88694 11.2751 3.88694C10.5644 3.88694 10.0444 4.11661 9.71506 4.57594C9.3944 5.02661 9.23406 5.74161 9.23406 6.72094C9.23406 7.70894 9.3944 8.43261 9.71506 8.89194C10.0444 9.34261 10.5644 9.56794 11.2751 9.56794Z" fill="#013D5B"/>
<path d="M5.668 0.896973H6.461V9.99697H5.681L0.793 2.24897V9.99697H0V0.896973H0.78L5.668 8.64497V0.896973Z" fill="#013D5B"/>
</svg>
