<svg width="322" height="21" viewBox="0 0 322 21" fill="none" xmlns="http://www.w3.org/2000/svg">
<path d="M313.267 16.149V0.378002L314.527 0.209999V10.269L319.483 5.586H320.974L315.787 10.5L321.142 16.149H319.546L314.527 10.815V16.149H313.267Z" fill="#013D5B"/>
<path d="M309.996 15.771C309.03 16.233 307.994 16.464 306.888 16.464C305.278 16.464 304.039 15.988 303.171 15.036C302.303 14.084 301.869 12.719 301.869 10.941C301.869 9.177 302.275 7.791 303.087 6.783C303.899 5.775 305.012 5.271 306.426 5.271C307.672 5.271 308.652 5.663 309.366 6.447C310.094 7.217 310.458 8.274 310.458 9.618C310.458 10.122 310.416 10.605 310.332 11.067H303.108C303.122 13.993 304.417 15.456 306.993 15.456C308.029 15.456 309.03 15.232 309.996 14.784V15.771ZM306.405 6.258C305.453 6.258 304.676 6.608 304.074 7.308C303.472 8.008 303.15 8.946 303.108 10.122H309.24C309.268 9.898 309.282 9.702 309.282 9.534C309.282 8.498 309.03 7.693 308.526 7.119C308.022 6.545 307.315 6.258 306.405 6.258Z" fill="#013D5B"/>
<path d="M299.291 15.771C298.325 16.233 297.289 16.464 296.183 16.464C294.573 16.464 293.334 15.988 292.466 15.036C291.598 14.084 291.164 12.719 291.164 10.941C291.164 9.177 291.57 7.791 292.382 6.783C293.194 5.775 294.307 5.271 295.721 5.271C296.967 5.271 297.947 5.663 298.661 6.447C299.389 7.217 299.753 8.274 299.753 9.618C299.753 10.122 299.711 10.605 299.627 11.067H292.403C292.417 13.993 293.712 15.456 296.288 15.456C297.324 15.456 298.325 15.232 299.291 14.784V15.771ZM295.7 6.258C294.748 6.258 293.971 6.608 293.369 7.308C292.767 8.008 292.445 8.946 292.403 10.122H298.535C298.563 9.898 298.577 9.702 298.577 9.534C298.577 8.498 298.325 7.693 297.821 7.119C297.317 6.545 296.61 6.258 295.7 6.258Z" fill="#013D5B"/>
<path d="M285.414 16.149L282.579 6.993L279.828 16.149H278.631L275.271 5.586H276.552L279.24 14.595L281.886 5.586H283.293L285.981 14.658L288.648 5.586H289.866L286.611 16.149H285.414Z" fill="#013D5B"/>
<path d="M267.112 16.191L267.028 15.456C265.824 16.128 264.634 16.464 263.458 16.464C262.38 16.464 261.526 16.184 260.896 15.624C260.266 15.05 259.951 14.266 259.951 13.272C259.951 12.222 260.301 11.424 261.001 10.878C261.715 10.318 262.758 10.038 264.13 10.038C264.956 10.038 265.894 10.136 266.944 10.332V8.904C266.944 7.154 265.957 6.279 263.983 6.279C263.465 6.279 262.898 6.349 262.282 6.489C261.666 6.629 261.099 6.811 260.581 7.035V6.048C261.085 5.81 261.659 5.621 262.303 5.481C262.961 5.341 263.584 5.271 264.172 5.271C265.488 5.271 266.482 5.586 267.154 6.216C267.84 6.832 268.183 7.728 268.183 8.904V16.086L267.112 16.191ZM263.752 15.456C264.256 15.456 264.788 15.379 265.348 15.225C265.908 15.071 266.44 14.861 266.944 14.595V11.235C266.062 11.067 265.194 10.983 264.34 10.983C263.262 10.983 262.478 11.165 261.988 11.529C261.498 11.893 261.253 12.467 261.253 13.251C261.253 14.721 262.086 15.456 263.752 15.456Z" fill="#013D5B"/>
<path d="M245.326 14.763C246.376 15.225 247.461 15.456 248.581 15.456C250.471 15.456 251.416 14.721 251.416 13.251C251.416 12.775 251.276 12.39 250.996 12.096C250.73 11.802 250.282 11.557 249.652 11.361L248.056 10.857C247.16 10.577 246.509 10.227 246.103 9.807C245.697 9.373 245.494 8.827 245.494 8.169C245.494 7.287 245.837 6.587 246.523 6.069C247.223 5.537 248.161 5.271 249.337 5.271C250.331 5.271 251.276 5.46 252.172 5.838V6.825C251.234 6.461 250.31 6.279 249.4 6.279C248.574 6.279 247.923 6.447 247.447 6.783C246.985 7.105 246.754 7.553 246.754 8.127C246.754 8.533 246.88 8.862 247.132 9.114C247.398 9.352 247.867 9.583 248.539 9.807L250.198 10.353C251.052 10.633 251.675 11.004 252.067 11.466C252.473 11.928 252.676 12.516 252.676 13.23C252.676 14.266 252.326 15.064 251.626 15.624C250.926 16.184 249.939 16.464 248.665 16.464C247.489 16.464 246.432 16.247 245.494 15.813L245.326 14.763Z" fill="#013D5B"/>
<path d="M235.078 19.782C236.072 19.6 236.849 19.25 237.409 18.732C237.969 18.214 238.487 17.388 238.963 16.254L234.931 5.586H236.254L239.551 14.847L242.953 5.586H244.213L240.181 16.044C239.803 17.052 239.404 17.871 238.984 18.501C238.578 19.145 238.095 19.649 237.535 20.013C236.975 20.391 236.247 20.678 235.351 20.874L235.078 19.782Z" fill="#013D5B"/>
<path d="M232.084 16.191L232 15.456C230.796 16.128 229.606 16.464 228.43 16.464C227.352 16.464 226.498 16.184 225.868 15.624C225.238 15.05 224.923 14.266 224.923 13.272C224.923 12.222 225.273 11.424 225.973 10.878C226.687 10.318 227.73 10.038 229.102 10.038C229.928 10.038 230.866 10.136 231.916 10.332V8.904C231.916 7.154 230.929 6.279 228.955 6.279C228.437 6.279 227.87 6.349 227.254 6.489C226.638 6.629 226.071 6.811 225.553 7.035V6.048C226.057 5.81 226.631 5.621 227.275 5.481C227.933 5.341 228.556 5.271 229.144 5.271C230.46 5.271 231.454 5.586 232.126 6.216C232.812 6.832 233.155 7.728 233.155 8.904V16.086L232.084 16.191ZM228.724 15.456C229.228 15.456 229.76 15.379 230.32 15.225C230.88 15.071 231.412 14.861 231.916 14.595V11.235C231.034 11.067 230.166 10.983 229.312 10.983C228.234 10.983 227.45 11.165 226.96 11.529C226.47 11.893 226.225 12.467 226.225 13.251C226.225 14.721 227.058 15.456 228.724 15.456Z" fill="#013D5B"/>
<path d="M222.095 0.209999V16.086L221.024 16.191L220.94 15.456C219.75 16.128 218.658 16.464 217.664 16.464C216.292 16.464 215.214 15.988 214.43 15.036C213.646 14.07 213.254 12.74 213.254 11.046C213.254 9.184 213.695 7.756 214.577 6.762C215.473 5.768 216.761 5.271 218.441 5.271C219.309 5.271 220.107 5.383 220.835 5.607V0.378002L222.095 0.209999ZM217.832 15.456C218.294 15.456 218.791 15.379 219.323 15.225C219.855 15.071 220.359 14.861 220.835 14.595V6.615C220.107 6.391 219.344 6.279 218.546 6.279C217.202 6.279 216.201 6.671 215.543 7.455C214.899 8.225 214.577 9.415 214.577 11.025C214.577 12.467 214.85 13.566 215.396 14.322C215.956 15.078 216.768 15.456 217.832 15.456Z" fill="#013D5B"/>
<path d="M204.064 16.149V8.862C204.064 7.14 203.189 6.279 201.439 6.279C200.977 6.279 200.466 6.356 199.906 6.51C199.36 6.664 198.821 6.874 198.289 7.14V16.149H197.029V5.649L198.1 5.544L198.184 6.279C199.402 5.607 200.592 5.271 201.754 5.271C202.888 5.271 203.763 5.565 204.379 6.153C205.009 6.741 205.324 7.574 205.324 8.652V16.149H204.064Z" fill="#013D5B"/>
<path d="M193.757 15.771C192.791 16.233 191.755 16.464 190.649 16.464C189.039 16.464 187.8 15.988 186.932 15.036C186.064 14.084 185.63 12.719 185.63 10.941C185.63 9.177 186.036 7.791 186.848 6.783C187.66 5.775 188.773 5.271 190.187 5.271C191.433 5.271 192.413 5.663 193.127 6.447C193.855 7.217 194.219 8.274 194.219 9.618C194.219 10.122 194.177 10.605 194.093 11.067H186.869C186.883 13.993 188.178 15.456 190.754 15.456C191.79 15.456 192.791 15.232 193.757 14.784V15.771ZM190.166 6.258C189.214 6.258 188.437 6.608 187.835 7.308C187.233 8.008 186.911 8.946 186.869 10.122H193.001C193.029 9.898 193.043 9.702 193.043 9.534C193.043 8.498 192.791 7.693 192.287 7.119C191.783 6.545 191.076 6.258 190.166 6.258Z" fill="#013D5B"/>
<path d="M179.304 16.149L175.314 5.586H176.637L179.934 14.805L183.336 5.586H184.596L180.522 16.149H179.304Z" fill="#013D5B"/>
<path d="M173.639 15.771C172.673 16.233 171.637 16.464 170.531 16.464C168.921 16.464 167.682 15.988 166.814 15.036C165.946 14.084 165.512 12.719 165.512 10.941C165.512 9.177 165.918 7.791 166.73 6.783C167.542 5.775 168.655 5.271 170.069 5.271C171.315 5.271 172.295 5.663 173.009 6.447C173.737 7.217 174.101 8.274 174.101 9.618C174.101 10.122 174.059 10.605 173.975 11.067H166.751C166.765 13.993 168.06 15.456 170.636 15.456C171.672 15.456 172.673 15.232 173.639 14.784V15.771ZM170.048 6.258C169.096 6.258 168.319 6.608 167.717 7.308C167.115 8.008 166.793 8.946 166.751 10.122H172.883C172.911 9.898 172.925 9.702 172.925 9.534C172.925 8.498 172.673 7.693 172.169 7.119C171.665 6.545 170.958 6.258 170.048 6.258Z" fill="#013D5B"/>
<path d="M156.137 14.763C157.187 15.225 158.272 15.456 159.392 15.456C161.282 15.456 162.227 14.721 162.227 13.251C162.227 12.775 162.087 12.39 161.807 12.096C161.541 11.802 161.093 11.557 160.463 11.361L158.867 10.857C157.971 10.577 157.32 10.227 156.914 9.807C156.508 9.373 156.305 8.827 156.305 8.169C156.305 7.287 156.648 6.587 157.334 6.069C158.034 5.537 158.972 5.271 160.148 5.271C161.142 5.271 162.087 5.46 162.983 5.838V6.825C162.045 6.461 161.121 6.279 160.211 6.279C159.385 6.279 158.734 6.447 158.258 6.783C157.796 7.105 157.565 7.553 157.565 8.127C157.565 8.533 157.691 8.862 157.943 9.114C158.209 9.352 158.678 9.583 159.35 9.807L161.009 10.353C161.863 10.633 162.486 11.004 162.878 11.466C163.284 11.928 163.487 12.516 163.487 13.23C163.487 14.266 163.137 15.064 162.437 15.624C161.737 16.184 160.75 16.464 159.476 16.464C158.3 16.464 157.243 16.247 156.305 15.813L156.137 14.763Z" fill="#013D5B"/>
<path d="M144.488 16.149V5.649L145.559 5.544L145.664 6.489C146.602 5.719 147.603 5.334 148.667 5.334C149.045 5.334 149.346 5.376 149.57 5.46V6.489C149.206 6.405 148.884 6.363 148.604 6.363C147.61 6.363 146.658 6.72 145.748 7.434V16.149H144.488Z" fill="#013D5B"/>
<path d="M141.216 15.771C140.25 16.233 139.214 16.464 138.108 16.464C136.498 16.464 135.259 15.988 134.391 15.036C133.523 14.084 133.089 12.719 133.089 10.941C133.089 9.177 133.495 7.791 134.307 6.783C135.119 5.775 136.232 5.271 137.646 5.271C138.892 5.271 139.872 5.663 140.586 6.447C141.314 7.217 141.678 8.274 141.678 9.618C141.678 10.122 141.636 10.605 141.552 11.067H134.328C134.342 13.993 135.637 15.456 138.213 15.456C139.249 15.456 140.25 15.232 141.216 14.784V15.771ZM137.625 6.258C136.673 6.258 135.896 6.608 135.294 7.308C134.692 8.008 134.37 8.946 134.328 10.122H140.46C140.488 9.898 140.502 9.702 140.502 9.534C140.502 8.498 140.25 7.693 139.746 7.119C139.242 6.545 138.535 6.258 137.625 6.258Z" fill="#013D5B"/>
<path d="M130.511 15.771C129.545 16.233 128.509 16.464 127.403 16.464C125.793 16.464 124.554 15.988 123.686 15.036C122.818 14.084 122.384 12.719 122.384 10.941C122.384 9.177 122.79 7.791 123.602 6.783C124.414 5.775 125.527 5.271 126.941 5.271C128.187 5.271 129.167 5.663 129.881 6.447C130.609 7.217 130.973 8.274 130.973 9.618C130.973 10.122 130.931 10.605 130.847 11.067H123.623C123.637 13.993 124.932 15.456 127.508 15.456C128.544 15.456 129.545 15.232 130.511 14.784V15.771ZM126.92 6.258C125.968 6.258 125.191 6.608 124.589 7.308C123.987 8.008 123.665 8.946 123.623 10.122H129.755C129.783 9.898 129.797 9.702 129.797 9.534C129.797 8.498 129.545 7.693 129.041 7.119C128.537 6.545 127.83 6.258 126.92 6.258Z" fill="#013D5B"/>
<path d="M111.408 16.149V0.378002L112.668 0.209999V6.237C113.844 5.593 114.999 5.271 116.133 5.271C117.267 5.271 118.142 5.565 118.758 6.153C119.388 6.741 119.703 7.574 119.703 8.652V16.149H118.443V8.862C118.443 7.14 117.568 6.279 115.818 6.279C115.356 6.279 114.845 6.356 114.285 6.51C113.739 6.664 113.2 6.874 112.668 7.14V16.149H111.408Z" fill="#013D5B"/>
<path d="M108.701 15.771C107.777 16.233 106.769 16.464 105.677 16.464C104.193 16.464 103.045 15.981 102.233 15.015C101.435 14.049 101.036 12.67 101.036 10.878C101.036 9.086 101.435 7.707 102.233 6.741C103.045 5.761 104.193 5.271 105.677 5.271C106.727 5.271 107.721 5.502 108.659 5.964V6.951C107.679 6.517 106.727 6.3 105.803 6.3C104.669 6.3 103.808 6.685 103.22 7.455C102.646 8.225 102.359 9.366 102.359 10.878C102.359 12.376 102.646 13.51 103.22 14.28C103.808 15.05 104.669 15.435 105.803 15.435C106.755 15.435 107.721 15.218 108.701 14.784V15.771Z" fill="#013D5B"/>
<path d="M85.4116 19.782C86.4056 19.6 87.1826 19.25 87.7426 18.732C88.3026 18.214 88.8206 17.388 89.2966 16.254L85.2646 5.586H86.5876L89.8846 14.847L93.2866 5.586H94.5466L90.5146 16.044C90.1366 17.052 89.7376 17.871 89.3176 18.501C88.9116 19.145 88.4286 19.649 87.8686 20.013C87.3086 20.391 86.5806 20.678 85.6846 20.874L85.4116 19.782Z" fill="#013D5B"/>
<path d="M82.4184 16.191L82.3344 15.456C81.1304 16.128 79.9404 16.464 78.7644 16.464C77.6864 16.464 76.8324 16.184 76.2024 15.624C75.5724 15.05 75.2574 14.266 75.2574 13.272C75.2574 12.222 75.6074 11.424 76.3074 10.878C77.0214 10.318 78.0644 10.038 79.4364 10.038C80.2624 10.038 81.2004 10.136 82.2504 10.332V8.904C82.2504 7.154 81.2634 6.279 79.2894 6.279C78.7714 6.279 78.2044 6.349 77.5884 6.489C76.9724 6.629 76.4054 6.811 75.8874 7.035V6.048C76.3914 5.81 76.9654 5.621 77.6094 5.481C78.2674 5.341 78.8904 5.271 79.4784 5.271C80.7944 5.271 81.7884 5.586 82.4604 6.216C83.1464 6.832 83.4894 7.728 83.4894 8.904V16.086L82.4184 16.191ZM79.0584 15.456C79.5624 15.456 80.0944 15.379 80.6544 15.225C81.2144 15.071 81.7464 14.861 82.2504 14.595V11.235C81.3684 11.067 80.5004 10.983 79.6464 10.983C78.5684 10.983 77.7844 11.165 77.2944 11.529C76.8044 11.893 76.5594 12.467 76.5594 13.251C76.5594 14.721 77.3924 15.456 79.0584 15.456Z" fill="#013D5B"/>
<path d="M72.4295 0.209999V16.086L71.3585 16.191L71.2745 15.456C70.0845 16.128 68.9925 16.464 67.9985 16.464C66.6265 16.464 65.5485 15.988 64.7645 15.036C63.9805 14.07 63.5885 12.74 63.5885 11.046C63.5885 9.184 64.0295 7.756 64.9115 6.762C65.8075 5.768 67.0955 5.271 68.7755 5.271C69.6435 5.271 70.4415 5.383 71.1695 5.607V0.378002L72.4295 0.209999ZM68.1665 15.456C68.6285 15.456 69.1255 15.379 69.6575 15.225C70.1895 15.071 70.6935 14.861 71.1695 14.595V6.615C70.4415 6.391 69.6785 6.279 68.8805 6.279C67.5365 6.279 66.5355 6.671 65.8775 7.455C65.2335 8.225 64.9115 9.415 64.9115 11.025C64.9115 12.467 65.1845 13.566 65.7305 14.322C66.2905 15.078 67.1025 15.456 68.1665 15.456Z" fill="#013D5B"/>
<path d="M59.5032 16.149V5.691L60.7632 5.523V16.149H59.5032ZM60.1332 3.024C59.8532 3.024 59.6222 2.94 59.4402 2.772C59.2722 2.604 59.1882 2.373 59.1882 2.079C59.1882 1.785 59.2722 1.554 59.4402 1.386C59.6222 1.218 59.8532 1.134 60.1332 1.134C60.4132 1.134 60.6372 1.218 60.8052 1.386C60.9872 1.554 61.0782 1.785 61.0782 2.079C61.0782 2.373 60.9872 2.604 60.8052 2.772C60.6372 2.94 60.4132 3.024 60.1332 3.024Z" fill="#013D5B"/>
<path d="M54.7249 16.149V0.378002L55.9849 0.209999V16.149H54.7249Z" fill="#013D5B"/>
<path d="M47.27 16.464C45.744 16.464 44.589 15.995 43.805 15.057C43.035 14.105 42.65 12.705 42.65 10.857C42.65 9.023 43.035 7.637 43.805 6.699C44.589 5.747 45.744 5.271 47.27 5.271C48.796 5.271 49.944 5.747 50.714 6.699C51.498 7.637 51.89 9.023 51.89 10.857C51.89 12.705 51.498 14.105 50.714 15.057C49.944 15.995 48.796 16.464 47.27 16.464ZM47.27 15.456C48.418 15.456 49.251 15.092 49.769 14.364C50.301 13.622 50.567 12.453 50.567 10.857C50.567 9.275 50.301 8.12 49.769 7.392C49.251 6.65 48.418 6.279 47.27 6.279C46.122 6.279 45.282 6.65 44.75 7.392C44.232 8.12 43.973 9.275 43.973 10.857C43.973 12.453 44.232 13.622 44.75 14.364C45.282 15.092 46.122 15.456 47.27 15.456Z" fill="#013D5B"/>
<path d="M31.6741 16.149V0.378002L32.9341 0.209999V6.237C34.1101 5.593 35.2651 5.271 36.3991 5.271C37.5331 5.271 38.4081 5.565 39.0241 6.153C39.6541 6.741 39.9691 7.574 39.9691 8.652V16.149H38.7091V8.862C38.7091 7.14 37.8341 6.279 36.0841 6.279C35.6221 6.279 35.1111 6.356 34.5511 6.51C34.0051 6.664 33.4661 6.874 32.9341 7.14V16.149H31.6741Z" fill="#013D5B"/>
<path d="M19.2053 16.149V5.649L20.2763 5.544L20.3813 6.489C21.3193 5.719 22.3203 5.334 23.3843 5.334C23.7623 5.334 24.0633 5.376 24.2873 5.46V6.489C23.9233 6.405 23.6013 6.363 23.3213 6.363C22.3273 6.363 21.3753 6.72 20.4653 7.434V16.149H19.2053Z" fill="#013D5B"/>
<path d="M11.7505 16.464C10.2245 16.464 9.06948 15.995 8.28548 15.057C7.51548 14.105 7.13048 12.705 7.13048 10.857C7.13048 9.023 7.51548 7.637 8.28548 6.699C9.06948 5.747 10.2245 5.271 11.7505 5.271C13.2765 5.271 14.4245 5.747 15.1945 6.699C15.9785 7.637 16.3705 9.023 16.3705 10.857C16.3705 12.705 15.9785 14.105 15.1945 15.057C14.4245 15.995 13.2765 16.464 11.7505 16.464ZM11.7505 15.456C12.8985 15.456 13.7315 15.092 14.2495 14.364C14.7815 13.622 15.0475 12.453 15.0475 10.857C15.0475 9.275 14.7815 8.12 14.2495 7.392C13.7315 6.65 12.8985 6.279 11.7505 6.279C10.6025 6.279 9.76248 6.65 9.23048 7.392C8.71248 8.12 8.45348 9.275 8.45348 10.857C8.45348 12.453 8.71248 13.622 9.23048 14.364C9.76248 15.092 10.6025 15.456 11.7505 15.456Z" fill="#013D5B"/>
<path d="M1.596 16.149V6.552H0V5.649L1.596 5.586V3.213C1.596 2.177 1.848 1.386 2.352 0.84C2.87 0.28 3.619 0 4.599 0C5.131 0 5.67 0.0980026 6.216 0.294003V1.218C5.712 1.064 5.229 0.987 4.767 0.987C4.109 0.987 3.626 1.162 3.318 1.512C3.01 1.848 2.856 2.38 2.856 3.108V5.586H5.691V6.552H2.856V16.149H1.596Z" fill="#013D5B"/>
</svg>
