<svg width="78" height="15" viewBox="0 0 78 15" fill="none" xmlns="http://www.w3.org/2000/svg">
<path d="M71.4374 11.385V0.120003L72.3374 0V7.185L75.8774 3.84H76.9424L73.2374 7.35L77.0624 11.385H75.9224L72.3374 7.575V11.385H71.4374Z" fill="#013D5B"/>
<path d="M69.1009 11.115C68.4109 11.445 67.6709 11.61 66.8809 11.61C65.7309 11.61 64.8459 11.27 64.2259 10.59C63.6059 9.90999 63.2959 8.93499 63.2959 7.66499C63.2959 6.40499 63.5859 5.41499 64.1659 4.69499C64.7459 3.97499 65.5409 3.61499 66.5509 3.61499C67.4409 3.61499 68.1409 3.89499 68.6509 4.45499C69.1709 5.00499 69.4309 5.75999 69.4309 6.71999C69.4309 7.07999 69.4009 7.42499 69.3409 7.75499H64.1809C64.1909 9.84499 65.1159 10.89 66.9559 10.89C67.6959 10.89 68.4109 10.73 69.1009 10.41V11.115ZM66.5359 4.31999C65.8559 4.31999 65.3009 4.56999 64.8709 5.06999C64.4409 5.56999 64.2109 6.23999 64.1809 7.07999H68.5609C68.5809 6.91999 68.5909 6.77999 68.5909 6.65999C68.5909 5.91999 68.4109 5.34499 68.0509 4.93499C67.6909 4.52499 67.1859 4.31999 66.5359 4.31999Z" fill="#013D5B"/>
<path d="M61.4544 11.115C60.7644 11.445 60.0244 11.61 59.2344 11.61C58.0844 11.61 57.1994 11.27 56.5794 10.59C55.9594 9.90999 55.6494 8.93499 55.6494 7.66499C55.6494 6.40499 55.9394 5.41499 56.5194 4.69499C57.0994 3.97499 57.8944 3.61499 58.9044 3.61499C59.7944 3.61499 60.4944 3.89499 61.0044 4.45499C61.5244 5.00499 61.7844 5.75999 61.7844 6.71999C61.7844 7.07999 61.7544 7.42499 61.6944 7.75499H56.5344C56.5444 9.84499 57.4694 10.89 59.3094 10.89C60.0494 10.89 60.7644 10.73 61.4544 10.41V11.115ZM58.8894 4.31999C58.2094 4.31999 57.6544 4.56999 57.2244 5.06999C56.7944 5.56999 56.5644 6.23999 56.5344 7.07999H60.9144C60.9344 6.91999 60.9444 6.77999 60.9444 6.65999C60.9444 5.91999 60.7644 5.34499 60.4044 4.93499C60.0444 4.52499 59.5394 4.31999 58.8894 4.31999Z" fill="#013D5B"/>
<path d="M51.5425 11.385L49.5175 4.84503L47.5525 11.385H46.6975L44.2975 3.84003H45.2125L47.1325 10.275L49.0225 3.84003H50.0275L51.9475 10.32L53.8525 3.84003H54.7225L52.3975 11.385H51.5425Z" fill="#013D5B"/>
<path d="M38.4695 11.415L38.4095 10.89C37.5495 11.37 36.6995 11.61 35.8595 11.61C35.0895 11.61 34.4795 11.41 34.0295 11.01C33.5795 10.6 33.3545 10.04 33.3545 9.32999C33.3545 8.57999 33.6045 8.00999 34.1045 7.61999C34.6145 7.21999 35.3595 7.01999 36.3395 7.01999C36.9295 7.01999 37.5995 7.08999 38.3495 7.22999V6.20999C38.3495 4.95999 37.6445 4.33499 36.2345 4.33499C35.8645 4.33499 35.4595 4.38499 35.0195 4.48499C34.5795 4.58499 34.1745 4.71499 33.8045 4.87499V4.16999C34.1645 3.99999 34.5745 3.86499 35.0345 3.76499C35.5045 3.66499 35.9495 3.61499 36.3695 3.61499C37.3095 3.61499 38.0195 3.83999 38.4995 4.28999C38.9895 4.72999 39.2345 5.36999 39.2345 6.20999V11.34L38.4695 11.415ZM36.0695 10.89C36.4295 10.89 36.8095 10.835 37.2095 10.725C37.6095 10.615 37.9895 10.465 38.3495 10.275V7.87499C37.7195 7.75499 37.0995 7.69499 36.4895 7.69499C35.7195 7.69499 35.1595 7.82499 34.8095 8.08499C34.4595 8.34499 34.2845 8.75499 34.2845 9.31499C34.2845 10.365 34.8795 10.89 36.0695 10.89Z" fill="#013D5B"/>
<path d="M22.908 10.395C23.658 10.725 24.433 10.89 25.233 10.89C26.583 10.89 27.258 10.365 27.258 9.31499C27.258 8.97499 27.158 8.69999 26.958 8.48999C26.768 8.27999 26.448 8.10499 25.998 7.96499L24.858 7.60499C24.218 7.40499 23.753 7.15499 23.463 6.85499C23.173 6.54499 23.028 6.15499 23.028 5.68499C23.028 5.05499 23.273 4.55499 23.763 4.18499C24.263 3.80499 24.933 3.61499 25.773 3.61499C26.483 3.61499 27.158 3.74999 27.798 4.01999V4.72499C27.128 4.46499 26.468 4.33499 25.818 4.33499C25.228 4.33499 24.763 4.45499 24.423 4.69499C24.093 4.92499 23.928 5.24499 23.928 5.65499C23.928 5.94499 24.018 6.17999 24.198 6.35999C24.388 6.52999 24.723 6.69499 25.203 6.85499L26.388 7.24499C26.998 7.44499 27.443 7.70999 27.723 8.03999C28.013 8.36999 28.158 8.78999 28.158 9.29999C28.158 10.04 27.908 10.61 27.408 11.01C26.908 11.41 26.203 11.61 25.293 11.61C24.453 11.61 23.698 11.455 23.028 11.145L22.908 10.395Z" fill="#013D5B"/>
<path d="M15.5879 13.98C16.2979 13.85 16.8529 13.6 17.2529 13.23C17.6529 12.86 18.0229 12.27 18.3629 11.46L15.4829 3.84003H16.4279L18.7829 10.455L21.2129 3.84003H22.1129L19.2329 11.31C18.9629 12.03 18.6779 12.615 18.3779 13.065C18.0879 13.525 17.7429 13.885 17.3429 14.145C16.9429 14.415 16.4229 14.62 15.7829 14.76L15.5879 13.98Z" fill="#013D5B"/>
<path d="M13.45 11.415L13.39 10.89C12.53 11.37 11.68 11.61 10.84 11.61C10.07 11.61 9.45996 11.41 9.00996 11.01C8.55996 10.6 8.33496 10.04 8.33496 9.32999C8.33496 8.57999 8.58496 8.00999 9.08496 7.61999C9.59496 7.21999 10.34 7.01999 11.32 7.01999C11.91 7.01999 12.58 7.08999 13.33 7.22999V6.20999C13.33 4.95999 12.625 4.33499 11.215 4.33499C10.845 4.33499 10.44 4.38499 9.99996 4.48499C9.55996 4.58499 9.15496 4.71499 8.78496 4.87499V4.16999C9.14496 3.99999 9.55496 3.86499 10.015 3.76499C10.485 3.66499 10.93 3.61499 11.35 3.61499C12.29 3.61499 13 3.83999 13.48 4.28999C13.97 4.72999 14.215 5.36999 14.215 6.20999V11.34L13.45 11.415ZM11.05 10.89C11.41 10.89 11.79 10.835 12.19 10.725C12.59 10.615 12.97 10.465 13.33 10.275V7.87499C12.7 7.75499 12.08 7.69499 11.47 7.69499C10.7 7.69499 10.14 7.82499 9.78996 8.08499C9.43996 8.34499 9.26496 8.75499 9.26496 9.31499C9.26496 10.365 9.85996 10.89 11.05 10.89Z" fill="#013D5B"/>
<path d="M6.315 0V11.34L5.55 11.415L5.49 10.89C4.64 11.37 3.86 11.61 3.15 11.61C2.17 11.61 1.4 11.27 0.84 10.59C0.28 9.9 0 8.95 0 7.74C0 6.41 0.315 5.39 0.945 4.68C1.585 3.97 2.505 3.615 3.705 3.615C4.325 3.615 4.895 3.695 5.415 3.855V0.120003L6.315 0ZM3.27 10.89C3.6 10.89 3.955 10.835 4.335 10.725C4.715 10.615 5.075 10.465 5.415 10.275V4.575C4.895 4.415 4.35 4.335 3.78 4.335C2.82 4.335 2.105 4.615 1.635 5.175C1.175 5.725 0.945 6.575 0.945 7.725C0.945 8.755 1.14 9.54 1.53 10.08C1.93 10.62 2.51 10.89 3.27 10.89Z" fill="#013D5B"/>
</svg>
